<svg xmlns="http://www.w3.org/2000/svg" viewBox="0 0 253.51 302.11"><defs><style>.cls-1{fill:#f0f0ed;}.cls-2{fill:#4f4b4a;}.cls-3{fill:#f50e12;}.cls-4{fill:#070606;}.cls-5{fill:#9d958d;}.cls-6{fill:none;stroke:#f50e12;stroke-miterlimit:10;stroke-width:0.7px;}.cls-7{fill:#f1320a;}.cls-8{fill:#cdecda;opacity:0.88;}.cls-9{fill:#d50000;}.cls-10{fill:#d1d1d4;}</style></defs><title>ambulancia</title><g id="Layer_2" data-name="Layer 2"><g id="Layer_1-2" data-name="Layer 1"><g id="ambulancia"><path class="cls-1" d="M220.39,265.83l-42.47,32.74A8.45,8.45,0,0,1,166.1,297L4.38,87.24A8.45,8.45,0,0,1,5.91,75.42L92.33,8.81l142.8,185.26A79.29,79.29,0,0,1,228,204.71c-2,2.62-4.11,5.12-6,7.53-6.24,8-6.09,17-4.36,25.54C220.2,250.22,226.15,261.39,220.39,265.83Z"/><path class="cls-2" d="M188.5,290.42l-12.8,9.86a8.23,8.23,0,0,1-11.54-1.15L140.71,268.7l19.47-15Z"/><path class="cls-2" d="M47.24,108.32l-19.47,15L2,89.88c-3-3.95-2.52-9.49,1.15-12.32l12.8-9.87Z"/><path class="cls-3" d="M159,254.62l-18.18,14a.82.82,0,0,1-1.15-.15L9.25,99.31a3.39,3.39,0,0,1,.62-4.76l7.42-5.72a3.39,3.39,0,0,1,4.76.61h0a.82.82,0,0,0,1.15.15l5.38-4.14a.82.82,0,0,1,1.15.14l129.4,167.88A.83.83,0,0,1,159,254.62Z"/><circle class="cls-4" cx="28.94" cy="121.98" r="23.54"/><circle class="cls-5" cx="28.94" cy="121.98" r="15.11"/><path class="cls-3" d="M234.91,196.09,91.21,9.67l10.87-8.38c3.12-2.4,8-1.35,10.85,2.35L229.47,154.83C242.56,171.81,240.81,185.06,234.91,196.09Z"/><circle class="cls-4" cx="141.76" cy="268.34" r="23.54"/><circle class="cls-5" cx="141.76" cy="268.34" r="15.11"/><rect class="cls-3" x="136.17" y="138.87" width="4.64" height="26.79" rx="2.32" ry="2.32" transform="translate(174.54 -50.38) rotate(52.37)"/><rect class="cls-3" x="136.17" y="137.83" width="4.64" height="28.87" rx="2.32" ry="2.32" transform="translate(-18.98 19.72) rotate(-7.63)"/><rect class="cls-3" x="136.17" y="137.83" width="4.64" height="28.87" rx="2.32" ry="2.32" transform="translate(-55.03 222.37) rotate(-67.63)"/><path class="cls-3" d="M159.59,136a26.63,26.63,0,1,0-4.83,37.35A26.64,26.64,0,0,0,159.59,136Zm-37.3,28.75a20.46,20.46,0,1,1,28.7,3.71A20.46,20.46,0,0,1,122.29,164.76Z"/><circle class="cls-6" cx="138.5" cy="152.27" r="20.46" transform="translate(-55.76 84.22) rotate(-28.41)"/><path class="cls-3" d="M68.74,55.89l5.92,7.68-27,20.79-3.93-5.1L65.91,62.19l-4.28-5.56Z"/><path class="cls-3" d="M60.35,102.19l-1.19-6L72,93.81a10,10,0,0,1-2-7.74A10.56,10.56,0,0,1,74.18,79a10.68,10.68,0,0,1,17.06,10,10.35,10.35,0,0,1-4,6.93,11.12,11.12,0,0,1-2.79,1.55,32.91,32.91,0,0,1-5.21,1.25ZM77.06,90.34A4,4,0,0,0,80,91.94a4.95,4.95,0,0,0,5.18-4.07,4.08,4.08,0,0,0-.77-3.19,4.19,4.19,0,0,0-3-1.64A4.49,4.49,0,0,0,78,84a4.54,4.54,0,0,0-1.83,3A4.18,4.18,0,0,0,77.06,90.34Z"/><path class="cls-3" d="M92.75,105l-3.86-5a12.46,12.46,0,0,1,9-2.55,12.24,12.24,0,0,1,9.84,9.72,9.86,9.86,0,0,1-.67,5.31,10,10,0,0,1-3.1,4.19,14.94,14.94,0,0,1-6.23,2.62,35.37,35.37,0,0,1-10.4,0l-5.52-.56,7.41,9.61-4.75,3.66-14.4-18.68,2.45-1.9,14.94,1.79a31,31,0,0,0,8,.23,9.05,9.05,0,0,0,4.13-1.6,4.38,4.38,0,0,0,1.78-3,4.58,4.58,0,0,0-1-3.45,4.45,4.45,0,0,0-3.35-1.8A6.41,6.41,0,0,0,92.75,105Z"/><path class="cls-7" d="M93.21,47.38l-3.61-.7c.48-1.59.41-2.78-.2-3.57a1.77,1.77,0,0,0-1.05-.71,1.13,1.13,0,0,0-1,.17,1.52,1.52,0,0,0-.54.83,26.13,26.13,0,0,0-.32,3.7c-.07,1.85-.14,3-.2,3.41a7.87,7.87,0,0,1-.75,2.61A5.55,5.55,0,0,1,84,54.89,5.23,5.23,0,0,1,79.87,56,6.09,6.09,0,0,1,76,53.52,6.43,6.43,0,0,1,74.57,50a8.09,8.09,0,0,1,.93-4.07l3.4,1.33q-1.19,2.7-.07,4.15a2.4,2.4,0,0,0,1.43.94,1.65,1.65,0,0,0,1.42-.27,2.22,2.22,0,0,0,.75-1.2,14.16,14.16,0,0,0,.29-3,21.7,21.7,0,0,1,.66-5.73,5.12,5.12,0,0,1,1.67-2.46,4.64,4.64,0,0,1,3.71-.91A5.36,5.36,0,0,1,92.25,41a5.94,5.94,0,0,1,1.17,2.62A10.16,10.16,0,0,1,93.21,47.38Z"/><path class="cls-7" d="M101.34,53.57l2.3,3L92.75,74.46,90.38,71.4l2.26-3.68L87.77,61.4,83.6,62.6l-2.36-3.06ZM98.4,58.25l-6.92,2,3.19,4.15Z"/><path class="cls-7" d="M111.15,66.3l2.22,2.87-8,11.93,13.6-4.71,2.21,2.87L107.65,93.8,105.46,91l8.5-9.2L101.64,86l-2-2.6,7.27-10.8-11.1,5.84-2.22-2.88Z"/><path class="cls-7" d="M124.88,84.1l2.28,3-10,7.73a6.64,6.64,0,0,0-1.66,1.63,2.35,2.35,0,0,0-.28,1.41,3,3,0,0,0,.65,1.51,3.14,3.14,0,0,0,1.39,1.07,2.39,2.39,0,0,0,1.51.07A8.56,8.56,0,0,0,121,99.07l9.65-7.44,2.28,3-9.24,7.12a16.78,16.78,0,0,1-3.44,2.24,6.28,6.28,0,0,1-5.09-.41A7.3,7.3,0,0,1,113,101.6a6.86,6.86,0,0,1-1.48-3.53,5.66,5.66,0,0,1,.56-3.28,13,13,0,0,1,3.52-3.57Z"/><path class="cls-8" d="M204.49,161.56l20.86,27.05a9.63,9.63,0,0,1,.28,11l-16.84,27.24c-3.86,6.26-12.67,7.19-16.84,1.79l-27.75-36c-3.23-4.2-2.15-10.46,2.43-14l23.73-18.3C194.93,156.82,201.26,157.36,204.49,161.56Z"/><rect class="cls-9" x="204.68" y="146.89" width="23.67" height="16.47" rx="8.23" ry="8.23" transform="translate(207.2 -111.06) rotate(52.37)"/><rect class="cls-9" x="106.56" y="19.59" width="23.67" height="16.47" rx="8.23" ry="8.23" transform="translate(68.15 -82.93) rotate(52.37)"/><rect class="cls-10" x="155.62" y="83.24" width="23.67" height="16.47" rx="8.23" ry="8.23" transform="translate(137.67 -97) rotate(52.37)"/><rect class="cls-9" x="218.63" y="141.78" width="39.35" height="16.47" rx="8.23" ry="8.23" transform="translate(211.63 -130.31) rotate(52.37)"/></g></g></g></svg>