<svg xmlns="http://www.w3.org/2000/svg" viewBox="0 0 401 256.86">
  <g id="be5a4905-576b-48a1-9c94-bb7792480bcd" data-name="Camada 2">
    <g id="af87fc68-ec0d-4311-ac8c-198a5064c52e" data-name="original">
      <g>
        <path d="M401,132.55v76.31a12,12,0,0,1-12,12H12a12,12,0,0,1-12-12V53.58H332.91a110.34,110.34,0,0,1,5.8,17.28c1.19,4.57,2.21,9.08,3.29,13.29,3.55,13.95,13.92,21.68,25,27.11C383.24,119.2,401,122.19,401,132.55Z" fill="#ededed"/>
        <path d="M401,189.86v23c0,6.6-5.09,12-11.31,12H335v-35Z" fill="#616666"/>
        <path d="M73,190.86v35H12.88c-7.08,0-12.88-5.4-12.88-12v-23Z" fill="#616666"/>
        <path d="M335,192v32.67a1.17,1.17,0,0,1-1.17,1.17h-304A4.84,4.84,0,0,1,25,221V207.69a4.83,4.83,0,0,1,4.83-4.83h0A1.17,1.17,0,0,0,31,201.69V192a1.16,1.16,0,0,1,1.17-1.16H333.83A1.16,1.16,0,0,1,335,192Z" fill="#e72a33"/>
        <g>
          <circle cx="72.5" cy="223.36" r="33.5"/>
          <circle cx="72.5" cy="223.36" r="21.5" fill="#a3a3a3"/>
        </g>
        <path d="M335,55.58H0V36.05c0-5.61,5.43-10.19,12.08-10.19H283.77C314.27,25.86,327.69,39.35,335,55.58Z" fill="#e72a33"/>
        <g>
          <circle cx="335.5" cy="223.36" r="33.5"/>
          <circle cx="335.5" cy="223.36" r="21.5" fill="#a3a3a3"/>
        </g>
        <g>
          <g>
            <rect x="198.53" y="107.12" width="6.61" height="38.13" rx="3.3" fill="#e72a33"/>
            <rect x="198.53" y="105.64" width="6.61" height="41.09" rx="3.3" transform="translate(-8.36 237.88) rotate(-60)" fill="#e72a33"/>
            <rect x="198.53" y="105.64" width="6.61" height="41.09" rx="3.3" transform="matrix(-0.5, -0.87, 0.87, -0.5, 193.47, 364.06)" fill="#e72a33"/>
          </g>
          <path d="M201.83,88.27a37.91,37.91,0,1,0,37.91,37.91A37.91,37.91,0,0,0,201.83,88.27Zm0,67A29.13,29.13,0,1,1,231,126.18,29.13,29.13,0,0,1,201.83,155.31Z" fill="#e72a33"/>
          <circle cx="201.83" cy="126.18" r="29.12" transform="matrix(0.16, -0.99, 0.99, 0.16, 44.95, 305.19)" fill="none" stroke="#e72a33" stroke-miterlimit="10"/>
        </g>
        <g>
          <g>
            <path d="M32.57,121.07H46.38v48.47H37.22v-39.8h-10Z" fill="#e72a33"/>
            <path d="M77.48,170.76l-7.84-3.9,8.5-16.5A14.15,14.15,0,0,1,67.64,146a15,15,0,0,1-4.32-11,15.07,15.07,0,0,1,15.12-15.14,14.49,14.49,0,0,1,10.92,4.56,14.72,14.72,0,0,1,4.37,10.48,15.58,15.58,0,0,1-.68,4.49,45.88,45.88,0,0,1-3.11,7Zm1.16-29.13A5.64,5.64,0,0,0,83,139.76a7,7,0,0,0-.08-9.37,5.74,5.74,0,0,0-4.27-1.91,6,6,0,0,0-4.41,1.89,7,7,0,0,0,0,9.39A6,6,0,0,0,78.64,141.63Z" fill="#e72a33"/>
            <path d="M108.82,136.69h-9q.36-7.84,4.93-12.34a17.39,17.39,0,0,1,19.5-2.64,14.81,14.81,0,0,1,7.43,12.51,21.2,21.2,0,0,1-2.45,9.29q-2.46,5-9,11.76L114.81,161h17.27v8.53H98.5v-4.42l15-15.28q5.43-5.51,7.23-8.85a13.11,13.11,0,0,0,1.79-6.05,6.23,6.23,0,0,0-1.86-4.63,6.55,6.55,0,0,0-4.79-1.83,6.35,6.35,0,0,0-4.94,2.21A9.11,9.11,0,0,0,108.82,136.69Z" fill="#e72a33"/>
          </g>
          <g>
            <path d="M44.25,86.09l-3.92,3.47q-2.07-2.88-4.21-2.88a2.57,2.57,0,0,0-1.71.56,1.62,1.62,0,0,0-.66,1.26,2.11,2.11,0,0,0,.47,1.32,35.76,35.76,0,0,0,3.89,3.58q3,2.53,3.68,3.2a11.1,11.1,0,0,1,2.28,3.11,7.75,7.75,0,0,1,.67,3.25,7.45,7.45,0,0,1-2.37,5.66,8.64,8.64,0,0,1-6.17,2.23A9.18,9.18,0,0,1,31,109.39a11.38,11.38,0,0,1-3.78-4.58l4.45-2.69q2,3.69,4.63,3.69a3.39,3.39,0,0,0,2.29-.79,2.36,2.36,0,0,0,.93-1.84,3.21,3.21,0,0,0-.7-1.89,20.07,20.07,0,0,0-3.09-2.89,31.17,31.17,0,0,1-5.88-5.73,7.21,7.21,0,0,1-1.33-4,6.59,6.59,0,0,1,2.21-5,7.67,7.67,0,0,1,5.45-2.07,8.64,8.64,0,0,1,4,1A14.78,14.78,0,0,1,44.25,86.09Z" fill="#e5572c"/>
            <path d="M58.29,82.31h5.37l10.71,27.84H68.86l-2.18-5.74H55.33l-2.27,5.74H47.55ZM61,89.69l-3.74,9.56h7.45Z" fill="#e5572c"/>
            <path d="M81.17,82.31h5.16l6.45,19.42L99.3,82.31h5.16l4.67,27.84H104l-3-17.58L95.1,110.15H90.43L84.57,92.57l-3.06,17.58H76.35Z" fill="#e5572c"/>
            <path d="M113.16,82.31h5.32v18a9.39,9.39,0,0,0,.4,3.29,3.24,3.24,0,0,0,1.35,1.54,4.15,4.15,0,0,0,2.26.58,4.38,4.38,0,0,0,2.41-.64,3.39,3.39,0,0,0,1.4-1.64,12.05,12.05,0,0,0,.39-3.79V82.31H132v16.6a23.78,23.78,0,0,1-.48,5.83,8.2,8.2,0,0,1-1.8,3.14,8.45,8.45,0,0,1-3.08,2.24,10.35,10.35,0,0,1-4.05.73,9.78,9.78,0,0,1-5.27-1.39,8.2,8.2,0,0,1-3.21-3.48c-.64-1.4-1-3.75-1-7.07Z" fill="#e5572c"/>
          </g>
        </g>
        <path d="M269.65,59.86h48.62a13.7,13.7,0,0,1,12.62,9.22L347,111.73c3.69,9.79-2.91,20.53-12.62,20.53H269.65c-7.54,0-13.65-6.66-13.65-14.87V74.74C256,66.52,262.11,59.86,269.65,59.86Z" fill="#cae9e4" opacity="0.88"/>
        <rect x="256" y="29" width="33.69" height="23.43" rx="11.72" fill="#cc001e"/>
        <rect x="27.24" y="29" width="33.69" height="23.43" rx="11.72" fill="#cc001e"/>
        <rect x="141.62" y="29" width="33.69" height="23.43" rx="11.72" fill="#cfd3da"/>
        <rect x="258" width="56" height="23.43" rx="11.72" fill="#cc001e"/>
      </g>
    </g>
  </g>
</svg>
