<svg xmlns="http://www.w3.org/2000/svg" viewBox="0 0 358.21 358.21">
  <g id="bbd8f594-e70f-47ce-818e-a3932bef632b" data-name="Camada 2">
    <g id="b28f2337-e0c1-4d52-9b5e-546d11cc4824" data-name="1">
      <g>
        <g>
          <g>
            <circle id="b045e91b-95a8-4c88-a57a-345754c3eeda" data-name="fundo" cx="179.1" cy="179.1" r="179.1" fill="#fff"/>
            <path d="M279.42,327.49A179.11,179.11,0,0,1,56,309.15a155.72,155.72,0,0,0,7.81-20.31h0C77.09,246.58,78.6,194.26,78.74,187c0-.56,0-.87,0-.87,19,7.81,163.58,15.08,163.58,15.08,0,.26.08.5.13.76a486.56,486.56,0,0,0,11.69,52.19A677.63,677.63,0,0,0,279.42,327.49Z" fill="#f8c6af"/>
            <path d="M100.68,193.39l128.71,12.54,6.79,39.67s-50.12,43.21-137,.88Z" fill="#e7af96"/>
            <path d="M343.32,107.52c-17,38.16-44.49,63.2-72.44,79.62l-.06,0a220.41,220.41,0,0,1-28.48,14c-37.31,15.18-69,16.92-69,16.92s-29.13,1.39-63.56-13.46a159.92,159.92,0,0,1-31-17.67c-18.87-13.74-37.27-33.55-51.62-62.06,0,0,0,0,0-.08a220.12,220.12,0,0,1-9.76-22.61,179.16,179.16,0,0,1,323.86.61C341.93,104.36,342.63,105.92,343.32,107.52Z" fill="#f8c6af"/>
            <path d="M201.64,82.41c-18.47,1.6-14.14-3.16-42.36-.07-17.1,1.86-2.34-25.87,6.38-34.6,9.44-9.44,24.61-8.92,30.62,0C205.25,61.06,211.85,81.53,201.64,82.41Z" fill="#e3b198"/>
            <path d="M358.21,179.1A178.16,178.16,0,0,1,324.27,284c-22.37-7.47-35.29-53.07-52.44-39.35a52.56,52.56,0,0,1-17.67,9.48c-12.27,3.68-21.13.72-21.13.72-18.37-12.25-2.8-49.14-2.8-49.14,4.4-1.7,8.7-3,12.8-4.8,10.39-4.59,19.25-8.49,27.79-13.72l.06,0c38.11-23.35,58.8-52.69,70.3-84.33.75,1.55,1.45,3.11,2.14,4.71A178.3,178.3,0,0,1,358.21,179.1Z" fill="#33150a"/>
            <path d="M109.81,203.82c0,.27,0,.53,0,.8-2.76,48.9-24.78,72.67-46,84.22h0A89.21,89.21,0,0,1,44,296.69,178.37,178.37,0,0,1,0,179.1c0-27,6.88-54.42,17.56-77.35,3.31,7.6,5.9,16.52,9.52,23.06,0,0,0,0,0,.08,16.67,30,35.92,49.25,51.64,61.19C96.54,199.6,109.81,203.82,109.81,203.82Z" fill="#33150a"/>
          </g>
          <g>
            <path d="M131.94,126.5c16.49-15.17,37.57-18.78,42.06-15.93,4.07,2.59,6.55,4.48,11.22.45,6.38-5.48,32.63,5.57,41.06,15.48-5.75,2.05-25.91,2.84-33.57,2.55q-19.15-.7-38.32-1.24C149.9,127.67,131.62,129.33,131.94,126.5Z" fill="#951f41"/>
            <path d="M132.16,127.23s13.06,30.39,48.09,28.85,46-29.58,46-29.58l-35,2.5-25.35-.85S138,125.94,132.16,127.23Z" fill="#c92765"/>
          </g>
        </g>
        <path d="M358.06,179.22A178.06,178.06,0,0,1,180,357.28V1.15A178.07,178.07,0,0,1,358.06,179.22Z" fill="#e72a33" opacity="0.25"/>
      </g>
    </g>
  </g>
</svg>
