<svg xmlns="http://www.w3.org/2000/svg" viewBox="0 0 357.15 357.15">
  <g id="ee17387f-db57-436c-b4f1-22a09928fab9" data-name="Camada 2">
    <g id="af307573-0e2c-4fae-a46f-30ff3bf164ab" data-name="frame_1">
      <g id="b4f2019f-8f73-4ca0-94d3-3be896592a54" data-name="visao_1">
        <g>
          <path d="M355.29,204.42c-.42,2.93-.91,5.85-1.5,8.74A178.69,178.69,0,0,1,122.87,348.27c-2.85-.92-5.67-1.93-8.45-3A178.44,178.44,0,0,1,0,178.58c0-.63,0-1.25,0-1.85,0,0,0,0,0-.07a335.71,335.71,0,0,1,12.34-63.5s0,0,0-.06A178.87,178.87,0,0,1,164.58.54q6.93-.54,14-.54a177.85,177.85,0,0,1,84.7,21.33A193.75,193.75,0,0,1,286.7,36.89S339.87,78,355.29,204.42Z" fill="#f8c6af"/>
          <path d="M26.7,84.62,2.92,210.86A178.94,178.94,0,0,1,0,178.58c0-.63,0-1.25,0-1.85,0,0,0,0,0-.07a177.38,177.38,0,0,1,12.34-63.5s0,0,0-.06A178.49,178.49,0,0,1,26.7,84.62Z" fill="#33150a"/>
          <path d="M357.15,178.58a180.67,180.67,0,0,1-1.86,25.84c-.42,2.93-.91,5.85-1.5,8.74-2.6-27.76-7.1-44-7.1-44-48.5-22.38-46.15-60-46.15-60C242.12,98.8,213.36,19.51,164.58.54q6.93-.54,14-.54A178.48,178.48,0,0,1,357.15,178.58Z" fill="#33150a"/>
          <path d="M220.59,192.7c-1.16.16-14.27-11.45-3.73-22,13.87-9.09,63.7-14.79,96.75-2.09,9.38,5,25.9,26.36,24.81,27.19-1.81,1.38-28.62-12.07-52.74-13.7C246.56,178.72,226.82,191.81,220.59,192.7Z" fill="#3d1a03"/>
          <path d="M139.94,192.7c1.15.16,14.26-11.45,3.72-22-13.86-9.09-63.7-14.79-96.75-2.09-9.37,5-25.9,26.36-24.81,27.19,1.81,1.38,28.63-12.07,52.74-13.7C114,178.72,133.71,191.81,139.94,192.7Z" fill="#3d1a03"/>
          <path d="M201.05,341.3c-18.42,1.6-14.1-3.15-42.24-.08-17,1.87-2.33-25.79,6.36-34.49,9.42-9.41,24.54-8.9,30.54,0C204.65,320,211.23,340.42,201.05,341.3Z" fill="#e3b198"/>
          <path d="M51.05,242.61,38.84,225.82c30.61-29.59,77.35-9.67,92.11,9.67" fill="none" stroke="#000" stroke-miterlimit="10" stroke-width="2"/>
          <g>
            <path d="M225.07,231.26c14.76-19.33,61.49-39.26,92.11-9.67L305,238.39" fill="none" stroke="#000" stroke-miterlimit="10" stroke-width="2"/>
            <circle cx="259.55" cy="229.37" r="17.93" stroke="#000" stroke-miterlimit="10" stroke-width="2"/>
            <circle cx="96.49" cy="233.56" r="17.93" stroke="#000" stroke-miterlimit="10" stroke-width="2"/>
          </g>
          <path d="M357.12,178.61A178.08,178.08,0,0,1,179.05,356.68V.55A178.07,178.07,0,0,1,357.12,178.61Z" fill="#e72a33" opacity="0.25"/>
        </g>
      </g>
    </g>
  </g>
</svg>
