<svg xmlns="http://www.w3.org/2000/svg" viewBox="0 0 358.21 358.21">
  <g id="bd9b646e-c9ad-41ba-aff5-633d3645e179" data-name="Camada 2">
    <g id="b1c388a5-2b17-475f-8e74-32bb23c1d900" data-name="8">
      <g>
        <g>
          <g>
            <circle id="fecefd5f-e827-4242-90d4-eb31a2bc1ae7" data-name="fundo" cx="179.1" cy="179.1" r="179.1" fill="#fff"/>
            <path d="M279.42,327.49A179.11,179.11,0,0,1,56,309.15a155.72,155.72,0,0,0,7.81-20.31h0C77.09,246.58,78.6,194.26,78.74,187c0-.56,0-.87,0-.87,19,7.81,163.58,15.08,163.58,15.08,0,.26.08.5.13.76a486.56,486.56,0,0,0,11.69,52.19A677.63,677.63,0,0,0,279.42,327.49Z" fill="#f8c6af"/>
            <path d="M100.68,193.39l128.71,12.54,6.79,39.67s-50.12,43.21-137,.88Z" fill="#e7af96"/>
            <path d="M343.32,107.52c-17,38.16-44.49,63.2-72.44,79.62l-.06,0a220.41,220.41,0,0,1-28.48,14c-37.31,15.18-69,16.92-69,16.92s-29.13,1.39-63.56-13.46a159.92,159.92,0,0,1-31-17.67c-18.87-13.74-37.27-33.55-51.62-62.06,0,0,0,0,0-.08a220.12,220.12,0,0,1-9.76-22.61,179.16,179.16,0,0,1,323.86.61C341.93,104.36,342.63,105.92,343.32,107.52Z" fill="#f8c6af"/>
            <path d="M201.64,82.41c-18.47,1.6-14.14-3.16-42.36-.07-17.1,1.86-2.34-25.87,6.38-34.6,9.44-9.44,24.61-8.92,30.62,0C205.25,61.06,211.85,81.53,201.64,82.41Z" fill="#e3b198"/>
            <path d="M358.21,179.1A178.16,178.16,0,0,1,324.27,284c-22.37-7.47-35.29-53.07-52.44-39.35a52.56,52.56,0,0,1-17.67,9.48c-12.27,3.68-21.13.72-21.13.72-18.37-12.25-2.8-49.14-2.8-49.14,4.4-1.7,8.7-3,12.8-4.8,10.39-4.59,19.25-8.49,27.79-13.72l.06,0c38.11-23.35,58.8-52.69,70.3-84.33.75,1.55,1.45,3.11,2.14,4.71A178.3,178.3,0,0,1,358.21,179.1Z" fill="#33150a"/>
            <path d="M109.81,203.82c0,.27,0,.53,0,.8-2.76,48.9-24.78,72.67-46,84.22h0A89.21,89.21,0,0,1,44,296.69,178.37,178.37,0,0,1,0,179.1c0-27,6.88-54.42,17.56-77.35,3.31,7.6,5.9,16.52,9.52,23.06,0,0,0,0,0,.08,16.67,30,35.92,49.25,51.64,61.19C96.54,199.6,109.81,203.82,109.81,203.82Z" fill="#33150a"/>
          </g>
          <g>
            <path d="M131.94,126.5c16.49-15.17,37.57-18.78,42.06-15.93,4.07,2.59,6.55,4.48,11.22.45,6.38-5.48,32.63,5.57,41.06,15.48-5.75,2.05-25.91,2.84-33.57,2.55q-19.15-.7-38.32-1.24C149.9,127.67,131.62,129.33,131.94,126.5Z" fill="#951f41"/>
            <path d="M132.16,127.23s13.06,30.39,48.09,28.85,46-29.58,46-29.58l-35,2.5-25.35-.85S138,125.94,132.16,127.23Z" fill="#c92765"/>
          </g>
        </g>
        <path d="M358.06,179.22A178.06,178.06,0,0,1,180,357.28V1.15A178.07,178.07,0,0,1,358.06,179.22Z" fill="#e72a33" opacity="0.25"/>
      </g>
      
      <animate
            id="frame8"
            attributeName="display"
            values="none;none;none;none;none;none;none;inline"
            keyTimes="0;0.15;0.30;0.45;0.60;0.75;0.9;1"
            dur="2s"
            begin="0s"
            repeatCount="indefinite" />
    </g>

    <g id="f950c580-40bf-41ca-910b-d854f6974209" data-name="7">
      <g>
        <g>
          <g>
            <circle id="aa7b7dc1-e056-4b96-9c40-ebaa9fd737d4" data-name="fundo" cx="179.1" cy="179.1" r="179.1" fill="#fff"/>
            <path d="M279.42,327.49A179.11,179.11,0,0,1,56,309.15a155.72,155.72,0,0,0,7.81-20.31h0C77.09,246.58,78.6,194.26,78.74,187c0-.56,0-.87,0-.87,19,7.81,163.58,15.08,163.58,15.08,0,.26.08.5.13.76a486.56,486.56,0,0,0,11.69,52.19A677.63,677.63,0,0,0,279.42,327.49Z" fill="#f8c6af"/>
            <path d="M100.68,193.39l128.71,12.54,6.79,39.67s-50.12,43.21-137,.88Z" fill="#e7af96"/>
            <path d="M343.32,107.52c-17,38.16-44.49,63.2-72.44,79.62l-.06,0a220.41,220.41,0,0,1-28.48,14c-37.31,15.18-69,16.92-69,16.92s-29.13,1.39-63.56-13.46a159.92,159.92,0,0,1-31-17.67c-18.87-13.74-37.27-33.55-51.62-62.06,0,0,0,0,0-.08a220.12,220.12,0,0,1-9.76-22.61,179.16,179.16,0,0,1,323.86.61C341.93,104.36,342.63,105.92,343.32,107.52Z" fill="#f8c6af"/>
            <path d="M201.64,82.41c-18.47,1.6-14.14-3.16-42.36-.07-17.1,1.86-2.34-25.87,6.38-34.6,9.44-9.44,24.61-8.92,30.62,0C205.25,61.06,211.85,81.53,201.64,82.41Z" fill="#e3b198"/>
            <path d="M358.21,179.1A178.16,178.16,0,0,1,324.27,284c-22.37-7.47-35.29-53.07-52.44-39.35a52.56,52.56,0,0,1-17.67,9.48c-12.27,3.68-21.13.72-21.13.72-18.37-12.25-2.8-49.14-2.8-49.14,4.4-1.7,8.7-3,12.8-4.8,10.39-4.59,19.25-8.49,27.79-13.72l.06,0c38.11-23.35,58.8-52.69,70.3-84.33.75,1.55,1.45,3.11,2.14,4.71A178.3,178.3,0,0,1,358.21,179.1Z" fill="#33150a"/>
            <path d="M109.81,203.82c0,.27,0,.53,0,.8-2.76,48.9-24.78,72.67-46,84.22h0A89.21,89.21,0,0,1,44,296.69,178.37,178.37,0,0,1,0,179.1c0-27,6.88-54.42,17.56-77.35,3.31,7.6,5.9,16.52,9.52,23.06,0,0,0,0,0,.08,16.67,30,35.92,49.25,51.64,61.19C96.54,199.6,109.81,203.82,109.81,203.82Z" fill="#33150a"/>
          </g>
          <g>
            <path d="M193.65,131.49s-67.16-16.29-63.56-7.78c2.11,5,10.81,13.62,10.81,13.62Z" fill="#280303"/>
            <path d="M188,131.28S157,116.81,128.74,120.76c7.65,15.82,51.15,9.3,51.15,9.3Z" fill="#f2f2e7"/>
            <path d="M128.74,121S144,158.13,179,156.68s39.66-14.76,47.27-25.25c-4.21-6-22.76-5.68-31.91-2.76,0,0-6.06.36-17.38.35C160.27,129,152.32,127.11,128.74,121Z" fill="#c92765"/>
            <path d="M128.74,120.76c28.75-9.89,41.07-13.61,44.93-9.61,3.36,3.47,8.88,2.39,11.26.93,7-4.3,25.74,1.39,41.35,19.93-15.35-6-26.37-3.14-34-2.42-16.37,1.55-19.3,1-26.82-2.56C142.59,116.1,128.42,123.43,128.74,120.76Z" fill="#951f41"/>
          </g>
          <path d="M144.73,70s-38.45,22.77-30.41,29.89Z" fill="#bf8b77"/>
        </g>
        <path d="M358.06,179.22A178.06,178.06,0,0,1,180,357.28V1.15A178.07,178.07,0,0,1,358.06,179.22Z" fill="#e72a33" opacity="0.25"/>
      </g>

      <animate
            id="frame7"
            attributeName="display"
            values="none;none;none;none;none;none;inline;none"
            keyTimes="0;0.15;0.30;0.45;0.60;0.75;0.9;1"
            dur="2s"
            begin="0s"
            repeatCount="indefinite" />

    </g>
    <g id="f6c14cd3-8ec4-4ced-b02c-982e2a27b815" data-name="6">
      <g>
        <g>
          <g>
            <circle id="b4a4695e-4628-482b-a4db-54c4919a02d8" data-name="fundo" cx="179.1" cy="179.1" r="179.1" fill="#fff"/>
            <path d="M279.42,327.49A179.11,179.11,0,0,1,56,309.15a155.72,155.72,0,0,0,7.81-20.31h0C77.09,246.58,78.6,194.26,78.74,187c0-.56,0-.87,0-.87,19,7.81,163.58,15.08,163.58,15.08,0,.26.08.5.13.76a486.56,486.56,0,0,0,11.69,52.19A677.63,677.63,0,0,0,279.42,327.49Z" fill="#f8c6af"/>
            <path d="M100.68,193.39l128.71,12.54,6.79,39.67s-50.12,43.21-137,.88Z" fill="#e7af96"/>
            <path d="M343.32,107.52c-17,38.16-44.49,63.2-72.44,79.62l-.06,0a220.41,220.41,0,0,1-28.48,14c-37.31,15.18-69,16.92-69,16.92s-29.13,1.39-63.56-13.46a159.92,159.92,0,0,1-31-17.67c-18.87-13.74-37.27-33.55-51.62-62.06,0,0,0,0,0-.08a220.12,220.12,0,0,1-9.76-22.61,179.16,179.16,0,0,1,323.86.61C341.93,104.36,342.63,105.92,343.32,107.52Z" fill="#f8c6af"/>
            <path d="M201.64,82.41c-18.47,1.6-14.14-3.16-42.36-.07-17.1,1.86-2.34-25.87,6.38-34.6,9.44-9.44,24.61-8.92,30.62,0C205.25,61.06,211.85,81.53,201.64,82.41Z" fill="#e3b198"/>
            <path d="M358.21,179.1A178.16,178.16,0,0,1,324.27,284c-22.37-7.47-35.29-53.07-52.44-39.35a52.56,52.56,0,0,1-17.67,9.48c-12.27,3.68-21.13.72-21.13.72-18.37-12.25-2.8-49.14-2.8-49.14,4.4-1.7,8.7-3,12.8-4.8,10.39-4.59,19.25-8.49,27.79-13.72l.06,0c38.11-23.35,58.8-52.69,70.3-84.33.75,1.55,1.45,3.11,2.14,4.71A178.3,178.3,0,0,1,358.21,179.1Z" fill="#33150a"/>
            <path d="M109.81,203.82c0,.27,0,.53,0,.8-2.76,48.9-24.78,72.67-46,84.22h0A89.21,89.21,0,0,1,44,296.69,178.37,178.37,0,0,1,0,179.1c0-27,6.88-54.42,17.56-77.35,3.31,7.6,5.9,16.52,9.52,23.06,0,0,0,0,0,.08,16.67,30,35.92,49.25,51.64,61.19C96.54,199.6,109.81,203.82,109.81,203.82Z" fill="#33150a"/>
          </g>
          <path d="M144.73,65.52s-42.55,23.71-36.3,38.84Z" fill="#bf8b77"/>
          <g>
            <path d="M185.91,132.25s-62.82-20.1-59.62-12.11c1.88,4.7,12.79,17.59,12.79,17.59Z" fill="#280303"/>
            <path d="M187.8,132.05S153.35,115.26,125,119c7.7,14.86,54.66,11.93,54.66,11.93Z" fill="#f2f2e7"/>
            <path d="M125,119.15s18.56,38.12,53.78,36.75,39.89-10.66,47.55-20.51c-4.24-5.62-22.9-7-32.1-4.29,0,0-6.1,1.84-17.49,1.84C159.87,132.93,143.88,137.73,125,119.15Z" fill="#c92765"/>
            <path d="M125,119c28.93-9.29,40.07-13,45.2-7.43,3.19,3.43,6.63,6,11.33,2.48,6.41-4.85,29.1,2.9,44.8,20.31-15.45-5.66-26.53-3-34.2-2.37-16.47,1.46-21.12,2-27-2.4C134.29,118.54,124.63,121.47,125,119Z" fill="#951f41"/>
          </g>
        </g>
        <path d="M358.06,179.22A178.06,178.06,0,0,1,180,357.28V1.15A178.07,178.07,0,0,1,358.06,179.22Z" fill="#e72a33" opacity="0.25"/>
      </g>

      <animate
            id="frame6"
            attributeName="display"
            values="none;none;none;none;none;inline;none;none"
            keyTimes="0;0.15;0.30;0.45;0.60;0.75;0.9;1"
            dur="2s"
            begin="0s"
            repeatCount="indefinite" />
    </g>

    <g id="e3dd4228-05a7-4c09-8d31-97d9e18c3d9b" data-name="5">
      <g>
        <g>
          <g>
            <circle id="b883d124-9028-4cfa-ad75-5495e0a93e3d" data-name="fundo" cx="179.1" cy="179.1" r="179.1" fill="#fff"/>
            <path d="M279.42,327.49A179.11,179.11,0,0,1,56,309.15a155.72,155.72,0,0,0,7.81-20.31h0C77.09,246.58,78.6,194.26,78.74,187c0-.56,0-.87,0-.87,19,7.81,163.58,15.08,163.58,15.08,0,.26.08.5.13.76a486.56,486.56,0,0,0,11.69,52.19A677.63,677.63,0,0,0,279.42,327.49Z" fill="#f8c6af"/>
            <path d="M100.68,193.39l128.71,12.54,6.79,39.67s-50.12,43.21-137,.88Z" fill="#e7af96"/>
            <path d="M343.32,107.52c-17,38.16-44.49,63.2-72.44,79.62l-.06,0a220.41,220.41,0,0,1-28.48,14c-37.31,15.18-69,16.92-69,16.92s-29.13,1.39-63.56-13.46a159.92,159.92,0,0,1-31-17.67c-18.87-13.74-37.27-33.55-51.62-62.06,0,0,0,0,0-.08a220.12,220.12,0,0,1-9.76-22.61,179.16,179.16,0,0,1,323.86.61C341.93,104.36,342.63,105.92,343.32,107.52Z" fill="#f8c6af"/>
            <path d="M201.64,82.41c-18.47,1.6-14.14-3.16-42.36-.07-17.1,1.86-2.34-25.87,6.38-34.6,9.44-9.44,24.61-8.92,30.62,0C205.25,61.06,211.85,81.53,201.64,82.41Z" fill="#e3b198"/>
            <path d="M358.21,179.1A178.16,178.16,0,0,1,324.27,284c-22.37-7.47-35.29-53.07-52.44-39.35a52.56,52.56,0,0,1-17.67,9.48c-12.27,3.68-21.13.72-21.13.72-18.37-12.25-2.8-49.14-2.8-49.14,4.4-1.7,8.7-3,12.8-4.8,10.39-4.59,19.25-8.49,27.79-13.72l.06,0c38.11-23.35,58.8-52.69,70.3-84.33.75,1.55,1.45,3.11,2.14,4.71A178.3,178.3,0,0,1,358.21,179.1Z" fill="#33150a"/>
            <path d="M109.81,203.82c0,.27,0,.53,0,.8-2.76,48.9-24.78,72.67-46,84.22h0A89.21,89.21,0,0,1,44,296.69,178.37,178.37,0,0,1,0,179.1c0-27,6.88-54.42,17.56-77.35,3.31,7.6,5.9,16.52,9.52,23.06,0,0,0,0,0,.08,16.67,30,35.92,49.25,51.64,61.19C96.54,199.6,109.81,203.82,109.81,203.82Z" fill="#33150a"/>
          </g>
          <path d="M144.73,61.81s-46,27.16-42.47,54.31Z" fill="#bf8b77"/>
          <g>
            <polygon points="185.91 133.06 121.75 117.11 140.59 138.34 185.91 133.06" fill="#280303"/>
            <path d="M187.8,132.86s-37.65-20-66.05-16.28c7.7,14.86,57.86,15.13,57.86,15.13Z" fill="#f2f2e7"/>
            <path d="M121.75,116.76s21.76,41.31,57,40,39.89-5.87,47.55-15.71c-4.24-5.63-22.9-11.84-32.1-9.09,0,0-6.18.48-17.49,1.83C160.31,135.7,138.16,138.39,121.75,116.76Z" fill="#c92765"/>
            <path d="M121.75,116.58c28.93-9.29,40.08-13,45.21-7.43,3.18,3.43,6.62,6,11.32,2.48,6.41-4.85,32.3,10.89,48,28.31-15.45-5.67-26.53-7.85-34.2-7.17-16.47,1.46-25.91-2.84-31.77-7.2C128.11,110,121.43,119.08,121.75,116.58Z" fill="#951f41"/>
          </g>
        </g>
        <path d="M358.06,179.22A178.06,178.06,0,0,1,180,357.28V1.15A178.07,178.07,0,0,1,358.06,179.22Z" fill="#e72a33" opacity="0.25"/>
      </g>
      
      <animate
            id="frame5"
            attributeName="display"
            values="none;none;none;none;inline;none;none;none"
            keyTimes="0;0.15;0.30;0.45;0.60;0.75;0.9;1"
            dur="2s"
            begin="0s"
            repeatCount="indefinite" />
    </g>

    <g id="ff422c4d-d9ab-4695-b647-332a682df366" data-name="4">
      <g>
        <g>
          <g>
            <circle id="bbb26fa4-f16b-492f-ab05-9297eae4ae54" data-name="fundo" cx="179.1" cy="179.1" r="179.1" fill="#fff"/>
            <path d="M279.42,327.49A179.11,179.11,0,0,1,56,309.15a155.72,155.72,0,0,0,7.81-20.31h0C77.09,246.58,78.6,194.26,78.74,187c0-.56,0-.87,0-.87,19,7.81,163.58,15.08,163.58,15.08,0,.26.08.5.13.76a486.56,486.56,0,0,0,11.69,52.19A677.63,677.63,0,0,0,279.42,327.49Z" fill="#f8c6af"/>
            <path d="M100.68,193.39l128.71,12.54,6.79,39.67s-50.12,43.21-137,.88Z" fill="#e7af96"/>
            <path d="M343.32,107.52c-17,38.16-44.49,63.2-72.44,79.62l-.06,0a220.41,220.41,0,0,1-28.48,14c-37.31,15.18-69,16.92-69,16.92s-29.13,1.39-63.56-13.46a159.92,159.92,0,0,1-31-17.67c-18.87-13.74-37.27-33.55-51.62-62.06,0,0,0,0,0-.08a220.12,220.12,0,0,1-9.76-22.61,179.16,179.16,0,0,1,323.86.61C341.93,104.36,342.63,105.92,343.32,107.52Z" fill="#f8c6af"/>
            <path d="M201.64,82.41c-18.47,1.6-14.14-3.16-42.36-.07-17.1,1.86-2.34-25.87,6.38-34.6,9.44-9.44,24.61-8.92,30.62,0C205.25,61.06,211.85,81.53,201.64,82.41Z" fill="#e3b198"/>
            <path d="M358.21,179.1A178.16,178.16,0,0,1,324.27,284c-22.37-7.47-35.29-53.07-52.44-39.35a52.56,52.56,0,0,1-17.67,9.48c-12.27,3.68-21.13.72-21.13.72-18.37-12.25-2.8-49.14-2.8-49.14,4.4-1.7,8.7-3,12.8-4.8,10.39-4.59,19.25-8.49,27.79-13.72l.06,0c38.11-23.35,58.8-52.69,70.3-84.33.75,1.55,1.45,3.11,2.14,4.71A178.3,178.3,0,0,1,358.21,179.1Z" fill="#33150a"/>
            <path d="M109.81,203.82c0,.27,0,.53,0,.8-2.76,48.9-24.78,72.67-46,84.22h0A89.21,89.21,0,0,1,44,296.69,178.37,178.37,0,0,1,0,179.1c0-27,6.88-54.42,17.56-77.35,3.31,7.6,5.9,16.52,9.52,23.06,0,0,0,0,0,.08,16.67,30,35.92,49.25,51.64,61.19C96.54,199.6,109.81,203.82,109.81,203.82Z" fill="#33150a"/>
          </g>
          <path d="M144.73,61.81s-46,27.16-42.47,54.31Z" fill="#bf8b77"/>
          <g>
            <polygon points="185.91 133.06 121.75 117.11 140.59 138.34 185.91 133.06" fill="#280303"/>
            <path d="M187.8,132.86s-37.65-20-66.05-16.28c7.7,14.86,57.86,15.13,57.86,15.13Z" fill="#f2f2e7"/>
            <path d="M121.75,116.76s21.76,41.31,57,40,39.89-5.87,47.55-15.71c-4.24-5.63-22.9-11.84-32.1-9.09,0,0-6.18.48-17.49,1.83C160.31,135.7,138.16,138.39,121.75,116.76Z" fill="#c92765"/>
            <path d="M121.75,116.58c28.93-9.29,40.08-13,45.21-7.43,3.18,3.43,6.62,6,11.32,2.48,6.41-4.85,32.3,10.89,48,28.31-15.45-5.67-26.53-7.85-34.2-7.17-16.47,1.46-25.91-2.84-31.77-7.2C128.11,110,121.43,119.08,121.75,116.58Z" fill="#951f41"/>
          </g>
        </g>
        <path d="M358.06,179.22A178.06,178.06,0,0,1,180,357.28V1.15A178.07,178.07,0,0,1,358.06,179.22Z" fill="#e72a33" opacity="0.25"/>
      </g>

      <animate
            id="frame4"
            attributeName="display"
            values="none;none;none;inline;none;none;none;none"
            keyTimes="0;0.15;0.30;0.45;0.60;0.75;0.9;1"
            dur="2s"
            begin="0s"
            repeatCount="indefinite" />
    </g>

    <g id="a5588352-c4a2-413b-b5e7-8db22331f12d" data-name="3">
      <g>
        <g>
          <g>
            <circle id="bbddcf54-abb7-48d2-9d3e-568993884930" data-name="fundo" cx="179.1" cy="179.1" r="179.1" fill="#fff"/>
            <path d="M279.42,327.49A179.11,179.11,0,0,1,56,309.15a155.72,155.72,0,0,0,7.81-20.31h0C77.09,246.58,78.6,194.26,78.74,187c0-.56,0-.87,0-.87,19,7.81,163.58,15.08,163.58,15.08,0,.26.08.5.13.76a486.56,486.56,0,0,0,11.69,52.19A677.63,677.63,0,0,0,279.42,327.49Z" fill="#f8c6af"/>
            <path d="M100.68,193.39l128.71,12.54,6.79,39.67s-50.12,43.21-137,.88Z" fill="#e7af96"/>
            <path d="M343.32,107.52c-17,38.16-44.49,63.2-72.44,79.62l-.06,0a220.41,220.41,0,0,1-28.48,14c-37.31,15.18-69,16.92-69,16.92s-29.13,1.39-63.56-13.46a159.92,159.92,0,0,1-31-17.67c-18.87-13.74-37.27-33.55-51.62-62.06,0,0,0,0,0-.08a220.12,220.12,0,0,1-9.76-22.61,179.16,179.16,0,0,1,323.86.61C341.93,104.36,342.63,105.92,343.32,107.52Z" fill="#f8c6af"/>
            <path d="M201.64,82.41c-18.47,1.6-14.14-3.16-42.36-.07-17.1,1.86-2.34-25.87,6.38-34.6,9.44-9.44,24.61-8.92,30.62,0C205.25,61.06,211.85,81.53,201.64,82.41Z" fill="#e3b198"/>
            <path d="M358.21,179.1A178.16,178.16,0,0,1,324.27,284c-22.37-7.47-35.29-53.07-52.44-39.35a52.56,52.56,0,0,1-17.67,9.48c-12.27,3.68-21.13.72-21.13.72-18.37-12.25-2.8-49.14-2.8-49.14,4.4-1.7,8.7-3,12.8-4.8,10.39-4.59,19.25-8.49,27.79-13.72l.06,0c38.11-23.35,58.8-52.69,70.3-84.33.75,1.55,1.45,3.11,2.14,4.71A178.3,178.3,0,0,1,358.21,179.1Z" fill="#33150a"/>
            <path d="M109.81,203.82c0,.27,0,.53,0,.8-2.76,48.9-24.78,72.67-46,84.22h0A89.21,89.21,0,0,1,44,296.69,178.37,178.37,0,0,1,0,179.1c0-27,6.88-54.42,17.56-77.35,3.31,7.6,5.9,16.52,9.52,23.06,0,0,0,0,0,.08,16.67,30,35.92,49.25,51.64,61.19C96.54,199.6,109.81,203.82,109.81,203.82Z" fill="#33150a"/>
          </g>
          <path d="M144.73,65.52s-42.55,23.71-36.3,38.84Z" fill="#bf8b77"/>
          <g>
            <path d="M185.91,132.25s-62.82-20.1-59.62-12.11c1.88,4.7,12.79,17.59,12.79,17.59Z" fill="#280303"/>
            <path d="M187.8,132.05S153.35,115.26,125,119c7.7,14.86,54.66,11.93,54.66,11.93Z" fill="#f2f2e7"/>
            <path d="M125,119.15s18.56,38.12,53.78,36.75,39.89-10.66,47.55-20.51c-4.24-5.62-22.9-7-32.1-4.29,0,0-6.1,1.84-17.49,1.84C159.87,132.93,143.88,137.73,125,119.15Z" fill="#c92765"/>
            <path d="M125,119c28.93-9.29,40.07-13,45.2-7.43,3.19,3.43,6.63,6,11.33,2.48,6.41-4.85,29.1,2.9,44.8,20.31-15.45-5.66-26.53-3-34.2-2.37-16.47,1.46-21.12,2-27-2.4C134.29,118.54,124.63,121.47,125,119Z" fill="#951f41"/>
          </g>
        </g>
        <path d="M358.06,179.22A178.06,178.06,0,0,1,180,357.28V1.15A178.07,178.07,0,0,1,358.06,179.22Z" fill="#e72a33" opacity="0.25"/>
      </g>

      <animate
            id="frame3"
            attributeName="display"
            values="none;none;inline;none;none;none;none;none"
            keyTimes="0;0.15;0.30;0.45;0.60;0.75;0.9;1"
            dur="2s"
            begin="0s"
            repeatCount="indefinite" />
    </g>

    <g id="a29c6ac3-f839-4fec-9abf-86509d750f69" data-name="2">
      <g>
        <g>
          <g>
            <circle id="f8458bca-c97d-48e5-9249-a37f4698d93f" data-name="fundo" cx="179.1" cy="179.1" r="179.1" fill="#fff"/>
            <path d="M279.42,327.49A179.11,179.11,0,0,1,56,309.15a155.72,155.72,0,0,0,7.81-20.31h0C77.09,246.58,78.6,194.26,78.74,187c0-.56,0-.87,0-.87,19,7.81,163.58,15.08,163.58,15.08,0,.26.08.5.13.76a486.56,486.56,0,0,0,11.69,52.19A677.63,677.63,0,0,0,279.42,327.49Z" fill="#f8c6af"/>
            <path d="M100.68,193.39l128.71,12.54,6.79,39.67s-50.12,43.21-137,.88Z" fill="#e7af96"/>
            <path d="M343.32,107.52c-17,38.16-44.49,63.2-72.44,79.62l-.06,0a220.41,220.41,0,0,1-28.48,14c-37.31,15.18-69,16.92-69,16.92s-29.13,1.39-63.56-13.46a159.92,159.92,0,0,1-31-17.67c-18.87-13.74-37.27-33.55-51.62-62.06,0,0,0,0,0-.08a220.12,220.12,0,0,1-9.76-22.61,179.16,179.16,0,0,1,323.86.61C341.93,104.36,342.63,105.92,343.32,107.52Z" fill="#f8c6af"/>
            <path d="M201.64,82.41c-18.47,1.6-14.14-3.16-42.36-.07-17.1,1.86-2.34-25.87,6.38-34.6,9.44-9.44,24.61-8.92,30.62,0C205.25,61.06,211.85,81.53,201.64,82.41Z" fill="#e3b198"/>
            <path d="M358.21,179.1A178.16,178.16,0,0,1,324.27,284c-22.37-7.47-35.29-53.07-52.44-39.35a52.56,52.56,0,0,1-17.67,9.48c-12.27,3.68-21.13.72-21.13.72-18.37-12.25-2.8-49.14-2.8-49.14,4.4-1.7,8.7-3,12.8-4.8,10.39-4.59,19.25-8.49,27.79-13.72l.06,0c38.11-23.35,58.8-52.69,70.3-84.33.75,1.55,1.45,3.11,2.14,4.71A178.3,178.3,0,0,1,358.21,179.1Z" fill="#33150a"/>
            <path d="M109.81,203.82c0,.27,0,.53,0,.8-2.76,48.9-24.78,72.67-46,84.22h0A89.21,89.21,0,0,1,44,296.69,178.37,178.37,0,0,1,0,179.1c0-27,6.88-54.42,17.56-77.35,3.31,7.6,5.9,16.52,9.52,23.06,0,0,0,0,0,.08,16.67,30,35.92,49.25,51.64,61.19C96.54,199.6,109.81,203.82,109.81,203.82Z" fill="#33150a"/>
          </g>
          <g>
            <path d="M193.65,131.49s-67.16-16.29-63.56-7.78c2.11,5,10.81,13.62,10.81,13.62Z" fill="#280303"/>
            <path d="M188,131.28S157,116.81,128.74,120.76c7.65,15.82,51.15,9.3,51.15,9.3Z" fill="#f2f2e7"/>
            <path d="M128.74,121S144,158.13,179,156.68s39.66-14.76,47.27-25.25c-4.21-6-22.76-5.68-31.91-2.76,0,0-6.06.36-17.38.35C160.27,129,152.32,127.11,128.74,121Z" fill="#c92765"/>
            <path d="M128.74,120.76c28.75-9.89,41.07-13.61,44.93-9.61,3.36,3.47,8.88,2.39,11.26.93,7-4.3,25.74,1.39,41.35,19.93-15.35-6-26.37-3.14-34-2.42-16.37,1.55-19.3,1-26.82-2.56C142.59,116.1,128.42,123.43,128.74,120.76Z" fill="#951f41"/>
          </g>
          <path d="M144.73,70s-38.45,22.77-30.41,29.89Z" fill="#bf8b77"/>
        </g>
        <path d="M358.06,179.22A178.06,178.06,0,0,1,180,357.28V1.15A178.07,178.07,0,0,1,358.06,179.22Z" fill="#e72a33" opacity="0.25"/>
      </g>

      <animate
            id="frame2"
            attributeName="display"
            values="none;inline;none;none;none;none;none;none"
            keyTimes="0;0.15;0.30;0.45;0.60;0.75;0.9;1"
            dur="2s"
            begin="0s"
            repeatCount="indefinite" />
    </g>

    <g id="bba850a9-219e-423a-a022-6d8d9ca130eb" data-name="1">
      <g>
        <g>
          <g>
            <circle id="b42c5504-dd0f-49c2-b896-04abfdfddd5e" data-name="fundo" cx="179.1" cy="179.1" r="179.1" fill="#fff"/>
            <path d="M279.42,327.49A179.11,179.11,0,0,1,56,309.15a155.72,155.72,0,0,0,7.81-20.31h0C77.09,246.58,78.6,194.26,78.74,187c0-.56,0-.87,0-.87,19,7.81,163.58,15.08,163.58,15.08,0,.26.08.5.13.76a486.56,486.56,0,0,0,11.69,52.19A677.63,677.63,0,0,0,279.42,327.49Z" fill="#f8c6af"/>
            <path d="M100.68,193.39l128.71,12.54,6.79,39.67s-50.12,43.21-137,.88Z" fill="#e7af96"/>
            <path d="M343.32,107.52c-17,38.16-44.49,63.2-72.44,79.62l-.06,0a220.41,220.41,0,0,1-28.48,14c-37.31,15.18-69,16.92-69,16.92s-29.13,1.39-63.56-13.46a159.92,159.92,0,0,1-31-17.67c-18.87-13.74-37.27-33.55-51.62-62.06,0,0,0,0,0-.08a220.12,220.12,0,0,1-9.76-22.61,179.16,179.16,0,0,1,323.86.61C341.93,104.36,342.63,105.92,343.32,107.52Z" fill="#f8c6af"/>
            <path d="M201.64,82.41c-18.47,1.6-14.14-3.16-42.36-.07-17.1,1.86-2.34-25.87,6.38-34.6,9.44-9.44,24.61-8.92,30.62,0C205.25,61.06,211.85,81.53,201.64,82.41Z" fill="#e3b198"/>
            <path d="M358.21,179.1A178.16,178.16,0,0,1,324.27,284c-22.37-7.47-35.29-53.07-52.44-39.35a52.56,52.56,0,0,1-17.67,9.48c-12.27,3.68-21.13.72-21.13.72-18.37-12.25-2.8-49.14-2.8-49.14,4.4-1.7,8.7-3,12.8-4.8,10.39-4.59,19.25-8.49,27.79-13.72l.06,0c38.11-23.35,58.8-52.69,70.3-84.33.75,1.55,1.45,3.11,2.14,4.71A178.3,178.3,0,0,1,358.21,179.1Z" fill="#33150a"/>
            <path d="M109.81,203.82c0,.27,0,.53,0,.8-2.76,48.9-24.78,72.67-46,84.22h0A89.21,89.21,0,0,1,44,296.69,178.37,178.37,0,0,1,0,179.1c0-27,6.88-54.42,17.56-77.35,3.31,7.6,5.9,16.52,9.52,23.06,0,0,0,0,0,.08,16.67,30,35.92,49.25,51.64,61.19C96.54,199.6,109.81,203.82,109.81,203.82Z" fill="#33150a"/>
          </g>
          <g>
            <path d="M131.94,126.5c16.49-15.17,37.57-18.78,42.06-15.93,4.07,2.59,6.55,4.48,11.22.45,6.38-5.48,32.63,5.57,41.06,15.48-5.75,2.05-25.91,2.84-33.57,2.55q-19.15-.7-38.32-1.24C149.9,127.67,131.62,129.33,131.94,126.5Z" fill="#951f41"/>
            <path d="M132.16,127.23s13.06,30.39,48.09,28.85,46-29.58,46-29.58l-35,2.5-25.35-.85S138,125.94,132.16,127.23Z" fill="#c92765"/>
          </g>
        </g>
        <path d="M358.06,179.22A178.06,178.06,0,0,1,180,357.28V1.15A178.07,178.07,0,0,1,358.06,179.22Z" fill="#e72a33" opacity="0.25"/>
      </g>

      <animate
            id="frame1"
            attributeName="display"
            values="inline;none;none;none;none;none;none;none"
            keyTimes="0;0.15;0.30;0.45;0.60;0.75;0.9;1"
            dur="2s"
            begin="0s"
            repeatCount="indefinite" />
    </g>
  </g>
</svg>
