<svg xmlns="http://www.w3.org/2000/svg" xmlns:xlink="http://www.w3.org/1999/xlink" viewBox="0 0 360.51 361.83">
  <defs>
    <clipPath id="e28f1e8d-7402-47b7-927e-b09e992f4967" transform="translate(3.11 1.09)">
      <ellipse cx="179.11" cy="178.58" rx="179.11" ry="178.58" fill="none"/>
    </clipPath>
  </defs>
  <g id="b6f9661b-895c-4f26-9250-a8cc50c1938d" data-name="Camada 2">
    <g id="f83e782b-1abb-45ec-a7c8-3d55798d02e0" data-name="braco_7">
      <g clip-path="url(#e28f1e8d-7402-47b7-927e-b09e992f4967)">
        <ellipse cx="180.76" cy="179.63" rx="179.11" ry="178.58" fill="#fff"/>
        <g>
          <g>
            <path id="b6911c8f-4495-4b11-bef8-3b4870e424db" data-name="calça" d="M273,357.41c-2.43-41.61-5.15-73.63-8-85.08,3.84-24.9-40.13-112.51-40.13-112.51l-97.34-3-25.07,39.59s-22.71,44.2-23.67,66.24c-.32,7.3.7,44.13,3,95.07" transform="translate(3.11 1.09)" fill="#99c8ef"/>
            <path id="ac0b16de-ca4b-4bf3-9b25-d1b51a6383d4" data-name="calça" d="M175.9,357.74c-.69-19.3-1.18-31-1.18-31s.93,11.59,2.6,30.73" transform="translate(3.11 1.09)" fill="#fff"/>
          </g>
          <g>
            <path d="M286.39,42.74c3.81,73.11-.77,98.45-3.53,128.19-2.39,25.85-54.07,75.08-75.58,98.32-7.37,5.72-13.19-1.3-14.41-10.53C189.49,233.15,245.72,166,245.72,166s2.45-103.4,2.71-107.7S256.58,62.26,286.39,42.74Z" transform="translate(3.11 1.09)" fill="#fad4c3"/>
            <g>
              <path d="M178.85,297.94s-2-22.31,6.17-37.11c2-3.7,7.91-12.25,20.84,1.05s-.52,52.94-.52,52.94l-13.78,1.69-4.25-10.94-4.21-17.18,1.54,16.4Z" transform="translate(3.11 1.09)" fill="#fad4c3"/>
              <line x1="194.85" y1="289.34" x2="198.76" y2="317.24" fill="none" stroke="#bf8b77" stroke-miterlimit="10"/>
              <line x1="202.44" y1="288.73" x2="202.15" y2="316.55" fill="none" stroke="#bf8b77" stroke-miterlimit="10"/>
              <line x1="210.14" y1="291.33" x2="205.54" y2="315.85" fill="none" stroke="#bf8b77" stroke-miterlimit="10"/>
            </g>
          </g>
          <g>
            <path d="M68,43.19c-6.73,44.06-2.88,121.65,7.69,154.22,8.64,16.29,54.76,29.7,105.68,36.4,9.26,1.22,18.58-12.45,10.57-17.24-38.43-23-85.51-38.32-85.51-38.32s-1-46,0-112.07C90.07,56.6,86.22,54.68,68,43.19Z" transform="translate(3.11 1.09)" fill="#fad4c3"/>
            <g>
              <path d="M214.77,260.46,193,254.62l-12-17.37s-1.36-18.28,13-19.45l12.25,2.6s.3,0,0,1a16.71,16.71,0,0,0-1,4.79l-.73.53,5.26,9.87L234.8,251Z" transform="translate(3.11 1.09)" fill="#f4c0b0"/>
              <polyline points="201.98 235.6 206.43 241.35 232.41 254.66" fill="none" stroke="#ce977c" stroke-miterlimit="10"/>
              <polyline points="199.34 240.18 203.57 247.44 225.81 257.8" fill="none" stroke="#ce977c" stroke-miterlimit="10"/>
              <polyline points="197.41 246.67 199.96 252.56 217.89 261.56" fill="none" stroke="#ce977c" stroke-miterlimit="10"/>
            </g>
          </g>
          <g>
            <path d="M111.71-.4C99.52,4.52,88.5,10.05,84.62,15.09,68.93,28.82,64.13,41.27,64.13,41.27l41.31,24.91s-6.73,85.37,4.8,107.88c17.48,4,45.61,5.62,66,3.87,31.13-2.66,54.29-10,59.88-2.55,19.29-21,11.85-24.27,11.85-114.31,27.55-.64,45.8-11.18,45.8-11.18S281.63,20.64,266.53,8.7c-3.77-3-9.67-6-16.26-8.89" transform="translate(3.11 1.09)" fill="#b05771"/>
            <path d="M155,108.31l3.64-1.53c9.66-4,35.5-14.8,40.42-16,6.09-1.47.73,3,.73,3Z" transform="translate(3.11 1.09)" fill="#995068"/>
            <path d="M174.68,162.6c-18.06-.77-40.32-59.86-40.32-59.86" transform="translate(3.11 1.09)" fill="#995068"/>
            <line x1="111.99" y1="69.8" x2="113.76" y2="48.46" fill="#995068"/>
            <line x1="249.32" y1="66.72" x2="248.65" y2="50.72" fill="#995068"/>
          </g>
        </g>
        <path d="M357.4,178.25c0,98.63-80.2,178.58-179.11,178.58V-.32C277.2-.32,357.4,79.63,357.4,178.25Z" transform="translate(3.11 1.09)" fill="#e72a33" opacity="0.27"/>
      </g>
      
      <animate
            id="frame7"
            attributeName="display"
            values="none;none;none;none;none;none;inline"
            keyTimes="0;0.16;0.32;0.48;0.64;0.8;1"
            dur="2s"
            begin="0s"
            repeatCount="indefinite" />
    </g>
    
    <g id="b82dc1a2-aa70-416f-8b1b-4e656212bdac" data-name="braco_6">
      <g clip-path="url(#e28f1e8d-7402-47b7-927e-b09e992f4967)">
        <ellipse cx="179.13" cy="179.63" rx="179.11" ry="178.58" fill="#fff"/>
        <g>
          <g>
            <path id="b12b9482-7eb3-4b4a-832b-080b1739227d" data-name="calça" d="M271.71,357.69c-2.44-41.75-5.16-73.88-8-85.36,3.84-24.9-40.12-112.51-40.12-112.51l-97.35-3-25.07,39.59s-22.71,44.2-23.67,66.24c-.32,7.29.7,44.09,3.05,95" transform="translate(3.11 1.09)" fill="#99c8ef"/>
            <path id="b601943c-e00b-4652-9d38-1e1b24fabf1f" data-name="calça" d="M174.56,357.57c-.69-19.2-1.18-30.82-1.18-30.82s.94,11.68,2.62,30.94" transform="translate(3.11 1.09)" fill="#fff"/>
          </g>
          <g>
            <path d="M279,38.27c13.43,72,12.23,97.69,13.43,127.53,1,25.94-34.58,92.92-52.84,118.78-6.56,6.63-12.94,13.78-15.37,4.79-6.73-24.9,30.74-123.57,30.74-123.57S243.72,63,243.4,58.68,252,61.53,279,38.27Z" transform="translate(3.11 1.09)" fill="#fad4c3"/>
            <g>
              <path d="M212.1,320.93s-2-22.31,6.17-37.11c2-3.7,7.91-12.25,20.84,1.05s-.52,52.94-.52,52.94l-13.78,1.69-4.26-10.94-4.2-17.18,1.54,16.4Z" transform="translate(3.11 1.09)" fill="#fad4c3"/>
              <line x1="228.1" y1="312.33" x2="232.01" y2="340.23" fill="none" stroke="#bf8b77" stroke-miterlimit="10"/>
              <line x1="235.69" y1="311.72" x2="235.4" y2="339.54" fill="none" stroke="#bf8b77" stroke-miterlimit="10"/>
              <line x1="243.39" y1="314.32" x2="238.79" y2="338.84" fill="none" stroke="#bf8b77" stroke-miterlimit="10"/>
            </g>
          </g>
          <g>
            <path d="M112.11-1.09C99.24,4,87.35,9.81,83.29,15.09c-15.7,13.73-20.5,26.18-20.5,26.18L104.1,66.18s-6.72,85.37,4.81,107.88c17.47,4,45.61,5.62,66,3.87,31.14-2.66,54.29-10,59.89-2.55,19.28-21,11.85-24.27,11.85-114.31,27.54-.64,45.79-11.18,45.79-11.18S280.29,20.64,265.19,8.7c-4-3.18-10.49-6.45-17.64-9.48" transform="translate(3.11 1.09)" fill="#b05771"/>
            <path d="M153.63,108.31l3.64-1.53c9.66-4,35.5-14.8,40.43-16,6.08-1.47.72,3,.72,3Z" transform="translate(3.11 1.09)" fill="#995068"/>
            <path d="M173.34,162.6c-18.06-.77-40.32-59.86-40.32-59.86" transform="translate(3.11 1.09)" fill="#995068"/>
            <line x1="110.66" y1="69.8" x2="112.42" y2="48.46" fill="#995068"/>
            <line x1="247.98" y1="66.72" x2="247.31" y2="50.72" fill="#995068"/>
          </g>
          <g>
            <path d="M66.63,43.19c-6.72,44.06,13.45,114,24,146.56C99.3,206,124.28,224.23,204,249.14c8.91,2.78,18.94-11.46,12.49-18.2-39.39-41.19-92.23-56.52-92.23-56.52s-8.65-42.15-19.22-108.24C88.73,56.6,84.89,54.68,66.63,43.19Z" transform="translate(3.11 1.09)" fill="#fad4c3"/>
            <g>
              <path d="M240.34,273.88,218.6,268l-12-17.37s-1.36-18.28,13-19.45l12.24,2.6s.31.05,0,1a16.71,16.71,0,0,0-1,4.79l-.73.53,5.27,9.88,24.9,14.4Z" transform="translate(3.11 1.09)" fill="#f4c0b0"/>
              <polyline points="227.55 249.01 232 254.76 257.97 268.08" fill="none" stroke="#ce977c" stroke-miterlimit="10"/>
              <polyline points="224.9 253.59 229.14 260.86 251.38 271.21" fill="none" stroke="#ce977c" stroke-miterlimit="10"/>
              <polyline points="222.98 260.08 225.52 265.97 243.45 274.97" fill="none" stroke="#ce977c" stroke-miterlimit="10"/>
            </g>
          </g>
        </g>
        <path d="M355.77,178.25c0,98.63-80.19,178.58-179.11,178.58V-.32C275.58-.32,355.77,79.63,355.77,178.25Z" transform="translate(3.11 1.09)" fill="#e72a33" opacity="0.27"/>
      </g>
      
      <animate
            id="frame6"
            attributeName="display"
            values="none;none;none;none;none;inline;none"
            keyTimes="0;0.16;0.32;0.48;0.64;0.8;1"
            dur="2s"
            begin="0s"
            repeatCount="indefinite" />
    </g>
    
    <g id="a4a1c0eb-58fb-4f39-bab8-bc987d0e81b6" data-name="braco_5">
      <g clip-path="url(#e28f1e8d-7402-47b7-927e-b09e992f4967)">
        <ellipse cx="179.11" cy="179.63" rx="179.11" ry="178.58" fill="#fff"/>
        <g>
          <g>
            <path id="a354f39e-0652-473e-97b5-99f157f0cdaa" data-name="calça" d="M271.37,357.9c-2.44-41.85-5.17-74.07-8-85.57,3.84-24.9-40.13-112.51-40.13-112.51l-97.35-3-25.06,39.59s-22.72,44.2-23.68,66.24c-.32,7.3.71,44.13,3.06,95.06" transform="translate(3.11 1.09)" fill="#99c8ef"/>
            <path id="ad2a38b9-a7ed-44f9-a0ed-1c69e664478b" data-name="calça" d="M174.23,357.89c-.7-19.39-1.2-31.14-1.2-31.14s.95,11.76,2.64,31.15" transform="translate(3.11 1.09)" fill="#fff"/>
          </g>
          <g>
            <path d="M278.63,38.27c13.91,76.66,2.31,106,3.7,137.74,1.21,27.6,9.29,106.05-8.81,133.45-6.52,7-7.3,5.16-10.6-4.15-9.78-27.57-12.32-129.5-12.32-129.5s-7.09-111.47-7.43-116S251.79,62.85,278.63,38.27Z" transform="translate(3.11 1.09)" fill="#fad4c3"/>
            <path d="M264.44,297s11.08-8.52,14.09,0,17.93,33.49,15.05,41.2-15.85,23-17.29,22.55S275.81,331,272,323.86s-1,14.32-1,14.32c-7.4,0-3.51,6.16-6.56-5.76S260.77,300.87,264.44,297Z" transform="translate(3.11 1.09)" fill="#fad4c3"/>
          </g>
          <g>
            <path d="M110.31-.52C98,4.44,86.85,10,82.94,15.09c-15.69,13.73-20.5,26.18-20.5,26.18l41.32,24.91s-6.73,85.37,4.8,107.88c17.47,4,45.61,5.62,66,3.87,31.14-2.66,54.29-10,59.89-2.55,19.28-21,11.85-24.27,11.85-114.31,27.54-.64,45.8-11.18,45.8-11.18S279.94,20.64,264.85,8.7c-3.92-3.09-10.11-6.26-17-9.21" transform="translate(3.11 1.09)" fill="#b05771"/>
            <path d="M153.28,108.31l3.65-1.53c9.66-4,35.49-14.8,40.42-16,6.09-1.47.73,3,.73,3Z" transform="translate(3.11 1.09)" fill="#995068"/>
            <path d="M173,162.6c-18.07-.77-40.33-59.86-40.33-59.86" transform="translate(3.11 1.09)" fill="#995068"/>
            <line x1="110.31" y1="69.8" x2="112.08" y2="48.46" fill="#995068"/>
            <line x1="247.64" y1="66.72" x2="246.97" y2="50.72" fill="#995068"/>
          </g>
          <g>
            <path d="M66.29,43.19C59.56,87.25,94.15,162,104.72,194.54c8.64,16.28,35.55,39.27,110.49,74.71,8.43,4,12.54-4.49,7.68-12.45-26.9-44.06-84.55-78.55-84.55-78.55s-14.41-44.06-33.62-112.07C88.38,56.6,84.54,54.68,66.29,43.19Z" transform="translate(3.11 1.09)" fill="#fad4c3"/>
            <g>
              <path d="M240,293l-21.73-5.84-12-17.37s-1.37-18.29,13-19.45L236.22,253s7.45,3.68,10.42,7.63c1.53,2,3.27,4.92,3.27,4.92l-20.06-6.31,5.26,9.87L260,283.53Z" transform="translate(3.11 1.09)" fill="#fad4c3"/>
              <polyline points="227.2 268.17 231.65 273.92 257.63 287.23" fill="none" stroke="#ce977c" stroke-miterlimit="10"/>
              <polyline points="224.56 272.74 228.79 280.01 251.03 290.36" fill="none" stroke="#ce977c" stroke-miterlimit="10"/>
              <polyline points="222.63 279.24 225.18 285.13 243.1 294.13" fill="none" stroke="#ce977c" stroke-miterlimit="10"/>
            </g>
          </g>
        </g>
        <path d="M355.75,178.25c0,98.63-80.2,178.58-179.11,178.58V-.32C275.55-.32,355.75,79.63,355.75,178.25Z" transform="translate(3.11 1.09)" fill="#e72a33" opacity="0.27"/>
      </g>
      <animate
            id="frame5"
            attributeName="display"
            values="none;none;none;none;inline;none;none"
            keyTimes="0;0.16;0.32;0.48;0.64;0.8;1"
            dur="2s"
            begin="0s"
            repeatCount="indefinite" />      
    </g>

    <g id="b84bee73-1e35-4386-b726-1a39fdb052b0" data-name="braco_4">
      <g clip-path="url(#e28f1e8d-7402-47b7-927e-b09e992f4967)">
        <ellipse cx="180.68" cy="179.63" rx="179.11" ry="178.58" fill="#fff"/>
        <g>
          <g>
            <path id="a21dab31-d2e7-4f32-be4a-89471d7984e0" data-name="calça" d="M273.29,358c-2.44-41.88-5.17-74.14-8.05-85.64,3.84-24.9-40.13-112.51-40.13-112.51l-97.34-3L102.7,196.45S80,240.65,79,262.69c-.32,7.3.7,44.12,3,95.06" transform="translate(3.11 1.09)" fill="#99c8ef"/>
            <path id="f106091e-bcab-4f86-ace9-d26ab9c895cd" data-name="calça" d="M176.17,358.76c-.71-19.91-1.22-32-1.22-32s1,11.8,2.64,31.25" transform="translate(3.11 1.09)" fill="#fff"/>
          </g>
          <g>
            <path d="M280.55,38.27c13.91,76.77,2.32,106.13,3.71,137.93,1.22,27.64,9.31,106.2-8.79,133.63-6.52,7-7.3,5.17-10.6-4.15C255.09,278.06,252.54,176,252.54,176s-7.12-111.62-7.46-116.2S253.71,62.88,280.55,38.27Z" transform="translate(3.11 1.09)" fill="#fad4c3"/>
            <path d="M266.36,296.08s11.07-8.53,14.09-.05,17.93,33.49,15,41.19-15.85,23-17.29,22.55-.48-29.69-4.32-36.87-1,14.32-1,14.32c-7.41,0-3.51,6.17-6.56-5.75S262.68,299.91,266.36,296.08Z" transform="translate(3.11 1.09)" fill="#fad4c3"/>
          </g>
          <g>
            <path d="M68.93,38.43C56.77,112.12,63.68,152.18,68.2,184c1,13.71,31.71,38.32,106.65,57.48,9,2.31,18.09-10.78,10.56-16.29-47.07-34.48-81.66-59.39-81.66-59.39s2.29-86.4,3.71-105C91.49,53.46,80.65,50.7,68.93,38.43Z" transform="translate(3.11 1.09)" fill="#fad4c3"/>
            <g>
              <path d="M209.24,271l-21.73-5.84-12-17.37s-1.37-18.29,13-19.45L205.47,231s7.45,3.68,10.42,7.63c1.53,2,3.27,4.92,3.27,4.92l-20.06-6.32,5.26,9.88,24.91,14.41Z" transform="translate(3.11 1.09)" fill="#fad4c3"/>
              <polyline points="196.45 246.13 200.9 251.89 226.88 265.2" fill="none" stroke="#ce977c" stroke-miterlimit="10"/>
              <polyline points="193.81 250.71 198.04 257.98 220.28 268.33" fill="none" stroke="#ce977c" stroke-miterlimit="10"/>
              <polyline points="191.88 257.21 194.43 263.09 212.35 272.1" fill="none" stroke="#ce977c" stroke-miterlimit="10"/>
            </g>
          </g>
          <g>
            <path d="M111.8-.34C99.66,4.57,88.72,10.07,84.85,15.09,69.16,28.82,64.36,41.27,64.36,41.27l41.31,24.91s-6.72,85.37,4.8,107.88c17.48,4,45.61,5.62,66,3.87,31.14-2.66,54.29-10,59.89-2.55,19.28-21,11.85-24.27,11.85-114.31C275.73,60.43,294,49.89,294,49.89S281.86,20.64,266.76,8.7c-3.7-2.92-9.44-5.91-15.88-8.72" transform="translate(3.11 1.09)" fill="#b05771"/>
            <line x1="249.55" y1="66.72" x2="248.88" y2="50.72" fill="#995068"/>
            <line x1="109.26" y1="67.75" x2="118.87" y2="48.59" fill="#995068"/>
            <path d="M155.2,108.31l3.64-1.53c9.66-4,35.5-14.8,40.42-16,6.09-1.47.73,3,.73,3Z" transform="translate(3.11 1.09)" fill="#995068"/>
            <path d="M174.91,162.6c-18.06-.77-40.32-59.86-40.32-59.86" transform="translate(3.11 1.09)" fill="#995068"/>
          </g>
        </g>
        <path d="M357.32,178.25c0,98.63-80.19,178.58-179.11,178.58V-.32C277.13-.32,357.32,79.63,357.32,178.25Z" transform="translate(3.11 1.09)" fill="#e72a33" opacity="0.27"/>
      </g>
      <animate
            id="frame4"
            attributeName="display"
            values="none;none;none;inline;none;none;none"
            keyTimes="0;0.16;0.32;0.48;0.64;0.8;1"
            dur="2s"
            begin="0s"
            repeatCount="indefinite" />
    </g>

    <g id="a694e4d0-8eef-4221-abf8-daa66df3f944" data-name="braco_3">
      <g clip-path="url(#e28f1e8d-7402-47b7-927e-b09e992f4967)">
        <ellipse cx="180.63" cy="179.64" rx="179.11" ry="178.58" fill="#fff"/>
        <g>
          <g>
            <path id="aa77d0c7-11a8-4109-b170-3c2bb2b32418" data-name="calça" d="M274,357.79c-2.44-41.79-5.16-74-8-85.45,3.84-24.9-40-112.51-40-112.51l-97.11-3-25,39.59S81.14,240.67,80.18,262.7c-.32,7.29.7,44.05,3,94.9" transform="translate(3.11 1.09)" fill="#99c8ef"/>
            <path id="a027f66b-f5a1-4f77-8534-e21a7b783718" data-name="calça" d="M177.05,357.69c-.7-19.27-1.19-30.93-1.19-30.93s.95,11.72,2.62,31.05" transform="translate(3.11 1.09)" fill="#fff"/>
          </g>
          <g>
            <path d="M72.54,34.14c-21.67,71.47-27.43,113.9-27.12,146-.75,13.73,45.05,30.65,120.76,37.36,9.28.82,19.65-11.78,11.5-16.29C124,171.56,82.8,162.94,82.8,162.94S103.88,79.6,107.72,61.4C92.88,52,82.53,47.83,72.54,34.14Z" transform="translate(3.11 1.09)" fill="#fad4c3"/>
            <g>
              <path d="M189.48,239.71l-20.73-8.63L159.2,212.3s1-18.31,15.39-17.59l16.4,4.83s6.89,4.61,9.3,8.92c1.25,2.22,2.6,5.3,2.6,5.3l-19-8.87,3.91,10.48,22.75,17.53Z" transform="translate(3.11 1.09)" fill="#fad4c3"/>
              <polyline points="180.26 212.99 183.91 219.27 207.86 235.86" fill="none" stroke="#ce977c" stroke-miterlimit="10"/>
              <polyline points="177.05 217.18 180.28 224.94 200.93 238.1" fill="none" stroke="#ce977c" stroke-miterlimit="10"/>
              <polyline points="174.29 223.37 176.04 229.54 192.59 240.8" fill="none" stroke="#ce977c" stroke-miterlimit="10"/>
            </g>
          </g>
          <g>
            <path d="M281.2,38.28c16.28,73.89,15.05,98.29,16.25,128.14,1,25.94-23,111.21-31.6,116.26-6.54,6.63-14.53,10.1-16.29.95-4.79-24.9,11.5-117.82,11.5-117.82S246,63,245.72,58.69,254.3,61.55,281.2,38.28Z" transform="translate(3.11 1.09)" fill="#fad4c3"/>
            <path d="M238.32,315.81s-1.48-22.36,6.9-37c2.09-3.66,8.08-12.09,20.59,1.5s-1.64,53-1.64,53l-13.67,1.4-4-11-3.79-17.28,1.17,16.44Z" transform="translate(3.11 1.09)" fill="#fad4c3"/>
            <line x1="254.39" y1="307.48" x2="257.66" y2="335.48" fill="none" stroke="#bf8b77" stroke-miterlimit="10"/>
            <line x1="261.92" y1="307.04" x2="261.03" y2="334.86" fill="none" stroke="#bf8b77" stroke-miterlimit="10"/>
            <line x1="269.48" y1="309.8" x2="264.4" y2="334.24" fill="none" stroke="#bf8b77" stroke-miterlimit="10"/>
          </g>
          <g>
            <path d="M113.37-.53C101.07,4.43,89.9,10,86,15.1,70.34,28.83,65.55,41.28,65.55,41.28l41.21,24.91s-6.71,85.37,4.79,107.88c17.43,4,45.5,5.62,65.81,3.87,31.06-2.66,54.16-10,59.74-2.55,19.23-21,11.82-24.27,11.82-114.31,27.47-.64,45.68-11.18,45.68-11.18S282.51,20.65,267.45,8.71c-3.85-3.05-9.94-6.18-16.71-9.1" transform="translate(3.11 1.09)" fill="#b05771"/>
            <line x1="110.35" y1="67.76" x2="119.93" y2="48.6" fill="#995068"/>
            <line x1="250.29" y1="66.73" x2="249.62" y2="50.73" fill="#995068"/>
            <path d="M156.16,108.32l3.64-1.53c9.63-4.05,35.41-14.8,40.32-16,6.07-1.46.73,3,.73,3Z" transform="translate(3.11 1.09)" fill="#995068"/>
            <path d="M175.83,162.61c-18-.77-40.22-59.86-40.22-59.86" transform="translate(3.11 1.09)" fill="#995068"/>
          </g>
        </g>
        <path d="M357.27,178.27c0,98.62-80.19,178.57-179.11,178.57V-.31C277.08-.31,357.27,79.64,357.27,178.27Z" transform="translate(3.11 1.09)" fill="#e72a33" opacity="0.27"/>
      </g>
      <animate
            id="frame3"
            attributeName="display"
            values="none;none;inline;none;none;none;none"
            keyTimes="0;0.16;0.32;0.48;0.64;0.8;1"
            dur="2s"
            begin="0s"
            repeatCount="indefinite" />
    </g>
    
    <g id="ae44609f-500c-4408-a272-df0e51190dc8" data-name="braco_2">
      <g clip-path="url(#e28f1e8d-7402-47b7-927e-b09e992f4967)">
        <ellipse cx="180.63" cy="179.64" rx="179.11" ry="178.58" fill="#fff"/>
        <g>
          <g>
            <path id="fcc611bf-b337-415d-a2d1-7b8adbc5fc01" data-name="calça" d="M272.92,357.79c-2.43-41.79-5.16-74-8-85.45,3.84-24.9-40.13-112.51-40.13-112.51l-97.34-3-25.07,39.59s-22.71,44.2-23.67,66.24c-.32,7.31.71,44.29,3.07,95.41" transform="translate(3.11 1.09)" fill="#99c8ef"/>
            <path id="b7b7179a-cdc4-4e82-9783-506753afdf4f" data-name="calça" d="M175.8,358.3c-.71-19.63-1.21-31.54-1.21-31.54s.94,11.72,2.62,31" transform="translate(3.11 1.09)" fill="#fff"/>
          </g>
          <g>
            <path d="M280.19,38.28c16.31,73.89,15.08,98.29,16.28,128.14,1,25.94-86.35,80-95,85-6.55,6.63-.08,1-5.54-6.54-13.71-19,64.08-79.09,64.08-79.09S244.93,63,244.61,58.69,253.21,61.55,280.19,38.28Z" transform="translate(3.11 1.09)" fill="#fad4c3"/>
            <g>
              <path d="M163.17,265.61s10.06-20,24.79-28.36c3.68-2.08,13.18-6.29,17.18,11.8s-28.3,44.79-28.3,44.79l-12.63-5.77,2.14-11.53,5.47-16.83-7.33,14.76Z" transform="translate(3.11 1.09)" fill="#fad4c3"/>
              <line x1="182.36" y1="265.2" x2="170.99" y2="290.99" fill="none" stroke="#bf8b77" stroke-miterlimit="10"/>
              <line x1="189.14" y1="268.66" x2="174.25" y2="292.18" fill="none" stroke="#bf8b77" stroke-miterlimit="10"/>
              <line x1="194.33" y1="274.9" x2="177.5" y2="293.36" fill="none" stroke="#bf8b77" stroke-miterlimit="10"/>
            </g>
          </g>
          <g>
            <path d="M71,34.14c-21.72,71.47-27.5,113.9-27.19,146-.75,13.73,45.16,30.65,121.06,37.36,9.3.82,19.7-11.78,11.53-16.29-53.8-29.69-95.12-38.31-95.12-38.31s21.14-83.34,25-101.54C91.4,52,81,47.83,71,34.14Z" transform="translate(3.11 1.09)" fill="#fad4c3"/>
            <g>
              <path d="M180.39,244.9l-17.77-13.76-4.3-20.63s5.83-17.39,19.52-12.93l14.59,9s5.45,6.26,6.65,11.05c.63,2.47,1.11,5.8,1.11,5.8l-16.05-13.56,1,11.14,17.39,22.88Z" transform="translate(3.11 1.09)" fill="#fad4c3"/>
              <polyline points="178.9 215.93 180.78 222.95 199.57 245.24" fill="none" stroke="#ce977c" stroke-miterlimit="10"/>
              <polyline points="174.69 219.13 175.78 227.47 192.28 245.58" fill="none" stroke="#ce977c" stroke-miterlimit="10"/>
              <polyline points="170.39 224.38 170.46 230.79 183.51 246" fill="none" stroke="#ce977c" stroke-miterlimit="10"/>
            </g>
          </g>
          <g>
            <path d="M111.74-.45C99.49,4.49,88.39,10,84.49,15.1,68.8,28.83,64,41.28,64,41.28l41.31,24.91s-6.72,85.37,4.81,107.88c17.47,4,45.6,5.62,66,3.87,31.14-2.66,54.29-10,59.89-2.55,19.28-21,11.85-24.27,11.85-114.31,27.54-.64,45.79-11.18,45.79-11.18S281.5,20.65,266.4,8.71c-3.84-3-9.88-6.14-16.61-9" transform="translate(3.11 1.09)" fill="#b05771"/>
            <path d="M154.84,108.32l3.64-1.53c9.66-4.05,35.5-14.8,40.42-16,6.09-1.47.73,3,.73,3Z" transform="translate(3.11 1.09)" fill="#995068"/>
            <path d="M174.55,162.61c-18.06-.77-40.32-59.86-40.32-59.86" transform="translate(3.11 1.09)" fill="#995068"/>
            <line x1="108.9" y1="67.76" x2="118.51" y2="48.6" fill="#995068"/>
            <line x1="249.19" y1="66.73" x2="248.52" y2="50.73" fill="#995068"/>
          </g>
        </g>
        <path d="M357.27,178.27c0,98.62-80.19,178.57-179.11,178.57V-.31C277.08-.31,357.27,79.64,357.27,178.27Z" transform="translate(3.11 1.09)" fill="#e72a33" opacity="0.27"/>
      </g>
      <animate
            id="frame2"
            attributeName="display"
            values="none;inline;none;none;none;none;none"
            keyTimes="0;0.16;0.32;0.48;0.64;0.8;1"
            dur="2s"
            begin="0s"
            repeatCount="indefinite" />
    </g>

    <g id="ab89221d-636a-4c70-b93f-7714ec7cd3a9" data-name="braco_1">
      <g clip-path="url(#e28f1e8d-7402-47b7-927e-b09e992f4967)">
        <ellipse cx="180.6" cy="179.63" rx="179.11" ry="178.58" fill="#fff"/>
        <g>
          <g>
            <path id="b556149b-279b-4b9c-b122-8b17b70d0d45" data-name="calça" d="M274.36,358.42c-2.44-42.1-5.18-74.54-8.07-86.09,3.84-24.9-40.13-112.51-40.13-112.51l-97.35-3-25.06,39.59S81,240.65,80.07,262.69c-.32,7.31.71,44.32,3.08,95.46" transform="translate(3.11 1.09)" fill="#99c8ef"/>
            <path id="fecdc5ca-44eb-4b70-a2bf-4fb401e26fca" data-name="calça" d="M177.19,358.14c-.7-19.54-1.2-31.39-1.2-31.39s1,12,2.68,31.67" transform="translate(3.11 1.09)" fill="#fff"/>
          </g>
          <g>
            <path d="M288.3,49.89c2.74,74.63-11.72,97.56-14.41,128.36-2.26,25.87-102.8,57.48-112.41,60.35-7.94,4.91-.32,1-3.84-7.66-8.85-21.65,87.43-61.31,87.43-61.31s3.13-104,3.84-108.24S256.6,66.18,288.3,49.89Z" transform="translate(3.11 1.09)" fill="#fad4c3"/>
            <g>
              <path d="M120.84,244.07s14.51-17.1,30.78-21.75c4.08-1.16,14.3-3,13.92,15.5s-38.08,36.89-38.08,36.89l-10.91-8.57,4.8-10.71,9.28-15.07L120,253Z" transform="translate(3.11 1.09)" fill="#fad4c3"/>
              <line x1="139.93" y1="247.46" x2="122.8" y2="269.87" fill="none" stroke="#bf8b77" stroke-miterlimit="10"/>
              <line x1="145.71" y1="252.42" x2="125.68" y2="271.79" fill="none" stroke="#bf8b77" stroke-miterlimit="10"/>
              <line x1="149.28" y1="259.7" x2="128.56" y2="273.7" fill="none" stroke="#bf8b77" stroke-miterlimit="10"/>
            </g>
          </g>
          <g>
            <path d="M72.41,34.13C50.69,105.6,44.92,148,45.23,180.17c-.76,13.73,45.15,30.65,121.05,37.36,9.31.82,19.7-11.78,11.53-16.29C124,171.55,82.7,162.93,82.7,162.93s21.13-83.34,25-101.54C92.81,52,82.43,47.82,72.41,34.13Z" transform="translate(3.11 1.09)" fill="#fad4c3"/>
            <g>
              <path d="M183.89,235.3l-18-6.5-7.14-16.92s2.37-17.3,15.24-17.74l15.39,1.37-4.5,5.16L181.55,203l2.71,9.55,19.12,14.72Z" transform="translate(3.11 1.09)" fill="#f4c0b0"/>
              <polyline points="178.07 211.2 180.86 216.82 201.14 230.57" fill="none" stroke="#ce977c" stroke-miterlimit="10"/>
              <polyline points="174.84 215.39 177.15 222.44 194.72 233.22" fill="none" stroke="#ce977c" stroke-miterlimit="10"/>
              <polyline points="171.88 221.43 172.97 227.09 187 236.4" fill="none" stroke="#ce977c" stroke-miterlimit="10"/>
            </g>
          </g>
          <g>
            <path d="M114-.79c-12.57,5-24.07,10.71-28,15.88C70.21,28.82,65.4,41.27,65.4,41.27l41.32,24.91s-6.73,85.37,4.8,107.88c17.47,4,45.61,5.62,66,3.87,31.14-2.66,54.29-10,59.89-2.55,19.28-21,11.85-24.27,11.85-114.31,27.54-.64,45.8-11.18,45.8-11.18S282.9,20.64,267.81,8.7c-4.05-3.19-10.53-6.47-17.69-9.5" transform="translate(3.11 1.09)" fill="#b05771"/>
            <path d="M156.24,108.31l3.65-1.53c9.66-4,35.49-14.8,40.42-16,6.09-1.47.73,3,.73,3Z" transform="translate(3.11 1.09)" fill="#995068"/>
            <line x1="110.31" y1="67.75" x2="119.92" y2="48.59" fill="#995068"/>
            <path d="M176,162.6c-18.07-.77-40.33-59.86-40.33-59.86" transform="translate(3.11 1.09)" fill="#995068"/>
            <line x1="250.6" y1="66.72" x2="249.93" y2="50.72" fill="#995068"/>
          </g>
        </g>
        <path d="M357.24,178.25c0,98.63-80.19,178.58-179.11,178.58V-.32C277.05-.32,357.24,79.63,357.24,178.25Z" transform="translate(3.11 1.09)" fill="#e72a33" opacity="0.27"/>
      </g>
      <animate
            id="frame1"
            attributeName="display"
            values="inline;none;none;none;none;none;none"
            keyTimes="0;0.16;0.32;0.48;0.64;0.8;1"
            dur="2s"
            begin="0s"
            repeatCount="indefinite" />
    </g>

  </g>
</svg>
