<svg xmlns="http://www.w3.org/2000/svg" xmlns:xlink="http://www.w3.org/1999/xlink" viewBox="0 0 358.86 359.23">
  <defs>
    <clipPath id="bcf429df-dcc6-4052-b0a9-df2a4b270976" transform="translate(1.62 0.8)">
      <ellipse cx="179.11" cy="178.58" rx="179.11" ry="178.58" fill="none"/>
    </clipPath>
  </defs>
  <g id="b6d11094-d39e-482d-92b1-70a7646f2154" data-name="Camada 2">
    <g id="b65c01e0-0fb4-4f1e-80f1-3815e089b812" data-name="braco_1">
      <g clip-path="url(#bcf429df-dcc6-4052-b0a9-df2a4b270976)">
        <ellipse cx="179.11" cy="179.34" rx="179.11" ry="178.58" fill="#fff"/>
        <g>
          <g>
            <path id="e8662724-c683-4a81-88bb-88e81583a721" data-name="calça" d="M274.36,358.42c-2.44-42.1-5.18-74.54-8.07-86.09,3.84-24.9-40.13-112.51-40.13-112.51l-97.35-3-25.06,39.59S81,240.65,80.07,262.69c-.32,7.31.71,44.32,3.08,95.46" transform="translate(1.62 0.8)" fill="#99c8ef"/>
            <path id="be426ad5-67e6-4577-bc2b-e98790711a9d" data-name="calça" d="M177.19,358.14c-.7-19.54-1.2-31.39-1.2-31.39s1,12,2.68,31.67" transform="translate(1.62 0.8)" fill="#fff"/>
          </g>
          <g>
            <path d="M288.3,49.89c2.74,74.63-11.72,97.56-14.41,128.36-2.26,25.87-102.8,57.48-112.41,60.35-7.94,4.91-.32,1-3.84-7.66-8.85-21.65,87.43-61.31,87.43-61.31s3.13-104,3.84-108.24S256.6,66.18,288.3,49.89Z" transform="translate(1.62 0.8)" fill="#fad4c3"/>
            <g>
              <path d="M120.84,244.07s14.51-17.1,30.78-21.75c4.08-1.16,14.3-3,13.92,15.5s-38.08,36.89-38.08,36.89l-10.91-8.57,4.8-10.71,9.28-15.07L120,253Z" transform="translate(1.62 0.8)" fill="#fad4c3"/>
              <line x1="138.44" y1="247.17" x2="121.3" y2="269.58" fill="none" stroke="#bf8b77" stroke-miterlimit="10"/>
              <line x1="144.21" y1="252.13" x2="124.19" y2="271.49" fill="none" stroke="#bf8b77" stroke-miterlimit="10"/>
              <line x1="147.78" y1="259.41" x2="127.07" y2="273.41" fill="none" stroke="#bf8b77" stroke-miterlimit="10"/>
            </g>
          </g>
          <g>
            <path d="M72.41,34.13C50.69,105.6,44.92,148,45.23,180.17c-.76,13.73,45.15,30.65,121.05,37.36,9.31.82,19.7-11.78,11.53-16.29C124,171.55,82.7,162.93,82.7,162.93s21.13-83.34,25-101.54C92.81,52,82.43,47.82,72.41,34.13Z" transform="translate(1.62 0.8)" fill="#fad4c3"/>
            <g>
              <path d="M183.89,235.3l-18-6.5-7.14-16.92s2.37-17.3,15.24-17.74l15.39,1.37-4.5,5.16L181.55,203l2.71,9.55,19.12,14.72Z" transform="translate(1.62 0.8)" fill="#f4c0b0"/>
              <polyline points="176.57 210.91 179.36 216.53 199.64 230.27" fill="none" stroke="#ce977c" stroke-miterlimit="10"/>
              <polyline points="173.35 215.1 175.66 222.15 193.22 232.92" fill="none" stroke="#ce977c" stroke-miterlimit="10"/>
              <polyline points="170.38 221.14 171.48 226.8 185.51 236.11" fill="none" stroke="#ce977c" stroke-miterlimit="10"/>
            </g>
          </g>
          <g>
            <path d="M114-.79c-12.57,5-24.07,10.71-28,15.88C70.21,28.82,65.4,41.27,65.4,41.27l41.32,24.91s-6.73,85.37,4.8,107.88c17.47,4,45.61,5.62,66,3.87,31.14-2.66,54.29-10,59.89-2.55,19.28-21,11.85-24.27,11.85-114.31,27.54-.64,45.8-11.18,45.8-11.18S282.9,20.64,267.81,8.7c-4.05-3.19-10.53-6.47-17.69-9.5" transform="translate(1.62 0.8)" fill="#b05771"/>
            <path d="M156.24,108.31l3.65-1.53c9.66-4,35.49-14.8,40.42-16,6.09-1.47.73,3,.73,3Z" transform="translate(1.62 0.8)" fill="#995068"/>
            <line x1="108.81" y1="67.46" x2="118.42" y2="48.3" fill="#995068"/>
            <path d="M176,162.6c-18.07-.77-40.33-59.86-40.33-59.86" transform="translate(1.62 0.8)" fill="#995068"/>
            <line x1="249.1" y1="66.43" x2="248.43" y2="50.43" fill="#995068"/>
          </g>
        </g>
        <path d="M357.24,178.25c0,98.63-80.19,178.58-179.11,178.58V-.32C277.05-.32,357.24,79.63,357.24,178.25Z" transform="translate(1.62 0.8)" fill="#e72a33" opacity="0.27"/>
      </g>
    </g>
  </g>
</svg>
