<svg id="sintoma1" xmlns="http://www.w3.org/2000/svg" xmlns:xlink="http://www.w3.org/1999/xlink" 
     viewBox="0 0 224.020000 224.020000" shape-rendering="geometricPrecision" text-rendering="geometricPrecision">

<style>
<![CDATA[
#sintoma1-path12_ts {
    animation: sintoma1-path12_ts__ts 3000ms linear infinite normal forwards 
}
@keyframes sintoma1-path12_ts__ts { 
    0% {transform: translate(170.059998px,138.371780px) scale(1,1)} 
    50% {transform: translate(170.059998px,138.371780px) scale(0.500000,0.500000)} 
    100% {transform: translate(170.059998px,138.371780px) scale(1,1)} 
}
#sintoma1-circle1 {
    animation: sintoma1-circle1__rd 3000ms linear infinite normal forwards 
}
@keyframes sintoma1-circle1__rd { 
    0% {r: 11.250000px} 
    100% {r: 6.145000px} 
}
]]>
</style>

<g id="sintoma1-layer-2">
    <g id="sintoma1-layer-1">
        <g id="sintoma1-g1">
            <g id="sintoma1-vis-o">
                <path id="sintoma1-path1" d="M222.850000,128.220000Q222.460000,130.980000,221.910000,133.700000C215.680498,165.175642,196.259732,192.472073,168.566031,208.676444C140.872331,224.880816,107.561667,228.439042,77.070000,218.450000Q74.390000,217.580000,71.770000,216.570000C28.497412,199.942578,-0.044097,158.357158,0,112C0,111.610000,0,111.220000,0,110.840000C0,110.840000,0,110.840000,0,110.840000C1.295205,97.340735,3.893989,83.998526,7.760000,71C11.626011,58.001474,7.760000,71,7.760000,71C23.494835,31.160326,60.531443,3.748504,103.230000,0.340000Q107.580000,0,112,0C130.546929,-0.026203,148.807707,4.572502,165.130000,13.380000C170.256674,16.273113,175.166276,19.535040,179.820000,23.140000C184.473724,26.744960,213.180000,48.920000,222.850000,128.220000Z" fill="rgb(206,151,124)" stroke="none" stroke-width="1"/><path id="sintoma1-path2" d="M16.750000,53.080000L1.830000,132.260000C0.610238,125.575677,-0.002259,118.794703,0,112C0,111.610000,0,111.220000,0,110.840000C0,110.840000,0,110.840000,0,110.840000C0.119912,97.196320,2.750413,83.691273,7.760000,71C12.769587,58.308727,7.760000,71,7.760000,71C10.213756,64.769401,13.222525,58.771942,16.750000,53.080000Z" fill="rgb(61,26,3)" stroke="none" stroke-width="1"/>
                <path id="sintoma1-path3" d="M224,112C224.001069,117.424465,223.610050,122.841914,222.830000,128.210000Q222.440000,130.970000,221.890000,133.690000C220.260000,116.280000,217.440000,106.120000,217.440000,106.120000C187.020000,92.120000,188.440000,68.460000,188.440000,68.460000C151.870000,62,133.830000,12.240000,103.230000,0.340000Q107.580000,0,112,0C173.855892,0,224,50.144108,224,112Z" fill="rgb(61,26,3)" stroke="none" stroke-width="1"/>
                <path id="sintoma1-path4" d="M138.360000,120.870000C137.640000,120.970000,129.360000,113.690000,136.030000,107.080000C144.720000,101.370000,175.980000,97.800000,196.710000,105.770000C202.590000,108.920000,212.960000,122.300000,212.270000,122.770000C211.140000,123.640000,194.270000,115.200000,179.190000,114.180000C154.650000,112.100000,142.270000,120.310000,138.360000,120.870000Z" fill="rgb(61,26,3)" stroke="none" stroke-width="1"/>
                <path id="sintoma1-path5" d="M87.300000,126.260000C88.010000,126.430000,96.890000,119.970000,90.940000,112.750000C64.590000,106.570000,44.230000,105.030000,30.460000,107.830000C24.300000,110.410000,12.910000,120.540000,13.540000,121.130000C14.590000,122.130000,29.650000,118.460000,43.770000,118.960000C58.150000,119.830000,83.460000,125.330000,87.300000,126.260000Z" fill="rgb(61,26,3)" stroke="none" stroke-width="1"/>
                <path id="sintoma1-path6" d="M95.130000,130.280000C109.790000,124.430000,99.630000,110.180000,99.630000,110.180000C99.630000,110.180000,105.720000,122.600000,95.130000,130.280000Z" fill="rgb(170,125,111)" stroke="none" stroke-width="1"/>
                <path id="sintoma1-path7" d="M126.110000,214.080000C114.560000,215.080000,117.260000,212.080000,99.610000,214.030000C88.920000,215.200000,98.150000,197.850000,103.610000,192.400000C109.520000,186.490000,119.010000,186.810000,122.770000,192.400000C128.370000,200.720000,132.490000,213.520000,126.110000,214.080000Z" fill="rgb(191,139,119)" stroke="none" stroke-width="1"/>
                <path id="sintoma1-path8" d="M32,152.180000L24.340000,141.640000C43.540000,123.080000,72.860000,135.580000,82.120000,147.710000" fill="none" stroke="rgb(0,0,0)" stroke-width="2" stroke-miterlimit="10"/>
                <path id="sintoma1-path9" d="M71.750000,146.520000C71.750000,152.730000,71.750000,148.750000,60.510000,148.360000C47.740000,147.920000,46.640000,152.810000,46.640000,146.590000C46.640000,140.370000,54.290000,135.280000,60.510000,135.280000C63.491033,135.280000,66.349971,136.464211,68.457880,138.572120C70.565789,140.680029,71.750000,143.538967,71.750000,146.520000Z" fill="rgb(0,0,0)" stroke="rgb(0,0,0)" stroke-width="2" stroke-miterlimit="10"/>
                <path id="sintoma1-path10" d="M78,155.050000C55.640000,142.580000,36.820000,156.490000,36.820000,156.490000C49.864795,150.793826,64.589182,150.278937,78,155.050000Z" fill="rgb(170,125,111)" stroke="none" stroke-width="1"/>
                <path id="sintoma1-path11" d="M149.360000,157.750000C154.662907,165.266149,163.833215,169.038720,172.890000,167.430000C164.083336,167.400807,155.637771,163.926388,149.360000,157.750000Z" fill="rgb(170,125,111)" stroke="none" stroke-width="1"/>
                <g id="sintoma1-path12_ts" transform="translate(170.059998,138.371780) scale(1,1)">
                    <path id="sintoma1-path12" d="M141.170000,147.552082C150.750000,134.848100,173.670000,126.026465,198.950000,143.365778L191.290000,150.640000" transform="translate(-170.059998,-138.371780)" fill="none" stroke="rgb(0,0,0)" stroke-width="2" stroke-miterlimit="10"/>
                </g>
                <circle id="sintoma1-circle1" r="11.250000" transform="matrix(1 0 0 1 167.22999999999999 152.42500000072511)" fill="rgb(0,0,0)" stroke="rgb(0,0,0)" stroke-width="2" stroke-miterlimit="10"/>
                <path id="sintoma1-path13" d="M90.560000,201.190000L77.070000,218.450000Q74.390000,217.580000,71.770000,216.570000C79.630000,207.640000,90.560000,201.190000,90.560000,201.190000Z" fill="rgb(191,139,119)" stroke="none" stroke-width="1"/>
            </g>
        </g>
    </g>
</g></svg>