<svg xmlns="http://www.w3.org/2000/svg" viewBox="0 0 517.66 391.32">
  <g id="ba638758-4eda-4b1c-aea7-8c00e3358786" data-name="Camada 2">
    <g id="a93ed669-0c06-4262-bce0-7ba49bc452d3" data-name="Camada 1">
      <rect id="e208adf3-74dd-4c5a-8262-d7008d72ec66" data-name="lateral D" x="381.07" y="61.24" width="132" height="330.08" fill="#e4e7e8"/>
      <rect id="bf6c4e46-3bcb-459f-8574-7d822199d6e8" data-name="lateral E" x="4.6" y="60.93" width="134.47" height="330.08" fill="#e4e7e8"/>
      <g id="bc527ac2-e4c8-4164-84a5-09acee78cf99" data-name="laje">
        <rect x="381.22" y="53.33" width="136.44" height="24.72" rx="6.19" fill="#7bb6e4"/>
        <rect y="53.33" width="136.44" height="24.72" rx="6.19" fill="#7bb6e4"/>
      </g>
      <path id="e790195f-b40f-4cd5-9ff8-0723628f2c99" data-name="CENTRO" d="M386.21,29v352.6a10.29,10.29,0,0,1-.14,1.68v8.05h-254v-7.68a10,10,0,0,1-.21-2.05V29c0-5.89,5-10.67,11.25-10.67H375C381.18,18.32,386.21,23.1,386.21,29Z" fill="#fff"/>
      <g id="b0181716-5851-4b1a-8cec-8cf403ff4361" data-name="cruz">
        <rect x="232.71" width="52.64" height="52.64" rx="5" fill="#d51116"/>
        <path d="M279.57,26.33a3.32,3.32,0,0,1-3.3,3.3H262.33V42.09a3.31,3.31,0,0,1-6.61,0V29.63H241.79a3.31,3.31,0,1,1,0-6.61h13.93V10.56A3.32,3.32,0,0,1,259,7.26a3.31,3.31,0,0,1,3.3,3.3V23h13.94A3.32,3.32,0,0,1,279.57,26.33Z" fill="#fff"/>
      </g>
      <g>
        <g>
          <rect x="72.62" y="90.32" width="49.3" height="62.78" rx="5" fill="#b9ddf2" stroke="#626161" stroke-miterlimit="10" stroke-width="2"/>
          <g>
            <line x1="101.45" y1="144.1" x2="116.9" y2="128.65" fill="none" stroke="#fff" stroke-miterlimit="10" stroke-width="2"/>
            <line x1="103.01" y1="149.21" x2="118.45" y2="133.77" fill="none" stroke="#fff" stroke-miterlimit="10" stroke-width="2"/>
          </g>
        </g>
        <g>
          <rect x="13.38" y="90.32" width="49.3" height="62.78" rx="5" fill="#b9ddf2" stroke="#626161" stroke-miterlimit="10" stroke-width="2"/>
          <g>
            <line x1="42.07" y1="141.54" x2="57.51" y2="126.1" fill="none" stroke="#fff" stroke-miterlimit="10" stroke-width="2"/>
            <line x1="43.62" y1="146.66" x2="59.07" y2="131.21" fill="none" stroke="#fff" stroke-miterlimit="10" stroke-width="2"/>
          </g>
        </g>
        <g>
          <rect x="13.95" y="188.99" width="49.3" height="62.78" rx="5" fill="#b9ddf2" stroke="#626161" stroke-miterlimit="10" stroke-width="2"/>
          <g>
            <line x1="42.84" y1="242.93" x2="58.29" y2="227.48" fill="none" stroke="#fff" stroke-miterlimit="10" stroke-width="2"/>
            <line x1="44.4" y1="248.04" x2="59.84" y2="232.6" fill="none" stroke="#fff" stroke-miterlimit="10" stroke-width="2"/>
          </g>
        </g>
        <g>
          <rect x="13.95" y="287.65" width="49.3" height="62.78" rx="5" fill="#b9ddf2" stroke="#626161" stroke-miterlimit="10" stroke-width="2"/>
          <g>
            <line x1="43.62" y1="341.78" x2="59.07" y2="326.33" fill="none" stroke="#fff" stroke-miterlimit="10" stroke-width="2"/>
            <line x1="45.17" y1="346.89" x2="60.62" y2="331.44" fill="none" stroke="#fff" stroke-miterlimit="10" stroke-width="2"/>
          </g>
        </g>
        <g>
          <rect x="73.19" y="287.65" width="49.3" height="62.78" rx="5" fill="#b9ddf2" stroke="#626161" stroke-miterlimit="10" stroke-width="2"/>
          <g>
            <line x1="103.72" y1="342.19" x2="119.16" y2="326.74" fill="none" stroke="#fff" stroke-miterlimit="10" stroke-width="2"/>
            <line x1="105.27" y1="347.3" x2="120.72" y2="331.85" fill="none" stroke="#fff" stroke-miterlimit="10" stroke-width="2"/>
          </g>
        </g>
        <g>
          <rect x="73.19" y="188.99" width="49.3" height="62.78" rx="5" fill="#b9ddf2" stroke="#626161" stroke-miterlimit="10" stroke-width="2"/>
          <g>
            <line x1="102.94" y1="243.03" x2="118.39" y2="227.58" fill="none" stroke="#fff" stroke-miterlimit="10" stroke-width="2"/>
            <line x1="104.49" y1="248.14" x2="119.94" y2="232.69" fill="none" stroke="#fff" stroke-miterlimit="10" stroke-width="2"/>
          </g>
        </g>
      </g>
      <g>
        <g>
          <rect x="454.12" y="90.32" width="49.3" height="62.78" rx="5" fill="#b9ddf2" stroke="#626161" stroke-miterlimit="10" stroke-width="2"/>
          <g>
            <line x1="482.96" y1="144.1" x2="498.4" y2="128.65" fill="none" stroke="#fff" stroke-miterlimit="10" stroke-width="2"/>
            <line x1="484.51" y1="149.21" x2="499.96" y2="133.77" fill="none" stroke="#fff" stroke-miterlimit="10" stroke-width="2"/>
          </g>
        </g>
        <g>
          <rect x="394.88" y="90.32" width="49.3" height="62.78" rx="5" fill="#b9ddf2" stroke="#626161" stroke-miterlimit="10" stroke-width="2"/>
          <g>
            <line x1="423.57" y1="141.54" x2="439.02" y2="126.1" fill="none" stroke="#fff" stroke-miterlimit="10" stroke-width="2"/>
            <line x1="425.12" y1="146.66" x2="440.57" y2="131.21" fill="none" stroke="#fff" stroke-miterlimit="10" stroke-width="2"/>
          </g>
        </g>
        <g>
          <rect x="395.45" y="188.99" width="49.3" height="62.78" rx="5" fill="#b9ddf2" stroke="#626161" stroke-miterlimit="10" stroke-width="2"/>
          <g>
            <line x1="424.35" y1="242.93" x2="439.79" y2="227.48" fill="none" stroke="#fff" stroke-miterlimit="10" stroke-width="2"/>
            <line x1="425.9" y1="248.04" x2="441.35" y2="232.6" fill="none" stroke="#fff" stroke-miterlimit="10" stroke-width="2"/>
          </g>
        </g>
        <g>
          <rect x="395.45" y="287.65" width="49.3" height="62.78" rx="5" fill="#b9ddf2" stroke="#626161" stroke-miterlimit="10" stroke-width="2"/>
          <g>
            <line x1="425.12" y1="341.78" x2="440.57" y2="326.33" fill="none" stroke="#fff" stroke-miterlimit="10" stroke-width="2"/>
            <line x1="426.67" y1="346.89" x2="442.12" y2="331.44" fill="none" stroke="#fff" stroke-miterlimit="10" stroke-width="2"/>
          </g>
        </g>
        <g>
          <rect x="454.69" y="287.65" width="49.3" height="62.78" rx="5" fill="#b9ddf2" stroke="#626161" stroke-miterlimit="10" stroke-width="2"/>
          <g>
            <line x1="485.22" y1="342.19" x2="500.67" y2="326.74" fill="none" stroke="#fff" stroke-miterlimit="10" stroke-width="2"/>
            <line x1="486.77" y1="347.3" x2="502.22" y2="331.85" fill="none" stroke="#fff" stroke-miterlimit="10" stroke-width="2"/>
          </g>
        </g>
        <g>
          <rect x="454.69" y="188.99" width="49.3" height="62.78" rx="5" fill="#b9ddf2" stroke="#626161" stroke-miterlimit="10" stroke-width="2"/>
          <g>
            <line x1="484.44" y1="243.03" x2="499.89" y2="227.58" fill="none" stroke="#fff" stroke-miterlimit="10" stroke-width="2"/>
            <line x1="486" y1="248.14" x2="501.44" y2="232.69" fill="none" stroke="#fff" stroke-miterlimit="10" stroke-width="2"/>
          </g>
        </g>
      </g>
      <g>
        <g>
          <rect x="174" y="127.17" width="49.3" height="62.78" rx="5" fill="#b9ddf2" stroke="#626161" stroke-miterlimit="10" stroke-width="2"/>
          <g>
            <line x1="203.67" y1="181.38" x2="219.12" y2="165.94" fill="none" stroke="#fff" stroke-miterlimit="10" stroke-width="2"/>
            <line x1="205.22" y1="186.5" x2="220.67" y2="171.05" fill="none" stroke="#fff" stroke-miterlimit="10" stroke-width="2"/>
          </g>
        </g>
        <g>
          <rect x="233.41" y="126.08" width="49.3" height="62.78" rx="5" fill="#b9ddf2" stroke="#626161" stroke-miterlimit="10" stroke-width="2"/>
          <g>
            <line x1="263.47" y1="180.32" x2="278.92" y2="164.88" fill="none" stroke="#fff" stroke-miterlimit="10" stroke-width="2"/>
            <line x1="265.02" y1="185.44" x2="280.47" y2="169.99" fill="none" stroke="#fff" stroke-miterlimit="10" stroke-width="2"/>
          </g>
        </g>
        <g>
          <rect x="293.62" y="126.08" width="49.3" height="62.78" rx="5" fill="#b9ddf2" stroke="#626161" stroke-miterlimit="10" stroke-width="2"/>
          <g>
            <line x1="323.49" y1="180.49" x2="338.93" y2="165.04" fill="none" stroke="#fff" stroke-miterlimit="10" stroke-width="2"/>
            <line x1="325.04" y1="185.6" x2="340.49" y2="170.16" fill="none" stroke="#fff" stroke-miterlimit="10" stroke-width="2"/>
          </g>
        </g>
        <g>
          <rect x="293.62" y="198.51" width="49.3" height="62.78" rx="5" fill="#b9ddf2" stroke="#626161" stroke-miterlimit="10" stroke-width="2"/>
          <g>
            <line x1="324.26" y1="253.53" x2="339.71" y2="238.09" fill="none" stroke="#fff" stroke-miterlimit="10" stroke-width="2"/>
            <line x1="325.82" y1="258.65" x2="341.26" y2="243.2" fill="none" stroke="#fff" stroke-miterlimit="10" stroke-width="2"/>
          </g>
        </g>
        <g>
          <rect x="174" y="198.02" width="49.3" height="62.78" rx="5" fill="#b9ddf2" stroke="#626161" stroke-miterlimit="10" stroke-width="2"/>
          <g>
            <line x1="203.67" y1="252.96" x2="219.12" y2="237.51" fill="none" stroke="#fff" stroke-miterlimit="10" stroke-width="2"/>
            <line x1="205.22" y1="258.07" x2="220.67" y2="242.63" fill="none" stroke="#fff" stroke-miterlimit="10" stroke-width="2"/>
          </g>
        </g>
        <g>
          <rect x="234.38" y="198.51" width="49.3" height="62.78" rx="5" fill="#b9ddf2" stroke="#626161" stroke-miterlimit="10" stroke-width="2"/>
          <g>
            <line x1="264.58" y1="253.64" x2="280.02" y2="238.19" fill="none" stroke="#fff" stroke-miterlimit="10" stroke-width="2"/>
            <line x1="266.13" y1="258.75" x2="281.57" y2="243.31" fill="none" stroke="#fff" stroke-miterlimit="10" stroke-width="2"/>
          </g>
        </g>
      </g>
      <g id="fb70d75e-789a-4639-a0c5-12dde459036c" data-name="porta">
        <path d="M310.89,287.89V377H209.55V287.89a2.44,2.44,0,0,1,2.29-2.57h96.77A2.43,2.43,0,0,1,310.89,287.89Z" fill="#9a9999"/>
        <line x1="259.07" y1="285.32" x2="259.07" y2="376.98" fill="none" stroke="#626161" stroke-miterlimit="10" stroke-width="5"/>
        <g id="ae1b3cf0-c483-4c12-a339-0ae8f99f00f0" data-name="maçaneta">
          <line x1="253.82" y1="331.15" x2="253.82" y2="337.57" fill="none" stroke="#010101" stroke-miterlimit="10"/>
          <line x1="264.32" y1="331.15" x2="264.32" y2="337.57" fill="none" stroke="#010101" stroke-miterlimit="10"/>
        </g>
        <rect id="b4743e2f-a8ec-443e-9b01-05b59588f312" data-name="escada" x="192" y="376.32" width="136.44" height="15" rx="6.19" fill="#7bb6e4"/>
        <rect id="b89f2bba-3f6b-4f35-87c8-d0de8e6da856" data-name="escada" x="190.81" y="270.93" width="136.44" height="15" rx="6.19" fill="#7bb6e4"/>
      </g>
      <text transform="translate(177.58 99.23)" font-size="36" fill="#010101" font-family="CaviarDreams-Bold, Caviar Dreams" font-weight="700">HOSPI<tspan x="103.55" y="0" letter-spacing="-0.04em">T</tspan><tspan x="120.8" y="0">AL</tspan></text>
    </g>
  </g>
</svg>
