<svg xmlns="http://www.w3.org/2000/svg" viewBox="0 0 129.99 128.72"><defs><style>.cls-1,.cls-4,.cls-5,.cls-6{fill:none;}.cls-1,.cls-3,.cls-4,.cls-5,.cls-6{stroke:#c60000;stroke-miterlimit:10;}.cls-1{stroke-width:0.5px;}.cls-2{fill:#686868;}.cls-3{fill:#c60000;stroke-width:0.3px;}.cls-4{stroke-width:0.54px;}.cls-5{stroke-width:0.25px;}.cls-6{stroke-width:0.52px;}</style></defs><g id="Layer_2" data-name="Layer 2"><g id="Pontos"><polyline class="cls-1" points="51.47 107.25 55.84 94.5 60.22 87.13 68.97 78 77.97 81.75 88.59 78.63 97.84 70.88 96.09 63.13 107.47 58.13 114.97 59 122.59 50.63 124.47 41.25 120.72 32.25 113.84 27.75 110.47 21.13 105.34 19.88 102.34 15.75 98.09 9.5 90.09 11.13 84.22 3.38 76.97 3.38 70.22 7.88 58.47 1.13 54.97 6.38 46.72 3.5 38.97 8.75 35.34 18.25 24.72 19.75 15.97 25.5 13.34 33.63 16.47 46.5 6.43 54.83 6.97 65.25 11.97 71.75 22.22 77.38 20.09 87.5 30.47 92.25 46.09 91.5 47.97 105.25"/><line class="cls-1" x1="47.97" y1="105.25" x2="55.84" y2="94.5"/><line class="cls-1" x1="51.15" y1="107.88" x2="46.09" y2="91.5"/><line class="cls-1" x1="68.97" y1="78" x2="53.76" y2="66.46"/><line class="cls-1" x1="81.01" y1="60.84" x2="68.97" y2="78"/><line class="cls-1" x1="88.59" y1="78.63" x2="81.01" y2="60.84"/><line class="cls-1" x1="97.84" y1="70.88" x2="81.01" y2="60.84"/><line class="cls-1" x1="77.47" y1="81.71" x2="81.01" y2="59.5"/><line class="cls-1" x1="96.32" y1="63.09" x2="68.97" y2="78"/><line class="cls-1" x1="93.09" y1="45.15" x2="96.32" y2="63.09"/><line class="cls-1" x1="107.47" y1="58.13" x2="93.09" y2="45.15"/><line class="cls-1" x1="104.97" y1="19.88" x2="89.88" y2="25.71"/><line class="cls-1" x1="115.01" y1="58.17" x2="89.88" y2="25.71"/><line class="cls-1" x1="123.83" y1="41.94" x2="93.09" y2="45.15"/><line class="cls-1" x1="96.32" y1="63.09" x2="75.54" y2="42.48"/><line class="cls-1" x1="124.47" y1="41.33" x2="89.88" y2="25.71"/><line class="cls-1" x1="114.26" y1="27.04" x2="75.54" y2="42.48"/><line class="cls-1" x1="120.81" y1="32.02" x2="93.09" y2="45.15"/><line class="cls-1" x1="122.49" y1="50.39" x2="93.09" y2="45.15"/><line class="cls-1" x1="98.09" y1="9.5" x2="89.88" y2="25.71"/><line class="cls-1" x1="90.41" y1="11.03" x2="89.88" y2="25.71"/><line class="cls-1" x1="76.97" y1="3.38" x2="75.54" y2="42.48"/><line class="cls-1" x1="84.21" y1="3.55" x2="64.15" y2="28.24"/><line class="cls-1" x1="60.43" y1="16.23" x2="64.15" y2="28.24"/><line class="cls-1" x1="75.54" y1="42.48" x2="64.15" y2="28.24"/><line class="cls-1" x1="53.76" y1="66.46" x2="75.54" y2="42.48"/><line class="cls-1" x1="81.01" y1="60.84" x2="75.54" y2="42.48"/><line class="cls-1" x1="90.41" y1="11.03" x2="75.54" y2="42.48"/><line class="cls-1" x1="70.22" y1="7.03" x2="64.15" y2="28.24"/><line class="cls-1" x1="58.5" y1="1.33" x2="60.43" y2="16.23"/><line class="cls-1" x1="47.02" y1="3.92" x2="45.64" y2="24.54"/><line class="cls-1" x1="38.97" y1="8.75" x2="45.64" y2="24.54"/><line class="cls-1" x1="35.32" y1="18.38" x2="44.73" y2="38.8"/><line class="cls-1" x1="45.64" y1="24.54" x2="64.15" y2="28.24"/><line class="cls-1" x1="54.89" y1="5.69" x2="45.64" y2="24.54"/><line class="cls-1" x1="60.43" y1="16.23" x2="45.64" y2="24.54"/><line class="cls-1" x1="70.22" y1="7.03" x2="60.43" y2="16.23"/><line class="cls-1" x1="89.88" y1="25.71" x2="60.43" y2="16.23"/><line class="cls-1" x1="93.09" y1="45.15" x2="89.88" y2="25.71"/><line class="cls-1" x1="75.54" y1="42.48" x2="89.88" y2="25.71"/><line class="cls-1" x1="16.47" y1="46.5" x2="45.64" y2="24.54"/><line class="cls-1" x1="13.03" y1="33.36" x2="44.73" y2="38.8"/><line class="cls-1" x1="24.77" y1="19.97" x2="44.73" y2="38.8"/><line class="cls-1" x1="15.97" y1="25.5" x2="33.22" y2="55.76"/><line class="cls-1" x1="22.22" y1="77.38" x2="33.22" y2="55.76"/><line class="cls-1" x1="6.97" y1="65.25" x2="44.73" y2="38.8"/><line class="cls-1" x1="6.43" y1="54.83" x2="33.22" y2="55.76"/><line class="cls-1" x1="11.97" y1="71.75" x2="33.22" y2="55.76"/><line class="cls-1" x1="44.73" y1="38.8" x2="15.44" y2="47.35"/><line class="cls-1" x1="44.73" y1="38.8" x2="53.76" y2="66.46"/><line class="cls-1" x1="64.15" y1="28.24" x2="53.76" y2="66.46"/><line class="cls-1" x1="44.73" y1="38.8" x2="75.54" y2="42.48"/><line class="cls-1" x1="81.01" y1="60.84" x2="44.73" y2="38.8"/><line class="cls-1" x1="93.09" y1="45.15" x2="53.76" y2="66.46"/><line class="cls-1" x1="45.97" y1="91.17" x2="53.76" y2="66.46"/><line class="cls-1" x1="60.22" y1="87.13" x2="33.22" y2="55.76"/><line class="cls-1" x1="36.47" y1="77.38" x2="64.15" y2="28.24"/><line class="cls-1" x1="33.22" y1="55.76" x2="36.47" y2="77.38"/><line class="cls-1" x1="44.73" y1="38.8" x2="36.47" y2="77.38"/><line class="cls-1" x1="46.72" y1="90.92" x2="44.73" y2="37.47"/><line class="cls-1" x1="30.47" y1="92.25" x2="36.47" y2="77.38"/><line class="cls-1" x1="22.22" y1="77.38" x2="36.47" y2="77.38"/><line class="cls-1" x1="20.11" y1="88.67" x2="36.47" y2="77.38"/><line class="cls-1" x1="45.97" y1="91.17" x2="36.47" y2="77.38"/><line class="cls-1" x1="56.43" y1="93.84" x2="53.76" y2="66.46"/><line class="cls-1" x1="110.47" y1="21.13" x2="93.09" y2="45.15"/><line class="cls-1" x1="64.15" y1="28.24" x2="44.73" y2="38.8"/><line class="cls-1" x1="81.01" y1="60.84" x2="45.64" y2="24.54"/><line class="cls-1" x1="44.73" y1="38.8" x2="45.64" y2="24.54"/><path class="cls-2" d="M49.59,127.62A6.92,6.92,0,0,1,47.08,125a7.45,7.45,0,0,1-.92-3.66,7.35,7.35,0,0,1,.92-3.62,6.92,6.92,0,0,1,2.51-2.61,6.68,6.68,0,0,1,3.52-1,6.78,6.78,0,0,1,2.37.37,7.11,7.11,0,0,1,2,1.18.9.9,0,0,1,.29.34,1,1,0,0,1,.07.4.76.76,0,0,1-.26.59.86.86,0,0,1-.6.24,1,1,0,0,1-.63-.24,5.28,5.28,0,0,0-1.44-.9,4.94,4.94,0,0,0-1.82-.28,4.67,4.67,0,0,0-2.58.74,5.4,5.4,0,0,0-1.88,2,5.91,5.91,0,0,0,0,5.54,5.48,5.48,0,0,0,1.88,2,4.75,4.75,0,0,0,2.58.73,5.45,5.45,0,0,0,3.31-1.18,1,1,0,0,1,.59-.22.75.75,0,0,1,.57.24.91.91,0,0,1,.23.64,1,1,0,0,1-.29.67,6.87,6.87,0,0,1-4.41,1.56A6.66,6.66,0,0,1,49.59,127.62Z"/><path class="cls-2" d="M63.63,128a5,5,0,0,1-2.09-1.77,4.6,4.6,0,0,1-.75-2.59v-8.41a.89.89,0,0,1,.27-.67.94.94,0,0,1,1.61.67v8.41a3,3,0,0,0,.51,1.71,3.53,3.53,0,0,0,1.42,1.18,4.92,4.92,0,0,0,2.08.42,4.62,4.62,0,0,0,2-.42,3.4,3.4,0,0,0,1.38-1.18,3.08,3.08,0,0,0,.49-1.71v-8.41a.91.91,0,0,1,.94-.93.85.85,0,0,1,.65.26.88.88,0,0,1,.26.67v8.41a4.73,4.73,0,0,1-.72,2.58,4.92,4.92,0,0,1-2,1.78,6.6,6.6,0,0,1-3,.64A6.94,6.94,0,0,1,63.63,128Z"/><path class="cls-2" d="M76.27,128.12a.9.9,0,0,1-.27-.66V115.27a.89.89,0,0,1,.27-.67.94.94,0,0,1,1.61.67v12.19a.93.93,0,0,1-.26.66,1,1,0,0,1-1.35,0Z"/><path class="cls-2" d="M81.75,128.12a.9.9,0,0,1-.27-.66V115.27a.91.91,0,0,1,.93-.93h3.26a7.3,7.3,0,0,1,3.62.89,6.42,6.42,0,0,1,2.46,2.5,7.33,7.33,0,0,1,.89,3.62,7.41,7.41,0,0,1-.89,3.64,6.29,6.29,0,0,1-2.46,2.5,7.2,7.2,0,0,1-3.62.9H82.41A.9.9,0,0,1,81.75,128.12Zm3.92-1.38a5.16,5.16,0,0,0,2.67-.69,4.7,4.7,0,0,0,1.84-1.91,5.84,5.84,0,0,0,.66-2.79,5.76,5.76,0,0,0-.66-2.77,4.74,4.74,0,0,0-1.84-1.9,5.16,5.16,0,0,0-2.67-.69H83.35v10.75Z"/><path class="cls-3" d="M105.81,127.47a.88.88,0,0,1-.27.65.9.9,0,0,1-.66.27,1,1,0,0,1-.52-.15.85.85,0,0,1-.35-.42l-1-2.52H96.54l-1,2.52a1.06,1.06,0,0,1-.36.42,1,1,0,0,1-.51.15.87.87,0,0,1-.66-.28.92.92,0,0,1-.26-.65,1.22,1.22,0,0,1,.09-.42L98.88,115a.92.92,0,0,1,.88-.63.88.88,0,0,1,.89.63l5.07,12.11A1.12,1.12,0,0,1,105.81,127.47Zm-8.64-3.72h5.2l-2.57-6.41Z"/><path class="cls-3" d="M117.3,114.55a.74.74,0,0,1,.23.56,1.27,1.27,0,0,1-.11.47l-5.33,12.22a.84.84,0,0,1-.84.59.89.89,0,0,1-.85-.59l-5.27-12.06a1.77,1.77,0,0,1-.15-.63.75.75,0,0,1,.23-.57.87.87,0,0,1,.62-.2.85.85,0,0,1,.86.55l4.54,10.88,4.61-10.88a.86.86,0,0,1,.32-.44,1,1,0,0,1,.52-.11A.86.86,0,0,1,117.3,114.55Z"/><path class="cls-3" d="M121.57,127.62a6.92,6.92,0,0,1-2.51-2.61,7.45,7.45,0,0,1-.92-3.66,7.35,7.35,0,0,1,.92-3.62,6.92,6.92,0,0,1,2.51-2.61,6.71,6.71,0,0,1,3.52-1,6.78,6.78,0,0,1,2.37.37,7.11,7.11,0,0,1,2,1.18.81.81,0,0,1,.29.34,1,1,0,0,1,.07.4.76.76,0,0,1-.26.59.85.85,0,0,1-.6.24,1,1,0,0,1-.63-.24,5,5,0,0,0-1.44-.9,4.94,4.94,0,0,0-1.82-.28,4.67,4.67,0,0,0-2.58.74,5.29,5.29,0,0,0-1.87,2,5.83,5.83,0,0,0,0,5.54,5.37,5.37,0,0,0,1.87,2,4.75,4.75,0,0,0,2.58.73,5.43,5.43,0,0,0,3.31-1.18,1,1,0,0,1,.6-.22.74.74,0,0,1,.56.24.91.91,0,0,1,.23.64,1,1,0,0,1-.29.67,6.87,6.87,0,0,1-4.41,1.56A6.69,6.69,0,0,1,121.57,127.62Z"/><path class="cls-2" d="M9,108.74a.55.55,0,0,1-.2.43.79.79,0,0,1-.52.16.64.64,0,0,1-.36-.09.84.84,0,0,1-.26-.27l-3.24-5.15h-3v4.81a.68.68,0,0,1-.19.5.71.71,0,0,1-.51.2.68.68,0,0,1-.7-.7V96a.68.68,0,0,1,.7-.7H4.07a4.87,4.87,0,0,1,2.34.55A4.11,4.11,0,0,1,8,97.36a4.34,4.34,0,0,1,.58,2.25A4.13,4.13,0,0,1,7.86,102a4.09,4.09,0,0,1-2,1.49l2.95,4.72A1,1,0,0,1,9,108.74Zm-4.88-6.27a3.52,3.52,0,0,0,1.63-.37,2.74,2.74,0,0,0,1.54-2.49,3,3,0,0,0-.41-1.55A2.79,2.79,0,0,0,5.71,97a3.51,3.51,0,0,0-1.64-.38H1.4v5.85Z"/><path class="cls-2" d="M17.5,100a4.33,4.33,0,0,1,1.59,1.72,5.37,5.37,0,0,1,.57,2.51.58.58,0,0,1-.18.45.64.64,0,0,1-.47.18H11.74a3.56,3.56,0,0,0,1.15,2.39,3.6,3.6,0,0,0,2.52.92,4,4,0,0,0,1.3-.23,3.21,3.21,0,0,0,1.06-.57.82.82,0,0,1,.48-.18.64.64,0,0,1,.63.63.53.53,0,0,1-.2.42,5.14,5.14,0,0,1-1.51.84,5.24,5.24,0,0,1-4.34-.31A4.66,4.66,0,0,1,11.06,107a5.29,5.29,0,0,1-.64-2.59,5.42,5.42,0,0,1,.61-2.6A4.48,4.48,0,0,1,12.7,100a4.72,4.72,0,0,1,2.44-.64A4.52,4.52,0,0,1,17.5,100Zm-4.63,1.47a3.65,3.65,0,0,0-1.1,2.23h6.59a3.52,3.52,0,0,0-1-2.23,3,3,0,0,0-2.21-.85A3.21,3.21,0,0,0,12.87,101.48Z"/><path class="cls-2" d="M31.12,100.17v4.23a5.12,5.12,0,0,1-.65,2.55,4.81,4.81,0,0,1-1.8,1.81,5,5,0,0,1-2.55.66,5,5,0,0,1-2.55-.66,4.81,4.81,0,0,1-1.8-1.81,5,5,0,0,1-.66-2.55,5.19,5.19,0,0,1,.64-2.55,4.8,4.8,0,0,1,1.75-1.8,4.91,4.91,0,0,1,4.62-.16,4.48,4.48,0,0,1,1.6,1.36V96a.65.65,0,0,1,.2-.5.72.72,0,0,1,1,0,.71.71,0,0,1,.18.5v4A.39.39,0,0,1,31.12,100.17ZM28,107.66a3.61,3.61,0,0,0,1.31-1.35,3.92,3.92,0,0,0,.47-1.91c0-.21,0-.36,0-.45a.15.15,0,0,1,0-.09,3.6,3.6,0,0,0-1.18-2.31,3.49,3.49,0,0,0-2.42-.9,3.7,3.7,0,0,0-1.87.49,3.51,3.51,0,0,0-1.31,1.34,4.06,4.06,0,0,0,0,3.83,3.58,3.58,0,0,0,3.18,1.85A3.54,3.54,0,0,0,28,107.66Z"/><path class="cls-2" d="M40.91,100a4.28,4.28,0,0,1,1.6,1.72,5.49,5.49,0,0,1,.56,2.51.58.58,0,0,1-.18.45.62.62,0,0,1-.46.18H35.15a3.56,3.56,0,0,0,3.68,3.31,4,4,0,0,0,1.3-.23,3.06,3.06,0,0,0,1-.57.87.87,0,0,1,.49-.18.69.69,0,0,1,.4.15.66.66,0,0,1,.23.48.56.56,0,0,1-.2.42,5.14,5.14,0,0,1-1.51.84,5.24,5.24,0,0,1-4.34-.31A4.59,4.59,0,0,1,34.48,107a5.18,5.18,0,0,1-.64-2.59,5.54,5.54,0,0,1,.6-2.6A4.43,4.43,0,0,1,36.12,100a4.7,4.7,0,0,1,2.44-.64A4.48,4.48,0,0,1,40.91,100Zm-4.62,1.47a3.65,3.65,0,0,0-1.1,2.23h6.59a3.52,3.52,0,0,0-1-2.23,3,3,0,0,0-2.21-.85A3.19,3.19,0,0,0,36.29,101.48Z"/><path class="cls-1" d="M100,116.82C90,114,61.07,88,61.07,88"/><path class="cls-4" d="M98.06,72.16s21.75,43.06,24,43"/><rect class="cls-2" x="100.52" y="114.01" width="1.21" height="7.91" rx="0.6" transform="translate(-37.79 48.35) rotate(-22.78)"/><path class="cls-5" d="M100.65,115.28c.27-.15-.08-.18-1.2.26"/><path class="cls-5" d="M101,116.07c.27-.15-.08-.18-1.2.27"/><path class="cls-5" d="M100.87,115.81c.27-.14-.08-.18-1.2.27"/><path class="cls-5" d="M100.73,115.56c.28-.14-.07-.18-1.19.27"/><path class="cls-5" d="M99.82,116.48s-.19.06-.08.11a5.28,5.28,0,0,0,1.36-.37s.14-.12-.08,0"/><path class="cls-5" d="M100,116.76s-.25.06-.15.11a5.19,5.19,0,0,0,1.37-.36s.1-.14-.12-.08"/><path class="cls-5" d="M100.17,117.12s-.25.06-.14.11a5.78,5.78,0,0,0,1.37-.37s.09-.13-.13-.07"/><path class="cls-5" d="M100.25,117.34s-.25.07-.15.11a5.19,5.19,0,0,0,1.37-.36s.1-.14-.12-.08"/><path class="cls-5" d="M100.35,117.53s-.25.07-.15.11a5.19,5.19,0,0,0,1.37-.36s.1-.14-.12-.08"/><path class="cls-5" d="M100.43,117.79s-.25.06-.15.11a5.19,5.19,0,0,0,1.37-.36s.1-.14-.12-.08"/><path class="cls-6" d="M77.38,82.06s25.41,34.78,28.71,35.63"/><path class="cls-2" d="M108.64,121.84h0a.62.62,0,0,1-.8-.32l-2.57-6.15a.6.6,0,0,1,.33-.79h0a.63.63,0,0,1,.8.33l2.57,6.15A.59.59,0,0,1,108.64,121.84Z"/><path class="cls-5" d="M105.81,116.73s-.19.06-.09.11a6.07,6.07,0,0,0,1.39-.35s.15-.12-.08-.06"/><path class="cls-5" d="M106,117s-.26.06-.15.11a6.07,6.07,0,0,0,1.39-.35s.1-.14-.12-.08"/><path class="cls-5" d="M106.16,117.36s-.25.06-.14.11a5.79,5.79,0,0,0,1.39-.35s.1-.13-.13-.07"/><path class="cls-5" d="M106.23,117.59s-.25.06-.14.1a5.33,5.33,0,0,0,1.39-.35s.1-.13-.12-.07"/><path class="cls-5" d="M106.34,117.78s-.26.06-.15.1a5.24,5.24,0,0,0,1.39-.35s.1-.13-.12-.07"/><path class="cls-5" d="M106.41,118s-.25.06-.14.11a5.79,5.79,0,0,0,1.39-.35s.1-.13-.13-.08"/><circle class="cls-2" cx="90.96" cy="25.8" r="1.42"/><circle class="cls-2" cx="77.47" cy="81.71" r="1.33"/><circle class="cls-2" cx="88.55" cy="79.04" r="1.33"/><circle class="cls-2" cx="97.65" cy="71.13" r="1.33"/><circle class="cls-2" cx="81.01" cy="60.84" r="1.33"/><circle class="cls-2" cx="96.32" cy="63.09" r="1.33"/><circle class="cls-2" cx="68.88" cy="77.71" r="1.33"/><circle class="cls-2" cx="75.63" cy="42.22" r="1.42"/><circle class="cls-2" cx="53.76" cy="66.46" r="1.33"/><circle class="cls-2" cx="60.13" cy="87.34" r="1.33"/><circle class="cls-2" cx="45.97" cy="91.17" r="1.33"/><circle class="cls-2" cx="56.43" cy="93.84" r="1.33"/><circle class="cls-2" cx="48.63" cy="105.34" r="1.33"/><circle class="cls-2" cx="51.3" cy="108" r="1.33"/><circle class="cls-2" cx="107.63" cy="58.17" r="1.33"/><circle class="cls-2" cx="115.01" cy="58.71" r="1.33"/><circle class="cls-2" cx="124.47" cy="41.33" r="1.33"/><circle class="cls-2" cx="93.09" cy="45.15" r="1.33"/><circle class="cls-2" cx="104.97" cy="19.88" r="1.33"/><circle class="cls-2" cx="114.26" cy="27.04" r="1.33"/><circle class="cls-2" cx="98" cy="9.69" r="1.33"/><circle class="cls-2" cx="64.15" cy="28.24" r="1.33"/><circle class="cls-2" cx="84.21" cy="3.55" r="1.33"/><circle class="cls-2" cx="58.5" cy="1.33" r="1.33"/><circle class="cls-2" cx="90.41" cy="11.03" r="1.33"/><circle class="cls-2" cx="60.43" cy="16.23" r="1.33"/><circle class="cls-2" cx="44.73" cy="38.8" r="1.33"/><circle class="cls-2" cx="45.64" cy="24.54" r="1.33"/><circle class="cls-2" cx="47.02" cy="3.92" r="1.33"/><circle class="cls-2" cx="35.32" cy="18.38" r="1.33"/><circle class="cls-2" cx="33.22" cy="55.76" r="1.33"/><circle class="cls-2" cx="24.77" cy="19.97" r="1.33"/><circle class="cls-2" cx="15.94" cy="25.1" r="1.33"/><circle class="cls-2" cx="13.03" cy="33.36" r="1.33"/><circle class="cls-2" cx="16.47" cy="46.5" r="1.33"/><circle class="cls-2" cx="6.43" cy="55.23" r="1.33"/><circle class="cls-2" cx="12.19" cy="71.88" r="1.33"/><circle class="cls-2" cx="6.75" cy="65.3" r="1.33"/><circle class="cls-2" cx="22.22" cy="77.38" r="1.33"/><circle class="cls-2" cx="20.11" cy="87.34" r="1.33"/><circle class="cls-2" cx="30.47" cy="92.25" r="1.33"/><circle class="cls-2" cx="36.47" cy="77.38" r="1.33"/><circle class="cls-2" cx="120.81" cy="32.02" r="1.33"/><circle class="cls-2" cx="70.22" cy="7.03" r="1.33"/><circle class="cls-2" cx="76.88" cy="3.25" r="1.33"/><circle class="cls-2" cx="122.49" cy="50.39" r="1.33"/><circle class="cls-2" cx="110.3" cy="21.3" r="1.33"/><circle class="cls-2" cx="39.13" cy="8.36" r="1.33"/></g></g></svg>