<svg xmlns="http://www.w3.org/2000/svg" viewBox="0 0 86.24 86.62">
  <g id="b7fd9352-2a1b-4f83-9048-a887847f42cc" data-name="Camada 2">
    <g id="fd2fbf34-5417-4d8d-b3c2-313341dd1f88" data-name="layout">
      <g>
        <polyline points="34.6 69.66 37.44 61.38 40.28 56.59 45.96 50.66 51.81 53.1 58.71 51.07 64.72 46.03 63.58 41 70.97 37.75 75.84 38.32 80.79 32.88 82.01 26.79 79.58 20.95 75.11 18.02 72.92 13.72 69.59 12.91 67.64 10.23 64.88 6.17 59.69 7.23 55.87 2.19 51.16 2.19 46.78 5.12 39.14 0.73 36.87 4.14 31.51 2.27 26.48 5.68 24.13 11.86 17.22 12.83 11.54 16.56 9.84 21.84 11.87 30.2 5.34 35.61 5.7 42.38 8.94 46.6 15.6 50.26 14.22 56.83 20.96 59.92 31.11 59.43 32.33 68.36" fill="none" stroke="#ca0000" stroke-miterlimit="10" stroke-width="0.5"/>
        <line x1="32.32" y1="68.36" x2="37.44" y2="61.38" fill="none" stroke="#ca0000" stroke-miterlimit="10" stroke-width="0.5"/>
        <line x1="34.39" y1="70.07" x2="31.11" y2="59.43" fill="none" stroke="#ca0000" stroke-miterlimit="10" stroke-width="0.5"/>
        <line x1="45.96" y1="50.66" x2="36.09" y2="43.17" fill="none" stroke="#ca0000" stroke-miterlimit="10" stroke-width="0.5"/>
        <line x1="53.79" y1="39.51" x2="45.96" y2="50.66" fill="none" stroke="#ca0000" stroke-miterlimit="10" stroke-width="0.5"/>
        <line x1="58.71" y1="51.07" x2="53.79" y2="39.51" fill="none" stroke="#ca0000" stroke-miterlimit="10" stroke-width="0.5"/>
        <line x1="64.72" y1="46.04" x2="53.79" y2="39.51" fill="none" stroke="#ca0000" stroke-miterlimit="10" stroke-width="0.5"/>
        <line x1="51.49" y1="53.07" x2="53.79" y2="38.65" fill="none" stroke="#ca0000" stroke-miterlimit="10" stroke-width="0.5"/>
        <line x1="63.73" y1="40.97" x2="45.96" y2="50.66" fill="none" stroke="#ca0000" stroke-miterlimit="10" stroke-width="0.5"/>
        <line x1="61.63" y1="29.32" x2="63.73" y2="40.97" fill="none" stroke="#ca0000" stroke-miterlimit="10" stroke-width="0.5"/>
        <line x1="70.97" y1="37.75" x2="61.63" y2="29.32" fill="none" stroke="#ca0000" stroke-miterlimit="10" stroke-width="0.5"/>
        <line x1="69.35" y1="12.91" x2="59.55" y2="16.7" fill="none" stroke="#ca0000" stroke-miterlimit="10" stroke-width="0.5"/>
        <line x1="75.87" y1="37.78" x2="59.55" y2="16.7" fill="none" stroke="#ca0000" stroke-miterlimit="10" stroke-width="0.5"/>
        <line x1="81.6" y1="27.24" x2="61.63" y2="29.32" fill="none" stroke="#ca0000" stroke-miterlimit="10" stroke-width="0.5"/>
        <line x1="63.73" y1="40.97" x2="50.23" y2="27.59" fill="none" stroke="#ca0000" stroke-miterlimit="10" stroke-width="0.5"/>
        <line x1="82.01" y1="26.84" x2="59.55" y2="16.7" fill="none" stroke="#ca0000" stroke-miterlimit="10" stroke-width="0.5"/>
        <line x1="75.38" y1="17.57" x2="50.23" y2="27.59" fill="none" stroke="#ca0000" stroke-miterlimit="10" stroke-width="0.5"/>
        <line x1="79.64" y1="20.8" x2="61.63" y2="29.32" fill="none" stroke="#ca0000" stroke-miterlimit="10" stroke-width="0.5"/>
        <line x1="80.73" y1="32.73" x2="61.63" y2="29.32" fill="none" stroke="#ca0000" stroke-miterlimit="10" stroke-width="0.5"/>
        <line x1="64.88" y1="6.17" x2="59.55" y2="16.7" fill="none" stroke="#ca0000" stroke-miterlimit="10" stroke-width="0.5"/>
        <line x1="59.89" y1="7.16" x2="59.55" y2="16.7" fill="none" stroke="#ca0000" stroke-miterlimit="10" stroke-width="0.5"/>
        <line x1="51.16" y1="2.19" x2="50.23" y2="27.59" fill="none" stroke="#ca0000" stroke-miterlimit="10" stroke-width="0.5"/>
        <line x1="55.86" y1="2.3" x2="42.83" y2="18.34" fill="none" stroke="#ca0000" stroke-miterlimit="10" stroke-width="0.5"/>
        <line x1="40.42" y1="10.54" x2="42.83" y2="18.34" fill="none" stroke="#ca0000" stroke-miterlimit="10" stroke-width="0.5"/>
        <line x1="50.23" y1="27.59" x2="42.83" y2="18.34" fill="none" stroke="#ca0000" stroke-miterlimit="10" stroke-width="0.5"/>
        <line x1="36.09" y1="43.17" x2="50.23" y2="27.59" fill="none" stroke="#ca0000" stroke-miterlimit="10" stroke-width="0.5"/>
        <line x1="53.79" y1="39.51" x2="50.23" y2="27.59" fill="none" stroke="#ca0000" stroke-miterlimit="10" stroke-width="0.5"/>
        <line x1="59.89" y1="7.16" x2="50.23" y2="27.59" fill="none" stroke="#ca0000" stroke-miterlimit="10" stroke-width="0.5"/>
        <line x1="46.78" y1="4.56" x2="42.83" y2="18.34" fill="none" stroke="#ca0000" stroke-miterlimit="10" stroke-width="0.5"/>
        <line x1="39.16" y1="0.87" x2="40.42" y2="10.54" fill="none" stroke="#ca0000" stroke-miterlimit="10" stroke-width="0.5"/>
        <line x1="31.71" y1="2.54" x2="30.81" y2="15.94" fill="none" stroke="#ca0000" stroke-miterlimit="10" stroke-width="0.5"/>
        <line x1="26.48" y1="5.68" x2="30.81" y2="15.94" fill="none" stroke="#ca0000" stroke-miterlimit="10" stroke-width="0.5"/>
        <line x1="24.11" y1="11.94" x2="30.22" y2="25.2" fill="none" stroke="#ca0000" stroke-miterlimit="10" stroke-width="0.5"/>
        <line x1="30.81" y1="15.94" x2="42.83" y2="18.34" fill="none" stroke="#ca0000" stroke-miterlimit="10" stroke-width="0.5"/>
        <line x1="36.82" y1="3.7" x2="30.81" y2="15.94" fill="none" stroke="#ca0000" stroke-miterlimit="10" stroke-width="0.5"/>
        <line x1="40.42" y1="10.54" x2="30.81" y2="15.94" fill="none" stroke="#ca0000" stroke-miterlimit="10" stroke-width="0.5"/>
        <line x1="46.78" y1="4.56" x2="40.42" y2="10.54" fill="none" stroke="#ca0000" stroke-miterlimit="10" stroke-width="0.5"/>
        <line x1="59.55" y1="16.7" x2="40.42" y2="10.54" fill="none" stroke="#ca0000" stroke-miterlimit="10" stroke-width="0.5"/>
        <line x1="61.63" y1="29.32" x2="59.55" y2="16.7" fill="none" stroke="#ca0000" stroke-miterlimit="10" stroke-width="0.5"/>
        <line x1="50.23" y1="27.59" x2="59.55" y2="16.7" fill="none" stroke="#ca0000" stroke-miterlimit="10" stroke-width="0.5"/>
        <line x1="11.87" y1="30.2" x2="30.81" y2="15.94" fill="none" stroke="#ca0000" stroke-miterlimit="10" stroke-width="0.5"/>
        <line x1="9.63" y1="21.67" x2="30.22" y2="25.2" fill="none" stroke="#ca0000" stroke-miterlimit="10" stroke-width="0.5"/>
        <line x1="17.26" y1="12.97" x2="30.22" y2="25.2" fill="none" stroke="#ca0000" stroke-miterlimit="10" stroke-width="0.5"/>
        <line x1="11.54" y1="16.56" x2="22.74" y2="36.21" fill="none" stroke="#ca0000" stroke-miterlimit="10" stroke-width="0.5"/>
        <line x1="15.6" y1="50.26" x2="22.74" y2="36.21" fill="none" stroke="#ca0000" stroke-miterlimit="10" stroke-width="0.5"/>
        <line x1="5.69" y1="42.38" x2="30.22" y2="25.2" fill="none" stroke="#ca0000" stroke-miterlimit="10" stroke-width="0.5"/>
        <line x1="5.34" y1="35.61" x2="22.74" y2="36.21" fill="none" stroke="#ca0000" stroke-miterlimit="10" stroke-width="0.5"/>
        <line x1="8.94" y1="46.6" x2="22.74" y2="36.21" fill="none" stroke="#ca0000" stroke-miterlimit="10" stroke-width="0.5"/>
        <line x1="30.22" y1="25.2" x2="11.2" y2="30.76" fill="none" stroke="#ca0000" stroke-miterlimit="10" stroke-width="0.5"/>
        <line x1="30.22" y1="25.2" x2="36.09" y2="43.17" fill="none" stroke="#ca0000" stroke-miterlimit="10" stroke-width="0.5"/>
        <line x1="42.83" y1="18.34" x2="36.09" y2="43.17" fill="none" stroke="#ca0000" stroke-miterlimit="10" stroke-width="0.5"/>
        <line x1="30.22" y1="25.2" x2="50.23" y2="27.59" fill="none" stroke="#ca0000" stroke-miterlimit="10" stroke-width="0.5"/>
        <line x1="53.79" y1="39.51" x2="30.22" y2="25.2" fill="none" stroke="#ca0000" stroke-miterlimit="10" stroke-width="0.5"/>
        <line x1="61.63" y1="29.32" x2="36.09" y2="43.17" fill="none" stroke="#ca0000" stroke-miterlimit="10" stroke-width="0.5"/>
        <line x1="31.03" y1="59.21" x2="36.09" y2="43.17" fill="none" stroke="#ca0000" stroke-miterlimit="10" stroke-width="0.5"/>
        <line x1="40.28" y1="56.59" x2="22.74" y2="36.21" fill="none" stroke="#ca0000" stroke-miterlimit="10" stroke-width="0.5"/>
        <line x1="24.86" y1="50.26" x2="42.83" y2="18.34" fill="none" stroke="#ca0000" stroke-miterlimit="10" stroke-width="0.5"/>
        <line x1="22.74" y1="36.21" x2="24.86" y2="50.26" fill="none" stroke="#ca0000" stroke-miterlimit="10" stroke-width="0.5"/>
        <line x1="30.22" y1="25.2" x2="24.86" y2="50.26" fill="none" stroke="#ca0000" stroke-miterlimit="10" stroke-width="0.5"/>
        <line x1="31.51" y1="59.05" x2="30.22" y2="24.33" fill="none" stroke="#ca0000" stroke-miterlimit="10" stroke-width="0.5"/>
        <line x1="20.96" y1="59.92" x2="24.86" y2="50.26" fill="none" stroke="#ca0000" stroke-miterlimit="10" stroke-width="0.5"/>
        <line x1="15.6" y1="50.26" x2="24.86" y2="50.26" fill="none" stroke="#ca0000" stroke-miterlimit="10" stroke-width="0.5"/>
        <line x1="14.23" y1="57.59" x2="24.86" y2="50.26" fill="none" stroke="#ca0000" stroke-miterlimit="10" stroke-width="0.5"/>
        <line x1="31.03" y1="59.21" x2="24.86" y2="50.26" fill="none" stroke="#ca0000" stroke-miterlimit="10" stroke-width="0.5"/>
        <line x1="37.82" y1="60.95" x2="36.09" y2="43.17" fill="none" stroke="#ca0000" stroke-miterlimit="10" stroke-width="0.5"/>
        <line x1="72.92" y1="13.72" x2="61.63" y2="29.32" fill="none" stroke="#ca0000" stroke-miterlimit="10" stroke-width="0.5"/>
        <line x1="42.83" y1="18.34" x2="30.22" y2="25.2" fill="none" stroke="#ca0000" stroke-miterlimit="10" stroke-width="0.5"/>
        <line x1="53.79" y1="39.51" x2="30.81" y2="15.94" fill="none" stroke="#ca0000" stroke-miterlimit="10" stroke-width="0.5"/>
        <line x1="30.22" y1="25.2" x2="30.81" y2="15.94" fill="none" stroke="#ca0000" stroke-miterlimit="10" stroke-width="0.5"/>
        <text transform="translate(30.4 83.39)" font-size="11.69" fill="#564d4c" font-family="Comfortaa-Bold, Comfortaa" font-weight="700">CUI<tspan x="22.52" y="0" letter-spacing="-0.02em">D</tspan><tspan x="31.44" y="0" fill="#ca0000" stroke="#ca0000" stroke-miterlimit="10" stroke-width="0.3" letter-spacing="-0.08em">A</tspan><tspan x="38.72" y="0" fill="#ca0000" stroke="#ca0000" stroke-miterlimit="10" stroke-width="0.3" letter-spacing="-0.05em">V</tspan><tspan x="46.75" y="0" fill="#ca0000" stroke="#ca0000" stroke-miterlimit="10" stroke-width="0.3">C</tspan></text>
        <text transform="translate(0 71.01)" font-size="11.69" fill="#564d4c" font-family="Comfortaa-Bold, Comfortaa" font-weight="700">R<tspan x="7.39" y="0" letter-spacing="-0.02em">e</tspan><tspan x="14.42" y="0">de</tspan></text>
        <path d="M66.11,75.87C59.6,74,40.84,57.17,40.84,57.17" fill="none" stroke="#ca0000" stroke-miterlimit="10" stroke-width="0.5"/>
        <path d="M64.86,46.87s14.13,28,15.6,27.91" fill="none" stroke="#ca0000" stroke-miterlimit="10" stroke-width="0.54"/>
        <g>
          <rect x="66.46" y="74.05" width="0.78" height="5.14" rx="0.39" transform="translate(-24.45 31.86) rotate(-22.78)" fill="#564d4c"/>
          <path d="M66.54,74.87c.18-.09-.05-.11-.78.18" fill="none" stroke="#ca0000" stroke-miterlimit="10" stroke-width="0.25"/>
          <path d="M66.74,75.39c.18-.1,0-.12-.77.17" fill="none" stroke="#ca0000" stroke-miterlimit="10" stroke-width="0.25"/>
          <path d="M66.68,75.22c.18-.09-.05-.12-.78.18" fill="none" stroke="#ca0000" stroke-miterlimit="10" stroke-width="0.25"/>
          <path d="M66.6,75.06c.17-.1,0-.12-.78.17" fill="none" stroke="#ca0000" stroke-miterlimit="10" stroke-width="0.25"/>
          <path d="M66,75.66s-.12,0,0,.07a4.14,4.14,0,0,0,.89-.24s.09-.08-.06,0" fill="none" stroke="#ca0000" stroke-miterlimit="10" stroke-width="0.25"/>
          <path d="M66.12,75.84s-.16,0-.09.07a3.68,3.68,0,0,0,.88-.24s.07-.09-.08,0" fill="none" stroke="#ca0000" stroke-miterlimit="10" stroke-width="0.25"/>
          <path d="M66.23,76.07s-.16,0-.09.07A3.61,3.61,0,0,0,67,75.9s.06-.09-.08-.05" fill="none" stroke="#ca0000" stroke-miterlimit="10" stroke-width="0.25"/>
          <path d="M66.28,76.22s-.16,0-.09.07a3.46,3.46,0,0,0,.88-.24s.07-.09-.07,0" fill="none" stroke="#ca0000" stroke-miterlimit="10" stroke-width="0.25"/>
          <path d="M66.35,76.34s-.17,0-.1.07a3.61,3.61,0,0,0,.89-.24s.06-.09-.08,0" fill="none" stroke="#ca0000" stroke-miterlimit="10" stroke-width="0.25"/>
          <path d="M66.4,76.51s-.16,0-.1.07a3.61,3.61,0,0,0,.89-.24s.06-.09-.08,0" fill="none" stroke="#ca0000" stroke-miterlimit="10" stroke-width="0.25"/>
        </g>
        <path d="M51.43,53.3s16.5,22.59,18.64,23.14" fill="none" stroke="#ca0000" stroke-miterlimit="10" stroke-width="0.52"/>
        <g>
          <path d="M71.73,79.14h0a.41.41,0,0,1-.52-.22l-1.67-4a.39.39,0,0,1,.22-.51h0a.41.41,0,0,1,.52.22l1.67,4A.39.39,0,0,1,71.73,79.14Z" fill="#564d4c"/>
          <path d="M69.89,75.82s-.12,0,0,.07a4,4,0,0,0,.9-.23s.09-.08,0,0" fill="none" stroke="#ca0000" stroke-miterlimit="10" stroke-width="0.25"/>
          <path d="M70,76s-.17,0-.1.07a4.19,4.19,0,0,0,.91-.23s.06-.09-.08,0" fill="none" stroke="#ca0000" stroke-miterlimit="10" stroke-width="0.25"/>
          <path d="M70.12,76.23s-.16,0-.09.07a4,4,0,0,0,.9-.23s.07-.09-.08,0" fill="none" stroke="#ca0000" stroke-miterlimit="10" stroke-width="0.25"/>
          <path d="M70.17,76.37s-.17,0-.1.07a3.52,3.52,0,0,0,.91-.22s.06-.09-.08,0" fill="none" stroke="#ca0000" stroke-miterlimit="10" stroke-width="0.25"/>
          <path d="M70.23,76.5s-.16,0-.09.07a4,4,0,0,0,.9-.23s.07-.09-.08,0" fill="none" stroke="#ca0000" stroke-miterlimit="10" stroke-width="0.25"/>
          <path d="M70.29,76.66s-.17,0-.1.07a3.38,3.38,0,0,0,.9-.22s.07-.09-.08-.05" fill="none" stroke="#ca0000" stroke-miterlimit="10" stroke-width="0.25"/>
        </g>
        <circle cx="60.25" cy="16.76" r="0.93" fill="#564d4c"/>
        <circle cx="51.49" cy="53.07" r="0.87" fill="#564d4c"/>
        <circle cx="58.68" cy="51.34" r="0.87" fill="#564d4c"/>
        <circle cx="64.59" cy="46.2" r="0.87" fill="#564d4c"/>
        <circle cx="53.79" cy="39.51" r="0.87" fill="#564d4c"/>
        <circle cx="63.73" cy="40.97" r="0.87" fill="#564d4c"/>
        <circle cx="45.91" cy="50.47" r="0.87" fill="#564d4c"/>
        <circle cx="50.29" cy="27.42" r="0.93" fill="#564d4c"/>
        <circle cx="36.09" cy="43.17" r="0.87" fill="#564d4c"/>
        <circle cx="40.23" cy="56.72" r="0.87" fill="#564d4c"/>
        <circle cx="31.03" cy="59.21" r="0.87" fill="#564d4c"/>
        <circle cx="37.82" cy="60.95" r="0.87" fill="#564d4c"/>
        <circle cx="32.76" cy="68.42" r="0.87" fill="#564d4c"/>
        <circle cx="34.49" cy="70.15" r="0.87" fill="#564d4c"/>
        <circle cx="71.08" cy="37.78" r="0.87" fill="#564d4c"/>
        <circle cx="75.87" cy="38.13" r="0.87" fill="#564d4c"/>
        <circle cx="82.01" cy="26.84" r="0.87" fill="#564d4c"/>
        <circle cx="61.63" cy="29.32" r="0.87" fill="#564d4c"/>
        <circle cx="69.35" cy="12.91" r="0.87" fill="#564d4c"/>
        <circle cx="75.38" cy="17.57" r="0.87" fill="#564d4c"/>
        <circle cx="64.82" cy="6.3" r="0.87" fill="#564d4c"/>
        <circle cx="42.83" cy="18.34" r="0.87" fill="#564d4c"/>
        <circle cx="55.86" cy="2.3" r="0.87" fill="#564d4c"/>
        <circle cx="39.16" cy="0.87" r="0.87" fill="#564d4c"/>
        <circle cx="59.89" cy="7.16" r="0.87" fill="#564d4c"/>
        <circle cx="40.42" cy="10.54" r="0.87" fill="#564d4c"/>
        <circle cx="30.22" cy="25.2" r="0.87" fill="#564d4c"/>
        <circle cx="30.81" cy="15.94" r="0.87" fill="#564d4c"/>
        <circle cx="31.71" cy="2.54" r="0.87" fill="#564d4c"/>
        <circle cx="24.11" cy="11.94" r="0.87" fill="#564d4c"/>
        <circle cx="22.74" cy="36.21" r="0.87" fill="#564d4c"/>
        <circle cx="17.26" cy="12.97" r="0.87" fill="#564d4c"/>
        <circle cx="11.52" cy="16.3" r="0.87" fill="#564d4c"/>
        <circle cx="9.63" cy="21.67" r="0.87" fill="#564d4c"/>
        <circle cx="11.87" cy="30.2" r="0.87" fill="#564d4c"/>
        <circle cx="5.34" cy="35.87" r="0.87" fill="#564d4c"/>
        <circle cx="9.08" cy="46.68" r="0.87" fill="#564d4c"/>
        <circle cx="5.55" cy="42.41" r="0.87" fill="#564d4c"/>
        <circle cx="15.6" cy="50.26" r="0.87" fill="#564d4c"/>
        <circle cx="14.23" cy="56.72" r="0.87" fill="#564d4c"/>
        <circle cx="20.96" cy="59.92" r="0.87" fill="#564d4c"/>
        <circle cx="24.86" cy="50.26" r="0.87" fill="#564d4c"/>
        <circle cx="79.64" cy="20.8" r="0.87" fill="#564d4c"/>
        <circle cx="46.78" cy="4.56" r="0.87" fill="#564d4c"/>
        <circle cx="51.1" cy="2.11" r="0.87" fill="#564d4c"/>
        <circle cx="80.73" cy="32.73" r="0.87" fill="#564d4c"/>
        <circle cx="72.81" cy="13.83" r="0.87" fill="#564d4c"/>
        <circle cx="26.59" cy="5.43" r="0.87" fill="#564d4c"/>
      </g>
    </g>
  </g>
</svg>
