<svg xmlns="http://www.w3.org/2000/svg" viewBox="0 0 93.2 80.6">
  <g id="a4480473-121d-4b14-95a6-468a7c9fe821" data-name="Camada 2">
    <g id="fdec2ff1-5661-49c7-b419-0ff37cd68d76" data-name="layout">
      <g>
        <path d="M93.2,51.45a2.14,2.14,0,0,0-.2.79,6.35,6.35,0,0,1-12.51-1.65c0-2.31,0-4.62,0-6.92a6.17,6.17,0,0,1,3.17-5.58,6.35,6.35,0,0,1,9.47,4.54c0,.08,0,.18.07.22v.22c-.1.08-.07.2-.07.3v7.49c0,.1,0,.22.07.3ZM83.06,47.08v3.6a3.78,3.78,0,0,0,7.55,0c0-2.32,0-4.64,0-7,0-.14,0-.29,0-.44a3.78,3.78,0,0,0-7.55.32Z" fill="#14527b"/>
        <path d="M0,37.24H.08s0,0,0,.06c0,2.16,0,4.32,0,6.48q0,6.52,0,13H0Z" fill="#76a7c6"/>
        <path d="M.06,74.92H0l0,0V61H.07V74.45C.07,74.61.07,74.77.06,74.92Z" fill="#7ae1b0"/>
        <path d="M93.2,51.16c-.11-.08-.07-.2-.07-.3V43.37c0-.1,0-.22.07-.3Z" fill="#4c7b9a"/>
        <path d="M33.81,80.6v-.06l5.24,0v.08Z" fill="#a1f8cf"/>
        <path d="M0,14H.07v2.48H0Z" fill="#7ae1b0"/>
        <path d="M14,.07V0h2.33V.08Z" fill="#7ae1b0"/>
        <path d="M5.39,80.6v-.06c.61-.05,1.22,0,1.82-.07l-.07.13Z" fill="#dcfefe"/>
        <path d="M14,.07h2.31a14.86,14.86,0,0,1,8.84,3.83,14.73,14.73,0,0,1,4.39,7,14.65,14.65,0,0,1-.2,9,14.82,14.82,0,0,1-8.68,9.18,14.46,14.46,0,0,1-7.13,1,14.73,14.73,0,0,1-9-4.24A14.73,14.73,0,0,1,.22,17.5c0-.34-.1-.69-.14-1V14a14.74,14.74,0,0,1,3.77-8.9A14.95,14.95,0,0,1,14,.07Zm1.1,2.06A13,13,0,1,0,28,15,13,13,0,0,0,15.1,2.13Z" fill="#2db475"/>
        <path d="M39.15,45.9a1.12,1.12,0,0,1,.92,1A30.38,30.38,0,0,1,40,51.7a6,6,0,0,1-4.23,5,6,6,0,0,1-6.43-1.45,6.13,6.13,0,0,1-1.94-4.63V43.77a6.35,6.35,0,0,1,12.69-.44c0,.07,0,.14,0,.23H37.54a3.8,3.8,0,0,0-1-2.51,3.75,3.75,0,0,0-4.12-1A3.79,3.79,0,0,0,30,43.53q0,3.59,0,7.18a3.78,3.78,0,0,0,7.56,0V48.38H33.82c0-.69,0-1.38,0-2.07,0-.31.07-.41.4-.41C35.86,45.92,37.5,45.91,39.15,45.9Z" fill="#14527b"/>
        <path d="M7.21,80.47c-.6.1-1.21,0-1.82.07A9.13,9.13,0,0,1,3,79.64a6.19,6.19,0,0,1-3-4.72c0-.15,0-.31,0-.47V61H2.5a.76.76,0,0,1,0,.44V74.23a3.71,3.71,0,0,0,7.12,1.54A3.74,3.74,0,0,0,10,74.22V61h2.48a.85.85,0,0,1,0,.44V74.24A6.27,6.27,0,0,1,7.21,80.47Z" fill="#2db475"/>
        <path d="M.08,56.83q0-6.51,0-13c0-2.16,0-4.32,0-6.48H6.94a5.52,5.52,0,0,1,4.4,3A5.85,5.85,0,0,1,6.1,49H2.59v7.87Zm2.54-17v6.6c1.28,0,2.53,0,3.78,0a3.28,3.28,0,0,0,.38-6.5A38.4,38.4,0,0,0,2.62,39.78Z" fill="#14527b"/>
        <path d="M20.85,37.31a5.45,5.45,0,0,1,3.77,2.1,5.86,5.86,0,0,1-3.56,9.46A5.77,5.77,0,0,1,20,49c-1.17,0-2.35,0-3.56,0v7.87H14q0-9.54,0-19.09c0-.36.11-.44.46-.44C16.57,37.32,18.71,37.31,20.85,37.31Zm-4.37,9.06c1.3,0,2.56.05,3.82,0a3.23,3.23,0,0,0,3-3,3.28,3.28,0,0,0-2.45-3.5,2.17,2.17,0,0,0-.43-.08h-4Z" fill="#14527b"/>
        <path d="M49.69,47.41c.48-.45.43-.86-.15-1.18-1.79-1-3.59-1.92-5.37-2.91a3.19,3.19,0,0,1-.29-5.39,2.83,2.83,0,0,1,1.63-.53h8.8v2.51a.72.72,0,0,1-.43,0H45.83c-.34,0-.61.05-.7.42s0,.56.41.76l5.37,2.9a3.19,3.19,0,0,1-.52,5.82,3.86,3.86,0,0,1-1.12.13H46.18c-.54,0-.72.18-.72.72V57H42.93c-.09-.09,0-.22,0-.33V50.77a3.15,3.15,0,0,1,2.24-3.21,2.74,2.74,0,0,1,.28-.05h3.94C49.46,47.51,49.61,47.58,49.69,47.41Z" fill="#14527b"/>
        <path d="M72.21,39.63c0,.27-.17.15-.27.15H65.75a1.86,1.86,0,0,0-1.23,3.32l7.18,6.28A4.35,4.35,0,0,1,68.8,57H62.11V54.49a.65.65,0,0,1,.39,0h6.16a1.77,1.77,0,0,0,1.91-1.52,1.71,1.71,0,0,0-.67-1.71c-2.39-2.08-4.8-4.16-7.17-6.28a4.15,4.15,0,0,1-1.29-4.59,4.2,4.2,0,0,1,3.64-3.08.78.78,0,0,0,.4,0c2.09,0,4.19,0,6.28,0,.31,0,.41.09.39.39a9.91,9.91,0,0,0,0,1.09A1.87,1.87,0,0,0,72.21,39.63Z" fill="#14527b"/>
        <path d="M26.35,61.15v2.42a.69.69,0,0,1-.44.06H18c-.53,0-.8.33-.66.78.07.24.28.33.47.43,1.74,1,3.49,1.88,5.24,2.84a3.11,3.11,0,0,1-.7,5.72,3.21,3.21,0,0,1-.87.08H18.43c-.58,0-.78.19-.78.78v6.1H15.2a.6.6,0,0,1,0-.37V74.13A3,3,0,0,1,17.51,71a2.11,2.11,0,0,1,.61-.06c1.11,0,2.21,0,3.32,0,.33,0,.57-.08.65-.43a.61.61,0,0,0-.37-.74C20,68.88,18.25,67.92,16.5,67a3.16,3.16,0,0,1-.22-5.48,2.56,2.56,0,0,1,1.34-.4q4.24,0,8.49,0Z" fill="#2db475"/>
        <path d="M39.05,80.52l-5.24,0A6.22,6.22,0,0,1,28,76.09a5.56,5.56,0,0,1-.26-1.72q0-3.48,0-7a6.24,6.24,0,0,1,4.93-6.17,4.88,4.88,0,0,1,1-.11c1.69,0,3.37,0,5.06,0l.27,0v2.43a.74.74,0,0,1-.41.05H34.09a3.72,3.72,0,0,0-3.73,3.09,3.14,3.14,0,0,0-.05.61c0,2.32,0,4.64,0,7a3.65,3.65,0,0,0,3.5,3.7c1.6.09,3.21,0,4.81,0h.43Z" fill="#2db475"/>
        <path d="M75.53,37.41h2.53V57H75.53Z" fill="#14527b"/>
        <path d="M56.7,37.41h.15a21.68,21.68,0,0,0,2.28,0c0,.13,0,.27,0,.4V57H56.69Q56.69,47.2,56.7,37.41Z" fill="#14527b"/>
        <path d="M20.85,37.31c-2.14,0-4.28,0-6.41,0-.35,0-.46.08-.46.44q0,9.54,0,19.09h-.06c0-.17,0-.34,0-.51V37.75c0-.15,0-.29,0-.44s.22-.07.33-.07h6.07A1.11,1.11,0,0,1,20.85,37.31Z" fill="#294b60"/>
        <path d="M56.7,37.41q0,9.78,0,19.57c-.15,0-.08-.15-.08-.23V37.69C56.61,37.6,56.54,37.46,56.7,37.41Z" fill="#294b60"/>
        <path d="M13.91,37.31c0,.15,0,.29,0,.44V56.33c0,.17,0,.34,0,.51-.13-.11-.08-.25-.08-.38V37.66C13.85,37.54,13.81,37.42,13.91,37.31Z" fill="#dcfefe"/>
        <path d="M72.21,39.63a1.87,1.87,0,0,1-.06-.85,9.91,9.91,0,0,1,0-1.09c0-.3-.08-.39-.39-.39-2.09,0-4.19,0-6.28,0a.78.78,0,0,1-.4,0l.18,0h6.95Z" fill="#294b60"/>
        <path d="M39.15,45.9c-1.65,0-3.29,0-4.94,0-.33,0-.41.1-.4.41,0,.69,0,1.38,0,2.07-.09,0-.08-.08-.08-.14V45.89c.11-.09.22,0,.33,0,1.55,0,3.1,0,4.66,0A.68.68,0,0,1,39.15,45.9Z" fill="#294b60"/>
        <path d="M6.94,37.3H.08s0,0,0-.06H6.55A.75.75,0,0,1,6.94,37.3Z" fill="#294b60"/>
        <path d="M49.69,47.41c-.08.17-.23.1-.35.1H45.4a1.11,1.11,0,0,1,.57-.07Z" fill="#294b60"/>
        <path d="M59.13,37.45a21.68,21.68,0,0,1-2.28,0A14.47,14.47,0,0,1,59.13,37.45Z" fill="#294b60"/>
        <path d="M12.67,23H10.61a.74.74,0,0,1,0-.41q0-2.37,0-4.74a2.51,2.51,0,0,1,1.86-2.52,2.66,2.66,0,0,1,.79-.08h2.55c.25,0,.48,0,.55-.3a.53.53,0,0,0-.31-.66c-1.47-.79-2.94-1.58-4.41-2.39a2.41,2.41,0,0,1-1.32-2.26,2.5,2.5,0,0,1,1.36-2.29,2.3,2.3,0,0,1,1.09-.26h6.88l.24,0v2c-.12.09-.26,0-.39,0H13.05c-.29,0-.57,0-.66.36s.13.51.4.65l4.35,2.35a2.55,2.55,0,0,1,1.21,3,2.46,2.46,0,0,1-2.43,1.82H13.34c-.56,0-.67.11-.67.66v5Z" fill="#2db475"/>
      </g>
    </g>
  </g>
</svg>
