<svg xmlns="http://www.w3.org/2000/svg" viewBox="0 0 86.62 86.62">
  <g id="e5cb3a1f-60e2-4f4b-8060-39bd13bd871f" data-name="Camada 2">
    <g id="e5e9036a-f289-4d6b-8b8f-d565c642d273" data-name="layout">
      <g>
        <path id="ba7e462f-338d-46e8-931a-a76bfe52863d" data-name="circulo" d="M43.31,86.62A43.31,43.31,0,1,0,0,43.31,43.4,43.4,0,0,0,43.31,86.62Z" fill="#16132e" fill-rule="evenodd"/>
        <path id="b7fe74c7-1a32-40af-8b0b-f4f62062a06a" data-name="aro" d="M43.31,82.29a39,39,0,1,0-39-39,39.07,39.07,0,0,0,39,39Z" fill="none" stroke="#e6e6e6" stroke-miterlimit="10" fill-rule="evenodd"/>
        <path id="fe96d3fe-b9a0-43f1-b723-9c8dc7aac7b8" data-name="X" d="M67,35.43a2.12,2.12,0,0,1,1.58-.66,2.41,2.41,0,0,1,1.62.7,2.15,2.15,0,0,1,.64,1.6,2.26,2.26,0,0,1-.64,1.63l-4.62,4.66L70.19,48a2.33,2.33,0,0,1,.68,1.62A2.27,2.27,0,0,1,68.57,52a2.26,2.26,0,0,1-1.69-.75l-4.62-4.56-4.62,4.66A2.59,2.59,0,0,1,56,52a2.06,2.06,0,0,1-1.67-.65,2.34,2.34,0,0,1-.7-1.58,2.17,2.17,0,0,1,.62-1.65L59,43.36l-4.74-4.73a1.9,1.9,0,0,1-.6-1.56,2.71,2.71,0,0,1,.68-1.6A2.13,2.13,0,0,1,56,34.75a2.67,2.67,0,0,1,1.6.72l4.62,4.62Z" fill="#16132e" stroke="#e6e6e6" stroke-miterlimit="10"/>
        <path id="ab649188-1eca-4cdc-928f-f703f5e1d44c" data-name="O" d="M52.23,43.36a8.6,8.6,0,1,1-8.6-8.6A8.61,8.61,0,0,1,52.23,43.36Z" fill="#16132e" stroke="#e6e6e6" stroke-miterlimit="10"/>
        <path id="e70b6862-396c-4e3b-8766-91e23b384ebc" data-name="LUA" d="M48.43,50.69a8.4,8.4,0,0,1-1.57.75A8.6,8.6,0,1,1,41,35.28a9.53,9.53,0,0,1,1.69-.43,8.6,8.6,0,0,0,5.77,15.84Z" fill="#e6e6e6"/>
        <path id="ab00dd7c-722b-4db1-87cd-74fe56b8d5df" data-name="N" d="M24.39,34.65a8.84,8.84,0,0,1,3.27.62A8.54,8.54,0,0,1,30.4,37a8.68,8.68,0,0,1,1.88,2.65A7.66,7.66,0,0,1,33,43v6.58a2.21,2.21,0,0,1-.66,1.6,2.29,2.29,0,0,1-1.62.71,2.4,2.4,0,0,1-1.65-.62,2.06,2.06,0,0,1-.69-1.59v-6.4a3.82,3.82,0,0,0-.31-1.54,3.68,3.68,0,0,0-.85-1.27,4.33,4.33,0,0,0-1.28-.85,4,4,0,0,0-1.58-.32,3.86,3.86,0,0,0-1.5.3,4.41,4.41,0,0,0-1.24.8,3.73,3.73,0,0,0-.85,1.21,3.53,3.53,0,0,0-.33,1.5v6.47a2.17,2.17,0,0,1-.7,1.61,2.27,2.27,0,0,1-1.64.7,2.42,2.42,0,0,1-1.64-.64,2,2,0,0,1-.71-1.57v-6.4a9,9,0,0,1,.7-3.34A8.49,8.49,0,0,1,21,35.32,8.5,8.5,0,0,1,24.39,34.65Z" fill="#16132e" stroke="#e6e6e6" stroke-miterlimit="10"/>
      </g>
    </g>
  </g>
</svg>
