<svg xmlns="http://www.w3.org/2000/svg" viewBox="0 0 358.22 357.15">
  <g id="b4a996b1-6580-45dd-9e78-de92f97bb7de" data-name="Camada 2">
    <g id="a738ae24-17e1-40db-b410-2cce174acb96" data-name="frame_6">
      <g id="f211b59d-9e5f-415c-87a2-6406209fc629" data-name="visao_6">
        <g id="a3002053-3b8c-4e27-85a7-5824646a9d84" data-name="visão">
          <path d="M355.29,204.42c-.42,2.93-.91,5.85-1.5,8.74A178.69,178.69,0,0,1,122.87,348.27c-2.85-.92-5.67-1.93-8.45-3A178.44,178.44,0,0,1,0,178.58c0-.63,0-1.25,0-1.85,0,0,0,0,0-.07a335.71,335.71,0,0,1,12.34-63.5s0,0,0-.06A178.87,178.87,0,0,1,164.58.54q6.93-.54,14-.54a177.85,177.85,0,0,1,84.7,21.33A193.75,193.75,0,0,1,286.7,36.89S339.87,78,355.29,204.42Z" fill="#f8c6af"/>
          <path d="M26.7,84.62,2.92,210.86A178.94,178.94,0,0,1,0,178.58c0-.63,0-1.25,0-1.85,0,0,0,0,0-.07a177.38,177.38,0,0,1,12.34-63.5s0,0,0-.06A178.49,178.49,0,0,1,26.7,84.62Z" fill="#33150a"/>
          <path d="M357.15,178.58a180.67,180.67,0,0,1-1.86,25.84c-.42,2.93-.91,5.85-1.5,8.74-2.6-27.76-7.1-44-7.1-44-48.5-22.38-46.15-60-46.15-60C242.12,98.8,213.36,19.51,164.58.54q6.93-.54,14-.54A178.48,178.48,0,0,1,357.15,178.58Z" fill="#33150a"/>
          <path d="M220.59,192.7c-1.16.16-14.27-11.45-3.73-22,13.87-9.09,63.7-14.79,96.75-2.09,9.38,5,25.9,26.36,24.81,27.19-1.81,1.38-28.62-12.07-52.74-13.7C246.56,178.72,226.82,191.81,220.59,192.7Z" fill="#3d1a03"/>
          <path d="M139.18,201.29c1.13.27,15.29-10,5.81-21.53-42-9.86-74.47-12.31-96.43-7.84-9.82,4.1-28,20.26-27,21.19,1.68,1.55,25.7-4.26,48.21-3.46C92.71,191.05,133.06,199.81,139.18,201.29Z" fill="#3d1a03"/>
          <path d="M151.66,207.7c23.38-9.32,7.18-32,7.18-32S168.55,195.46,151.66,207.7Z" fill="#aa7d6f"/>
          <path d="M201.05,341.3c-18.42,1.6-14.1-3.15-42.24-.08-17,1.87-2.33-25.79,6.36-34.49,9.42-9.41,24.54-8.9,30.54,0C204.65,320,211.23,340.42,201.05,341.3Z" fill="#e3b198"/>
          <g>
            <path d="M51.05,242.61,38.84,225.82c30.61-29.59,77.35-9.67,92.11,9.67" fill="none" stroke="#000" stroke-miterlimit="10" stroke-width="2"/>
            <path d="M114.4,233.6c0,9.9,0,3.56-17.94,2.93-20.34-.7-22.11,7.08-22.11-2.82s12.21-18,22.11-18A17.94,17.94,0,0,1,114.4,233.6Z" stroke="#000" stroke-miterlimit="10" stroke-width="2"/>
          </g>
          <path d="M124.35,247.19c-35.64-19.88-65.65,2.29-65.65,2.29S88.28,234.42,124.35,247.19Z" fill="#aa7d6f" stroke="#aa7d6f" stroke-miterlimit="10"/>
          <path d="M238.12,251.49c14.76,20.59,37.51,15.44,37.51,15.44A53.67,53.67,0,0,1,238.12,251.49Z" fill="#aa7d6f"/>
          <g>
            <path d="M225.07,231.26c14.76-19.33,61.49-39.26,92.11-9.67L305,238.39" fill="none" stroke="#000" stroke-miterlimit="10" stroke-width="2"/>
            <circle cx="259.55" cy="229.37" r="17.93" stroke="#000" stroke-miterlimit="10" stroke-width="2"/>
          </g>
          <path d="M144.38,320.75l-21.51,27.52c-2.85-.92-5.67-1.93-8.45-3C127,331,144.38,320.75,144.38,320.75Z" fill="#bf8b77"/>
        </g>
        <path d="M358.22,178.61A178.08,178.08,0,0,1,180.15,356.68V.55A178.07,178.07,0,0,1,358.22,178.61Z" fill="#e72a33" opacity="0.25"/>
      </g>
      
                     <animate
            id="frame1"
            attributeName="display"
            values="none;none;none;none;none;inline;none"
            keyTimes="0;0.16;0.32;0.48;0.64;0.8;1"
            dur="2s"
            begin="0s"
            repeatCount="indefinite" />
      
    </g>
    <g id="e0b79155-4cef-43fe-8a0c-f240bf2f081b" data-name="frame_5">
      <g id="f5cc7555-62ae-41e3-951a-8bd02253a569" data-name="visao_5">
        <g id="f0cd264e-6dae-4db6-b469-77f7a44bb745" data-name="visão">
          <path d="M355.42,204.42c-.41,2.93-.9,5.85-1.49,8.74A178.69,178.69,0,0,1,123,348.27c-2.85-.92-5.68-1.93-8.45-3A178.44,178.44,0,0,1,.14,178.58c0-.63,0-1.25,0-1.85,0,0,0,0,0-.07a335.71,335.71,0,0,1,12.34-63.5s0,0,0-.06A178.87,178.87,0,0,1,164.72.54q6.93-.54,14-.54a177.86,177.86,0,0,1,84.71,21.33,194.79,194.79,0,0,1,23.42,15.56S340,78,355.42,204.42Z" fill="#f8c6af"/>
          <path d="M26.84,84.62,3.06,210.86A178.94,178.94,0,0,1,.14,178.58c0-.63,0-1.25,0-1.85,0,0,0,0,0-.07a177.38,177.38,0,0,1,12.34-63.5s0,0,0-.06A177.66,177.66,0,0,1,26.84,84.62Z" fill="#33150a"/>
          <path d="M357.29,178.58a179.23,179.23,0,0,1-1.87,25.84c-.41,2.93-.9,5.85-1.49,8.74-2.6-27.76-7.1-44-7.1-44-48.5-22.38-46.15-60-46.15-60C242.26,98.8,213.5,19.51,164.72.54q6.93-.54,14-.54A178.48,178.48,0,0,1,357.29,178.58Z" fill="#33150a"/>
          <path d="M220.73,192.7c-1.16.16-14.27-11.45-3.73-22,13.87-9.09,63.7-14.79,96.75-2.09,9.38,5,25.9,26.36,24.81,27.19-1.81,1.38-28.62-12.07-52.74-13.7C246.7,178.72,227,191.81,220.73,192.7Z" fill="#3d1a03"/>
          <path d="M139.31,201.29c1.14.27,15.3-10,5.82-21.53-42-9.86-74.47-12.31-96.43-7.84-9.82,4.1-28,20.26-27,21.19,1.67,1.55,25.69-4.26,48.21-3.46C92.84,191.05,133.2,199.81,139.31,201.29Z" fill="#3d1a03"/>
          <path d="M151.8,207.7c23.38-9.32,7.18-32,7.18-32S168.69,195.46,151.8,207.7Z" fill="#aa7d6f"/>
          <path d="M201.19,341.3c-18.42,1.6-14.1-3.15-42.24-.08-17,1.87-2.34-25.79,6.36-34.49,9.41-9.41,24.54-8.9,30.54,0C204.79,320,211.37,340.42,201.19,341.3Z" fill="#e3b198"/>
          <path d="M238.26,251.49c14.76,20.59,37.51,15.44,37.51,15.44A53.67,53.67,0,0,1,238.26,251.49Z" fill="#aa7d6f"/>
          <g>
            <path d="M225.21,231.26c14.75-19.33,61.49-39.26,92.1-9.67l-12.21,16.8" fill="none" stroke="#000" stroke-miterlimit="10" stroke-width="2"/>
            <circle cx="259.69" cy="229.37" r="17.93" stroke="#000" stroke-miterlimit="10" stroke-width="2"/>
          </g>
          <path d="M144.52,320.75,123,348.27c-2.85-.92-5.68-1.93-8.45-3C127.09,331,144.52,320.75,144.52,320.75Z" fill="#bf8b77"/>
        </g>
        <path d="M41,226.44s37.13,29.49,88.52,0" fill="none" stroke="#000" stroke-miterlimit="10" stroke-width="2"/>
        <path d="M358.08,178.61A178.08,178.08,0,0,1,180,356.68V.55A178.07,178.07,0,0,1,358.08,178.61Z" fill="#e72a33" opacity="0.25"/>
      </g>
      
                     <animate
            id="frame1"
            attributeName="display"
            values="none;none;none;none;inline;none;none"
            keyTimes="0;0.16;0.32;0.48;0.64;0.8;1"
            dur="2s"
            begin="0s"
            repeatCount="indefinite" />
      
    </g>
    <g id="a1fb131e-926f-422b-920b-65cb884ca45e" data-name="frame_4">
      <g id="a840de0f-c507-40b5-bf78-6a940fade023" data-name="visao_4">
        <g id="fe1169e4-d896-4b32-8095-15650ea7726c" data-name="visão">
          <path d="M355.29,204.42c-.42,2.93-.91,5.85-1.5,8.74A178.69,178.69,0,0,1,122.87,348.27c-2.85-.92-5.67-1.93-8.45-3A178.44,178.44,0,0,1,0,178.58c0-.63,0-1.25,0-1.85,0,0,0,0,0-.07a335.71,335.71,0,0,1,12.34-63.5s0,0,0-.06A178.87,178.87,0,0,1,164.58.54q6.93-.54,14-.54a177.85,177.85,0,0,1,84.7,21.33A193.75,193.75,0,0,1,286.7,36.89S339.87,78,355.29,204.42Z" fill="#f8c6af"/>
          <path d="M26.7,84.62,2.92,210.86A178.94,178.94,0,0,1,0,178.58c0-.63,0-1.25,0-1.85,0,0,0,0,0-.07a177.38,177.38,0,0,1,12.34-63.5s0,0,0-.06A178.49,178.49,0,0,1,26.7,84.62Z" fill="#33150a"/>
          <path d="M357.15,178.58a180.67,180.67,0,0,1-1.86,25.84c-.42,2.93-.91,5.85-1.5,8.74-2.6-27.76-7.1-44-7.1-44-48.5-22.38-46.15-60-46.15-60C242.12,98.8,213.36,19.51,164.58.54q6.93-.54,14-.54A178.48,178.48,0,0,1,357.15,178.58Z" fill="#33150a"/>
          <path d="M220.59,192.7c-1.16.16-14.27-11.45-3.73-22,13.87-9.09,63.7-14.79,96.75-2.09,9.38,5,25.9,26.36,24.81,27.19-1.81,1.38-28.62-12.07-52.74-13.7C246.56,178.72,226.82,191.81,220.59,192.7Z" fill="#3d1a03"/>
          <path d="M139.18,201.29c1.13.27,15.29-10,5.81-21.53-42-9.86-74.47-12.31-96.43-7.84-9.82,4.1-28,20.26-27,21.19,1.68,1.55,25.7-4.26,48.21-3.46C92.71,191.05,133.06,199.81,139.18,201.29Z" fill="#3d1a03"/>
          <path d="M151.66,207.7c23.38-9.32,7.18-32,7.18-32S168.55,195.46,151.66,207.7Z" fill="#aa7d6f"/>
          <path d="M201.05,341.3c-18.42,1.6-14.1-3.15-42.24-.08-17,1.87-2.33-25.79,6.36-34.49,9.42-9.41,24.54-8.9,30.54,0C204.65,320,211.23,340.42,201.05,341.3Z" fill="#e3b198"/>
          <g>
            <path d="M51.05,242.61,38.84,225.82c30.61-29.59,77.35-9.67,92.11,9.67" fill="none" stroke="#000" stroke-miterlimit="10" stroke-width="2"/>
            <path d="M114.4,233.6c0,9.9,0,3.56-17.94,2.93-20.34-.7-22.11,7.08-22.11-2.82s12.21-18,22.11-18A17.94,17.94,0,0,1,114.4,233.6Z" stroke="#000" stroke-miterlimit="10" stroke-width="2"/>
          </g>
          <path d="M124.35,247.19c-35.64-19.88-65.65,2.29-65.65,2.29S88.28,234.42,124.35,247.19Z" fill="#aa7d6f" stroke="#aa7d6f" stroke-miterlimit="10"/>
          <path d="M238.12,251.49c14.76,20.59,37.51,15.44,37.51,15.44A53.67,53.67,0,0,1,238.12,251.49Z" fill="#aa7d6f"/>
          <g>
            <path d="M225.07,231.26c14.76-19.33,61.49-39.26,92.11-9.67L305,238.39" fill="none" stroke="#000" stroke-miterlimit="10" stroke-width="2"/>
            <circle cx="259.55" cy="229.37" r="17.93" stroke="#000" stroke-miterlimit="10" stroke-width="2"/>
          </g>
          <path d="M144.38,320.75l-21.51,27.52c-2.85-.92-5.67-1.93-8.45-3C127,331,144.38,320.75,144.38,320.75Z" fill="#bf8b77"/>
        </g>
        <path d="M358.22,178.61A178.08,178.08,0,0,1,180.15,356.68V.55A178.07,178.07,0,0,1,358.22,178.61Z" fill="#e72a33" opacity="0.25"/>
      </g>
      
                     <animate
            id="frame1"
            attributeName="display"
            values="none;none;none;inline;none;none;none"
            keyTimes="0;0.16;0.32;0.48;0.64;0.8;1"
            dur="2s"
            begin="0s"
            repeatCount="indefinite" />
            
    </g>
    <g id="ff24c537-7334-43ff-a25d-5c23ccc8ae7d" data-name="frame_3">
      <g id="e09d8a6b-04a2-4331-bbf7-f855a948ce72" data-name="visao_3">
        <g id="e6598cac-99bc-4216-a055-788f6fd4594f" data-name="visão">
          <path d="M355.42,204.42c-.41,2.93-.9,5.85-1.49,8.74A178.69,178.69,0,0,1,123,348.27c-2.85-.92-5.68-1.93-8.45-3A178.44,178.44,0,0,1,.14,178.58c0-.63,0-1.25,0-1.85,0,0,0,0,0-.07a335.71,335.71,0,0,1,12.34-63.5s0,0,0-.06A178.87,178.87,0,0,1,164.72.54q6.93-.54,14-.54a177.86,177.86,0,0,1,84.71,21.33,194.79,194.79,0,0,1,23.42,15.56S340,78,355.42,204.42Z" fill="#f8c6af"/>
          <path d="M26.84,84.62,3.06,210.86A178.94,178.94,0,0,1,.14,178.58c0-.63,0-1.25,0-1.85,0,0,0,0,0-.07a177.38,177.38,0,0,1,12.34-63.5s0,0,0-.06A177.66,177.66,0,0,1,26.84,84.62Z" fill="#33150a"/>
          <path d="M357.29,178.58a179.23,179.23,0,0,1-1.87,25.84c-.41,2.93-.9,5.85-1.49,8.74-2.6-27.76-7.1-44-7.1-44-48.5-22.38-46.15-60-46.15-60C242.26,98.8,213.5,19.51,164.72.54q6.93-.54,14-.54A178.48,178.48,0,0,1,357.29,178.58Z" fill="#33150a"/>
          <path d="M220.73,192.7c-1.16.16-14.27-11.45-3.73-22,13.87-9.09,63.7-14.79,96.75-2.09,9.38,5,25.9,26.36,24.81,27.19-1.81,1.38-28.62-12.07-52.74-13.7C246.7,178.72,227,191.81,220.73,192.7Z" fill="#3d1a03"/>
          <path d="M139.31,201.29c1.14.27,15.3-10,5.82-21.53-42-9.86-74.47-12.31-96.43-7.84-9.82,4.1-28,20.26-27,21.19,1.67,1.55,25.69-4.26,48.21-3.46C92.84,191.05,133.2,199.81,139.31,201.29Z" fill="#3d1a03"/>
          <path d="M151.8,207.7c23.38-9.32,7.18-32,7.18-32S168.69,195.46,151.8,207.7Z" fill="#aa7d6f"/>
          <path d="M201.19,341.3c-18.42,1.6-14.1-3.15-42.24-.08-17,1.87-2.34-25.79,6.36-34.49,9.41-9.41,24.54-8.9,30.54,0C204.79,320,211.37,340.42,201.19,341.3Z" fill="#e3b198"/>
          <path d="M238.26,251.49c14.76,20.59,37.51,15.44,37.51,15.44A53.67,53.67,0,0,1,238.26,251.49Z" fill="#aa7d6f"/>
          <g>
            <path d="M225.21,231.26c14.75-19.33,61.49-39.26,92.1-9.67l-12.21,16.8" fill="none" stroke="#000" stroke-miterlimit="10" stroke-width="2"/>
            <circle cx="259.69" cy="229.37" r="17.93" stroke="#000" stroke-miterlimit="10" stroke-width="2"/>
          </g>
          <path d="M144.52,320.75,123,348.27c-2.85-.92-5.68-1.93-8.45-3C127.09,331,144.52,320.75,144.52,320.75Z" fill="#bf8b77"/>
        </g>
        <path d="M41,226.44s37.13,29.49,88.52,0" fill="none" stroke="#000" stroke-miterlimit="10" stroke-width="2"/>
        <path d="M358.08,178.61A178.08,178.08,0,0,1,180,356.68V.55A178.07,178.07,0,0,1,358.08,178.61Z" fill="#e72a33" opacity="0.25"/>
      </g>
      
                     <animate
            id="frame1"
            attributeName="display"
            values="none;none;inline;none;none;none;none"
            keyTimes="0;0.16;0.32;0.48;0.64;0.8;1"
            dur="2s"
            begin="0s"
            repeatCount="indefinite" />
            
    </g>
    <g id="a569f5d1-7d70-43c5-a4f7-5e5c1ff76ab5" data-name="frame_2">
      <g id="b5d9aba8-5307-4bc1-b682-19cab99fd558" data-name="visao_2">
        <g id="e0ccc675-37c3-47f0-88ee-e67eeecd194c" data-name="visão">
          <path d="M355.56,204.42c-.41,2.93-.91,5.85-1.5,8.74A178.68,178.68,0,0,1,123.15,348.27c-2.86-.92-5.68-1.93-8.45-3A178.35,178.35,0,0,1,.28,178.58c0-.63,0-1.25,0-1.85,0,0,0,0,0-.07a335.71,335.71,0,0,1,12.34-63.5s0,0,0-.06A179,179,0,0,1,164.85.54q6.94-.54,14-.54a177.86,177.86,0,0,1,84.71,21.33A194.79,194.79,0,0,1,287,36.89S340.15,78,355.56,204.42Z" fill="#f8c6af"/>
          <path d="M27,84.62,3.19,210.86A179.85,179.85,0,0,1,.28,178.58c0-.63,0-1.25,0-1.85,0,0,0,0,0-.07a177.17,177.17,0,0,1,12.34-63.5s0,0,0-.06A178.54,178.54,0,0,1,27,84.62Z" fill="#33150a"/>
          <path d="M357.43,178.58a179.23,179.23,0,0,1-1.87,25.84c-.41,2.93-.91,5.85-1.5,8.74-2.6-27.76-7.09-44-7.09-44-48.5-22.38-46.16-60-46.16-60C242.4,98.8,213.64,19.51,164.85.54q6.94-.54,14-.54A178.48,178.48,0,0,1,357.43,178.58Z" fill="#33150a"/>
          <path d="M220.87,192.7c-1.16.16-14.27-11.45-3.73-22,13.87-9.09,63.7-14.79,96.75-2.09,9.38,5,25.9,26.36,24.81,27.19-1.81,1.38-28.62-12.07-52.74-13.7C246.84,178.72,227.09,191.81,220.87,192.7Z" fill="#3d1a03"/>
          <path d="M139.45,201.29c1.14.27,15.3-10,5.81-21.53-42-9.86-74.46-12.31-96.43-7.84-9.81,4.1-28,20.26-27,21.19,1.67,1.55,25.69-4.26,48.21-3.46C93,191.05,133.34,199.81,139.45,201.29Z" fill="#3d1a03"/>
          <path d="M151.94,207.7c23.38-9.32,7.18-32,7.18-32S168.83,195.46,151.94,207.7Z" fill="#aa7d6f"/>
          <path d="M201.33,341.3c-18.42,1.6-14.1-3.15-42.24-.08-17.05,1.87-2.34-25.79,6.36-34.49,9.41-9.41,24.54-8.9,30.53,0C204.93,320,211.51,340.42,201.33,341.3Z" fill="#e3b198"/>
          <g>
            <path d="M51.33,242.61,39.12,225.82c30.61-29.59,77.35-9.67,92.1,9.67" fill="none" stroke="#000" stroke-miterlimit="10" stroke-width="2"/>
            <path d="M114.67,233.6c0,9.9,0,3.56-17.93,2.93-20.35-.7-22.11,7.08-22.11-2.82s12.21-18,22.11-18A17.93,17.93,0,0,1,114.67,233.6Z" stroke="#000" stroke-miterlimit="10" stroke-width="2"/>
          </g>
          <path d="M124.62,247.19C89,227.31,59,249.48,59,249.48S88.55,234.42,124.62,247.19Z" fill="#aa7d6f" stroke="#aa7d6f" stroke-miterlimit="10"/>
          <path d="M238.4,251.49c14.76,20.59,37.51,15.44,37.51,15.44A53.67,53.67,0,0,1,238.4,251.49Z" fill="#aa7d6f"/>
          <g>
            <path d="M225.34,231.26c14.76-19.33,61.5-39.26,92.11-9.67l-12.21,16.8" fill="none" stroke="#000" stroke-miterlimit="10" stroke-width="2"/>
            <circle cx="259.83" cy="229.37" r="17.93" stroke="#000" stroke-miterlimit="10" stroke-width="2"/>
          </g>
          <path d="M144.65,320.75l-21.5,27.52c-2.86-.92-5.68-1.93-8.45-3C127.23,331,144.65,320.75,144.65,320.75Z" fill="#bf8b77"/>
        </g>
        <path d="M357.94,178.61A178.08,178.08,0,0,1,179.87,356.68V.55A178.07,178.07,0,0,1,357.94,178.61Z" fill="#e72a33" opacity="0.25"/>
      </g>
      
                     <animate
            id="frame1"
            attributeName="display"
            values="none;inline;none;none;none;none;none"
            keyTimes="0;0.16;0.32;0.48;0.64;0.8;1"
            dur="2s"
            begin="0s"
            repeatCount="indefinite" />
            
    </g>
    <g id="f71ce6cf-2c66-4ab2-8768-628dc76a03a3" data-name="frame_1">
      <g id="e78cc518-3a2a-4ec5-ba50-c9966ed52b71" data-name="visao_1">
        <g>
          <path d="M355.82,204.42c-.42,2.93-.91,5.85-1.5,8.74A178.69,178.69,0,0,1,123.4,348.27c-2.85-.92-5.67-1.93-8.45-3A178.44,178.44,0,0,1,.53,178.58c0-.63,0-1.25,0-1.85,0,0,0,0,0-.07a335.71,335.71,0,0,1,12.34-63.5s0,0,0-.06A179,179,0,0,1,165.11.54Q172,0,179.11,0a177.79,177.79,0,0,1,84.7,21.33,193.75,193.75,0,0,1,23.42,15.56S340.4,78,355.82,204.42Z" fill="#f8c6af"/>
          <path d="M27.24,84.62,3.45,210.86A179.85,179.85,0,0,1,.53,178.58c0-.63,0-1.25,0-1.85,0,0,0,0,0-.07a177.38,177.38,0,0,1,12.34-63.5s0,0,0-.06A178.54,178.54,0,0,1,27.24,84.62Z" fill="#33150a"/>
          <path d="M357.68,178.58a179.23,179.23,0,0,1-1.86,25.84c-.42,2.93-.91,5.85-1.5,8.74-2.6-27.76-7.1-44-7.1-44-48.49-22.38-46.15-60-46.15-60C242.66,98.8,213.9,19.51,165.11.54Q172,0,179.11,0A178.48,178.48,0,0,1,357.68,178.58Z" fill="#33150a"/>
          <path d="M221.12,192.7c-1.16.16-14.27-11.45-3.72-22,13.86-9.09,63.7-14.79,96.74-2.09,9.38,5,25.9,26.36,24.82,27.19-1.82,1.38-28.63-12.07-52.75-13.7C247.09,178.72,227.35,191.81,221.12,192.7Z" fill="#3d1a03"/>
          <path d="M140.47,192.7c1.16.16,14.27-11.45,3.72-22-13.86-9.09-63.7-14.79-96.74-2.09-9.38,5-25.9,26.36-24.82,27.19,1.82,1.38,28.63-12.07,52.75-13.7C114.5,178.72,134.24,191.81,140.47,192.7Z" fill="#3d1a03"/>
          <path d="M201.58,341.3c-18.41,1.6-14.1-3.15-42.23-.08-17,1.87-2.34-25.79,6.36-34.49,9.41-9.41,24.54-8.9,30.53,0C205.18,320,211.76,340.42,201.58,341.3Z" fill="#e3b198"/>
          <path d="M51.58,242.61,39.37,225.82c30.62-29.59,77.35-9.67,92.11,9.67" fill="none" stroke="#000" stroke-miterlimit="10" stroke-width="2"/>
          <g>
            <path d="M225.6,231.26c14.76-19.33,61.49-39.26,92.11-9.67l-12.21,16.8" fill="none" stroke="#000" stroke-miterlimit="10" stroke-width="2"/>
            <circle cx="260.08" cy="229.37" r="17.93" stroke="#000" stroke-miterlimit="10" stroke-width="2"/>
            <circle cx="97.02" cy="233.56" r="17.93" stroke="#000" stroke-miterlimit="10" stroke-width="2"/>
          </g>
          <path d="M357.65,178.61A178.07,178.07,0,0,1,179.59,356.68V.55A178.06,178.06,0,0,1,357.65,178.61Z" fill="#e72a33" opacity="0.25"/>
        </g>
      </g>
      
                     <animate
            id="frame1"
            attributeName="display"
            values="inline;none;none;none;none;none;none"
            keyTimes="0;0.16;0.32;0.48;0.64;0.8;1"
            dur="2s"
            begin="0s"
            repeatCount="indefinite" />
            
    </g>
  </g>
</svg>
