<svg xmlns="http://www.w3.org/2000/svg" xmlns:xlink="http://www.w3.org/1999/xlink" viewBox="0 0 357.58 358.87">
  <defs>
    <clipPath id="bda0d069-509c-4c83-b482-b56659917a03" transform="translate(-0.32)">
      <circle cx="178.52" cy="178.86" r="178.52" transform="translate(-74.19 178.62) rotate(-45)" fill="none"/>
    </clipPath>
  </defs>
  <g id="ad95bea2-0ae1-48f1-9446-f33183d9fa9f" data-name="Camada 2">
    <g id="b88265d1-3bf6-4bbf-8adb-eb96e09b5e56" data-name="movimento1">
      <g>
        <g clip-path="url(#bda0d069-509c-4c83-b482-b56659917a03)">
          <circle cx="178.67" cy="179.1" r="178.36" transform="translate(-74.63 178.8) rotate(-45)" fill="#fff"/>
          <g>
            <g>
              <path d="M161.52,358.77c.91-.06,1.82-.08,2.72-.06a8.12,8.12,0,0,1,1-.13c.39,0,.78,0,1.17,0,.22,0,.43,0,.64,0l.37,0c.86-6.81,1.79-15.34,2.66-25.59-22.17,2.44-35.66-2.37-35.66-2.37l2.9,28a4.92,4.92,0,0,1,.67,0l.41,0a3.29,3.29,0,0,1,.77,0c4.24.36,8.71.17,13,.16a8.18,8.18,0,0,1,2.92-.1c.44.05.88.13,1.32.19a7.76,7.76,0,0,1,.82-.13c1.12-.09,2.23-.05,3.35-.06A5.18,5.18,0,0,1,161.52,358.77Z" transform="translate(-0.32)" fill="#f8c6af"/>
              <path d="M248.38,294.73c.44,1.77-.45,29.26-3.11,39.9s-23.17,7.53-23.17,7.53-6.34-30.36-6.21-46.77c.13-15.67,32.49-.66,32.49-.66" transform="translate(-0.32)" fill="#f8c6af"/>
              <path d="M251,353.57c-2.74-10-5.68-18.94-5.68-18.94-12,6-24.42,2-24.42,2s-2.1,9.56-3.25,20.46A170.66,170.66,0,0,0,251,353.57Z" transform="translate(-0.32)" fill="#f8c6af"/>
              <path d="M220.18,339.71s14.52-5.08,25.91-2.66l-.61-3.3s-15.89-2.89-24.63,2.78c0,0-1.1,2.1-.67,3.18" transform="translate(-0.32)" fill="#951f41"/>
            </g>
            <g>
              <path d="M114.51.23c-3.4,8.59-6.45,18-6.74,24.54-.66,15.3,7.14,217.39,23.1,311.83,0,0,24.91,9.31,39.54,0s3.76-267.35,3.76-267.35,15.4,46.82,31.26,104.43c1.33,34.59,1.42,145.87,10,147.65,16,3.33,8.73-9.1,38.66-4.81,6.56-82.31,1.18-82.31-6.07-147.49,0-73.16-8.08-124.56-11.32-137.56-1.1-6.8-5-18.66-9.44-31.13" transform="translate(-0.32)" fill="#77b6ea"/>
              <path d="M210.17,159s3.41,19.55,11.44,26" transform="translate(-0.32)" fill="#2f5496"/>
              <path d="M240,150.81s5.51,19.06,1.13,28.41" transform="translate(-0.32)" fill="#2f5496"/>
            </g>
            <g>
              <g>
                <path d="M233.73,72.07l-2.49-11s3.1-10.06,5.29-10.35,5.5-3.36,11.33,0S257,75.89,257,75.89s-4,17.88-11.63,16.8c-.83-3.49-.39-12.31-.84-16.46L238,69.14l2,14.16s-4.56-1.59-6.22-11.23" transform="translate(-0.32)" fill="#f8c6af"/>
                <line x1="255.03" y1="76.06" x2="250.67" y2="89.81" fill="none" stroke="#bc8873" stroke-miterlimit="10"/>
                <line x1="248.55" y1="74.73" x2="245.07" y2="92.69" fill="none" stroke="#bc8873" stroke-miterlimit="10"/>
                <line x1="251.71" y1="75.39" x2="247.55" y2="92.37" fill="none" stroke="#bc8873" stroke-miterlimit="10"/>
              </g>
              <path d="M231.78.23c.66,15.5,2,33.92,4.75,50.51,4.65.94,5.19,2.56,12,2.66,4-23.24,5.88-40.43,6.64-53.17" transform="translate(-0.32)" fill="#f8c6af"/>
            </g>
            <g>
              <path d="M145.7.23c3.7,12.55,12.79,32.51,39.64,65.93,4,5,10.12-2.62,8.12-8.77-8.72-26.8-15.76-45-21.11-57.16" transform="translate(-0.32)" fill="#f8c6af"/>
              <g>
                <path d="M198.91,85.71S181.67,74.22,186.05,62.6c4-10.5,17.42-2,20-.29a36.37,36.37,0,0,1,3.23,3s2.16,1.87,3.61,8.94c-.58.62-1.91-.25-5.54-6.5-4-6.91,5.75,15,5.75,15l-6.15,5.66Z" transform="translate(-0.32)" fill="#f8c6af"/>
                <polygon points="199.96 83.56 208.27 76.25 212.76 82.73 206.61 88.39 199.96 86.17 199.96 83.56" fill="#bc8873"/>
              </g>
            </g>
          </g>
        </g>
        <path d="M178.79,0a179.11,179.11,0,1,1,0,358.21" transform="translate(-0.32)" fill="#e72a33" opacity="0.25"/>
      </g>
    </g>
  </g>
</svg>
