<svg xmlns="http://www.w3.org/2000/svg" xmlns:xlink="http://www.w3.org/1999/xlink" viewBox="0 0 358.21 360.38">
  <defs>
    <clipPath id="ad6410e0-b9ba-4afc-b588-99af2630b68e" transform="translate(0.31 1.11)">
      <circle cx="178.52" cy="178.86" r="178.52" transform="translate(-74.19 178.62) rotate(-45)" fill="none"/>
    </clipPath>
    <clipPath id="ac928ff2-46d2-4552-831b-ef435df06bc2" transform="translate(0.31 1.11)">
      <circle cx="178.52" cy="178.86" r="178.52" transform="translate(-74.19 178.62) rotate(-45)" fill="none"/>
    </clipPath>
    <clipPath id="a55889f2-4541-4871-81c3-285eaa36b414" transform="translate(0.31 1.11)">
      <circle cx="178.52" cy="178.86" r="178.52" transform="translate(-74.19 178.62) rotate(-45)" fill="none"/>
    </clipPath>
  </defs>
  <g id="a4679073-900b-46b5-8259-a47d0b769c2f" data-name="Camada 2">
    <g id="aaad3c76-5f0b-44e1-9c73-b3c7a60358f1" data-name="movimento8">
      <g>
        <g clip-path="url(#ad6410e0-b9ba-4afc-b588-99af2630b68e)">
          <ellipse cx="178.98" cy="180.21" rx="178.67" ry="179.28" fill="#fff"/>
          <g>
            <g>
              <g>
                <path d="M137.55,358.87c.33.1.67.17,1,.24a5.56,5.56,0,0,1,1.58-.25c8.61-.11,17.22.31,25.84.1.88-6.92,1.85-15.69,2.76-26.3C146.53,335.1,133,330.3,133,330.3c1.19,6.2,1.87,17,3,28.42A5.16,5.16,0,0,1,137.55,358.87Z" transform="translate(0.31 1.11)" fill="#f8c6af"/>
                <path d="M247.18,294.44c.45,1.77-.44,29.21-3.1,39.84s-23.22,7.51-23.22,7.51-6.35-30.31-6.22-46.69c.13-15.65,32.54-.66,32.54-.66" transform="translate(0.31 1.11)" fill="#f8c6af"/>
                <path d="M217.38,358.69c10.18,1.23,20.59.16,30.8,0a18.91,18.91,0,0,1,3.1.18c-3.05-12-7.2-24.62-7.2-24.62-12,6-24.47,2-24.47,2a207.2,207.2,0,0,0-3.46,22.43A5.64,5.64,0,0,1,217.38,358.69Z" transform="translate(0.31 1.11)" fill="#f8c6af"/>
                <path d="M218.94,339.35s14.54-5.07,26-2.65l-.62-3.3s-15.91-2.89-24.67,2.77c0,0-1.11,2.11-.67,3.18" transform="translate(0.31 1.11)" fill="#951f41"/>
              </g>
              <g>
                <g>
                  <path d="M246.8,168.93c0-73.05-8.08-124.37-11.33-137.35-1.13-6.92-5.11-19.11-9.73-31.83-15.85.44-31.75-.06-47.59,0q-17.49,0-35-.07c-9.57,1.06-19.3-.1-28.91.15a5.4,5.4,0,0,1-.92-.06c-3.51,8.75-6.72,18.44-7,25.16-.67,15.27,7.15,217.06,23.14,311.36,0,0,24.95,9.29,39.61,0S172.84,69.3,172.84,69.3s15.43,46.75,31.32,104.27c1.33,34.54,1.43,145.65,10,147.43,16,3.32,8.75-9.08,38.73-4.81C259.46,234,254.07,234,246.8,168.93Z" transform="translate(0.31 1.11)" fill="#77b6ea"/>
                  <path d="M208.91,158.87s3.41,19.52,11.46,26" transform="translate(0.31 1.11)" fill="#2f5496"/>
                  <path d="M238.8,150.73s5.52,19,1.13,28.37" transform="translate(0.31 1.11)" fill="#2f5496"/>
                </g>
                <path d="M178.15-.29q-17.49,0-35-.07A114.94,114.94,0,0,1,127.09,0c.14.34.28.67.43,1C139.64,3.69,170.28,25.59,184,22.17c31.46-7.83,36-14,40.56-16.56l1.17-5.86C209.9.19,194-.31,178.15-.29Z" transform="translate(0.31 1.11)" fill="#951f41"/>
              </g>
              <g>
                <g>
                  <path d="M243.56,123.67l-2.19-11s2.72-10,4.63-10.34,4.82-3.36,9.92,0,8,25.11,8,25.11-3.48,17.85-10.18,16.78c-.72-3.49-.34-12.3-.74-16.44l-5.75-7.08L249,134.89s-4-1.59-5.44-11.22" transform="translate(0.31 1.11)" fill="#f8c6af"/>
                  <line x1="263.22" y1="128.95" x2="258.54" y2="142.32" fill="none" stroke="#bc8873" stroke-miterlimit="10"/>
                  <line x1="257.11" y1="127.44" x2="254.06" y2="145.38" fill="none" stroke="#bc8873" stroke-miterlimit="10"/>
                  <line x1="259.88" y1="128.1" x2="256.24" y2="145.05" fill="none" stroke="#bc8873" stroke-miterlimit="10"/>
                </g>
                <path d="M262,0c-3,.11-6.05-.15-9.08-.18l-.27,0a40.5,40.5,0,0,1-9.9,0L242-.13a4.62,4.62,0,0,1-.65.05h-1a4.69,4.69,0,0,1-.54-.06c3.18,10,5.47,17.05,5.47,17.05s-4.85,47.61.61,85.59c4,.93,4.53,2.55,10.45,2.65,11.14-75,7.78-86.88,7.71-90A84.35,84.35,0,0,0,262,0Z" transform="translate(0.31 1.11)" fill="#f8c6af"/>
              </g>
              <g>
                <g>
                  <path d="M179.55,138.29s-10.74-11.47-8-23.07c2.47-10.49,10.84-2,12.44-.29a31.45,31.45,0,0,1,2,3s1.34,1.87,2.25,8.92c-.36.63-1.19-.25-3.45-6.49-2.5-6.9,3.58,15,3.58,15L184.54,141Z" transform="translate(0.31 1.11)" fill="#f8c6af"/>
                  <polygon points="180.71 137.26 185.88 129.96 188.68 136.43 184.85 142.08 180.71 139.86 180.71 137.26" fill="#bc8873"/>
                </g>
                <path d="M178.89,109.23c-20.22-70.33-30.3-81.78-30.3-81.78S145.7,15.29,141.83-.22c-8.3.74-16.71-.05-25,0,5.44,14.65,10.93,26,15.67,33.61,3.62,8.74-2.11,26.56,39.17,84.72C175.25,123.18,180.67,115.44,178.89,109.23Z" transform="translate(0.31 1.11)" fill="#f8c6af"/>
              </g>
            </g>
            <g>
              <line x1="192.49" y1="154.36" x2="197.29" y2="196.2" fill="none" stroke="#6d6d6d" stroke-miterlimit="10" stroke-width="1.3"/>
              <line x1="189.45" y1="175.92" x2="194.25" y2="217.76" fill="none" stroke="#6d6d6d" stroke-miterlimit="10" stroke-width="1.3"/>
              <line x1="195.77" y1="240.47" x2="200.57" y2="282.31" fill="none" stroke="#6d6d6d" stroke-miterlimit="10" stroke-width="1.3"/>
              <line x1="197.89" y1="217.8" x2="202.68" y2="259.64" fill="none" stroke="#6d6d6d" stroke-miterlimit="10" stroke-width="1.3"/>
              <line x1="257.43" y1="201.67" x2="258.38" y2="243.98" fill="none" stroke="#6d6d6d" stroke-miterlimit="10" stroke-width="1.3"/>
              <line x1="264.38" y1="222.07" x2="265.33" y2="264.37" fill="none" stroke="#6d6d6d" stroke-miterlimit="10" stroke-width="1.3"/>
              <line x1="267.12" y1="287.06" x2="268.07" y2="329.37" fill="none" stroke="#6d6d6d" stroke-miterlimit="10" stroke-width="1.3"/>
              <line x1="261.08" y1="265.34" x2="262.03" y2="307.64" fill="none" stroke="#6d6d6d" stroke-miterlimit="10" stroke-width="1.3"/>
            </g>
          </g>
        </g>
        <path d="M178.79,0a179.11,179.11,0,1,1,0,358.21" transform="translate(0.31 1.11)" fill="#e72a33" opacity="0.25"/>
      </g>
      <animate
            id="frame8"
            attributeName="display"
            values="none;none;none;none;none;none;none;inline"
            keyTimes="0;0.15;0.30;0.45;0.60;0.75;0.90;1"
            dur="2s"
            begin="0s"
            repeatCount="indefinite" />

    </g>
    <g id="bab21afa-cd82-4583-be54-da0619eef6cd" data-name="movimento7">
      <g>
        <g clip-path="url(#ac928ff2-46d2-4552-831b-ef435df06bc2)">
          <path d="M178.67.57C80.09.57.18,80.5.18,179.1a178.53,178.53,0,0,0,164.09,178c1.39,0,2.79,0,4.19,0a5.18,5.18,0,0,1,2.08.42c2.69.12,5.4.19,8.13.19,98.58,0,178.49-79.93,178.49-178.54S277.25.57,178.67.57Z" transform="translate(0.31 1.11)" fill="#fff"/>
          <g>
            <g>
              <g>
                <path d="M150,357.56c5.06-.2,10.1-.34,15.15-.38.8-6.51,1.65-14.48,2.45-23.91-22.07,2.43-35.5-2.36-35.5-2.36,1.12,5.88,1.79,15.86,2.78,26.63C139.9,357,144.9,357.77,150,357.56Z" transform="translate(0.31 1.11)" fill="#f8c6af"/>
                <path d="M245.56,275.22c.44,1.77-.44,24.17-3.09,34.76s-23.08,7.5-23.08,7.5-6.31-25.26-6.18-41.6c.13-15.61,32.35-.66,32.35-.66" transform="translate(0.31 1.11)" fill="#f8c6af"/>
                <path d="M237.56,357.45a5.31,5.31,0,0,1,3.52,0,5.26,5.26,0,0,1,3.5,0c.68-.07,1.36-.16,2-.28.21,0,.42-.06.63-.07a19,19,0,0,0,5.39-2.77c1.53-8.77-10.17-44.35-10.17-44.35-11.94,5.95-24.32,2-24.32,2s-7.15,32.51-2.27,45.87c4.89-2.1,10.4-1.14,15.56-.75C233.47,357.22,235.52,357.35,237.56,357.45Z" transform="translate(0.31 1.11)" fill="#f8c6af"/>
                <path d="M214.94,354.79s21.45-12.25,37.76-4.6l-1.34-7.91s-23,.31-37.3,8.91c0,0,.45,1.9.88,3.6" transform="translate(0.31 1.11)" fill="#951f41"/>
                <path d="M217.49,315s14.45-5.06,25.8-2.64l-.62-3.29s-15.81-2.88-24.52,2.76c0,0-1.1,2.1-.66,3.17" transform="translate(0.31 1.11)" fill="#951f41"/>
              </g>
              <g>
                <g>
                  <path d="M244.85,170c0-72.87-8-124.06-11.27-137-1-6-4.06-15.88-7.85-26.67-4-.92-8-2.41-12.2-2.48a4.68,4.68,0,0,1-3.78-2c-.4,0-.8-.1-1.18-.13-1.46-.12-2.92-.13-4.37-.23-4.31-.32-8.58-.92-12.91-1-9.64-.22-19.41-.85-29-.28C156.92.47,152,1.76,146.83,2.82c-4.44.9-8.84,1.26-13.16,2.74-4.6,1.57-9.25,3.32-13.94,4.62-4,1.09-7.93,1.37-11.48,3.63a6.47,6.47,0,0,1-.63.34,53.28,53.28,0,0,0-2.4,12.14c-.66,15.24,7.11,216.53,23,310.59,0,0,24.79,9.28,39.36,0s3.75-266.29,3.75-266.29,15.34,46.64,31.13,104c1.32,34.45,1.41,125.37,9.93,127.14,15.9,3.31,8.69-9.06,38.5-4.79C257.44,215,252.07,234.9,244.85,170Z" transform="translate(0.31 1.11)" fill="#77b6ea"/>
                  <path d="M210.65,164.39c-1,7.44-2.53,18.71,8.72,30.07l-7.15-15Z" transform="translate(0.31 1.11)" fill="#2f5496"/>
                  <path d="M232.72,157.82c-.35-.76-1.92-2.27-1.78-2.45,1-1.26,13.48,11.43,7.9,32.67l-1.42-18.45Z" transform="translate(0.31 1.11)" fill="#2f5496"/>
                </g>
                <path d="M213.53,3.81a4.68,4.68,0,0,1-3.78-2c-.4,0-.8-.1-1.18-.13-1.46-.12-2.92-.13-4.37-.23-4.31-.32-8.58-.92-12.91-1-9.64-.22-19.41-.85-29-.28C156.92.47,152,1.76,146.83,2.82c-4.18.85-8.32,1.23-12.39,2.5,14.36,6.66,37.07,21,48.35,18.22C214.06,15.73,218.6,9.61,223.1,7l.27-1.32C220.12,4.84,216.89,3.86,213.53,3.81Z" transform="translate(0.31 1.11)" fill="#951f41"/>
              </g>
              <g>
                <path d="M257.21,18.79c-3.46-1.85-6.46-4.2-10.42-4.82A4.16,4.16,0,0,1,244,12.41a4.85,4.85,0,0,1-1.48-.19c1.16,3.61,1.86,5.77,1.86,5.77s-4.83,47.49.6,85.38c4,.93,4.5,2.55,10.39,2.65,8.06-54.44,8.48-75.54,8.09-84.2C261.33,20.86,259.25,19.88,257.21,18.79Z" transform="translate(0.31 1.11)" fill="#f8c6af"/>
                <g>
                  <path d="M242.62,124.5l-2.17-10.93s2.7-10,4.6-10.31,4.79-3.36,9.86,0,8,25,8,25-3.47,17.8-10.12,16.73c-.73-3.48-.34-12.26-.74-16.4l-5.72-7.06L248,135.69s-4-1.59-5.41-11.19" transform="translate(0.31 1.11)" fill="#f8c6af"/>
                  <line x1="262.17" y1="129.76" x2="257.51" y2="143.1" fill="none" stroke="#bc8873" stroke-miterlimit="10"/>
                  <line x1="256.1" y1="128.26" x2="253.07" y2="146.15" fill="none" stroke="#bc8873" stroke-miterlimit="10"/>
                  <line x1="258.85" y1="128.92" x2="255.23" y2="145.82" fill="none" stroke="#bc8873" stroke-miterlimit="10"/>
                </g>
              </g>
              <g>
                <g>
                  <path d="M179,139.08s-10.67-11.44-8-23c2.45-10.46,10.78-2,12.36-.29a31.71,31.71,0,0,1,2,3s1.34,1.86,2.24,8.9c-.36.62-1.19-.25-3.43-6.47-2.48-6.89,3.56,15,3.56,15L184,141.75Z" transform="translate(0.31 1.11)" fill="#f8c6af"/>
                  <polygon points="180.15 138.05 185.3 130.77 188.08 137.23 184.27 142.86 180.15 140.64 180.15 138.05" fill="#bc8873"/>
                </g>
                <path d="M148.23,28.51s-2.54-10.73-6-24.87a51.85,51.85,0,0,0-8.52,1.92c-4.45,1.52-8.95,3.2-13.48,4.48a167.2,167.2,0,0,0,12,24.38c3.6,8.71-2.1,26.49,38.93,84.5,3.6,5.09,9-2.63,7.21-8.83C158.25,39.93,148.23,28.51,148.23,28.51Z" transform="translate(0.31 1.11)" fill="#f8c6af"/>
              </g>
            </g>
            <g>
              <line x1="191" y1="142.93" x2="195.77" y2="184.67" fill="none" stroke="#6d6d6d" stroke-miterlimit="10" stroke-width="1.3"/>
              <line x1="187.99" y1="164.44" x2="192.76" y2="206.18" fill="none" stroke="#6d6d6d" stroke-miterlimit="10" stroke-width="1.3"/>
              <line x1="194.27" y1="228.84" x2="199.04" y2="270.57" fill="none" stroke="#6d6d6d" stroke-miterlimit="10" stroke-width="1.3"/>
              <line x1="196.37" y1="206.22" x2="201.14" y2="247.96" fill="none" stroke="#6d6d6d" stroke-miterlimit="10" stroke-width="1.3"/>
              <line x1="255.55" y1="190.13" x2="256.5" y2="232.33" fill="none" stroke="#6d6d6d" stroke-miterlimit="10" stroke-width="1.3"/>
              <line x1="262.46" y1="210.47" x2="263.41" y2="252.67" fill="none" stroke="#6d6d6d" stroke-miterlimit="10" stroke-width="1.3"/>
              <line x1="265.18" y1="275.31" x2="266.13" y2="317.51" fill="none" stroke="#6d6d6d" stroke-miterlimit="10" stroke-width="1.3"/>
              <line x1="259.18" y1="253.64" x2="260.13" y2="295.84" fill="none" stroke="#6d6d6d" stroke-miterlimit="10" stroke-width="1.3"/>
            </g>
          </g>
        </g>
        <path d="M178.79,0a179.11,179.11,0,1,1,0,358.21" transform="translate(0.31 1.11)" fill="#e72a33" opacity="0.25"/>
      </g>
    
       <animate
            id="frame7"
            attributeName="display"
            values="none;none;none;none;none;none;inline;none"
            keyTimes="0;0.15;0.30;0.45;0.60;0.75;0.90;1"
            dur="2s"
            begin="0s"
            repeatCount="indefinite" />
    </g>
    <g id="bd68cdb0-e933-46bc-8f8c-0f1775a8bd24" data-name="movimento6">
      <g>
        <g clip-path="url(#ac928ff2-46d2-4552-831b-ef435df06bc2)">
          <path d="M178.67.12a179,179,0,1,0,44.16,352.47,18,18,0,0,1,1.88-.5,179,179,0,0,0-46-352Z" transform="translate(0.31 1.11)" fill="#fff"/>
          <g>
            <g>
              <g>
                <path d="M148,356.39a119.38,119.38,0,0,0,20,2.07h.12c.78-6.4,1.6-14.14,2.37-23.25-22.17,2.44-35.65-2.37-35.65-2.37.94,4.92,1.56,12.71,2.31,21.43C140.74,354.14,144.49,355.69,148,356.39Z" transform="translate(0.31 1.11)" fill="#f8c6af"/>
                <path d="M248.74,270c.44,1.78-.44,24.27-3.1,34.91s-23.18,7.52-23.18,7.52-6.34-25.35-6.2-41.76c.13-15.68,32.48-.67,32.48-.67" transform="translate(0.31 1.11)" fill="#f8c6af"/>
                <path d="M245,347.22a26.66,26.66,0,0,1,10.54-5c-2-13.52-9.87-37.36-9.87-37.36-12,6-24.42,2-24.42,2s-7.85,35.68-1.53,47.76a3.47,3.47,0,0,1,.36-.31c3.07-2.16,6.81-2.2,10.37-2.79a53.63,53.63,0,0,0,8.2-1.95,4.64,4.64,0,0,1,2.8-1.9A11,11,0,0,1,245,347.22Z" transform="translate(0.31 1.11)" fill="#f8c6af"/>
                <path d="M251.23,343.58a26.41,26.41,0,0,1,4.18-1.32l-.84-5s-23,.31-37.47,8.95c0,0,.46,1.9.9,3.61C218,349.85,235.71,339.73,251.23,343.58Z" transform="translate(0.31 1.11)" fill="#951f41"/>
                <path d="M220.55,310s14.51-5.08,25.91-2.66l-.62-3.3s-15.88-2.89-24.62,2.77c0,0-1.11,2.11-.67,3.19" transform="translate(0.31 1.11)" fill="#951f41"/>
              </g>
              <g>
                <g>
                  <path d="M248.09,171.43c0-73.16-8.07-124.56-11.32-137.56-1-6.1-4.19-16.29-8.08-27.33C220.49,5,212.53,2.42,204.3,1A134.73,134.73,0,0,0,174.07-.46a254.73,254.73,0,0,0-31.62,4C137.86,4.39,133.52,6,129,6.86a67.11,67.11,0,0,0-7.43,1.36,4.7,4.7,0,0,1-3.89,2l-.72.08a5.81,5.81,0,0,1-.58.09,25,25,0,0,0-4.09,1.7,8.16,8.16,0,0,1-1.21.4c-1.74,5.4-3,10.58-3.17,14.66C107.2,42.47,115,244.56,131,339c0,0,24.9,9.31,39.53,0s3.76-267.35,3.76-267.35,15.41,46.82,31.26,104.43c1.33,34.59,1.43,118.87,10,120.65,16,3.32,8.73-9.1,38.66-4.81C260.73,209.6,255.34,236.61,248.09,171.43Z" transform="translate(0.31 1.11)" fill="#77b6ea"/>
                  <path d="M217.72,152.79c-1,7.47-6.58,22.66,4.72,34.06l-7.19-15.09Z" transform="translate(0.31 1.11)" fill="#2f5496"/>
                  <path d="M235.85,150.07c-.36-.76-7.48-1.66-7.33-1.84,1-1.27,19.08,10.86,13.47,32.18l-1.43-18.53Z" transform="translate(0.31 1.11)" fill="#2f5496"/>
                </g>
                <path d="M204.3,1A134.73,134.73,0,0,0,174.07-.46a254.73,254.73,0,0,0-31.62,4c-2.34.42-4.61,1.05-6.88,1.68,14.28,6.29,38.38,21.94,50.13,19,31.4-7.84,36-14,40.49-16.58.11-.53.21-1,.31-1.56C219.07,4.57,211.8,2.29,204.3,1Z" transform="translate(0.31 1.11)" fill="#951f41"/>
              </g>
              <g>
                <g>
                  <path d="M249,125.28l-2.18-11s2.71-10.06,4.63-10.35,4.8-3.36,9.9,0,8,25.15,8,25.15S265.9,147,259.21,145.9c-.72-3.49-.34-12.31-.74-16.47l-5.74-7.08,1.74,14.16s-4-1.59-5.44-11.23" transform="translate(0.31 1.11)" fill="#f8c6af"/>
                  <line x1="268.66" y1="130.56" x2="263.98" y2="143.95" fill="none" stroke="#bc8873" stroke-miterlimit="10"/>
                  <line x1="262.56" y1="129.05" x2="259.52" y2="147.01" fill="none" stroke="#bc8873" stroke-miterlimit="10"/>
                  <line x1="265.32" y1="129.71" x2="261.7" y2="146.68" fill="none" stroke="#bc8873" stroke-miterlimit="10"/>
                </g>
                <path d="M262.75,18.9A98.78,98.78,0,0,0,249.06,13l1.71,5.32s-4.85,47.68.6,85.72c4,.93,4.52,2.56,10.44,2.66,7.77-52.55,8.47-74.17,8.16-83.48C267.56,21.82,265.2,20.29,262.75,18.9Z" transform="translate(0.31 1.11)" fill="#f8c6af"/>
              </g>
              <g>
                <path d="M154.24,28.91s-2.7-11.43-6.39-26.27l-5.4.93C137.86,4.39,133.52,6,129,6.86c-1.34.25-2.7.42-4,.63a175.76,175.76,0,0,0,13.22,27.35c3.61,8.75-2.1,26.59,39.1,84.84,3.61,5.1,9-2.65,7.24-8.87C164.3,40.38,154.24,28.91,154.24,28.91Z" transform="translate(0.31 1.11)" fill="#f8c6af"/>
                <g>
                  <path d="M185.14,139.92s-10.72-11.49-8-23.11c2.46-10.5,10.82-2,12.41-.3a33.27,33.27,0,0,1,2,3s1.34,1.87,2.25,8.94c-.37.62-1.19-.25-3.45-6.5-2.49-6.91,3.57,15,3.57,15l-3.82,5.66Z" transform="translate(0.31 1.11)" fill="#f8c6af"/>
                  <polygon points="186.3 138.88 191.46 131.57 194.25 138.05 190.43 143.71 186.3 141.48 186.3 138.88" fill="#bc8873"/>
                </g>
              </g>
            </g>
            <g>
              <line x1="192.43" y1="152.15" x2="197.22" y2="186.28" fill="none" stroke="#6d6d6d" stroke-miterlimit="10" stroke-width="0.5"/>
              <line x1="189.4" y1="169.74" x2="194.19" y2="203.87" fill="none" stroke="#6d6d6d" stroke-miterlimit="10" stroke-width="0.5"/>
              <line x1="195.71" y1="222.4" x2="200.5" y2="256.54" fill="none" stroke="#6d6d6d" stroke-miterlimit="10" stroke-width="0.5"/>
              <line x1="197.82" y1="203.91" x2="202.61" y2="238.04" fill="none" stroke="#6d6d6d" stroke-miterlimit="10" stroke-width="0.5"/>
              <line x1="257.25" y1="190.75" x2="258.2" y2="225.26" fill="none" stroke="#6d6d6d" stroke-miterlimit="10" stroke-width="0.5"/>
              <line x1="264.19" y1="207.39" x2="265.14" y2="241.9" fill="none" stroke="#6d6d6d" stroke-miterlimit="10" stroke-width="0.5"/>
              <line x1="266.93" y1="260.41" x2="267.88" y2="294.93" fill="none" stroke="#6d6d6d" stroke-miterlimit="10" stroke-width="0.5"/>
              <line x1="260.89" y1="242.69" x2="261.85" y2="277.21" fill="none" stroke="#6d6d6d" stroke-miterlimit="10" stroke-width="0.5"/>
            </g>
          </g>
        </g>
        <path d="M178.79,0a179.11,179.11,0,1,1,0,358.21" transform="translate(0.31 1.11)" fill="#e72a33" opacity="0.25"/>
      </g>
       <animate
            id="frame6"
            attributeName="display"
            values="none;none;none;none;none;inline;none;none"
            keyTimes="0;0.15;0.30;0.45;0.60;0.75;0.90;1"
            dur="2s"
            begin="0s"
            repeatCount="indefinite" />
    </g>
    <g id="bb5d48c9-601d-4036-aaee-aa6d7f70d9cb" data-name="movimento5">
      <g>
        <g clip-path="url(#ac928ff2-46d2-4552-831b-ef435df06bc2)">
          <ellipse cx="178.67" cy="179.1" rx="178.77" ry="178.71" transform="translate(-0.03 1.45) rotate(-0.11)" fill="#fff"/>
          <g>
            <g>
              <path d="M165.93,358.91c.82-6.68,1.72-14.93,2.56-24.78-22.18,2.43-35.68-2.37-35.68-2.37,1.13,5.92,1.8,16,2.81,26.85C145.72,358.34,155.82,358.83,165.93,358.91Z" transform="translate(0.31 1.11)" fill="#f8c6af"/>
              <path d="M246.84,268.92c.44,1.77-.45,24.25-3.11,34.88s-23.18,7.52-23.18,7.52-6.35-25.34-6.21-41.73c.13-15.67,32.5-.67,32.5-.67" transform="translate(0.31 1.11)" fill="#f8c6af"/>
              <path d="M228.52,353a84.41,84.41,0,0,0,8.68-2.38c5.74-1.81,11.24-4.15,16.78-6.48-1.08-12.56-10.25-40.38-10.25-40.38-12,6-24.43,2-24.43,2s-8.63,39.2-.51,49.31C222,355,225.34,353.69,228.52,353Z" transform="translate(0.31 1.11)" fill="#f8c6af"/>
              <path d="M216.08,348.74s21.54-12.29,37.94-4.62l-1.35-7.93s-23.06.31-37.48,8.94c0,0,.45,1.91.89,3.61" transform="translate(0.31 1.11)" fill="#951f41"/>
              <path d="M218.63,308.87s14.52-5.07,25.93-2.65l-.62-3.3s-15.89-2.89-24.64,2.77c0,0-1.11,2.11-.67,3.18" transform="translate(0.31 1.11)" fill="#951f41"/>
            </g>
            <g>
              <g>
                <path d="M234.84,32.88c-1-5.88-4-15.56-7.67-26.14-4.43-1.22-8.84-2.5-13.28-3.74-3.53-1-7.08-1.94-10.66-2.78a4.39,4.39,0,0,1-3.46.12c-7.27-2.46-14.6-.77-22.06-.6s-15.15.09-22.7,0c-8.16-.11-16.31-.65-24.47-.52-5.73.09-11.43.59-17.13.46-3.71,9.09-7.24,19.45-7.55,26.52C105.2,41.47,113,243.39,129,337.75c0,0,24.92,9.31,39.56,0S172.3,70.63,172.3,70.63,187.71,117.41,203.57,175c1.33,34.56,1.43,118.77,10,120.55,16,3.32,8.73-9.09,38.68-4.81,6.57-82.24,1.18-55.26-6.08-120.39C246.16,97.22,238.09,45.87,234.84,32.88Z" transform="translate(0.31 1.11)" fill="#77b6ea"/>
                <path d="M215.8,151.85c-1,7.46-6.58,22.64,4.72,34l-7.18-15.08Z" transform="translate(0.31 1.11)" fill="#2f5496"/>
                <path d="M233.94,149.13c-.36-.76-7.48-1.66-7.34-1.84,1-1.27,19.1,10.85,13.49,32.16l-1.43-18.52Z" transform="translate(0.31 1.11)" fill="#2f5496"/>
              </g>
              <path d="M203.23.22a4.39,4.39,0,0,1-3.46.12c-7.27-2.46-14.6-.77-22.06-.6s-15.15.09-22.7,0c-8.16-.11-16.31-.65-24.47-.52-1.44,0-2.87.07-4.31.13a18.19,18.19,0,0,0,1.1,2.83c12.1,2.76,42.7,24.67,56.43,21.25,31.43-7.84,36-14,40.52-16.57.06-.29.11-.58.17-.87-3.52-1-7-2-10.56-3S206.81,1.06,203.23.22Z" transform="translate(0.31 1.11)" fill="#951f41"/>
            </g>
            <g>
              <g>
                <path d="M236.13,124.36l-2.19-11s2.71-10,4.63-10.34,4.81-3.36,9.91,0,8,25.13,8,25.13S253,146,246.31,145c-.73-3.49-.34-12.3-.74-16.45l-5.75-7.08,1.74,14.15s-4-1.59-5.43-11.22" transform="translate(0.31 1.11)" fill="#f8c6af"/>
                <line x1="255.77" y1="129.63" x2="251.09" y2="143.01" fill="none" stroke="#bc8873" stroke-miterlimit="10"/>
                <line x1="249.66" y1="128.12" x2="246.62" y2="146.07" fill="none" stroke="#bc8873" stroke-miterlimit="10"/>
                <line x1="252.43" y1="128.79" x2="248.8" y2="145.75" fill="none" stroke="#bc8873" stroke-miterlimit="10"/>
              </g>
              <path d="M252.58,14.77A34.72,34.72,0,0,0,244,11.82a3.87,3.87,0,0,1-2.39-1.43c-2.89-.64-5.76-1.34-8.63-2.09.56,5.64.92,9.22.92,9.22s-.85,47.64,4.61,85.64c4,.94,4.52,2.56,10.44,2.66,11.12-75,3.77-86.94,3.69-90.07C252.59,15.43,252.59,15.1,252.58,14.77Z" transform="translate(0.31 1.11)" fill="#f8c6af"/>
            </g>
            <g>
              <path d="M157.29,28.07s-3-12.57-6.94-28.44c-6.61-.19-13.21-.53-19.81-.42-1.79,0-3.58.1-5.37.17,5.56,15.13,11.17,26.85,16,34.61,3.62,8.75-2.11,26.58,39.12,84.78,3.61,5.09,9-2.65,7.25-8.87C167.35,39.53,157.29,28.07,157.29,28.07Z" transform="translate(0.31 1.11)" fill="#f8c6af"/>
              <g>
                <path d="M188.2,139s-10.72-11.47-8-23.09c2.46-10.49,10.83-2,12.42-.29a31.84,31.84,0,0,1,2,3s1.34,1.87,2.25,8.93c-.36.62-1.19-.25-3.45-6.5C191,114.09,197,136,197,136l-3.83,5.65Z" transform="translate(0.31 1.11)" fill="#f8c6af"/>
                <polygon points="189.36 137.95 194.53 130.64 197.33 137.12 193.5 142.77 189.36 140.55 189.36 137.95" fill="#bc8873"/>
              </g>
            </g>
          </g>
        </g>
        <path d="M178.79,0a179.11,179.11,0,1,1,0,358.21" transform="translate(0.31 1.11)" fill="#e72a33" opacity="0.25"/>
      </g>
       <animate
            id="frame5"
            attributeName="display"
            values="none;none;none;none;inline;none;none;none"
            keyTimes="0;0.15;0.30;0.45;0.60;0.75;0.90;1"
            dur="2s"
            begin="0s"
            repeatCount="indefinite" />    
    </g>
    <g id="a20a44ed-479f-4579-b0c3-c93b809dce01" data-name="movimento4">
      <g>
        <g clip-path="url(#ac928ff2-46d2-4552-831b-ef435df06bc2)">
          <ellipse cx="178.98" cy="180.21" rx="178.67" ry="178.86" fill="#fff"/>
          <g>
            <g>
              <path d="M138.25,354.2c3.87.7,7.64,1.79,11.51,2.48s7.27.36,11,.43a22.25,22.25,0,0,1,5.75.87c.81-6.56,1.67-14.59,2.48-24.1-22.17,2.44-35.66-2.37-35.66-2.37.95,5,1.57,12.84,2.34,21.65A4.6,4.6,0,0,1,138.25,354.2Z" transform="translate(0.31 1.11)" fill="#f8c6af"/>
              <path d="M247.3,275.59c.45,1.78-.44,24.27-3.1,34.91S221,318,221,318s-6.34-25.36-6.21-41.76c.13-15.68,32.48-.67,32.48-.67" transform="translate(0.31 1.11)" fill="#f8c6af"/>
              <path d="M244.2,310.5c-12,6-24.42,2-24.42,2s-6.1,27.76-3.21,42.6a6.31,6.31,0,0,1,.9-.12,4.59,4.59,0,0,1,3.71-1.68,5,5,0,0,1,2,.38,4.77,4.77,0,0,1,2.88-.89,5.34,5.34,0,0,1,1.37.18c2.09-.75,4.16-1.6,6.25-2.39,4.41-1.67,9.3-2.55,13.56-4.52a34,34,0,0,1,6.11-2.38C250.59,329.91,244.2,310.5,244.2,310.5Z" transform="translate(0.31 1.11)" fill="#f8c6af"/>
              <path d="M253.13,342.92s-23,.31-37.46,8.94c0,0,.39,1.63.79,3.23a5.22,5.22,0,0,1,1-.15,4.56,4.56,0,0,1,3.63-1.67,57.26,57.26,0,0,1,19.41-4.89,47.82,47.82,0,0,0,6.7-2.36,33.82,33.82,0,0,1,6-2.37Z" transform="translate(0.31 1.11)" fill="#951f41"/>
              <path d="M219.11,315.58s14.51-5.08,25.91-2.66l-.61-3.3s-15.89-2.89-24.63,2.77c0,0-1.11,2.11-.67,3.19" transform="translate(0.31 1.11)" fill="#951f41"/>
            </g>
            <g>
              <g>
                <path d="M245.55,172c0-73.16-8.07-124.55-11.32-137.56-1-6.35-4.45-17.13-8.56-28.7-3.55-1-7.08-2.46-10.58-3.2a159.85,159.85,0,0,0-19.5-2.7C183-1.28,169.75-1.41,157.3,1a5.49,5.49,0,0,1-1.74.36c-1.63.06-3.32.06-5,.08a4.8,4.8,0,0,1-2.77.81,6.3,6.3,0,0,1-.89-.07,5.14,5.14,0,0,1-1.61.79L144,3.13a3.62,3.62,0,0,1-1.73-.34,4.53,4.53,0,0,1-.76.39,4.73,4.73,0,0,1-3,1,4.93,4.93,0,0,1-.55,0,4.85,4.85,0,0,1-2.49.66,4.79,4.79,0,0,1-2.71.77,5.68,5.68,0,0,1-.72,0,4.87,4.87,0,0,1-1.82.42,4.47,4.47,0,0,1-2,.93,5,5,0,0,1-1.92.82c-4.22.84-7.7,3.05-11.89,3.91-.86.18-1.69.42-2.5.66a4.59,4.59,0,0,1-3.62,1.61,57.45,57.45,0,0,0-2.91,13.83c-.67,15.3,7.13,217.39,23.1,311.83,0,0,24.9,9.31,39.53,0s3.76-267.35,3.76-267.35S187.13,119,203,176.61c1.33,34.58,1.43,125.86,10,127.64,16,3.33,8.73-9.09,38.66-4.81C258.19,217.13,252.8,237.14,245.55,172Z" transform="translate(0.31 1.11)" fill="#77b6ea"/>
                <path d="M212.25,164.32c-1,7.47-2.55,18.78,8.75,30.19l-7.18-15.1Z" transform="translate(0.31 1.11)" fill="#2f5496"/>
                <path d="M234.41,157.73c-.35-.77-1.93-2.28-1.78-2.46,1-1.27,13.53,11.47,7.92,32.8l-1.42-18.53Z" transform="translate(0.31 1.11)" fill="#2f5496"/>
              </g>
              <path d="M215.09,2.49a159.85,159.85,0,0,0-19.5-2.7C183-1.28,169.75-1.41,157.3,1a5.49,5.49,0,0,1-1.74.36c-1.63.06-3.32.06-5,.08a4.8,4.8,0,0,1-2.77.81,6.3,6.3,0,0,1-.89-.07,5.14,5.14,0,0,1-1.61.79L144,3.13a3.62,3.62,0,0,1-1.73-.34,4.53,4.53,0,0,1-.76.39,4.73,4.73,0,0,1-3,1,5.12,5.12,0,0,1-.56,0,4.64,4.64,0,0,1-1.89.63c14.43,6.74,37,21,48.25,18.15,31.41-7.84,36-14,40.49-16.59.06-.28.11-.55.17-.83C221.62,4.53,218.34,3.18,215.09,2.49Z" transform="translate(0.31 1.11)" fill="#951f41"/>
            </g>
            <g>
              <g>
                <path d="M236.59,123.93l-2.18-11s2.72-10.06,4.63-10.35,4.81-3.37,9.9,0,8,25.14,8,25.14-3.48,17.88-10.16,16.8c-.73-3.49-.35-12.31-.74-16.46L240.29,121,242,135.16s-4-1.59-5.44-11.23" transform="translate(0.31 1.11)" fill="#f8c6af"/>
                <line x1="256.23" y1="129.21" x2="251.55" y2="142.6" fill="none" stroke="#bc8873" stroke-miterlimit="10"/>
                <line x1="250.13" y1="127.7" x2="247.09" y2="145.66" fill="none" stroke="#bc8873" stroke-miterlimit="10"/>
                <line x1="252.89" y1="128.37" x2="249.26" y2="145.34" fill="none" stroke="#bc8873" stroke-miterlimit="10"/>
              </g>
              <path d="M253.06,15.17a42.87,42.87,0,0,1-4.25-2,39.86,39.86,0,0,0-4.55-1.4c-2.34-.76-5.12-3.2-7.5-3.44a5,5,0,0,1-3.46-1.78c.62,6.32,1,10.41,1,10.41s-.85,47.68,4.6,85.72c4,.94,4.52,2.56,10.44,2.66,11.11-75.08,3.77-87,3.69-90.15Z" transform="translate(0.31 1.11)" fill="#f8c6af"/>
            </g>
            <g>
              <path d="M188,109.46c-20.18-70.43-30.23-81.9-30.23-81.9s-2.7-11.37-6.37-26.14h-.89a4.8,4.8,0,0,1-2.77.81,6.3,6.3,0,0,1-.89-.07,5.14,5.14,0,0,1-1.61.79L144,3.13a3.62,3.62,0,0,1-1.73-.34,4.53,4.53,0,0,1-.76.39,4.73,4.73,0,0,1-3,1,4.93,4.93,0,0,1-.55,0,4.85,4.85,0,0,1-2.49.66,4.79,4.79,0,0,1-2.71.77,5.68,5.68,0,0,1-.72,0,4.87,4.87,0,0,1-1.82.42,4.27,4.27,0,0,1-1.46.79,175.45,175.45,0,0,0,13,26.77c3.62,8.75-2.1,26.6,39.1,84.85C184.41,123.44,189.83,115.69,188,109.46Z" transform="translate(0.31 1.11)" fill="#f8c6af"/>
              <g>
                <path d="M188.7,138.57s-10.72-11.49-8-23.11c2.46-10.5,10.82-2,12.41-.29a30.54,30.54,0,0,1,2,3s1.34,1.87,2.25,8.93c-.36.63-1.19-.25-3.44-6.49-2.5-6.92,3.57,15,3.57,15l-3.83,5.65Z" transform="translate(0.31 1.11)" fill="#f8c6af"/>
                <polygon points="189.86 137.54 195.03 130.22 197.82 136.71 193.99 142.36 189.86 140.14 189.86 137.54" fill="#bc8873"/>
              </g>
            </g>
          </g>
        </g>
        <path d="M178.79,0a179.11,179.11,0,1,1,0,358.21" transform="translate(0.31 1.11)" fill="#e72a33" opacity="0.25"/>
      </g>
       <animate
            id="frame4"
            attributeName="display"
            values="none;none;none;inline;none;none;none;none"
            keyTimes="0;0.15;0.30;0.45;0.60;0.75;0.90;1"
            dur="2s"
            begin="0s"
            repeatCount="indefinite" />
            
    </g>
    <g id="a2c28358-8e2d-45d0-822e-9222a295da90" data-name="movimento3">
      <g>
        <g clip-path="url(#ac928ff2-46d2-4552-831b-ef435df06bc2)">
          <path d="M178.67.75a178.36,178.36,0,0,0-17.39,355.86,30.1,30.1,0,0,1,5.23.43c4,.27,8.07.42,12.16.42a178.36,178.36,0,1,0,0-356.71Z" transform="translate(0.31 1.11)" fill="#fff"/>
          <g>
            <g>
              <path d="M136.25,353.27c7.37,1.43,14.88,3,22.41,2.88a37.51,37.51,0,0,1,7.52.43c.81-6.56,1.67-14.61,2.48-24.15-22.17,2.44-35.65-2.37-35.65-2.37,1,5.24,1.64,13.72,2.46,23.13A5.29,5.29,0,0,1,136.25,353.27Z" transform="translate(0.31 1.11)" fill="#f8c6af"/>
              <path d="M247,294.14c.44,1.78-.44,29.27-3.1,39.91s-23.18,7.52-23.18,7.52-6.34-30.36-6.2-46.76c.12-15.68,32.48-.67,32.48-.67" transform="translate(0.31 1.11)" fill="#f8c6af"/>
              <path d="M245.33,346.89a4.13,4.13,0,0,1,1.94-1.86c-1.88-6.34-3.4-11-3.4-11-12,6-24.42,2-24.42,2s-2,9.16-3.18,19.77c2.72-1.59,6.41-2.52,9.58-3.32,5.12-1.3,10.21-2.45,15.28-4,1.3-.39,2.65-.84,4-1.28A3.65,3.65,0,0,0,245.33,346.89Z" transform="translate(0.31 1.11)" fill="#f8c6af"/>
              <path d="M218.78,339.13s14.51-5.08,25.91-2.66l-.62-3.3s-15.88-2.89-24.62,2.77c0,0-1.11,2.11-.67,3.19" transform="translate(0.31 1.11)" fill="#951f41"/>
            </g>
            <g>
              <g>
                <path d="M236.26,122.48l-2.18-11s2.71-10.06,4.62-10.35,4.81-3.37,9.91,0,8,25.15,8,25.15-3.47,17.87-10.16,16.8c-.73-3.5-.34-12.31-.74-16.47L240,119.55l1.74,14.17s-4-1.59-5.44-11.24" transform="translate(0.31 1.11)" fill="#f8c6af"/>
                <line x1="255.89" y1="127.76" x2="251.21" y2="141.16" fill="none" stroke="#bc8873" stroke-miterlimit="10"/>
                <line x1="249.79" y1="126.25" x2="246.75" y2="144.22" fill="none" stroke="#bc8873" stroke-miterlimit="10"/>
                <line x1="252.55" y1="126.92" x2="248.92" y2="143.89" fill="none" stroke="#bc8873" stroke-miterlimit="10"/>
              </g>
              <path d="M233.19,7.45c.49,5,.81,8.11.81,8.11s-.85,47.68,4.6,85.71c4.05.94,4.52,2.56,10.43,2.66,10.11-68.24,5-84.32,3.88-89C246.23,12.91,239.79,9.84,233.19,7.45Z" transform="translate(0.31 1.11)" fill="#f8c6af"/>
            </g>
            <g>
              <g>
                <path d="M235.88,31.88c-.95-5.86-3.95-15.51-7.64-26-4.61-1.34-9.35-2.13-14-3.3S205,.28,200.11.54a4.26,4.26,0,0,1-3.84-1.65c-4.12.15-8.21.56-12.36.73C172.42.1,161,.24,149.48,1c-5,2.68-11.36,3.3-16.69,4.28a110.6,110.6,0,0,0-11.36,3.06c-3.94,1.13-7.51,3.23-11.56,3.91l-.28,0A55.19,55.19,0,0,0,107,25.19c-.66,15.3,7.14,217.39,23.1,311.83,0,0,24.91,9.31,39.54,0s3.76-267.35,3.76-267.35,15.4,46.82,31.26,104.43c1.33,34.58,1.42,143.86,10,145.65,16,3.32,8.73-9.1,38.66-4.82,6.56-82.31,1.18-80.3-6.07-145.49C247.2,96.28,239.12,44.89,235.88,31.88Z" transform="translate(0.31 1.11)" fill="#77b6ea"/>
                <path d="M208.76,158.38s3.41,19.54,11.45,26" transform="translate(0.31 1.11)" fill="#2f5496"/>
                <path d="M238.6,150.22s5.51,19.06,1.13,28.41" transform="translate(0.31 1.11)" fill="#2f5496"/>
              </g>
              <path d="M214.24,2.53c-4.72-1.19-9.23-2.25-14.13-2a4.26,4.26,0,0,1-3.84-1.65c-4.12.15-8.21.56-12.36.73C172.42.1,161,.24,149.48,1,146.07,2.88,142,3.75,138,4.43c14.43,7.06,35.26,19.69,45.92,17,31.4-7.84,36-14,40.49-16.58v0C221,4,217.62,3.38,214.24,2.53Z" transform="translate(0.31 1.11)" fill="#951f41"/>
            </g>
            <g>
              <path d="M188.05,105.81C165.41,36.23,154.13,24.9,154.13,24.9s-2.64-9.83-6.35-23c-4.67,2-10.25,2.59-15,3.46a87.17,87.17,0,0,0-9.65,2.55,155.93,155.93,0,0,0,12.93,22.9c4.05,8.64-2.36,26.27,43.86,83.82C184,119.62,190.05,112,188.05,105.81Z" transform="translate(0.31 1.11)" fill="#f8c6af"/>
              <g>
                <path d="M189.81,134.12s-12.55-11.48-9.36-23.11c2.88-10.5,12.68-2,14.54-.29a32.83,32.83,0,0,1,2.35,3s1.57,1.87,2.63,8.94c-.42.62-1.39-.25-4-6.5-2.92-6.92,4.18,15,4.18,15l-4.48,5.65Z" transform="translate(0.31 1.11)" fill="#f8c6af"/>
                <polygon points="191.11 133.09 197.16 125.77 200.43 132.26 195.95 137.91 191.11 135.69 191.11 133.09" fill="#bc8873"/>
              </g>
            </g>
          </g>
        </g>
        <path d="M178.79,0a179.11,179.11,0,1,1,0,358.21" transform="translate(0.31 1.11)" fill="#e72a33" opacity="0.25"/>
      </g>
    
       <animate
            id="frame3"
            attributeName="display"
            values="none;none;inline;none;none;none;none;none"
            keyTimes="0;0.15;0.30;0.45;0.60;0.75;0.90;1"
            dur="2s"
            begin="0s"
            repeatCount="indefinite" />      
    </g>
    <g id="b4277781-1532-49b0-a730-0b851682938b" data-name="movimento2">
      <g>
        <g clip-path="url(#ac928ff2-46d2-4552-831b-ef435df06bc2)">
          <circle cx="178.67" cy="179.1" r="178.36" transform="translate(-74 179.91) rotate(-45)" fill="#fff"/>
          <g>
            <g>
              <path d="M137.34,359.05l.36,0c5.82,0,11.64,0,17.46-.07a3.14,3.14,0,0,1,.75,0h.17q5.64,0,11.3.06c.86-6.87,1.81-15.48,2.69-25.87-22.17,2.44-35.66-2.38-35.66-2.38l2.9,27.94Z" transform="translate(0.31 1.11)" fill="#f8c6af"/>
              <path d="M248.38,294.81c.44,1.78-.45,29.3-3.11,39.95s-23.17,7.54-23.17,7.54-6.34-30.4-6.21-46.82c.13-15.7,32.49-.67,32.49-.67" transform="translate(0.31 1.11)" fill="#f8c6af"/>
              <path d="M246.63,358.73a5.19,5.19,0,0,1,.9-.08,6,6,0,0,1,1.07.1h.32a5.55,5.55,0,0,1,.72-.05c.14,0,.27,0,.4,0a3.91,3.91,0,0,1,.49,0l.32,0a11.21,11.21,0,0,1,1.42,0c-3-11.86-7-24-7-24-12,6-24.42,2-24.42,2a210.38,210.38,0,0,0-3.4,22,5.75,5.75,0,0,1,1,0l.94.07a3,3,0,0,1,.42,0h.06l.37,0a3.55,3.55,0,0,1,.86,0h.24c8.26,0,16.52,0,24.78,0A3.87,3.87,0,0,1,246.63,358.73Z" transform="translate(0.31 1.11)" fill="#f8c6af"/>
              <path d="M220.18,339.85s14.52-5.09,25.91-2.66l-.61-3.31s-15.89-2.89-24.63,2.78c0,0-1.1,2.11-.67,3.19" transform="translate(0.31 1.11)" fill="#951f41"/>
            </g>
            <g>
              <g>
                <path d="M114.34.4c-3.33,8.48-6.29,17.68-6.57,24.14-.66,15.31,7.14,217.64,23.1,312.2,0,0,24.91,9.32,39.54,0s3.76-267.67,3.76-267.67,15.4,46.88,31.26,104.55c1.33,34.63,1.42,146,10,147.83,16,3.33,8.73-9.11,38.66-4.82,6.56-82.41,1.18-82.4-6.07-147.67,0-73.24-8.08-124.7-11.32-137.72C235.59,24.5,231.8,12.76,227.36.4" transform="translate(0.31 1.11)" fill="#77b6ea"/>
                <path d="M210.17,158.88s3.41,19.57,11.44,26.06" transform="translate(0.31 1.11)" fill="#2f5496"/>
                <path d="M240,150.72s5.51,19.08,1.13,28.45" transform="translate(0.31 1.11)" fill="#2f5496"/>
              </g>
              <path d="M160,.6c9.72,4.64,19.24,8.18,25.38,6.65A194.55,194.55,0,0,0,207.83.4" transform="translate(0.31 1.11)" fill="#951f41"/>
            </g>
            <g>
              <g>
                <path d="M233.73,108.93l-2.49-11s3.1-10.08,5.29-10.37,5.5-3.37,11.33,0S257,112.76,257,112.76s-4,17.9-11.63,16.82c-.83-3.5-.39-12.33-.84-16.48L238,106l2,14.18s-4.56-1.59-6.22-11.25" transform="translate(0.31 1.11)" fill="#f8c6af"/>
                <line x1="256.15" y1="114.22" x2="250.8" y2="127.63" fill="none" stroke="#bc8873" stroke-miterlimit="10"/>
                <line x1="249.17" y1="112.71" x2="245.69" y2="130.69" fill="none" stroke="#bc8873" stroke-miterlimit="10"/>
                <line x1="252.33" y1="113.37" x2="248.18" y2="130.36" fill="none" stroke="#bc8873" stroke-miterlimit="10"/>
              </g>
              <path d="M252.77.05c.08,3.13,8.53,15.07-4.25,90.2-6.8-.1-7.34-1.73-12-2.67-6.27-38-5.29-85.76-5.29-85.76L231.07.4" transform="translate(0.31 1.11)" fill="#f8c6af"/>
            </g>
            <g>
              <path d="M130.59.4a145.48,145.48,0,0,0,10.88,18.7c4.06,8.65-2.36,26.31,43.87,83.92,4,5,10.12-2.62,8.12-8.78-22.64-69.66-33.92-81-33.92-81s-1.36-5.06-3.49-12.8" transform="translate(0.31 1.11)" fill="#f8c6af"/>
              <g>
                <path d="M198.91,122.59s-17.24-11.5-12.86-23.14c4-10.51,17.42-2,20-.29a36.74,36.74,0,0,1,3.23,3s2.16,1.87,3.61,9c-.58.62-1.91-.25-5.54-6.51-4-6.92,5.75,15,5.75,15l-6.15,5.66Z" transform="translate(0.31 1.11)" fill="#f8c6af"/>
                <polygon points="200.59 121.55 208.9 114.23 213.39 120.72 207.24 126.38 200.59 124.16 200.59 121.55" fill="#bc8873"/>
              </g>
            </g>
          </g>
        </g>
        <path d="M178.79,0a179.11,179.11,0,1,1,0,358.21" transform="translate(0.31 1.11)" fill="#e72a33" opacity="0.25"/>
      </g>
       <animate
            id="frame2"
            attributeName="display"
            values="none;inline;none;none;none;none;none;none"
            keyTimes="0;0.15;0.30;0.45;0.60;0.75;0.90;1"
            dur="2s"
            begin="0s"
            repeatCount="indefinite" />    
    </g>
    <g id="bbfbaf7e-dd84-427f-861e-a05d93937aee" data-name="movimento1">
      <g>
        <g clip-path="url(#a55889f2-4541-4871-81c3-285eaa36b414)">
          <circle cx="178.67" cy="179.1" r="178.36" transform="translate(-74 179.91) rotate(-45)" fill="#fff"/>
          <g>
            <g>
              <path d="M161.52,358.77c.91-.06,1.82-.08,2.72,0a6.56,6.56,0,0,1,1-.14c.39,0,.78,0,1.17,0,.22,0,.43,0,.64,0l.37,0c.86-6.81,1.79-15.33,2.66-25.59-22.17,2.44-35.66-2.37-35.66-2.37l2.9,28a4.92,4.92,0,0,1,.67,0l.41,0a3.29,3.29,0,0,1,.77,0c4.24.36,8.71.17,13,.16a8.18,8.18,0,0,1,2.92-.1c.44.05.88.13,1.32.19a7.76,7.76,0,0,1,.82-.13c1.12-.09,2.23-.05,3.35-.06A5.18,5.18,0,0,1,161.52,358.77Z" transform="translate(0.31 1.11)" fill="#f8c6af"/>
              <path d="M248.38,294.73c.44,1.77-.45,29.26-3.11,39.9s-23.17,7.53-23.17,7.53-6.34-30.36-6.21-46.77c.13-15.67,32.49-.66,32.49-.66" transform="translate(0.31 1.11)" fill="#f8c6af"/>
              <path d="M251,353.57c-2.74-10-5.68-18.94-5.68-18.94-12,6-24.42,2-24.42,2s-2.1,9.56-3.25,20.46A170.66,170.66,0,0,0,251,353.57Z" transform="translate(0.31 1.11)" fill="#f8c6af"/>
              <path d="M220.18,339.71s14.52-5.08,25.91-2.66l-.61-3.3s-15.89-2.89-24.63,2.78c0,0-1.1,2.1-.67,3.18" transform="translate(0.31 1.11)" fill="#951f41"/>
            </g>
            <g>
              <path d="M114.51.23c-3.4,8.59-6.45,18-6.74,24.54-.66,15.3,7.14,217.39,23.1,311.83,0,0,24.91,9.31,39.54,0s3.76-267.35,3.76-267.35,15.4,46.82,31.26,104.43c1.33,34.59,1.42,145.87,10,147.65,16,3.33,8.73-9.1,38.66-4.81,6.56-82.31,1.18-82.31-6.07-147.49,0-73.16-8.08-124.56-11.32-137.56-1.1-6.8-5-18.66-9.44-31.13" transform="translate(0.31 1.11)" fill="#77b6ea"/>
              <path d="M210.17,159s3.41,19.55,11.44,26" transform="translate(0.31 1.11)" fill="#2f5496"/>
              <path d="M240,150.81s5.51,19.06,1.13,28.41" transform="translate(0.31 1.11)" fill="#2f5496"/>
            </g>
            <g>
              <g>
                <path d="M233.73,72.07l-2.49-11s3.1-10.06,5.29-10.35,5.5-3.36,11.33,0S257,75.89,257,75.89s-4,17.88-11.63,16.8c-.83-3.49-.39-12.31-.84-16.46L238,69.14l2,14.16s-4.56-1.59-6.22-11.23" transform="translate(0.31 1.11)" fill="#f8c6af"/>
                <line x1="255.66" y1="77.17" x2="251.3" y2="90.92" fill="none" stroke="#bc8873" stroke-miterlimit="10"/>
                <line x1="249.17" y1="75.84" x2="245.69" y2="93.8" fill="none" stroke="#bc8873" stroke-miterlimit="10"/>
                <line x1="252.33" y1="76.5" x2="248.18" y2="93.48" fill="none" stroke="#bc8873" stroke-miterlimit="10"/>
              </g>
              <path d="M231.78.23c.66,15.5,2,33.92,4.75,50.51,4.65.94,5.19,2.56,12,2.66,4-23.24,5.88-40.43,6.64-53.17" transform="translate(0.31 1.11)" fill="#f8c6af"/>
            </g>
            <g>
              <path d="M145.7.23c3.7,12.55,12.79,32.51,39.64,65.93,4,5,10.12-2.62,8.12-8.77-8.72-26.8-15.76-45-21.11-57.16" transform="translate(0.31 1.11)" fill="#f8c6af"/>
              <g>
                <path d="M198.91,85.71S181.67,74.22,186.05,62.6c4-10.5,17.42-2,20-.29a36.37,36.37,0,0,1,3.23,3s2.16,1.87,3.61,8.94c-.58.62-1.91-.25-5.53-6.5-4-6.91,5.74,15,5.74,15l-6.15,5.66Z" transform="translate(0.31 1.11)" fill="#f8c6af"/>
                <polygon points="200.59 84.67 208.9 77.36 213.39 83.84 207.24 89.5 200.59 87.28 200.59 84.67" fill="#bc8873"/>
              </g>
            </g>
          </g>
        </g>
        <path d="M178.79,0a179.11,179.11,0,1,1,0,358.21" transform="translate(0.31 1.11)" fill="#e72a33" opacity="0.25"/>
      </g>
    
       <animate
            id="frame1"
            attributeName="display"
            values="inline;none;none;none;none;none;none;none"
            keyTimes="0;0.15;0.30;0.45;0.60;0.75;0.90;1"
            dur="2s"
            begin="0s"
            repeatCount="indefinite" />    
    </g>
  </g>
</svg>
