<svg xmlns="http://www.w3.org/2000/svg" viewBox="0 0 440.5 881"><defs><style>.cls-1,.cls-3{fill:#fff;}.cls-1{stroke:#000;stroke-miterlimit:10;}.cls-2{fill:#e72a33;}.cls-3,.cls-4{font-size:83.3px;font-family:Circula-Medium, Circula;}.cls-4{fill:#193a64;}</style></defs><title>relogio</title><g id="Layer_2" data-name="Layer 2"><g id="Layer_2-2" data-name="Layer 2"><path class="cls-1" d="M0,.5c243,0,440,197,440,440s-197,440-440,440"/><path class="cls-2" d="M346.45,712.13A438.09,438.09,0,0,0,440,440.86c0-243-197-440-440-440V455.71Z"/><text class="cls-3" transform="translate(5.21 113.13)">12</text><text class="cls-3" transform="translate(194.3 164.16)">1</text><text class="cls-3" transform="translate(342.7 297.26)">2</text><text class="cls-3" transform="translate(374.93 482.35)">3</text><text class="cls-3" transform="translate(320.45 686.86)">4</text><path d="M20.07,184.27V440.5c0,11.49,17.86,11.51,17.86,0V184.27c0-11.49-17.86-11.51-17.86,0Z"/><path d="M57.33,482.9,205,586.64l9-15.42-97.38-68.39c-4-2.78-9.92-.72-12.21,3.2-2.61,4.46-.76,9.44,3.2,12.22L205,586.64c3.95,2.78,9.93.72,12.22-3.2,2.61-4.46.75-9.44-3.2-12.22L66.34,467.48c-4-2.78-9.92-.72-12.22,3.2-2.6,4.46-.75,9.44,3.21,12.22Z"/><text class="cls-4" transform="translate(194.3 781.96)">5</text><text class="cls-4" transform="translate(20 836.71)">6</text></g></g></svg>