<svg xmlns="http://www.w3.org/2000/svg" viewBox="0 0 878.04 878.04">
  <g id="f68cf98c-fd92-458a-b602-cd8f95029a03" data-name="Camada 2">
    <g id="b961b340-2794-4cf3-b43e-8877258b4d6d" data-name="relogio_9">
      <g>
        <circle cx="439.02" cy="439.02" r="438.52" fill="#fff" stroke="#000" stroke-miterlimit="10"/>
        <path d="M877.5,434.81C874.48,197.75,682.93,5.89,445.08.62,441.74.54,438.38.5,435,.5V455.35l5,3.7,2.09,1.54,2.94,1.69,365.82,210,.26.12a435.66,435.66,0,0,0,66.06-215.25c.07-1.88.13-3.77.18-5.65s.08-3.78.1-5.67,0-3.55,0-5.33S877.53,436.71,877.5,434.81Z" fill="#a30100"/>
        <path d="M446.24,447.85l153.88,88.84,9-15.42L507.69,462.7c-10-5.75-19,9.67-9,15.42l101.45,58.57c10,5.76,19-9.67,9-15.42L455.25,432.43c-10-5.76-19,9.67-9,15.42Z" fill="#0c0c1f"/>
        <path d="M439.75,145.15v293.7c0,11.5,17.85,11.51,17.85,0V145.15c0-11.5-17.85-11.52-17.85,0Z" fill="#0c0c1f"/>
        <g>
          <text transform="translate(420.91 102.35)" font-size="83.3" fill="#0c0c1f" font-family="Circula-Medium, Circula" font-weight="500">12</text>
          <text transform="translate(216.43 151.21)" font-size="83.3" fill="#0c0c1f" font-family="Circula-Medium, Circula" font-weight="500">11</text>
          <text transform="translate(70.21 285.34)" font-size="83.3" fill="#0c0c1f" font-family="Circula-Medium, Circula" font-weight="500">10</text>
          <text transform="translate(30.62 464.34)" font-size="83.3" fill="#0c0c1f" font-family="Circula-Medium, Circula" font-weight="500">9</text>
          <text transform="translate(79.69 644.35)" font-size="83.3" fill="#0c0c1f" font-family="Circula-Medium, Circula" font-weight="500">8</text>
          <text transform="translate(220.25 777.31)" font-size="83.3" fill="#0c0c1f" font-family="Circula-Medium, Circula" font-weight="500">7</text>
          <text transform="translate(424.96 826.35)" font-size="83.3" fill="#0c0c1f" font-family="Circula-Medium, Circula" font-weight="500">6</text>
          <text transform="translate(625.17 777.31)" font-size="83.3" fill="#0c0c1f" font-family="Circula-Medium, Circula" font-weight="500">5</text>
          <text transform="translate(758.51 643.35)" font-size="83.3" fill="#0c0c1f" font-family="Circula-Medium, Circula" font-weight="500">4</text>
          <text transform="translate(808.59 464.35)" font-size="83.3" fill="#0c0c1f" font-family="Circula-Medium, Circula" font-weight="500">3</text>
          <text transform="translate(757.76 285.35)" font-size="83.3" fill="#0c0c1f" font-family="Circula-Medium, Circula" font-weight="500">2</text>
          <text transform="translate(632 151.38)" font-size="83.3" fill="#0c0c1f" font-family="Circula-Medium, Circula" font-weight="500">1</text>
        </g>
      </g>
    
    <animate
            id="frame9"
            attributeName="display"
            values="none;none;none;none;none;none;none;none;inline;none"
            keyTimes="0;0.1;0.2;0.3;0.4;0.5;0.6;0.7;0.8;1"
            dur="5s"
            begin="0s"
            repeatCount="indefinite"/>
    
    </g>
    <g id="f636345a-974c-485c-a871-c94e6ff3c99f" data-name="relogio_8">
      <g>
        <circle cx="439.02" cy="439.02" r="438.52" fill="#fff" stroke="#000" stroke-miterlimit="10"/>
        <path d="M858,567.72a437.12,437.12,0,0,0,18.21-109.89c.07-1.88.13-3.77.18-5.65s.08-3.78.1-5.67,0-3.55,0-5.33,0-3.79,0-5.69C873.49,198.43,682.37,6.57,445.06,1.3q-5-.12-10-.12V456" fill="#ffc033"/>
        <path d="M446.17,447.43l171.63,46,4.75-17.22L509.4,445.88c-11.12-3-15.86,14.25-4.75,17.22L617.8,493.42c11.11,3,15.85-14.24,4.75-17.22l-171.64-46c-11.11-3-15.85,14.25-4.74,17.22Z" fill="#0c0c1f"/>
        <path d="M439.75,145.15v293.7c0,11.5,17.85,11.51,17.85,0V145.15c0-11.5-17.85-11.52-17.85,0Z" fill="#0c0c1f"/>
        <g>
          <text transform="translate(420.91 102.35)" font-size="83.3" fill="#0c0c1f" font-family="Circula-Medium, Circula" font-weight="500">12</text>
          <text transform="translate(216.43 151.21)" font-size="83.3" fill="#0c0c1f" font-family="Circula-Medium, Circula" font-weight="500">11</text>
          <text transform="translate(70.21 285.34)" font-size="83.3" fill="#0c0c1f" font-family="Circula-Medium, Circula" font-weight="500">10</text>
          <text transform="translate(30.62 464.34)" font-size="83.3" fill="#0c0c1f" font-family="Circula-Medium, Circula" font-weight="500">9</text>
          <text transform="translate(79.69 644.35)" font-size="83.3" fill="#0c0c1f" font-family="Circula-Medium, Circula" font-weight="500">8</text>
          <text transform="translate(220.25 777.31)" font-size="83.3" fill="#0c0c1f" font-family="Circula-Medium, Circula" font-weight="500">7</text>
          <text transform="translate(424.96 826.35)" font-size="83.3" fill="#0c0c1f" font-family="Circula-Medium, Circula" font-weight="500">6</text>
          <text transform="translate(625.17 777.31)" font-size="83.3" fill="#0c0c1f" font-family="Circula-Medium, Circula" font-weight="500">5</text>
          <text transform="translate(758.51 643.35)" font-size="83.3" fill="#0c0c1f" font-family="Circula-Medium, Circula" font-weight="500">4</text>
          <text transform="translate(808.59 464.35)" font-size="83.3" fill="#0c0c1f" font-family="Circula-Medium, Circula" font-weight="500">3</text>
          <text transform="translate(757.76 285.35)" font-size="83.3" fill="#0c0c1f" font-family="Circula-Medium, Circula" font-weight="500">2</text>
          <text transform="translate(632 151.38)" font-size="83.3" fill="#0c0c1f" font-family="Circula-Medium, Circula" font-weight="500">1</text>
        </g>
      </g>
    
    <animate
            id="frame8"
            attributeName="display"
            values="none;none;none;none;none;none;none;inline;none;none"
            keyTimes="0;0.1;0.2;0.3;0.4;0.5;0.6;0.7;0.8;1"
            dur="5s"
            begin="0s"
            repeatCount="indefinite"/>
    
    </g>
    <g id="ab336df8-30c9-4c26-b483-57651a5c8caa" data-name="relogio_7">
      <g>
        <circle cx="439.02" cy="439.02" r="438.52" fill="#fff" stroke="#000" stroke-miterlimit="10"/>
        <path d="M876.74,452c0-1.89.08-3.78.1-5.67s0-3.55,0-5.33,0-3.79,0-5.69C873.82,198.28,682.56,6.42,445.06,1.15q-5-.12-10-.12V455.88H876.61C876.66,454.59,876.7,453.31,876.74,452Z" fill="#ffc033"/>
        <path d="M457.37,447.6H635.06V429.74H517.92c-11.49,0-11.51,17.86,0,17.86H635.06c11.49,0,11.51-17.86,0-17.86H457.37c-11.49,0-11.51,17.86,0,17.86Z" fill="#0c0c1f"/>
        <path d="M439.75,145.15v293.7c0,11.5,17.85,11.51,17.85,0V145.15c0-11.5-17.85-11.52-17.85,0Z" fill="#0c0c1f"/>
        <g>
          <text transform="translate(420.91 102.35)" font-size="83.3" fill="#0c0c1f" font-family="Circula-Medium, Circula" font-weight="500">12</text>
          <text transform="translate(216.43 151.21)" font-size="83.3" fill="#0c0c1f" font-family="Circula-Medium, Circula" font-weight="500">11</text>
          <text transform="translate(70.21 285.34)" font-size="83.3" fill="#0c0c1f" font-family="Circula-Medium, Circula" font-weight="500">10</text>
          <text transform="translate(30.62 464.34)" font-size="83.3" fill="#0c0c1f" font-family="Circula-Medium, Circula" font-weight="500">9</text>
          <text transform="translate(79.69 644.35)" font-size="83.3" fill="#0c0c1f" font-family="Circula-Medium, Circula" font-weight="500">8</text>
          <text transform="translate(220.25 777.31)" font-size="83.3" fill="#0c0c1f" font-family="Circula-Medium, Circula" font-weight="500">7</text>
          <text transform="translate(424.96 826.35)" font-size="83.3" fill="#0c0c1f" font-family="Circula-Medium, Circula" font-weight="500">6</text>
          <text transform="translate(625.17 777.31)" font-size="83.3" fill="#0c0c1f" font-family="Circula-Medium, Circula" font-weight="500">5</text>
          <text transform="translate(758.51 643.35)" font-size="83.3" fill="#0c0c1f" font-family="Circula-Medium, Circula" font-weight="500">4</text>
          <text transform="translate(808.59 464.35)" font-size="83.3" fill="#0c0c1f" font-family="Circula-Medium, Circula" font-weight="500">3</text>
          <text transform="translate(757.76 285.35)" font-size="83.3" fill="#0c0c1f" font-family="Circula-Medium, Circula" font-weight="500">2</text>
          <text transform="translate(632 151.38)" font-size="83.3" fill="#0c0c1f" font-family="Circula-Medium, Circula" font-weight="500">1</text>
        </g>
      </g>
    
    <animate
            id="frame7"
            attributeName="display"
            values="none;none;none;none;none;none;inline;none;none;none"
            keyTimes="0;0.1;0.2;0.3;0.4;0.5;0.6;0.7;0.8;1"
            dur="5s"
            begin="0s"
            repeatCount="indefinite"/>
    
    </g>
    <g id="e41ddc6f-9257-42fb-b8d7-da951141cca6" data-name="relogio_6">
      <g>
        <circle cx="439.02" cy="439.02" r="438.52" fill="#fff" stroke="#000" stroke-miterlimit="10"/>
        <path d="M445.08,1.25c-3.34-.08-6.7-.12-10.06-.12V456l2.43,1.79,430-111.32C824.57,152.08,652.42,5.84,445.08,1.25Z" fill="#ffc033"/>
        <path d="M455.05,449.38l171.63-46c11.09-3,6.39-20.21-4.74-17.23L508.79,416.49c-11.09,3-6.39,20.21,4.75,17.22L626.68,403.4l-4.74-17.23-171.63,46c-11.1,3-6.39,20.21,4.74,17.22Z" fill="#0c0c1f"/>
        <path d="M439.75,145.15v293.7c0,11.5,17.85,11.51,17.85,0V145.15c0-11.5-17.85-11.52-17.85,0Z" fill="#0c0c1f"/>
        <g>
          <text transform="translate(420.91 102.35)" font-size="83.3" fill="#0c0c1f" font-family="Circula-Medium, Circula" font-weight="500">12</text>
          <text transform="translate(216.43 151.21)" font-size="83.3" fill="#0c0c1f" font-family="Circula-Medium, Circula" font-weight="500">11</text>
          <text transform="translate(70.21 285.34)" font-size="83.3" fill="#0c0c1f" font-family="Circula-Medium, Circula" font-weight="500">10</text>
          <text transform="translate(30.61 464.34)" font-size="83.3" fill="#0c0c1f" font-family="Circula-Medium, Circula" font-weight="500">9</text>
          <text transform="translate(79.69 644.35)" font-size="83.3" fill="#0c0c1f" font-family="Circula-Medium, Circula" font-weight="500">8</text>
          <text transform="translate(220.25 777.31)" font-size="83.3" fill="#0c0c1f" font-family="Circula-Medium, Circula" font-weight="500">7</text>
          <text transform="translate(424.96 826.35)" font-size="83.3" fill="#0c0c1f" font-family="Circula-Medium, Circula" font-weight="500">6</text>
          <text transform="translate(625.17 777.31)" font-size="83.3" fill="#0c0c1f" font-family="Circula-Medium, Circula" font-weight="500">5</text>
          <text transform="translate(758.51 643.35)" font-size="83.3" fill="#0c0c1f" font-family="Circula-Medium, Circula" font-weight="500">4</text>
          <text transform="translate(808.59 464.35)" font-size="83.3" fill="#0c0c1f" font-family="Circula-Medium, Circula" font-weight="500">3</text>
          <text transform="translate(757.76 285.35)" font-size="83.3" fill="#0c0c1f" font-family="Circula-Medium, Circula" font-weight="500">2</text>
          <text transform="translate(632 151.38)" font-size="83.3" fill="#0c0c1f" font-family="Circula-Medium, Circula" font-weight="500">1</text>
        </g>
      </g>
    
    <animate
            id="frame6"
            attributeName="display"
            values="none;none;none;none;none;inline;none;none;none;none"
            keyTimes="0;0.1;0.2;0.3;0.4;0.5;0.6;0.7;0.8;1"
            dur="5s"
            begin="0s"
            repeatCount="indefinite"/>
    
    </g>
    <g id="ae3fa449-5ee7-42d1-9c6d-2163c7f11053" data-name="relogio_5">
      <g>
        <circle cx="439.02" cy="439.02" r="438.52" fill="#fff" stroke="#000" stroke-miterlimit="10"/>
        <path d="M445.09,1.69q-5-.12-10.07-.12V456.42l5,3.7,2.09,1.54,2.9,1.67L832.73,247.24A443.39,443.39,0,0,0,445.09,1.69Z" fill="#ffc033"/>
        <path d="M439.75,145.15v293.7c0,11.5,17.85,11.51,17.85,0V145.15c0-11.5-17.85-11.52-17.85,0Z" fill="#0c0c1f"/>
        <path d="M457.38,448.92l153.88-88.84c10-5.75,1-21.19-9-15.43L500.8,403.22c-9.95,5.75-1,21.19,9,15.43l101.45-58.57-9-15.43L448.36,433.5c-9.95,5.74-1,21.18,9,15.42Z" fill="#0c0c1f"/>
        <g>
          <text transform="translate(420.91 102.35)" font-size="83.3" fill="#0c0c1f" font-family="Circula-Medium, Circula" font-weight="500">12</text>
          <text transform="translate(216.43 151.21)" font-size="83.3" fill="#0c0c1f" font-family="Circula-Medium, Circula" font-weight="500">11</text>
          <text transform="translate(70.21 285.34)" font-size="83.3" fill="#0c0c1f" font-family="Circula-Medium, Circula" font-weight="500">10</text>
          <text transform="translate(30.62 464.34)" font-size="83.3" fill="#0c0c1f" font-family="Circula-Medium, Circula" font-weight="500">9</text>
          <text transform="translate(79.69 644.35)" font-size="83.3" fill="#0c0c1f" font-family="Circula-Medium, Circula" font-weight="500">8</text>
          <text transform="translate(220.25 777.31)" font-size="83.3" fill="#0c0c1f" font-family="Circula-Medium, Circula" font-weight="500">7</text>
          <text transform="translate(424.96 826.35)" font-size="83.3" fill="#0c0c1f" font-family="Circula-Medium, Circula" font-weight="500">6</text>
          <text transform="translate(625.17 777.31)" font-size="83.3" fill="#0c0c1f" font-family="Circula-Medium, Circula" font-weight="500">5</text>
          <text transform="translate(758.51 643.35)" font-size="83.3" fill="#0c0c1f" font-family="Circula-Medium, Circula" font-weight="500">4</text>
          <text transform="translate(808.59 464.35)" font-size="83.3" fill="#0c0c1f" font-family="Circula-Medium, Circula" font-weight="500">3</text>
          <text transform="translate(757.76 285.35)" font-size="83.3" fill="#0c0c1f" font-family="Circula-Medium, Circula" font-weight="500">2</text>
          <text transform="translate(632 151.38)" font-size="83.3" fill="#0c0c1f" font-family="Circula-Medium, Circula" font-weight="500">1</text>
        </g>
      </g>
    
    <animate
            id="frame5"
            attributeName="display"
            values="none;none;none;none;inline;none;none;none;none;none"
            keyTimes="0;0.1;0.2;0.3;0.4;0.5;0.6;0.7;0.8;1"
            dur="5s"
            begin="0s"
            repeatCount="indefinite"/>
    
    </g>
    <g id="b3658ca4-e889-4882-923e-54da037920ae" data-name="relogio_4">
      <g>
        <circle cx="439.02" cy="439.02" r="438.52" fill="#fff" stroke="#000" stroke-miterlimit="10"/>
        <path d="M445.14,1.69c-3.36-.08-6.74-.12-10.12-.12V455l5.06,3.69,2.11,1.54,2.95,1.68,4.31,2.45L768.84,149.81A447.06,447.06,0,0,0,445.14,1.69Z" fill="#ffc033"/>
        <path d="M460.08,448.29,585.72,322.64,573.09,310l-82.83,82.83c-8.14,8.14,4.49,20.77,12.63,12.63l82.83-82.83c8.14-8.13-4.49-20.77-12.63-12.63L447.45,435.66c-8.14,8.13,4.49,20.77,12.63,12.63Z" fill="#0c0c1f"/>
        <path d="M439.75,145.15v293.7c0,11.5,17.85,11.51,17.85,0V145.15c0-11.5-17.85-11.52-17.85,0Z" fill="#0c0c1f"/>
        <g>
          <text transform="translate(420.91 102.35)" font-size="83.3" fill="#0c0c1f" font-family="Circula-Medium, Circula" font-weight="500">12</text>
          <text transform="translate(216.43 151.21)" font-size="83.3" fill="#0c0c1f" font-family="Circula-Medium, Circula" font-weight="500">11</text>
          <text transform="translate(70.21 285.34)" font-size="83.3" fill="#0c0c1f" font-family="Circula-Medium, Circula" font-weight="500">10</text>
          <text transform="translate(30.62 464.34)" font-size="83.3" fill="#0c0c1f" font-family="Circula-Medium, Circula" font-weight="500">9</text>
          <text transform="translate(79.69 644.35)" font-size="83.3" fill="#0c0c1f" font-family="Circula-Medium, Circula" font-weight="500">8</text>
          <text transform="translate(220.25 777.31)" font-size="83.3" fill="#0c0c1f" font-family="Circula-Medium, Circula" font-weight="500">7</text>
          <text transform="translate(424.96 826.35)" font-size="83.3" fill="#0c0c1f" font-family="Circula-Medium, Circula" font-weight="500">6</text>
          <text transform="translate(625.17 777.31)" font-size="83.3" fill="#0c0c1f" font-family="Circula-Medium, Circula" font-weight="500">5</text>
          <text transform="translate(758.51 643.35)" font-size="83.3" fill="#0c0c1f" font-family="Circula-Medium, Circula" font-weight="500">4</text>
          <text transform="translate(808.59 464.35)" font-size="83.3" fill="#0c0c1f" font-family="Circula-Medium, Circula" font-weight="500">3</text>
          <text transform="translate(757.76 285.35)" font-size="83.3" fill="#0c0c1f" font-family="Circula-Medium, Circula" font-weight="500">2</text>
          <text transform="translate(632 151.38)" font-size="83.3" fill="#0c0c1f" font-family="Circula-Medium, Circula" font-weight="500">1</text>
        </g>
      </g>
    
    <animate
            id="frame4"
            attributeName="display"
            values="none;none;none;inline;none;none;none;none;none;none"
            keyTimes="0;0.1;0.2;0.3;0.4;0.5;0.6;0.7;0.8;1"
            dur="5s"
            begin="0s"
            repeatCount="indefinite"/>
    
    </g>
    <g id="a29c5158-530d-4174-afd9-f45e519bf1f2" data-name="relogio_3">
      <g>
        <circle cx="439.02" cy="439.02" r="438.52" fill="#fff" stroke="#000" stroke-miterlimit="10"/>
        <path d="M445.2,1.69c-3.38-.08-6.78-.12-10.18-.12v456l5.09,3.71,2.12,1.54,3,1.69,8.28,4.71L684.08,76A450.59,450.59,0,0,0,445.2,1.69Z" fill="#ffc033"/>
        <path d="M461.86,447.22l88.85-153.88c5.75-10-9.67-19-15.43-9L476.72,385.78c-5.76,10,9.66,19,15.42,9l58.57-101.45-15.43-9L446.44,438.21c-5.76,10,9.67,19,15.42,9Z" fill="#0c0c1f"/>
        <path d="M439.75,145.15v293.7c0,11.5,17.85,11.51,17.85,0V145.15c0-11.5-17.85-11.52-17.85,0Z" fill="#0c0c1f"/>
        <g>
          <text transform="translate(420.91 102.35)" font-size="83.3" fill="#0c0c1f" font-family="Circula-Medium, Circula" font-weight="500">12</text>
          <text transform="translate(216.43 151.21)" font-size="83.3" fill="#0c0c1f" font-family="Circula-Medium, Circula" font-weight="500">11</text>
          <text transform="translate(70.21 285.34)" font-size="83.3" fill="#0c0c1f" font-family="Circula-Medium, Circula" font-weight="500">10</text>
          <text transform="translate(30.61 464.34)" font-size="83.3" fill="#0c0c1f" font-family="Circula-Medium, Circula" font-weight="500">9</text>
          <text transform="translate(79.69 644.35)" font-size="83.3" fill="#0c0c1f" font-family="Circula-Medium, Circula" font-weight="500">8</text>
          <text transform="translate(220.25 777.31)" font-size="83.3" fill="#0c0c1f" font-family="Circula-Medium, Circula" font-weight="500">7</text>
          <text transform="translate(424.96 826.35)" font-size="83.3" fill="#0c0c1f" font-family="Circula-Medium, Circula" font-weight="500">6</text>
          <text transform="translate(625.17 777.31)" font-size="83.3" fill="#0c0c1f" font-family="Circula-Medium, Circula" font-weight="500">5</text>
          <text transform="translate(758.51 643.35)" font-size="83.3" fill="#0c0c1f" font-family="Circula-Medium, Circula" font-weight="500">4</text>
          <text transform="translate(808.59 464.35)" font-size="83.3" fill="#0c0c1f" font-family="Circula-Medium, Circula" font-weight="500">3</text>
          <text transform="translate(757.76 285.35)" font-size="83.3" fill="#0c0c1f" font-family="Circula-Medium, Circula" font-weight="500">2</text>
          <text transform="translate(632 151.38)" font-size="83.3" fill="#0c0c1f" font-family="Circula-Medium, Circula" font-weight="500">1</text>
        </g>
      </g>
    
    <animate
            id="frame3"
            attributeName="display"
            values="none;none;inline;none;none;none;none;none;none;none"
            keyTimes="0;0.1;0.2;0.3;0.4;0.5;0.6;0.7;0.8;1"
            dur="5s"
            begin="0s"
            repeatCount="indefinite"/>
    
    </g>
    <g id="b9f3fba2-5c2c-4faa-8258-3f7a4de2185a" data-name="relogio_2">
      <g>
        <circle cx="439.02" cy="439.02" r="438.52" fill="#fff" stroke="#000" stroke-miterlimit="10"/>
        <path d="M445,.62C441.7.54,438.36.5,435,.5V455.35l5,3.7,2.08,1.54,2.92,1.69,15.85,9.15L580.26,25.05A438.76,438.76,0,0,0,445,.62Z" fill="#ffc033"/>
        <path d="M462.63,442.52l46-171.64c3-11.11-14.25-15.85-17.22-4.74L461.08,379.28c-3,11.12,14.24,15.86,17.22,4.75l30.32-113.15-17.22-4.74-46,171.63c-3,11.11,14.24,15.85,17.22,4.75Z" fill="#0c0c1f"/>
        <path d="M439.75,145.15v293.7c0,11.5,17.85,11.51,17.85,0V145.15c0-11.5-17.85-11.52-17.85,0Z" fill="#0c0c1f"/>
        <g>
          <text transform="translate(420.91 102.35)" font-size="83.3" fill="#0c0c1f" font-family="Circula-Medium, Circula" font-weight="500">12</text>
          <text transform="translate(216.43 151.21)" font-size="83.3" fill="#0c0c1f" font-family="Circula-Medium, Circula" font-weight="500">11</text>
          <text transform="translate(70.21 285.34)" font-size="83.3" fill="#0c0c1f" font-family="Circula-Medium, Circula" font-weight="500">10</text>
          <text transform="translate(30.62 464.34)" font-size="83.3" fill="#0c0c1f" font-family="Circula-Medium, Circula" font-weight="500">9</text>
          <text transform="translate(79.69 644.35)" font-size="83.3" fill="#0c0c1f" font-family="Circula-Medium, Circula" font-weight="500">8</text>
          <text transform="translate(220.25 777.31)" font-size="83.3" fill="#0c0c1f" font-family="Circula-Medium, Circula" font-weight="500">7</text>
          <text transform="translate(424.96 826.35)" font-size="83.3" fill="#0c0c1f" font-family="Circula-Medium, Circula" font-weight="500">6</text>
          <text transform="translate(625.17 777.31)" font-size="83.3" fill="#0c0c1f" font-family="Circula-Medium, Circula" font-weight="500">5</text>
          <text transform="translate(758.51 643.35)" font-size="83.3" fill="#0c0c1f" font-family="Circula-Medium, Circula" font-weight="500">4</text>
          <text transform="translate(808.59 464.35)" font-size="83.3" fill="#0c0c1f" font-family="Circula-Medium, Circula" font-weight="500">3</text>
          <text transform="translate(757.76 285.35)" font-size="83.3" fill="#0c0c1f" font-family="Circula-Medium, Circula" font-weight="500">2</text>
          <text transform="translate(632 151.38)" font-size="83.3" fill="#0c0c1f" font-family="Circula-Medium, Circula" font-weight="500">1</text>
        </g>
      </g>
    
    <animate
            id="frame2"
            attributeName="display"
            values="none;inline;none;none;none;none;none;none;none;none"
            keyTimes="0;0.1;0.2;0.3;0.4;0.5;0.6;0.7;0.8;1"
            dur="5s"
            begin="0s"
            repeatCount="indefinite"/>
    
    </g>
    <g id="bb00f15a-6e20-4918-ae6a-8a707b5d04a0" data-name="relogio_1">
      <g>
        <circle cx="439.02" cy="439.02" r="438.52" fill="#fff" stroke="#000" stroke-miterlimit="10"/>
        <path d="M457.6,380.84V203.16c0-11.5-17.85-11.51-17.85,0V320.3c0,11.49,17.85,11.51,17.85,0V203.16H439.75V380.84c0,11.49,17.85,11.51,17.85,0Z" fill="#0c0c1f"/>
        <path d="M439.75,145.15v293.7c0,11.5,17.85,11.51,17.85,0V145.15c0-11.5-17.85-11.52-17.85,0Z" fill="#0c0c1f"/>
        <g>
          <text transform="translate(420.91 102.35)" font-size="83.3" fill="#0c0c1f" font-family="Circula-Medium, Circula" font-weight="500">12</text>
          <text transform="translate(216.43 151.21)" font-size="83.3" fill="#0c0c1f" font-family="Circula-Medium, Circula" font-weight="500">11</text>
          <text transform="translate(70.21 285.34)" font-size="83.3" fill="#0c0c1f" font-family="Circula-Medium, Circula" font-weight="500">10</text>
          <text transform="translate(30.62 464.34)" font-size="83.3" fill="#0c0c1f" font-family="Circula-Medium, Circula" font-weight="500">9</text>
          <text transform="translate(79.69 644.35)" font-size="83.3" fill="#0c0c1f" font-family="Circula-Medium, Circula" font-weight="500">8</text>
          <text transform="translate(220.25 777.31)" font-size="83.3" fill="#0c0c1f" font-family="Circula-Medium, Circula" font-weight="500">7</text>
          <text transform="translate(424.96 826.35)" font-size="83.3" fill="#0c0c1f" font-family="Circula-Medium, Circula" font-weight="500">6</text>
          <text transform="translate(625.17 777.31)" font-size="83.3" fill="#0c0c1f" font-family="Circula-Medium, Circula" font-weight="500">5</text>
          <text transform="translate(758.51 643.35)" font-size="83.3" fill="#0c0c1f" font-family="Circula-Medium, Circula" font-weight="500">4</text>
          <text transform="translate(808.59 464.35)" font-size="83.3" fill="#0c0c1f" font-family="Circula-Medium, Circula" font-weight="500">3</text>
          <text transform="translate(757.76 285.35)" font-size="83.3" fill="#0c0c1f" font-family="Circula-Medium, Circula" font-weight="500">2</text>
          <text transform="translate(632 151.38)" font-size="83.3" fill="#0c0c1f" font-family="Circula-Medium, Circula" font-weight="500">1</text>
        </g>
      </g>
  
          <animate
            id="frame1"
            attributeName="display"
            values="inline;none;none;none;none;none;none;none;none;none"
            keyTimes="0;0.1;0.2;0.3;0.4;0.5;0.6;0.7;0.8;1"
            dur="5s"
            repeatCount="indefinite"/>

    </g>
  </g>
</svg>
