<svg xmlns="http://www.w3.org/2000/svg" viewBox="0 0 350 386.6"><defs><style>.cls-1{fill:#cc0001;}.cls-2{fill:#fff;}</style></defs><g id="Layer_2" data-name="Layer 2"><g id="layout"><polygon id="_3" data-name="3" class="cls-1" points="0 386.6 300.23 386.6 350 193.65 300.23 0 0 0 47.85 193.65 0 386.6"/><path class="cls-2" d="M90,88.38a14.28,14.28,0,0,1-5.65-3.33,7.31,7.31,0,0,1-2.16-5.37,7.68,7.68,0,0,1,13.1-5.41,9.36,9.36,0,0,1,2.13,3.92L93.59,79.7a7.8,7.8,0,0,0-1.27-2.46,3.49,3.49,0,0,0-4.86,0,3.44,3.44,0,0,0,0,4.87,10.86,10.86,0,0,0,3.12,2,16.2,16.2,0,0,1,6.54,3.94,9.76,9.76,0,0,1,3,7.22,10.22,10.22,0,0,1-17.47,7.24,11.53,11.53,0,0,1-3-6.62l4.12-1.5c.26,2.42.9,4.13,1.91,5.15a6,6,0,1,0,8.49-8.51A12.27,12.27,0,0,0,90,88.38Z"/><path class="cls-2" d="M110.14,100.44c.71.63,2,.94,3.88.94a7.13,7.13,0,0,0,5.19-2.13c.18-.19.54-.62,1.09-1.27l4.24,1.51a25.75,25.75,0,0,1-2.26,2.85,11.67,11.67,0,1,1-16.5-16.52,11.69,11.69,0,0,1,15.5-.93c.34.29.68.6,1,.93q.21.2,1.17,1.29l-2.13,2.15Zm7.1-13.13a6,6,0,0,0-3.22-.55,7.31,7.31,0,0,0-7.3,7.32,6.08,6.08,0,0,0,.55,3.22Z"/><path class="cls-2" d="M152.32,82.39a11.7,11.7,0,0,1,8.26,20,11.67,11.67,0,1,1-16.5-16.52A11.21,11.21,0,0,1,152.32,82.39Zm-5.18,6.52a7.32,7.32,0,1,0,5.18-2.15A7.07,7.07,0,0,0,147.14,88.91Z"/><path class="cls-2" d="M189.68,88.38A14.21,14.21,0,0,1,184,85.05a7.28,7.28,0,0,1-2.17-5.37A7.7,7.7,0,0,1,189.55,72,7.44,7.44,0,0,1,195,74.27a9.36,9.36,0,0,1,2.13,3.92l-3.86,1.51A7.4,7.4,0,0,0,192,77.24a3.49,3.49,0,0,0-4.86,0,3.46,3.46,0,0,0,0,4.87,11.15,11.15,0,0,0,3.12,2,16.2,16.2,0,0,1,6.54,3.94,10.22,10.22,0,1,1-14.45,14.46,11.47,11.47,0,0,1-3-6.62l4.12-1.5c.26,2.42.9,4.13,1.91,5.15a6,6,0,0,0,8.49-8.51A12.37,12.37,0,0,0,189.68,88.38Z"/><path class="cls-2" d="M214.82,72.4l11.94,32.82h-4.51L218,93.61h-8.69l-4.21,11.61h-4.53L212.53,72.4Zm1.66,17-2.81-7.69-2.78,7.69Z"/><path class="cls-2" d="M234.24,72.4l10.65,18.4,10.6-18.4h3.87v32.82h-4.24V81.51L244.89,99.23,234.61,81.51v23.71h-4.24V72.4Z"/><path class="cls-2" d="M283.64,72.4h4.27V95.52a11.49,11.49,0,0,1-3.27,6.68,11.16,11.16,0,0,1-19.05-7.87V72.4h4.27V94.33a6.89,6.89,0,0,0,13.78,0Z"/><path class="cls-2" d="M91.89,136V122.8h4.26v32.82H91.89V153a9.69,9.69,0,0,1-7.16,3.18,11.69,11.69,0,0,1,0-23.38A9.69,9.69,0,0,1,91.89,136Zm0,10.09v-3.14a6.83,6.83,0,0,0-2-3.61,7.3,7.3,0,1,0,0,10.34A6.85,6.85,0,0,0,91.89,146.06Z"/><path class="cls-2" d="M107.39,150.84c.71.63,2,.94,3.88.94a7.13,7.13,0,0,0,5.19-2.13c.17-.19.54-.62,1.08-1.27l4.25,1.51a25.75,25.75,0,0,1-2.26,2.85,11.67,11.67,0,1,1-1-17.45c.34.29.67.6,1,.93q.21.19,1.17,1.29l-2.13,2.15Zm7.1-13.13a6,6,0,0,0-3.22-.55,7.31,7.31,0,0,0-7.3,7.32,6.08,6.08,0,0,0,.55,3.22Z"/><path class="cls-2" d="M124.6,134.51h4.24v2a4.66,4.66,0,0,1,4.74-3.1c2.33,0,3.63,1.18,3.92,3.53q1-3.53,5.53-3.53c3,0,4.47,1.82,4.47,5.44v16.8h-4.26V140.77q0-3.12-2.52-3.12a2.52,2.52,0,0,0-1.81.74c-.5.49-.76,2.15-.76,5v12.27h-4.24l0-14.85c0-2.08-.85-3.12-2.54-3.12a2.52,2.52,0,0,0-1.81.74c-.44.42-.68,1.54-.74,3.36v13.87H124.6Z"/><path class="cls-2" d="M162.64,132.79a11.69,11.69,0,1,1-8.25,3.43A11.2,11.2,0,0,1,162.64,132.79Zm-5.18,6.52a7.32,7.32,0,1,0,5.18-2.15A7.07,7.07,0,0,0,157.46,139.31Z"/><path class="cls-2" d="M182,137.36a7.57,7.57,0,0,1,5.85-3.38v4.41a5.41,5.41,0,0,0-3.69,1.5,6.94,6.94,0,0,0-2.16,4.88v10.85h-4.24V134.51H182Z"/><path class="cls-2" d="M208.14,136v-1.48h4.27v21.13h-4.27V153a9.64,9.64,0,0,1-7.14,3.18,11.67,11.67,0,0,1,0-23.34A9.66,9.66,0,0,1,208.14,136Zm0,10.07v-3.12a6.9,6.9,0,0,0-2-3.61,7.3,7.3,0,1,0,0,10.34A6.9,6.9,0,0,0,208.14,146.06Z"/><path class="cls-2" d="M221.32,137.36a7.57,7.57,0,0,1,5.85-3.38v4.41a5.37,5.37,0,0,0-3.69,1.5,6.9,6.9,0,0,0-2.16,4.88v10.85h-4.24V134.51h4.24Z"/><path class="cls-2" d="M234.57,149.91l-4.74,9.85h-4l2.63-9.85Z"/><path class="cls-2" d="M260.12,155.62l-10.07-21.11h4.79l6.34,13.7,6.36-13.7h4.8l-10.09,21.11Z"/><path class="cls-2" d="M291.72,136v-1.48H296v21.13h-4.27V153a9.64,9.64,0,0,1-7.14,3.18,11.67,11.67,0,0,1,0-23.34A9.66,9.66,0,0,1,291.72,136Zm0,10.07v-3.12a6.83,6.83,0,0,0-2-3.61,7.3,7.3,0,1,0,0,10.34A6.83,6.83,0,0,0,291.72,146.06Zm-6-19.3h5.17l-5.58,5.72h-4Z"/><path class="cls-2" d="M82,186.39v-1.48h4.26V206H82v-2.65a9.64,9.64,0,0,1-7.14,3.18,11.67,11.67,0,0,1,0-23.34A9.66,9.66,0,0,1,82,186.39Zm0,10.07v-3.12a6.9,6.9,0,0,0-2-3.61,7.35,7.35,0,0,0-10.35,0,7.31,7.31,0,0,0,5.18,12.47A7.1,7.1,0,0,0,80,200.07,6.9,6.9,0,0,0,82,196.46Z"/><path class="cls-2" d="M101.39,183.19a11.69,11.69,0,1,1-8.24,3.42A11.25,11.25,0,0,1,101.39,183.19Zm-5.18,6.52a7.32,7.32,0,1,0,5.18-2.15A7.07,7.07,0,0,0,96.21,189.71Z"/><path class="cls-2" d="M134.65,192.44V206H130.4V173.2h4.25v15h10.13v-15H149V206h-4.24V192.44Z"/><path class="cls-2" d="M182.4,177.69a16.79,16.79,0,1,1-11.88-4.92A16.2,16.2,0,0,1,182.4,177.69Zm-11.88-.63a12.5,12.5,0,1,0,8.85,3.66A12.06,12.06,0,0,0,170.52,177.06Z"/><path class="cls-2" d="M200,189.18a14.21,14.21,0,0,1-5.65-3.33,7.65,7.65,0,0,1,.08-10.76,7.68,7.68,0,0,1,10.86,0,9.36,9.36,0,0,1,2.13,3.92l-3.85,1.51a7.8,7.8,0,0,0-1.27-2.46,3.5,3.5,0,0,0-4.87,0,3.46,3.46,0,0,0,0,4.87,11.15,11.15,0,0,0,3.12,2,16.2,16.2,0,0,1,6.54,3.94,10.22,10.22,0,1,1-14.45,14.46,11.47,11.47,0,0,1-3-6.62l4.12-1.5c.26,2.42.9,4.13,1.91,5.15a6,6,0,0,0,8.49-8.52A12.4,12.4,0,0,0,200,189.18Z"/><path class="cls-2" d="M218,195.52V206H213.8V173.2h9.31a11.36,11.36,0,0,1,6.68,3.26,11.17,11.17,0,0,1-7.87,19.06Zm0-18.05v13.78h3.88a6.6,6.6,0,0,0,4.85-2,6.7,6.7,0,0,0,2-4.89,6.88,6.88,0,0,0-6.87-6.87Z"/><path class="cls-2" d="M240.77,173.2V206h-4.24V173.2Z"/><path class="cls-2" d="M256,177.45V206h-4.27V177.45h-7.65V173.2h19.57v4.25Z"/><path class="cls-2" d="M276.07,173.2,288,206H283.5l-4.23-11.61h-8.69L266.37,206h-4.53l11.94-32.82Zm1.66,17-2.81-7.69-2.78,7.69Z"/><path class="cls-2" d="M291.14,206V173.2h4.24v28.55h11.73V206Z"/><path class="cls-2" d="M55.05,235.31H59.3v2A4.65,4.65,0,0,1,64,234.19,3.55,3.55,0,0,1,68,237.71q1-3.53,5.54-3.52T78,239.62v16.8H73.7V241.57c0-2.08-.85-3.12-2.53-3.12a2.5,2.5,0,0,0-1.8.74c-.51.49-.76,2.15-.76,5v12.27H64.36l0-14.85q0-3.12-2.55-3.12a2.5,2.5,0,0,0-1.8.74c-.44.42-.69,1.54-.74,3.36v13.87H55.05Z"/><path class="cls-2" d="M100.55,236.79v-1.48h4.27v21.13h-4.27v-2.65A9.64,9.64,0,0,1,93.41,257a11.67,11.67,0,0,1,0-23.34A9.66,9.66,0,0,1,100.55,236.79Zm0,10.07v-3.12a6.9,6.9,0,0,0-2-3.61,7.3,7.3,0,1,0,0,10.34A6.87,6.87,0,0,0,100.55,246.86Z"/><path class="cls-2" d="M113.89,227.5a2.95,2.95,0,0,1,0,4.22,3,3,0,0,1-4.2,0,3,3,0,0,1,0-4.22,3,3,0,0,1,4.2,0Zm0,7.81v21.11h-4.24V235.31Z"/><path class="cls-2" d="M122.38,251.88a2.56,2.56,0,0,0,3.6,0,2.48,2.48,0,0,0,.74-1.82,2.45,2.45,0,0,0-.73-1.79,15.79,15.79,0,0,0-2.2-1.57,15.11,15.11,0,0,1-3.26-2.22,5.75,5.75,0,0,1,4.06-9.8,5.33,5.33,0,0,1,4,1.6A5,5,0,0,1,130,238.8L125.86,240a2,2,0,0,0-.28-.68,1.38,1.38,0,0,0-1-.37,1.5,1.5,0,0,0-1.07,2.55,15.44,15.44,0,0,0,1.77,1.25,16.89,16.89,0,0,1,3.69,2.54,6.54,6.54,0,0,1,2,4.78,6.62,6.62,0,0,1-2,4.83,6.76,6.76,0,0,1-9.61,0,6.66,6.66,0,0,1-1.8-3.43l4.22-.9A2.54,2.54,0,0,0,122.38,251.88Z"/><path class="cls-2" d="M152.86,253.79v9.72h-4.24v-28.2h4.24v1.91a9.18,9.18,0,0,1,7.16-3.61A11.68,11.68,0,0,1,160,257,9.67,9.67,0,0,1,152.86,253.79Zm0-10.15v3.3a6.82,6.82,0,0,0,2,3.53,7.33,7.33,0,1,0,0-10.36A6.82,6.82,0,0,0,152.86,243.64Z"/><path class="cls-2" d="M181.82,251.64c.71.63,2,.94,3.87.94a7.11,7.11,0,0,0,5.19-2.13c.18-.19.54-.62,1.09-1.27l4.24,1.51a27.37,27.37,0,0,1-2.25,2.85,11.67,11.67,0,1,1-1-17.45c.34.29.68.6,1,.93q.19.19,1.17,1.29L193,240.46Zm7.09-13.13a6,6,0,0,0-3.22-.55,7.31,7.31,0,0,0-7.3,7.32,6.18,6.18,0,0,0,.55,3.22Z"/><path class="cls-2" d="M203.27,238.16a7.54,7.54,0,0,1,5.84-3.38v4.41a5.39,5.39,0,0,0-3.69,1.5,6.89,6.89,0,0,0-2.15,4.88v10.85H199V235.31h4.25Z"/><path class="cls-2" d="M214.76,235.31V227.4H219v7.91h3.79v4.25H219v16.86h-4.25V239.56H211v-4.25Z"/><path class="cls-2" d="M236.08,233.59a11.69,11.69,0,1,1-8.25,3.43A11.21,11.21,0,0,1,236.08,233.59Zm-5.18,6.52a7.3,7.3,0,1,0,5.18-2.15A7.08,7.08,0,0,0,230.9,240.11Z"/><path class="cls-2" d="M283.4,236.77V223.6h4.26v32.82H283.4v-2.63a9.67,9.67,0,0,1-7.16,3.18,11.69,11.69,0,0,1,0-23.38A9.67,9.67,0,0,1,283.4,236.77Zm0,10.09v-3.14a6.87,6.87,0,0,0-2-3.61,7.3,7.3,0,1,0,0,10.34A6.85,6.85,0,0,0,283.4,246.86Z"/><path class="cls-2" d="M310.24,236.79v-1.48h4.27v21.13h-4.27v-2.65A9.64,9.64,0,0,1,303.1,257a11.67,11.67,0,0,1,0-23.34A9.66,9.66,0,0,1,310.24,236.79Zm0,10.07v-3.12a6.9,6.9,0,0,0-2-3.61,7.3,7.3,0,1,0,0,10.34A6.87,6.87,0,0,0,310.24,246.86Z"/><path class="cls-2" d="M107.4,302.28a2.55,2.55,0,0,0,3.6-3.61,15.51,15.51,0,0,0-2.19-1.58,14.79,14.79,0,0,1-3.26-2.21,5.75,5.75,0,0,1,4.06-9.8,5.31,5.31,0,0,1,4,1.6A5,5,0,0,1,115,289.2l-4.12,1.19a1.77,1.77,0,0,0-.29-.68,1.34,1.34,0,0,0-1-.37,1.5,1.5,0,0,0-1.07,2.55,15.44,15.44,0,0,0,1.77,1.25,16.89,16.89,0,0,1,3.69,2.54,6.54,6.54,0,0,1,2,4.78,6.64,6.64,0,0,1-2,4.83,6.76,6.76,0,0,1-9.61,0,6.66,6.66,0,0,1-1.8-3.43l4.22-.9A2.54,2.54,0,0,0,107.4,302.28Z"/><path class="cls-2" d="M128.08,307.1a8.67,8.67,0,0,1-6.43-2.44,8.48,8.48,0,0,1-2.51-6.11V285.71h4.27v12.68a4.23,4.23,0,0,0,1.33,3.13,4.54,4.54,0,0,0,3.32,1.32,4.39,4.39,0,0,0,3.17-1.31,4.18,4.18,0,0,0,1.35-3.14V285.71h4.24v12.84a8.41,8.41,0,0,1-8.74,8.55Z"/><path class="cls-2" d="M159.25,287.19v-1.48h4.27v21.13h-4.27v-2.65a9.64,9.64,0,0,1-7.14,3.18,11.67,11.67,0,0,1,0-23.34A9.66,9.66,0,0,1,159.25,287.19Zm0,10.07v-3.12a6.9,6.9,0,0,0-2-3.61,7.3,7.3,0,1,0,0,10.34A6.87,6.87,0,0,0,159.25,297.26Z"/><path class="cls-2" d="M198.82,299.58l4.25,1.51a25.75,25.75,0,0,1-2.26,2.85,11.69,11.69,0,1,1,0-16.52,27.91,27.91,0,0,1,2.26,2.8l-4.25,1.56c-.54-.67-.91-1.1-1.1-1.29a7.3,7.3,0,1,0,0,10.36C197.91,300.66,198.28,300.23,198.82,299.58Z"/><path class="cls-2" d="M223.93,287.19v-1.48h4.26v21.13h-4.26v-2.65a9.64,9.64,0,0,1-7.14,3.18,11.67,11.67,0,0,1,0-23.34A9.66,9.66,0,0,1,223.93,287.19Zm0,10.07v-3.12a7,7,0,0,0-2-3.61,7.35,7.35,0,0,0-10.35,0A7.31,7.31,0,0,0,216.79,303a7.1,7.1,0,0,0,5.17-2.13A6.94,6.94,0,0,0,223.93,297.26Z"/><path class="cls-2" d="M236.53,302.28a2.48,2.48,0,0,0,1.81.74,2.42,2.42,0,0,0,1.79-.74,2.45,2.45,0,0,0,.75-1.82,2.42,2.42,0,0,0-.74-1.79,15.51,15.51,0,0,0-2.19-1.58,14.79,14.79,0,0,1-3.26-2.21,5.75,5.75,0,0,1,4.06-9.8,5.33,5.33,0,0,1,4,1.6,5,5,0,0,1,1.43,2.52L240,290.39a1.94,1.94,0,0,0-.29-.68,1.34,1.34,0,0,0-1-.37,1.5,1.5,0,0,0-1.07,2.55,15.44,15.44,0,0,0,1.77,1.25,16.89,16.89,0,0,1,3.69,2.54,6.79,6.79,0,1,1-11.4,6.17L236,301A2.54,2.54,0,0,0,236.53,302.28Z"/><path class="cls-2" d="M266.44,287.19v-1.48h4.27v21.13h-4.27v-2.65a9.64,9.64,0,0,1-7.14,3.18,11.67,11.67,0,0,1,0-23.34A9.66,9.66,0,0,1,266.44,287.19Zm0,10.07v-3.12a6.9,6.9,0,0,0-2-3.61,7.3,7.3,0,1,0,0,10.34A6.87,6.87,0,0,0,266.44,297.26Z"/><path class="cls-2" d="M280.07,302a2.82,2.82,0,0,1,.87,2.09,3,3,0,0,1-5.06,2.13,2.84,2.84,0,0,1-.88-2.13,2.8,2.8,0,0,1,.88-2.09,3,3,0,0,1,4.19,0Z"/></g></g></svg>