<svg xmlns="http://www.w3.org/2000/svg" viewBox="0 0 386.6 350"><defs><style>.cls-1{fill:#a30100;}.cls-2{fill:#fff;}</style></defs><g id="Layer_2" data-name="Layer 2"><g id="layout"><polygon id="_2" data-name="2" class="cls-1" points="0 0 0 300.23 192.95 350 386.6 300.23 386.6 0 192.95 47.85 0 0"/><path class="cls-2" d="M63.15,164.89V132.08h4.24v28.55H79.12v4.26Z"/><path class="cls-2" d="M88.62,136a3,3,0,0,1,0,4.22,2.89,2.89,0,0,1-2.11.86,3,3,0,0,1,0-5.94A2.89,2.89,0,0,1,88.62,136Zm0,7.81v21.1H84.39v-21.1Z"/><path class="cls-2" d="M113.45,145.25v-1.46h4.27v15.69q0,6.15-3.34,9.49a12.82,12.82,0,0,1-16.53,0,25.27,25.27,0,0,1-2.24-2.83l4.23-1.51c.54.65.91,1.08,1.1,1.27a7.1,7.1,0,0,0,5.17,2.13q5.07,0,7-6.64-2,3.86-6.83,3.85A11.44,11.44,0,0,1,98,161.92a10.94,10.94,0,0,1-3.41-8.16,11.64,11.64,0,0,1,11.67-11.67A9.66,9.66,0,0,1,113.45,145.25Zm0,6.87a6.79,6.79,0,0,0-2-3.53,7.29,7.29,0,0,0-10.34,0A7.32,7.32,0,0,0,111.46,159a6.83,6.83,0,0,0,2-3.49Z"/><path class="cls-2" d="M132.9,165.18a8.68,8.68,0,0,1-6.44-2.44,8.53,8.53,0,0,1-2.51-6.11V143.79h4.27v12.67a4.23,4.23,0,0,0,1.33,3.14,4.53,4.53,0,0,0,3.32,1.31,4.38,4.38,0,0,0,3.17-1.3,4.22,4.22,0,0,0,1.35-3.15V143.79h4.24v12.84a8.55,8.55,0,0,1-2.48,6.11A8.45,8.45,0,0,1,132.9,165.18Z"/><path class="cls-2" d="M154.35,160.11c.71.63,2,.95,3.87.95a7.07,7.07,0,0,0,5.19-2.14c.18-.19.54-.61,1.09-1.27l4.24,1.52a27.37,27.37,0,0,1-2.25,2.85,11.67,11.67,0,1,1-1-17.45c.34.29.68.59,1,.92l1.17,1.29-2.14,2.16ZM161.44,147a6,6,0,0,0-3.22-.55,7.32,7.32,0,0,0-7.3,7.32,6.08,6.08,0,0,0,.56,3.22Z"/><path class="cls-2" d="M192.43,162.27V172h-4.25v-28.2h4.25v1.91a9.18,9.18,0,0,1,7.16-3.61,11.68,11.68,0,0,1,0,23.36A9.67,9.67,0,0,1,192.43,162.27Zm0-10.15v3.3a6.79,6.79,0,0,0,2,3.53,7.33,7.33,0,1,0,0-10.36A6.76,6.76,0,0,0,192.43,152.12Z"/><path class="cls-2" d="M234.67,145.27v-1.48h4.27v21.12h-4.27v-2.64a9.62,9.62,0,0,1-7.13,3.18,11.67,11.67,0,1,1,0-23.34A9.64,9.64,0,0,1,234.67,145.27Zm0,10.07v-3.12a6.85,6.85,0,0,0-2-3.61,7.35,7.35,0,0,0-10.35,0,7.3,7.3,0,0,0,0,10.33,7.34,7.34,0,0,0,10.35,0A6.88,6.88,0,0,0,234.67,155.34Z"/><path class="cls-2" d="M249.36,146.64a7.51,7.51,0,0,1,5.84-3.38v4.41a5.45,5.45,0,0,0-3.69,1.49,6.93,6.93,0,0,0-2.15,4.88v10.85h-4.25v-21.1h4.25Z"/><path class="cls-2" d="M277.62,145.27v-1.48h4.26v21.12h-4.26v-2.64a9.64,9.64,0,0,1-7.14,3.18,11.67,11.67,0,1,1,0-23.34A9.66,9.66,0,0,1,277.62,145.27Zm0,10.07v-3.12a6.87,6.87,0,0,0-2-3.61,7.35,7.35,0,0,0-10.35,0,7.3,7.3,0,0,0,0,10.33,7.34,7.34,0,0,0,10.35,0A6.9,6.9,0,0,0,277.62,155.34Z"/><path class="cls-2" d="M313,142.07a11.68,11.68,0,1,1-8.24,3.42A11.25,11.25,0,0,1,313,142.07Zm-5.17,6.52a7.3,7.3,0,1,0,5.17-2.15A7.06,7.06,0,0,0,307.84,148.59Z"/><path class="cls-2" d="M77,198.46a14.18,14.18,0,0,1-5.65-3.34,7.28,7.28,0,0,1-2.16-5.36,7.68,7.68,0,0,1,13.1-5.41,9.42,9.42,0,0,1,2.14,3.91l-3.86,1.52a7.57,7.57,0,0,0-1.27-2.46,3.49,3.49,0,0,0-4.86,0,3.28,3.28,0,0,0-1,2.43,3.32,3.32,0,0,0,1,2.44,10.94,10.94,0,0,0,3.11,2,16.24,16.24,0,0,1,6.55,3.94,9.76,9.76,0,0,1,3,7.22,10.22,10.22,0,0,1-17.47,7.24,11.53,11.53,0,0,1-3-6.63l4.13-1.49q.39,3.63,1.9,5.14a6,6,0,1,0,8.49-8.51A12.4,12.4,0,0,0,77,198.46Z"/><path class="cls-2" d="M103.4,182.48l11.93,32.81h-4.51l-4.23-11.6H97.9l-4.21,11.6H89.16l11.94-32.81Zm1.66,17-2.81-7.69-2.79,7.69Z"/><path class="cls-2" d="M124.31,182.48,135,200.88l10.6-18.4h3.87v32.81h-4.24v-23.7L135,209.3l-10.28-17.71v23.7h-4.24V182.48Z"/><path class="cls-2" d="M174.64,182.48h4.27v23.11a11.48,11.48,0,0,1-3.27,6.69,11.16,11.16,0,0,1-19-7.88V182.48h4.27V204.4a6.89,6.89,0,0,0,13.78,0Z"/><path class="cls-2" d="M199.06,200.69h13.7v4.25h-13.7Z"/><path class="cls-2" d="M248.18,182.48v32.81h-4.25V188H240.8l4.3-5.54Z"/><path class="cls-2" d="M277.42,202.72q-1.82,2-6.05,2a9.56,9.56,0,0,1-7.05-2.81,11.67,11.67,0,0,1,16.49-16.51q3.29,3.3,3.3,9.17v.06A17.17,17.17,0,0,1,281,204.81a127.7,127.7,0,0,1-8.53,10.48h-5.58A88.12,88.12,0,0,0,277.42,202.72Zm2.47-9.1a7.32,7.32,0,1,0-2.15,5.16A7,7,0,0,0,279.89,193.62Z"/><path class="cls-2" d="M293.24,205l5.7-4.26a30.22,30.22,0,0,0,4.21-3.79,6.54,6.54,0,0,0,1.86-4.51,6,6,0,0,0-10.19-4.23c-1,1-1.63,2.72-1.87,5.17l-4.25-1.54a11.73,11.73,0,0,1,3.06-6.68,10.25,10.25,0,0,1,14.55,0,10,10,0,0,1,3,7.3,10.48,10.48,0,0,1-2.91,7.36,31.81,31.81,0,0,1-4.3,3.82l-5.44,4.09q-2.62,2-2.93,3.37h15.58v4.26H288.75Q289.89,207.45,293.24,205Z"/><path class="cls-2" d="M319.56,210.47a2.86,2.86,0,0,1,.87,2.1,3,3,0,1,1-.87-2.1Z"/></g></g></svg>