<svg xmlns="http://www.w3.org/2000/svg" viewBox="0 0 350 386.6"><defs><style>.cls-1{fill:#a30100;}.cls-2{fill:#fff;}</style></defs><g id="Layer_2" data-name="Layer 2"><g id="layout"><polygon id="_2" data-name="2" class="cls-1" points="0 386.6 300.23 386.6 350 193.65 300.23 0 0 0 47.85 193.65 0 386.6"/><path class="cls-2" d="M64.21,179.11V146.3h4.24v28.55H80.18v4.26Z"/><path class="cls-2" d="M89.68,150.2a3,3,0,0,1,0,4.22,3,3,0,0,1-4.21,0,3,3,0,0,1,0-4.22,3,3,0,0,1,4.21,0Zm0,7.81v21.1H85.45V158Z"/><path class="cls-2" d="M114.51,159.47V158h4.27V173.7q0,6.15-3.34,9.5a12.85,12.85,0,0,1-16.53,0,27.4,27.4,0,0,1-2.24-2.83l4.23-1.52c.54.65.91,1.08,1.1,1.27a7.1,7.1,0,0,0,5.17,2.13q5.07,0,7-6.64-2,3.85-6.83,3.85a11.39,11.39,0,0,1-8.26-3.32A10.91,10.91,0,0,1,95.69,168a11.64,11.64,0,0,1,11.67-11.67A9.66,9.66,0,0,1,114.51,159.47Zm0,6.87a6.79,6.79,0,0,0-2-3.53,7.29,7.29,0,0,0-10.34,0,7.32,7.32,0,0,0,10.34,10.36,6.83,6.83,0,0,0,2-3.49Z"/><path class="cls-2" d="M134,179.4a8.67,8.67,0,0,1-6.43-2.44,8.49,8.49,0,0,1-2.51-6.11V158h4.27v12.68a4.23,4.23,0,0,0,1.33,3.13,4.54,4.54,0,0,0,3.32,1.32,4.39,4.39,0,0,0,3.17-1.31,4.18,4.18,0,0,0,1.35-3.14V158h4.24v12.84a8.55,8.55,0,0,1-2.48,6.11A8.46,8.46,0,0,1,134,179.4Z"/><path class="cls-2" d="M155.41,174.34c.71.63,2,.94,3.87.94a7.11,7.11,0,0,0,5.19-2.13c.18-.19.54-.62,1.09-1.27l4.24,1.51a27.37,27.37,0,0,1-2.25,2.85,11.67,11.67,0,1,1-1-17.45c.34.29.68.6,1,.92l1.17,1.3-2.14,2.15Zm7.09-13.13a6,6,0,0,0-3.22-.55A7.31,7.31,0,0,0,152,168a6.18,6.18,0,0,0,.55,3.22Z"/><path class="cls-2" d="M193.49,176.49v9.72h-4.25V158h4.25v1.91a9.18,9.18,0,0,1,7.16-3.61,11.68,11.68,0,0,1,0,23.36A9.67,9.67,0,0,1,193.49,176.49Zm0-10.15v3.3a6.79,6.79,0,0,0,2,3.53,7.33,7.33,0,1,0,0-10.36A6.76,6.76,0,0,0,193.49,166.34Z"/><path class="cls-2" d="M235.74,159.49V158H240v21.13h-4.26v-2.65a9.66,9.66,0,0,1-7.14,3.18,11.67,11.67,0,1,1,0-23.34A9.67,9.67,0,0,1,235.74,159.49Zm0,10.07v-3.12a6.94,6.94,0,0,0-2-3.61,7.35,7.35,0,0,0-10.35,0,7.31,7.31,0,0,0,5.18,12.47,7.1,7.1,0,0,0,5.17-2.13A7,7,0,0,0,235.74,169.56Z"/><path class="cls-2" d="M250.42,160.86a7.54,7.54,0,0,1,5.84-3.38v4.41a5.41,5.41,0,0,0-3.69,1.5,6.89,6.89,0,0,0-2.15,4.88v10.84h-4.25V158h4.25Z"/><path class="cls-2" d="M278.68,159.49V158h4.26v21.13h-4.26v-2.65a9.64,9.64,0,0,1-7.14,3.18,11.67,11.67,0,0,1,0-23.34A9.66,9.66,0,0,1,278.68,159.49Zm0,10.07v-3.12a6.87,6.87,0,0,0-2-3.61,7.35,7.35,0,0,0-10.35,0,7.31,7.31,0,0,0,5.18,12.47,7.1,7.1,0,0,0,5.17-2.13A6.9,6.9,0,0,0,278.68,169.56Z"/><path class="cls-2" d="M314.07,156.29a11.68,11.68,0,1,1-8.24,3.42A11.25,11.25,0,0,1,314.07,156.29Zm-5.17,6.52a7.3,7.3,0,1,0,5.17-2.15A7.08,7.08,0,0,0,308.9,162.81Z"/><path class="cls-2" d="M78,212.68a14.28,14.28,0,0,1-5.65-3.33A7.31,7.31,0,0,1,70.23,204a7.68,7.68,0,0,1,13.1-5.41,9.29,9.29,0,0,1,2.13,3.92L81.61,204a7.8,7.8,0,0,0-1.27-2.46,3.49,3.49,0,0,0-4.86,0,3.44,3.44,0,0,0,0,4.87,10.94,10.94,0,0,0,3.11,2,16.24,16.24,0,0,1,6.55,3.94,9.76,9.76,0,0,1,3,7.22,10.22,10.22,0,0,1-17.47,7.24,11.53,11.53,0,0,1-3-6.62l4.13-1.5c.26,2.42.89,4.13,1.9,5.15a6,6,0,1,0,8.49-8.52A12.4,12.4,0,0,0,78,212.68Z"/><path class="cls-2" d="M104.45,196.7l11.94,32.82h-4.51l-4.23-11.61H99l-4.21,11.61H90.22l11.94-32.82Zm1.67,17L103.31,206l-2.79,7.69Z"/><path class="cls-2" d="M125.37,196.7,136,215.1l10.6-18.4h3.87v32.82h-4.24V205.81L136,223.53l-10.28-17.72v23.71H121.5V196.7Z"/><path class="cls-2" d="M175.7,196.7H180v23.12a11.42,11.42,0,0,1-3.26,6.68,11.16,11.16,0,0,1-19-7.87V196.7h4.27v21.93a6.89,6.89,0,0,0,13.78,0Z"/><path class="cls-2" d="M200.12,214.91h13.7v4.25h-13.7Z"/><path class="cls-2" d="M249.24,196.7v32.82H245V202.24h-3.13l4.3-5.54Z"/><path class="cls-2" d="M278.48,216.94c-1.21,1.32-3.23,2-6.05,2a9.53,9.53,0,0,1-7.05-2.81,11.67,11.67,0,0,1,16.49-16.51q3.28,3.32,3.3,9.17v.06A17.2,17.2,0,0,1,282,219a131.18,131.18,0,0,1-8.53,10.48h-5.58A88.65,88.65,0,0,0,278.48,216.94Zm2.46-9.1A7.29,7.29,0,1,0,278.8,213,7,7,0,0,0,280.94,207.84Z"/><path class="cls-2" d="M294.3,219.17l5.7-4.26a30.22,30.22,0,0,0,4.21-3.79,6.52,6.52,0,0,0,1.86-4.51,6,6,0,0,0-10.2-4.23c-1,1-1.62,2.72-1.86,5.17L289.76,206a11.73,11.73,0,0,1,3.06-6.68,10.25,10.25,0,0,1,14.55,0,10,10,0,0,1,3,7.3,10.48,10.48,0,0,1-2.91,7.36,31.14,31.14,0,0,1-4.3,3.82l-5.44,4.1q-2.62,2-2.93,3.36h15.58v4.27H289.8Q291,221.66,294.3,219.17Z"/><path class="cls-2" d="M320.62,224.7a2.82,2.82,0,0,1,.87,2.09,3,3,0,0,1-3,3,2.92,2.92,0,0,1-2.1-.86,2.87,2.87,0,0,1-.88-2.13,2.83,2.83,0,0,1,.88-2.09,2.89,2.89,0,0,1,2.1-.87A2.86,2.86,0,0,1,320.62,224.7Z"/></g></g></svg>