<svg xmlns="http://www.w3.org/2000/svg" viewBox="0 0 350 386.6"><defs><style>.cls-1{fill:#f20c0c;}.cls-2{fill:#fff;}</style></defs><g id="Layer_2" data-name="Layer 2"><g id="layout"><polygon id="_4" data-name="4" class="cls-1" points="0 386.6 300.23 386.6 350 193.65 300.23 0 0 0 47.85 193.65 0 386.6"/><path class="cls-2" d="M55.07,81.88a14.28,14.28,0,0,1-5.65-3.33,7.68,7.68,0,0,1,.08-10.76,7.68,7.68,0,0,1,10.86,0,9.36,9.36,0,0,1,2.13,3.92L58.64,73.2a7.8,7.8,0,0,0-1.27-2.46,3.49,3.49,0,0,0-4.86,0,3.44,3.44,0,0,0,0,4.87,11.17,11.17,0,0,0,3.11,2,16.17,16.17,0,0,1,6.55,3.93,9.76,9.76,0,0,1,3,7.22,10.22,10.22,0,0,1-17.47,7.24,11.53,11.53,0,0,1-3-6.62l4.12-1.5q.39,3.63,1.91,5.15a6,6,0,1,0,8.49-8.51A12.42,12.42,0,0,0,55.07,81.88Z"/><path class="cls-2" d="M75.86,93.94c.72.63,2,.94,3.88.94a7.13,7.13,0,0,0,5.19-2.13c.18-.19.54-.62,1.09-1.27L90.26,93A29.06,29.06,0,0,1,88,95.85,11.68,11.68,0,1,1,71.5,79.32,11.69,11.69,0,0,1,87,78.39c.34.29.68.6,1,.93.13.13.52.56,1.16,1.29L87,82.76ZM83,80.81a6,6,0,0,0-3.22-.55,7.31,7.31,0,0,0-7.3,7.32A6.05,6.05,0,0,0,73,90.8Z"/><path class="cls-2" d="M120.14,75.89a11.7,11.7,0,0,1,8.26,20,11.68,11.68,0,1,1-16.5-16.53A11.21,11.21,0,0,1,120.14,75.89ZM115,82.41a7.32,7.32,0,1,0,5.18-2.15A7.07,7.07,0,0,0,115,82.41Z"/><path class="cls-2" d="M151.25,65.9h4.27v14a5.6,5.6,0,0,1,5.17-3.42,6.67,6.67,0,0,1,5.4,2.43,9.45,9.45,0,0,1,2.08,6.1V98.72h-4.24V85.16a4.88,4.88,0,0,0-1-3.13,4,4,0,0,0-3.27-1.3,4.49,4.49,0,0,0-4.1,2.83V98.72h-4.27Z"/><path class="cls-2" d="M184.76,75.89a11.7,11.7,0,0,1,8.26,20,11.68,11.68,0,1,1-16.5-16.53A11.21,11.21,0,0,1,184.76,75.89Zm-5.18,6.52a7.32,7.32,0,1,0,5.18-2.15A7.07,7.07,0,0,0,179.58,82.41Z"/><path class="cls-2" d="M205.62,94.18a2.55,2.55,0,0,0,3.61-3.61A15.17,15.17,0,0,0,207,89a15.11,15.11,0,0,1-3.26-2.22,5.51,5.51,0,0,1-1.68-4,5.58,5.58,0,0,1,1.68-4.07A5.51,5.51,0,0,1,207.83,77a5.31,5.31,0,0,1,4,1.6,5.13,5.13,0,0,1,1.44,2.52l-4.13,1.19a2,2,0,0,0-.28-.68,1.38,1.38,0,0,0-1-.37,1.5,1.5,0,0,0-1.06,2.55A15,15,0,0,0,208.53,85a16.74,16.74,0,0,1,3.69,2.54,6.79,6.79,0,1,1-9.6,9.6,6.74,6.74,0,0,1-1.8-3.43l4.22-.9A2.62,2.62,0,0,0,205.62,94.18Z"/><path class="cls-2" d="M223.69,96.09v9.72h-4.25V77.61h4.25v1.91a9.16,9.16,0,0,1,7.15-3.61,11.68,11.68,0,1,1,0,23.36A9.65,9.65,0,0,1,223.69,96.09Zm0-10.15v3.3a6.74,6.74,0,0,0,2,3.53,7.33,7.33,0,1,0,0-10.36A6.77,6.77,0,0,0,223.69,85.94Z"/><path class="cls-2" d="M252.21,69.8a3,3,0,0,1,0,4.23,3,3,0,0,1-4.2,0,3,3,0,0,1,0-4.23,3,3,0,0,1,4.2,0Zm0,7.81V98.72H248V77.61Z"/><path class="cls-2" d="M261.3,77.61V69.7h4.24v7.91h3.8v4.25h-3.8V98.72H261.3V81.86h-3.8V77.61Z"/><path class="cls-2" d="M292.57,79.09V77.61h4.27V98.74h-4.27V96.09a9.64,9.64,0,0,1-7.14,3.18,11.67,11.67,0,0,1,0-23.34A9.7,9.7,0,0,1,292.57,79.09Zm0,10.07V86a6.9,6.9,0,0,0-2-3.61,7.3,7.3,0,1,0,0,10.34A6.87,6.87,0,0,0,292.57,89.16Z"/><path class="cls-2" d="M307.27,65.88V98.72H303V65.88Z"/><path class="cls-2" d="M89.11,132.24v16.9H84.85v-16.9H83V128h1.89V124.2a6.69,6.69,0,0,1,2-4.51,6.3,6.3,0,0,1,4.47-1.81,13.58,13.58,0,0,1,3.85.88l-1.41,4a8.72,8.72,0,0,0-2.28-.75,2.45,2.45,0,0,0-1.66.71,2.38,2.38,0,0,0-.72,1.62V128h3.8v4.25Z"/><path class="cls-2" d="M107.06,126.29a11.69,11.69,0,1,1-8.25,3.43A11.21,11.21,0,0,1,107.06,126.29Zm-5.18,6.52a7.32,7.32,0,1,0,5.18-2.15A7.07,7.07,0,0,0,101.88,132.81Z"/><path class="cls-2" d="M127.89,130.86a7.57,7.57,0,0,1,5.85-3.38v4.41a5.37,5.37,0,0,0-3.69,1.5,6.94,6.94,0,0,0-2.16,4.88v10.85h-4.24V128h4.24Z"/><path class="cls-2" d="M156.65,116.28v32.84h-4.27V116.28Z"/><path class="cls-2" d="M173.24,126.29a11.69,11.69,0,1,1-8.25,3.43A11.21,11.21,0,0,1,173.24,126.29Zm-5.18,6.52a7.3,7.3,0,1,0,5.18-2.15A7.08,7.08,0,0,0,168.06,132.81Z"/><path class="cls-2" d="M194.09,133.67v15.45h-4.26V128h4.26v2.46a5.2,5.2,0,0,1,5.35-3.6,6.72,6.72,0,0,1,5.45,2.43,9.45,9.45,0,0,1,2.08,6.1v13.72h-4.24V135.56a4.22,4.22,0,0,0-1.34-3.13,4.54,4.54,0,0,0-6.33,0A4.77,4.77,0,0,0,194.09,133.67Z"/><path class="cls-2" d="M231.5,129.47V128h4.26V143.7q0,6.15-3.34,9.5a12.85,12.85,0,0,1-16.53,0,27.73,27.73,0,0,1-2.23-2.83l4.22-1.52c.55.66.92,1.08,1.11,1.27a7.08,7.08,0,0,0,5.17,2.13q5.06,0,7-6.64c-1.33,2.57-3.6,3.86-6.83,3.86a11.36,11.36,0,0,1-8.25-3.33,10.92,10.92,0,0,1-3.42-8.16,11.68,11.68,0,0,1,11.67-11.67A9.68,9.68,0,0,1,231.5,129.47Zm0,6.87a6.9,6.9,0,0,0-2-3.53,7.31,7.31,0,1,0,0,10.36,6.87,6.87,0,0,0,2-3.49Z"/><path class="cls-2" d="M248.56,144.34c.71.63,2,.94,3.88.94a7.13,7.13,0,0,0,5.19-2.13c.17-.19.54-.62,1.08-1.27l4.25,1.51a27.25,27.25,0,0,1-2.26,2.86,11.67,11.67,0,1,1-1-17.46c.34.29.67.6,1,.93q.21.19,1.17,1.29l-2.13,2.15Zm7.1-13.13a6,6,0,0,0-3.22-.55,7.31,7.31,0,0,0-7.3,7.32,6.08,6.08,0,0,0,.55,3.22Z"/><path class="cls-2" d="M272.29,143.42l-4.74,9.84h-4l2.63-9.84Z"/><path class="cls-2" d="M82.72,199.52,72.65,178.41h4.8l6.34,13.7,6.36-13.7H95L84.86,199.52Z"/><path class="cls-2" d="M117.36,179.89v-1.48h4.27v21.13h-4.27v-2.65a9.64,9.64,0,0,1-7.13,3.18,11.67,11.67,0,1,1,0-23.34A9.65,9.65,0,0,1,117.36,179.89Zm0,10.07v-3.12a6.83,6.83,0,0,0-2-3.61,7.3,7.3,0,1,0,0,10.34A6.8,6.8,0,0,0,117.36,190Zm-6-19.3h5.17l-5.58,5.72h-4Z"/><path class="cls-2" d="M146.57,196.89v9.72h-4.25v-28.2h4.25v1.91a9.16,9.16,0,0,1,7.15-3.61,11.68,11.68,0,1,1,0,23.36A9.65,9.65,0,0,1,146.57,196.89Zm0-10.15V190a6.74,6.74,0,0,0,2,3.53,7.33,7.33,0,1,0,0-10.36A6.77,6.77,0,0,0,146.57,186.74Z"/><path class="cls-2" d="M188.81,179.89v-1.48h4.27v21.13h-4.27v-2.65a9.64,9.64,0,0,1-7.14,3.18,11.67,11.67,0,0,1,0-23.34A9.66,9.66,0,0,1,188.81,179.89Zm0,10.07v-3.12a6.83,6.83,0,0,0-2-3.61,7.3,7.3,0,1,0,0,10.34A6.8,6.8,0,0,0,188.81,190Z"/><path class="cls-2" d="M203.49,181.26a7.57,7.57,0,0,1,5.85-3.38v4.41a5.37,5.37,0,0,0-3.69,1.5,6.94,6.94,0,0,0-2.16,4.88v10.85h-4.24V178.41h4.24Z"/><path class="cls-2" d="M231.75,179.89v-1.48H236v21.13h-4.27v-2.65a9.64,9.64,0,0,1-7.13,3.18,11.67,11.67,0,1,1,0-23.34A9.65,9.65,0,0,1,231.75,179.89Zm0,10.07v-3.12a6.88,6.88,0,0,0-2-3.61,7.3,7.3,0,1,0,0,10.34A6.85,6.85,0,0,0,231.75,190Z"/><path class="cls-2" d="M275,179.89v-1.48h4.26v21.13H275v-2.65a9.66,9.66,0,0,1-7.14,3.18,11.67,11.67,0,1,1,0-23.34A9.67,9.67,0,0,1,275,179.89ZM275,190v-3.12a7,7,0,0,0-2-3.61,7.3,7.3,0,1,0,0,10.34A6.94,6.94,0,0,0,275,190Z"/><path class="cls-2" d="M108.63,217.1h4.26v23.12a11.45,11.45,0,0,1-3.26,6.68,11.16,11.16,0,0,1-19-7.87V217.1h4.26V239a6.9,6.9,0,0,0,13.79,0Z"/><path class="cls-2" d="M123.29,239.42v10.5H119V217.1h9.31a11.41,11.41,0,0,1,6.69,3.26,11.17,11.17,0,0,1-7.88,19.06Zm0-18v13.78h3.87a6.59,6.59,0,0,0,4.85-2,6.66,6.66,0,0,0,2-4.89,6.88,6.88,0,0,0-6.87-6.87Z"/><path class="cls-2" d="M152,217.1,164,249.92h-4.52l-4.22-11.61h-8.7l-4.2,11.61h-4.53l11.93-32.82Zm1.66,17-2.81-7.69-2.79,7.69Z"/><path class="cls-2" d="M182.58,228.81h4.24v2a4.65,4.65,0,0,1,4.74-3.09,3.56,3.56,0,0,1,3.92,3.52q1-3.53,5.53-3.52t4.47,5.43v16.8h-4.26V235.07q0-3.12-2.52-3.12a2.52,2.52,0,0,0-1.81.74c-.5.49-.76,2.15-.76,5v12.27h-4.24l0-14.85q0-3.12-2.55-3.12a2.52,2.52,0,0,0-1.8.74c-.44.42-.68,1.55-.74,3.36v13.87h-4.24Z"/><path class="cls-2" d="M230,230.29v-1.48h4.27v21.13H230v-2.65a9.64,9.64,0,0,1-7.14,3.18,11.67,11.67,0,0,1,0-23.34A9.7,9.7,0,0,1,230,230.29Zm0,10.07v-3.12a6.9,6.9,0,0,0-2-3.61A7.3,7.3,0,1,0,228,244,6.87,6.87,0,0,0,230,240.36Z"/><path class="cls-2" d="M245,221a3,3,0,0,1,0,4.23,3,3,0,0,1-4.2,0,3,3,0,0,1,0-4.23,3,3,0,0,1,4.2,0Zm0,7.81v21.11h-4.24V228.81Z"/><path class="cls-2" d="M255.75,245.38a2.55,2.55,0,0,0,4.35-1.82,2.42,2.42,0,0,0-.74-1.78,14.25,14.25,0,0,0-2.2-1.58A15.38,15.38,0,0,1,253.9,238a5.51,5.51,0,0,1-1.68-4,5.58,5.58,0,0,1,1.68-4.07,5.51,5.51,0,0,1,4.06-1.69,5.31,5.31,0,0,1,4,1.6,5.13,5.13,0,0,1,1.44,2.52l-4.13,1.19a2,2,0,0,0-.28-.68,1.38,1.38,0,0,0-1-.37A1.5,1.5,0,0,0,256.9,235a15,15,0,0,0,1.76,1.25,16.74,16.74,0,0,1,3.69,2.54,6.79,6.79,0,1,1-9.6,9.6A6.74,6.74,0,0,1,251,245l4.22-.9A2.62,2.62,0,0,0,255.75,245.38Z"/><path class="cls-2" d="M100.48,297.69v9.72H96.24v-28.2h4.24v1.91a9.22,9.22,0,0,1,7.16-3.61,11.68,11.68,0,1,1,0,23.36A9.69,9.69,0,0,1,100.48,297.69Zm0-10.15v3.3a6.82,6.82,0,0,0,2,3.53,7.33,7.33,0,1,0,0-10.36A6.86,6.86,0,0,0,100.48,287.54Z"/><path class="cls-2" d="M128.68,282.06a7.57,7.57,0,0,1,5.85-3.38v4.41a5.37,5.37,0,0,0-3.69,1.5,6.94,6.94,0,0,0-2.16,4.88v10.85h-4.24V279.21h4.24Z"/><path class="cls-2" d="M149.09,277.49a11.69,11.69,0,1,1-8.25,3.43A11.18,11.18,0,0,1,149.09,277.49ZM143.91,284a7.32,7.32,0,1,0,5.18-2.15A7.07,7.07,0,0,0,143.91,284Zm6.43-12.55h5.17l-5.58,5.72h-4Z"/><path class="cls-2" d="M181.18,279.21l-5.57,9.64,6.6,11.47h-4.9l-4.12-7.1-4.11,7.1h-4.94l6.63-11.47-5.56-9.64h4.9l3.08,5.27,3.05-5.27Z"/><path class="cls-2" d="M191.7,271.4a3,3,0,0,1,0,4.23,3,3,0,0,1-4.2,0,3,3,0,0,1,0-4.23,3,3,0,0,1,4.2,0Zm0,7.81v21.11h-4.24V279.21Z"/><path class="cls-2" d="M198.23,279.21h4.24v2a4.65,4.65,0,0,1,4.74-3.09,3.55,3.55,0,0,1,3.91,3.52q1-3.53,5.54-3.52t4.47,5.43v16.8h-4.26V285.47c0-2.08-.84-3.12-2.53-3.12a2.52,2.52,0,0,0-1.8.74c-.51.49-.76,2.15-.76,5v12.27h-4.24l0-14.85q0-3.12-2.55-3.12a2.5,2.5,0,0,0-1.8.74c-.44.42-.69,1.54-.74,3.36v13.87h-4.24Z"/><path class="cls-2" d="M245.6,280.69v-1.48h4.26v21.13H245.6v-2.65a9.64,9.64,0,0,1-7.14,3.18,11.67,11.67,0,0,1,0-23.34A9.7,9.7,0,0,1,245.6,280.69Zm0,10.07v-3.12a6.9,6.9,0,0,0-2-3.61,7.3,7.3,0,1,0,0,10.34A6.87,6.87,0,0,0,245.6,290.76Z"/><path class="cls-2" d="M259.35,295.5a2.82,2.82,0,0,1,.87,2.09,3,3,0,1,1-6,0,2.83,2.83,0,0,1,.88-2.09,2.88,2.88,0,0,1,2.1-.86A2.85,2.85,0,0,1,259.35,295.5Z"/></g></g></svg>