<svg xmlns="http://www.w3.org/2000/svg" viewBox="0 0 386.6 350">
  <g id="a195817c-f4dd-46c6-9b73-530c94c5e170" data-name="Camada 2">
    <g id="bf6832f3-6875-4c3c-b3b6-4b1c045f1a04" data-name="layout">
      <g>
        <polygon id="a1e783b5-b84f-4077-b6fa-ec6f64c72aaa" data-name="4" points="0 0 0 300.23 192.95 350 386.6 300.23 386.6 0 192.95 47.85 0 0" fill="#f20c0c"/>
        <g>
          <path d="M94.6,102.41A11.47,11.47,0,0,1,90,99.71,6.22,6.22,0,0,1,94.5,89.17,6,6,0,0,1,98.88,91a7.72,7.72,0,0,1,1.73,3.18l-3.12,1.22a6.19,6.19,0,0,0-1-2,2.73,2.73,0,0,0-2-.8,2.79,2.79,0,0,0-2,4.75A9,9,0,0,0,95,99a12.94,12.94,0,0,1,5.3,3.18,7.91,7.91,0,0,1,2.44,5.85,8.3,8.3,0,0,1-8.28,8.3,7.94,7.94,0,0,1-5.86-2.44,9.26,9.26,0,0,1-2.46-5.36l3.34-1.22a6.86,6.86,0,0,0,1.54,4.17,4.86,4.86,0,1,0,6.87-6.89A10,10,0,0,0,94.6,102.41Z" fill="#fff"/>
          <path d="M111.43,112.17a4.83,4.83,0,0,0,3.14.76,5.74,5.74,0,0,0,4.2-1.72c.14-.16.44-.5.88-1l3.43,1.22a21.66,21.66,0,0,1-1.82,2.31,9.44,9.44,0,1,1-.81-14.13q.4.36.81.75c.11.11.42.46.94,1l-1.72,1.74Zm5.74-10.63a4.8,4.8,0,0,0-2.6-.45,5.92,5.92,0,0,0-5.91,5.93,4.92,4.92,0,0,0,.45,2.61Z" fill="#fff"/>
          <path d="M147.27,97.56a9.46,9.46,0,1,1-6.67,2.77A9.1,9.1,0,0,1,147.27,97.56Zm-4.19,5.28a5.91,5.91,0,0,0,4.19,10.09,5.92,5.92,0,1,0-4.19-10.09Z" fill="#fff"/>
          <path d="M173.17,89.37h3v11.51a4.42,4.42,0,0,1,4.09-2.82,5.2,5.2,0,0,1,4.27,2,8,8,0,0,1,1.64,5v11.29h-3v-11a3.88,3.88,0,0,0-.86-2.53,3.33,3.33,0,0,0-2.72-1.06,3.76,3.76,0,0,0-3.42,2.29v12.27h-3Z" fill="#fff"/>
          <path d="M199.58,97.56a9.46,9.46,0,1,1-6.67,2.77A9.1,9.1,0,0,1,199.58,97.56Zm-4.19,5.28a5.9,5.9,0,1,0,4.19-1.75A5.72,5.72,0,0,0,195.39,102.84Z" fill="#fff"/>
          <path d="M216.47,112.37a2,2,0,0,0,1.46.59,2,2,0,0,0,2.06-2.07,2,2,0,0,0-.6-1.44,11.48,11.48,0,0,0-1.78-1.28,12.18,12.18,0,0,1-2.64-1.8,4.46,4.46,0,0,1-1.36-3.27A4.52,4.52,0,0,1,215,99.81a4.46,4.46,0,0,1,3.29-1.37,4.34,4.34,0,0,1,3.21,1.29,4.21,4.21,0,0,1,1.16,2l-3.34,1a1.55,1.55,0,0,0-.23-.55,1.09,1.09,0,0,0-.8-.3,1.14,1.14,0,0,0-.85.36,1.2,1.2,0,0,0,0,1.7,10.51,10.51,0,0,0,1.43,1,13.82,13.82,0,0,1,3,2.06,5.49,5.49,0,1,1-7.77,7.77,5.43,5.43,0,0,1-1.46-2.77l3.42-.73A2.09,2.09,0,0,0,216.47,112.37Z" fill="#fff"/>
          <path d="M231.17,113.91v7.46h-3v-23h3v2.13a7.18,7.18,0,0,1,5.72-2.92,9.45,9.45,0,0,1,0,18.9A7.53,7.53,0,0,1,231.17,113.91Zm0-8.22v2.68a5.5,5.5,0,0,0,1.61,2.85A5.7,5.7,0,0,0,237,113a6,6,0,0,0,4.11-1.69,5.72,5.72,0,0,0,1.78-4.24,5.89,5.89,0,0,0-2.49-4.85,5.09,5.09,0,0,0-2.41-1,5.81,5.81,0,0,0-5.21,1.67A5.5,5.5,0,0,0,231.17,105.69Z" fill="#fff"/>
          <path d="M254.19,92.63a2.3,2.3,0,0,1,.71,1.71,2.33,2.33,0,0,1-.71,1.71,2.43,2.43,0,0,1-3.41,0,2.33,2.33,0,0,1-.71-1.71,2.3,2.3,0,0,1,.71-1.71,2.43,2.43,0,0,1,3.41,0Zm0,6.74v17h-3v-17Z" fill="#fff"/>
          <path d="M262.17,99.37v-7h3v7h3v3h-3v14h-3v-14h-4v-3Z" fill="#fff"/>
          <path d="M287.17,100.15v-.78h3v17h-3v-2.46a9,9,0,0,1-6.09,2.57,9.45,9.45,0,1,1,6.09-16.33Zm0,8.15v-2.52a5.61,5.61,0,0,0-1.59-2.93,5.89,5.89,0,0,0-5.23-1.65,5.14,5.14,0,0,0-2.34,1,5.9,5.9,0,0,0-2.47,5.89,5,5,0,0,0,1,2.37,5.85,5.85,0,0,0,4.87,2.53,5.76,5.76,0,0,0,4.19-1.73A5.58,5.58,0,0,0,287.17,108.3Z" fill="#fff"/>
          <path d="M298.17,89.37v27h-3v-27Z" fill="#fff"/>
          <path d="M122.17,143.37v13h-3v-13h-2v-3h2v-3.7a3.65,3.65,0,0,1,1.16-3.66,5.16,5.16,0,0,1,3.62-1.46,10.84,10.84,0,0,1,3.12.72l-1.15,3.25a6.87,6.87,0,0,0-1.84-.61,2,2,0,0,0-1.34.58,3.3,3.3,0,0,0-.57,1.31v3.57h3v3Z" fill="#fff"/>
          <path d="M136.68,138.36a9.46,9.46,0,1,1-6.67,2.77A9.07,9.07,0,0,1,136.68,138.36Zm-4.19,5.28a5.89,5.89,0,1,0,4.19-1.75A5.69,5.69,0,0,0,132.49,143.64Z" fill="#fff"/>
          <path d="M153.17,141.68a6.53,6.53,0,0,1,5-2.74v3.57a4.82,4.82,0,0,0-3.16,1.21,5.51,5.51,0,0,0-1.84,3.95v8.7h-3v-17h3Z" fill="#fff"/>
          <path d="M176.17,130.37v27h-3v-27Z" fill="#fff"/>
          <path d="M190.25,138.36a9.46,9.46,0,1,1-6.67,2.77A9.1,9.1,0,0,1,190.25,138.36Zm-4.19,5.28a5.9,5.9,0,1,0,4.19-1.75A5.72,5.72,0,0,0,186.06,143.64Z" fill="#fff"/>
          <path d="M207.17,143.87v12.5h-3v-17h3v2a4,4,0,0,1,4.16-2.91,5.1,5.1,0,0,1,4.22,2,7.77,7.77,0,0,1,1.62,4.91v11.05h-3v-11a3.49,3.49,0,0,0-1.41-2.82,3.34,3.34,0,0,0-1.8-.74,3.66,3.66,0,0,0-3,1A3.93,3.93,0,0,0,207.17,143.87Z" fill="#fff"/>
          <path d="M237.17,140.93v-1.56h3v13.08a8,8,0,0,1-2,7.69,10.39,10.39,0,0,1-13.38,0,21.68,21.68,0,0,1-1.81-2.29l3.42-1.23c.44.53.74.87.89,1a5.75,5.75,0,0,0,4.19,1.73c2.73,0,4.62-1.8,5.67-5.38a5.69,5.69,0,0,1-5.52,3.12,9.26,9.26,0,0,1-6.69-2.69,8.87,8.87,0,0,1-2.76-6.61,9.42,9.42,0,0,1,9.45-9.44A7,7,0,0,1,237.17,140.93Zm0,5.56a5.93,5.93,0,0,0-2.3-3.48,5.08,5.08,0,0,0-2.43-1,6,6,0,0,0-6.9,6.89,5.23,5.23,0,0,0,1,2.36,5.86,5.86,0,0,0,5.17,2.52A5.93,5.93,0,0,0,235.6,152a5.5,5.5,0,0,0,1.57-2.8Z" fill="#fff"/>
          <path d="M251.23,153a4.83,4.83,0,0,0,3.14.76,5.74,5.74,0,0,0,4.2-1.72c.14-.16.44-.5.88-1l3.44,1.22a20.14,20.14,0,0,1-1.83,2.31,9.44,9.44,0,1,1-.81-14.13q.4.36.81.75c.11.11.43.46.95,1.05l-1.73,1.74ZM257,142.34a4.87,4.87,0,0,0-2.61-.45,5.94,5.94,0,0,0-5.91,5.93,4.92,4.92,0,0,0,.45,2.61Z" fill="#fff"/>
          <path d="M270.45,152.37l-3.85,8h-3.28l2.13-8Z" fill="#fff"/>
          <path d="M79.75,197.37l-8.11-17H75.5l5.11,11,5.12-11H89.6l-8.13,17Z" fill="#fff"/>
          <path d="M108.17,181.75v-1.38h3v17h-3v-1.86a9.31,9.31,0,0,1-6.16,2.57,9.45,9.45,0,0,1,0-18.89A9.34,9.34,0,0,1,108.17,181.75Zm0,8.15v-2.52a5.61,5.61,0,0,0-1.59-2.93,5.89,5.89,0,0,0-5.23-1.65,5.17,5.17,0,0,0-2.35,1,5.92,5.92,0,0,0-2.46,5.9,5,5,0,0,0,1,2.36,5.85,5.85,0,0,0,4.87,2.53,5.76,5.76,0,0,0,4.19-1.73A5.58,5.58,0,0,0,108.17,189.9Zm-5.29-15.53h4.52l-4.88,5H99Z" fill="#fff"/>
          <path d="M131.17,195.51v7.86h-3v-23h3v1.73c1.92-1.95,3.85-2.93,6.05-2.93a9.46,9.46,0,0,1,0,18.91A8.81,8.81,0,0,1,131.17,195.51Zm0-8.22V190a5.5,5.5,0,0,0,1.61,2.85,5.7,5.7,0,0,0,4.22,1.73,6,6,0,0,0,4.12-1.7,5.71,5.71,0,0,0,1.77-4.23,5.89,5.89,0,0,0-2.49-4.85,5.09,5.09,0,0,0-2.41-1,5.81,5.81,0,0,0-5.21,1.67A5.5,5.5,0,0,0,131.17,187.29Z" fill="#fff"/>
          <path d="M166.17,181.75v-1.38h3v17h-3v-1.86c-2.2,1.72-4.13,2.57-6.32,2.57a9.45,9.45,0,0,1,0-18.89A10.05,10.05,0,0,1,166.17,181.75Zm-1,8.15v-2.52a5.61,5.61,0,0,0-1.59-2.93,5.89,5.89,0,0,0-5.23-1.65,5.17,5.17,0,0,0-2.35,1,5.92,5.92,0,0,0-2.46,5.9,5,5,0,0,0,1,2.36,5.85,5.85,0,0,0,4.87,2.53,5.76,5.76,0,0,0,4.19-1.73A5.58,5.58,0,0,0,165.17,189.9Z" fill="#fff"/>
          <path d="M177.17,182.68a6.53,6.53,0,0,1,5-2.74v3.57a4.82,4.82,0,0,0-3.16,1.21,5.51,5.51,0,0,0-1.84,3.95v8.7h-3v-17h3Z" fill="#fff"/>
          <path d="M200.17,181.75v-1.38h3v17h-3v-1.86a7,7,0,0,1-5.56,2.57,9.45,9.45,0,0,1,0-18.89A7,7,0,0,1,200.17,181.75Zm0,8.15v-2.52a5.61,5.61,0,0,0-1.59-2.93,5.89,5.89,0,0,0-5.23-1.65,5.17,5.17,0,0,0-2.35,1,5.92,5.92,0,0,0-2.46,5.9,5,5,0,0,0,1,2.36,5.85,5.85,0,0,0,4.87,2.53,5.76,5.76,0,0,0,4.19-1.73A5.58,5.58,0,0,0,200.17,189.9Z" fill="#fff"/>
          <path d="M235.17,181.75v-1.38h3v17h-3v-1.86a7,7,0,0,1-5.55,2.57,9.45,9.45,0,0,1,0-18.89A7,7,0,0,1,235.17,181.75Zm0,8.15v-2.52a5.61,5.61,0,0,0-1.59-2.93,5.89,5.89,0,0,0-5.23-1.65,5.17,5.17,0,0,0-2.35,1,5.92,5.92,0,0,0-2.46,5.9,5,5,0,0,0,1,2.36,5.85,5.85,0,0,0,4.87,2.53,5.76,5.76,0,0,0,4.19-1.73A5.58,5.58,0,0,0,235.17,189.9Z" fill="#fff"/>
          <path d="M270.17,171.37h3v18.71a9.33,9.33,0,0,1-2.63,5.42,8.84,8.84,0,0,1-7.56,2.59,8.25,8.25,0,0,1-4.29-1.79,8.88,8.88,0,0,1-3.52-7.18V171.37h4v17.75a5.53,5.53,0,0,0,2.32,4.55,4.67,4.67,0,0,0,2.28,1,5.45,5.45,0,0,0,5.26-2.08,5.54,5.54,0,0,0,1.14-3.47Z" fill="#fff"/>
          <path d="M282.17,189.37v8h-3v-26h7a7.45,7.45,0,0,1,5.41,2.34,9.05,9.05,0,0,1,0,12.78,10,10,0,0,1-6.38,2.88Zm0-15v11h3.09a5.43,5.43,0,0,0,4.48-2.3,4.67,4.67,0,0,0,.94-2.23,5.47,5.47,0,0,0-2-5.29,5.53,5.53,0,0,0-3.53-1.18Z" fill="#fff"/>
          <path d="M305.36,170.37l9.82,27h-4.12l-3.27-9H301l-3.26,9h-4.13l9.82-27Zm1.33,14-2.28-6.22-2.25,6.22Z" fill="#fff"/>
          <path d="M87.17,221.37h3V223a3.75,3.75,0,0,1,3.81-2.5,2.87,2.87,0,0,1,3.15,2.85c.53-1.9,2-2.85,4.45-2.85s3.59,1.46,3.59,4.38v13.53h-3v-12q0-2.52-2-2.52a1.94,1.94,0,0,0-1.42.6q-.6.6-.6,4v9.92h-4l0-12q0-2.52-2-2.52a2,2,0,0,0-1.43.6,4.6,4.6,0,0,0-.58,2.72v11.22h-3Z" fill="#fff"/>
          <path d="M125.17,222.55v-1.18h3v17h-3v-2.06a7.74,7.74,0,0,1-5.76,2.57,9.45,9.45,0,0,1,0-18.89A7.76,7.76,0,0,1,125.17,222.55Zm0,8.15v-2.52a5.61,5.61,0,0,0-1.59-2.93,5.89,5.89,0,0,0-5.23-1.65,5.17,5.17,0,0,0-2.35,1,5.92,5.92,0,0,0-2.46,5.9,5,5,0,0,0,1,2.36,5.85,5.85,0,0,0,4.87,2.53,5.76,5.76,0,0,0,4.19-1.73A5.58,5.58,0,0,0,125.17,230.7Z" fill="#fff"/>
          <path d="M137.34,215a2.3,2.3,0,0,1,.71,1.71,2.33,2.33,0,0,1-.71,1.71,2.45,2.45,0,0,1-3.41,0,2.33,2.33,0,0,1-.71-1.71,2.3,2.3,0,0,1,.71-1.71,2.43,2.43,0,0,1,3.41,0Zm-.17,6.34v17h-3v-17Z" fill="#fff"/>
          <path d="M146.07,234.77a2,2,0,0,0,1.46.59,2.06,2.06,0,0,0,1.46-3.52,12.39,12.39,0,0,0-1.78-1.27,12.32,12.32,0,0,1-2.63-1.8,4.43,4.43,0,0,1-1.37-3.27,4.68,4.68,0,0,1,4.65-4.66,4.34,4.34,0,0,1,3.21,1.29,4.22,4.22,0,0,1,1.16,2l-3.34,1a1.55,1.55,0,0,0-.23-.55,1.09,1.09,0,0,0-.8-.3,1.14,1.14,0,0,0-.85.36,1.2,1.2,0,0,0,0,1.7,11.24,11.24,0,0,0,1.43,1,13.82,13.82,0,0,1,3,2.06,5.49,5.49,0,0,1,0,7.78,5.46,5.46,0,0,1-7.77,0,5.37,5.37,0,0,1-1.47-2.77l3.42-.73A2.09,2.09,0,0,0,146.07,234.77Z" fill="#fff"/>
          <path d="M172.17,236.31v8.06h-3v-23h3v1.53c1.94-2,3.87-2.93,6.07-2.93a9.46,9.46,0,0,1,0,18.91A8.89,8.89,0,0,1,172.17,236.31Zm0-8.22v2.68a5.5,5.5,0,0,0,1.61,2.85,5.7,5.7,0,0,0,4.22,1.73,6,6,0,0,0,4.12-1.7,5.71,5.71,0,0,0,1.77-4.23,5.89,5.89,0,0,0-2.49-4.85,5.09,5.09,0,0,0-2.41-1,5.81,5.81,0,0,0-5.21,1.67A5.5,5.5,0,0,0,172.17,228.09Z" fill="#fff"/>
          <path d="M195.17,223.68a6.53,6.53,0,0,1,5-2.74v3.57a4.82,4.82,0,0,0-3.16,1.21,5.51,5.51,0,0,0-1.84,3.95v8.7h-3v-17h3Z" fill="#fff"/>
          <path d="M211.79,220a9.46,9.46,0,1,1-6.67,2.77A9.1,9.1,0,0,1,211.79,220Zm-4.19,5.28a5.9,5.9,0,1,0,4.19-1.75A5.72,5.72,0,0,0,207.6,225.24Zm5.18-9.87h4.52l-4.87,5H208.9Z" fill="#fff"/>
          <path d="M237.74,221.37l-4.49,7.77,5.32,9.23h-3.95l-3.32-5.71-3.3,5.71h-4l5.33-9.23-4.48-7.77h3.95l2.48,4.25,2.46-4.25Z" fill="#fff"/>
          <path d="M246.29,215a2.27,2.27,0,0,1,.72,1.71,2.3,2.3,0,0,1-.72,1.71,2.44,2.44,0,0,1-3.4,0,2.3,2.3,0,0,1-.71-1.71,2.26,2.26,0,0,1,.71-1.71,2.41,2.41,0,0,1,3.4,0Zm-.12,6.34v17h-3v-17Z" fill="#fff"/>
          <path d="M252.17,221.37h3V223a3.75,3.75,0,0,1,3.81-2.5,2.87,2.87,0,0,1,3.15,2.85c.53-1.9,2-2.85,4.45-2.85s3.59,1.46,3.59,4.38v13.53h-4v-12q0-2.52-2-2.52a1.94,1.94,0,0,0-1.42.6q-.6.6-.6,4v9.92h-3l0-12q0-2.52-2-2.52a2,2,0,0,0-1.43.6,4.6,4.6,0,0,0-.58,2.72v11.22h-3Z" fill="#fff"/>
          <path d="M290.17,222.55v-1.18h3v17h-3v-2.06a8.75,8.75,0,0,1-6,2.57,9.45,9.45,0,0,1,0-18.89A8.78,8.78,0,0,1,290.17,222.55Zm0,8.15v-2.52a5.61,5.61,0,0,0-1.59-2.93,5.89,5.89,0,0,0-5.23-1.65,5.17,5.17,0,0,0-2.35,1,5.92,5.92,0,0,0-2.46,5.9,5,5,0,0,0,1,2.36,5.85,5.85,0,0,0,4.87,2.53,5.76,5.76,0,0,0,4.19-1.73A5.58,5.58,0,0,0,290.17,230.7Z" fill="#fff"/>
          <path d="M301.05,234.53a2.41,2.41,0,1,1-4.11,1.7,2.28,2.28,0,0,1,.72-1.7,2.43,2.43,0,0,1,3.39,0Z" fill="#fff"/>
        </g>
      </g>
    </g>
  </g>
</svg>
