<svg xmlns="http://www.w3.org/2000/svg" viewBox="0 0 350 386.6">
  <g id="a36e45a2-fedf-46c9-9702-405ecb9fff8f" data-name="Camada 2">
    <g id="a60d0d9a-b539-4353-b1e1-33fd5a380bce" data-name="layout">
      <g>
        <polygon id="f88c34d0-5941-47e5-99de-7a9b894c1fb1" data-name="2" points="0 386.6 300.23 386.6 350 193.65 300.23 0 0 0 47.85 193.65 0 386.6" fill="#820000"/>
        <g>
          <path d="M103.79,133.82h3.13l11,19v-19h3.45v26.57h-3l-11.11-19.2v19.2h-3.43Z" fill="#fff"/>
          <path d="M141.12,144.5v-1.2h3.46v17.1h-3.46v-2.14a7.77,7.77,0,0,1-5.77,2.57,9.45,9.45,0,1,1,0-18.89A7.8,7.8,0,0,1,141.12,144.5Zm0,8.15v-2.52a5.61,5.61,0,0,0-1.59-2.93,5.92,5.92,0,1,0,0,8.37A5.58,5.58,0,0,0,141.12,152.65Zm-5.48-15.09c.69.64,1.18,1,1.46,1v0c.34,0,.5-.22.5-.65a4.21,4.21,0,0,0-.21-1.14h3.09c-.43,2.43-1.24,3.82-2.45,4.18a3.26,3.26,0,0,1-.93.13,3.13,3.13,0,0,1-2.21-.94c-.66-.64-1.14-1-1.45-1h-.07c-.33,0-.5.24-.5.65a3.72,3.72,0,0,0,.23,1.09H130c.43-2.43,1.26-3.83,2.47-4.18a3.31,3.31,0,0,1,.93-.13A3.21,3.21,0,0,1,135.64,137.56Z" fill="#fff"/>
          <path d="M158,141.91a9.46,9.46,0,1,1-6.67,2.77A9.1,9.1,0,0,1,158,141.91Zm-4.19,5.28A5.91,5.91,0,0,0,158,157.28a5.92,5.92,0,1,0-4.19-10.09Z" fill="#fff"/>
          <path d="M185.28,143.3v-6.4h3.44v6.4h3.07v3.44h-3.07v13.65h-3.44V146.74h-3.07V143.3Z" fill="#fff"/>
          <path d="M204.24,141.91a9.46,9.46,0,1,1-6.67,2.77A9.07,9.07,0,0,1,204.24,141.91Zm-4.19,5.28a5.89,5.89,0,1,0,4.19-1.75A5.69,5.69,0,0,0,200.05,147.19Z" fill="#fff"/>
          <path d="M217.67,143.3h3.44v1.6a3.76,3.76,0,0,1,3.83-2.51,2.88,2.88,0,0,1,3.17,2.86c.55-1.91,2-2.86,4.49-2.86s3.62,1.47,3.62,4.4v13.6h-3.46v-12c0-1.69-.68-2.53-2-2.53a2,2,0,0,0-1.46.6c-.41.4-.61,1.74-.61,4v9.93h-3.44l0-12c0-1.69-.69-2.53-2.06-2.53a2,2,0,0,0-1.46.6c-.36.34-.56,1.25-.6,2.72v11.23h-3.44Z" fill="#fff"/>
          <path d="M246.53,156.52a4.8,4.8,0,0,0,3.13.76,5.74,5.74,0,0,0,4.2-1.72c.15-.16.44-.5.88-1l3.44,1.22a20.14,20.14,0,0,1-1.83,2.31,9.44,9.44,0,1,1-.81-14.13q.42.36.81.75c.11.11.43.46.95,1l-1.73,1.74Zm5.74-10.63a4.87,4.87,0,0,0-2.61-.45,5.94,5.94,0,0,0-5.91,5.93,4.92,4.92,0,0,0,.45,2.61Z" fill="#fff"/>
          <path d="M79.61,186.41a6.09,6.09,0,0,1,4.73-2.74v3.57a4.41,4.41,0,0,0-3,1.21,5.6,5.6,0,0,0-1.74,4v8.79H76.17V184.1h3.44Z" fill="#fff"/>
          <path d="M92.92,197.32a4.83,4.83,0,0,0,3.14.76,5.74,5.74,0,0,0,4.2-1.72c.14-.16.44-.5.88-1l3.43,1.22a21.66,21.66,0,0,1-1.82,2.31,9.44,9.44,0,1,1-.81-14.13l.81.75c.11.11.42.46.94,1.05L102,188.27Zm5.74-10.63a4.8,4.8,0,0,0-2.6-.45,5.92,5.92,0,0,0-5.91,5.93,4.92,4.92,0,0,0,.45,2.61Z" fill="#fff"/>
          <path d="M108.56,184.1H112v1.6a3.76,3.76,0,0,1,3.83-2.51,2.88,2.88,0,0,1,3.17,2.86c.54-1.91,2-2.86,4.48-2.86s3.62,1.47,3.62,4.4v13.6h-3.45v-12c0-1.69-.68-2.53-2-2.53a2,2,0,0,0-1.46.6c-.41.4-.62,1.74-.62,4v9.93H116.1v-12c0-1.69-.68-2.53-2.06-2.53a2,2,0,0,0-1.46.6c-.35.34-.55,1.25-.59,2.72v11.23h-3.44Z" fill="#fff"/>
          <path d="M137.41,197.32a4.83,4.83,0,0,0,3.14.76,5.74,5.74,0,0,0,4.2-1.72c.14-.16.44-.5.88-1l3.44,1.22a20.14,20.14,0,0,1-1.83,2.31,9.44,9.44,0,1,1-.81-14.13c.27.24.55.49.81.75.11.11.43.46.95,1.05l-1.73,1.74Zm5.75-10.63a4.87,4.87,0,0,0-2.61-.45,5.94,5.94,0,0,0-5.91,5.93,4.92,4.92,0,0,0,.45,2.61Zm-2.06-8.86h4.18l-4.51,4.63H137.5Z" fill="#fff"/>
          <path d="M167.88,185.28V174.62h3.45v26.57h-3.45v-2.13a7.82,7.82,0,0,1-5.8,2.57,9.46,9.46,0,0,1,0-18.92A7.86,7.86,0,0,1,167.88,185.28Zm0,8.17v-2.54a5.55,5.55,0,0,0-1.61-2.92,5.91,5.91,0,1,0,0,8.37A5.59,5.59,0,0,0,167.88,193.45Z" fill="#fff"/>
          <path d="M180,177.78a2.27,2.27,0,0,1,.72,1.71,2.3,2.3,0,0,1-.72,1.71,2.41,2.41,0,0,1-3.4,0,2.3,2.3,0,0,1-.72-1.71,2.27,2.27,0,0,1,.72-1.71,2.41,2.41,0,0,1,3.4,0Zm0,6.32v17.09h-3.44V184.1Z" fill="#fff"/>
          <path d="M193.74,182.71a9.46,9.46,0,1,1-6.67,2.77A9.07,9.07,0,0,1,193.74,182.71ZM189.55,188a5.89,5.89,0,1,0,4.19-1.75A5.69,5.69,0,0,0,189.55,188Z" fill="#fff"/>
          <path d="M210.63,197.52a2.09,2.09,0,0,0,2.91,0,2,2,0,0,0,.6-1.48,1.94,1.94,0,0,0-.59-1.44,11.48,11.48,0,0,0-1.78-1.28,12.18,12.18,0,0,1-2.64-1.8,4.42,4.42,0,0,1-1.36-3.27,4.66,4.66,0,0,1,4.65-4.66,4.32,4.32,0,0,1,3.2,1.29,4.06,4.06,0,0,1,1.16,2.05l-3.33,1a1.77,1.77,0,0,0-.23-.55,1.09,1.09,0,0,0-.8-.3,1.21,1.21,0,0,0-1.21,1.21,1.12,1.12,0,0,0,.35.85,10.89,10.89,0,0,0,1.42,1,13.93,13.93,0,0,1,3,2.06,5.52,5.52,0,0,1,0,7.78,5.47,5.47,0,0,1-7.78,0,5.39,5.39,0,0,1-1.46-2.77l3.42-.73A2.09,2.09,0,0,0,210.63,197.52Z" fill="#fff"/>
          <path d="M237,199.06v7.87h-3.44V184.1H237v1.55a7.42,7.42,0,0,1,5.79-2.92,9.45,9.45,0,0,1,0,18.9A7.8,7.8,0,0,1,237,199.06Zm0-8.22v2.68a5.43,5.43,0,0,0,1.61,2.85,5.94,5.94,0,1,0,0-8.38A5.43,5.43,0,0,0,237,190.84Z" fill="#fff"/>
          <path d="M264.85,182.71a9.46,9.46,0,1,1-6.68,2.77A9.07,9.07,0,0,1,264.85,182.71Zm-4.2,5.28a5.9,5.9,0,1,0,4.2-1.75A5.72,5.72,0,0,0,260.65,188Z" fill="#fff"/>
          <path d="M281.71,186.41a6.11,6.11,0,0,1,4.73-2.74v3.57a4.39,4.39,0,0,0-3,1.21,5.65,5.65,0,0,0-1.75,4v8.79h-3.43V184.1h3.43Z" fill="#fff"/>
          <path d="M83,236.13l3.43,1.22a21.66,21.66,0,0,1-1.82,2.31,9.46,9.46,0,1,1,0-13.38,25.2,25.2,0,0,1,1.82,2.28L83,229.82c-.45-.55-.74-.89-.9-1a5.91,5.91,0,1,0,0,8.38C82.23,237,82.52,236.66,83,236.13Z" fill="#fff"/>
          <path d="M98.84,223.51a9.46,9.46,0,1,1-6.68,2.77A9.07,9.07,0,0,1,98.84,223.51Zm-4.19,5.28A5.89,5.89,0,1,0,98.84,227,5.69,5.69,0,0,0,94.65,228.79Z" fill="#fff"/>
          <path d="M115.72,229.48V242h-3.45V224.9h3.45v2a4.22,4.22,0,0,1,4.34-2.93,5.44,5.44,0,0,1,4.4,2,7.72,7.72,0,0,1,1.69,4.94V242h-3.44V231a3.41,3.41,0,0,0-1.08-2.53,3.68,3.68,0,0,0-5.13,0A3.76,3.76,0,0,0,115.72,229.48Z" fill="#fff"/>
          <path d="M133.25,224.9v-6.41h3.44v6.41h3.07v3.44h-3.07V242h-3.44V228.34h-3.07V224.9Z" fill="#fff"/>
          <path d="M158.57,226.1v-1.2H162V242h-3.45v-2.14a7.79,7.79,0,0,1-5.78,2.57,9.45,9.45,0,0,1,0-18.89A7.82,7.82,0,0,1,158.57,226.1Zm0,8.15v-2.52A5.61,5.61,0,0,0,157,228.8a6,6,0,0,0-8.38,0,5.92,5.92,0,0,0,4.19,10.1,5.76,5.76,0,0,0,4.19-1.73A5.58,5.58,0,0,0,158.57,234.25Z" fill="#fff"/>
          <path d="M182.21,239.86v7.87h-3.44V224.9h3.44v1.55a7.44,7.44,0,0,1,5.8-2.93,9.46,9.46,0,0,1,0,18.91A7.81,7.81,0,0,1,182.21,239.86Zm0-8.22v2.68a5.5,5.5,0,0,0,1.61,2.85,5.94,5.94,0,1,0,0-8.38A5.5,5.5,0,0,0,182.21,231.64Z" fill="#fff"/>
          <path d="M205,227.21a6.09,6.09,0,0,1,4.73-2.74V228a4.41,4.41,0,0,0-3,1.21A5.6,5.6,0,0,0,205,233.2V242H201.6V224.9H205Z" fill="#fff"/>
          <path d="M221.56,223.51a9.46,9.46,0,1,1-6.68,2.77A9.07,9.07,0,0,1,221.56,223.51Zm-4.2,5.28a5.92,5.92,0,0,0,8.39,8.36,5.91,5.91,0,0,0,0-8.36,5.9,5.9,0,0,0-8.39,0Zm5.21-10.16h4.18l-4.51,4.63H219Z" fill="#fff"/>
          <path d="M238.42,239.86v7.87H235V224.9h3.43v1.55a7.45,7.45,0,0,1,5.8-2.93,9.46,9.46,0,0,1,0,18.91A7.82,7.82,0,0,1,238.42,239.86Zm0-8.22v2.68a5.5,5.5,0,0,0,1.61,2.85,5.94,5.94,0,1,0,0-8.38A5.5,5.5,0,0,0,238.42,231.64Z" fill="#fff"/>
          <path d="M261.25,227.21a6.11,6.11,0,0,1,4.73-2.74V228a4.43,4.43,0,0,0-3,1.21,5.68,5.68,0,0,0-1.74,3.95V242h-3.44V224.9h3.44Z" fill="#fff"/>
          <path d="M273.35,218.58a2.27,2.27,0,0,1,.72,1.71,2.3,2.3,0,0,1-.72,1.71,2.41,2.41,0,0,1-4.11-1.71,2.3,2.3,0,0,1,.71-1.71,2.41,2.41,0,0,1,3.4,0Zm0,6.32V242h-3.44V224.9Z" fill="#fff"/>
          <path d="M293.44,226.1v-1.2h3.45V242h-3.45v-2.14a7.78,7.78,0,0,1-5.78,2.57,9.45,9.45,0,0,1,0-18.89A7.8,7.8,0,0,1,293.44,226.1Zm0,8.15v-2.52a5.61,5.61,0,0,0-1.59-2.93,5.92,5.92,0,1,0,0,8.37A5.58,5.58,0,0,0,293.44,234.25Z" fill="#fff"/>
          <path d="M304.57,238.08a2.41,2.41,0,1,1-4.11,1.7,2.28,2.28,0,0,1,.72-1.7,2.43,2.43,0,0,1,3.39,0Z" fill="#fff"/>
        </g>
      </g>
    </g>
  </g>
</svg>
