<svg xmlns="http://www.w3.org/2000/svg" viewBox="0 0 350 386.6">
  <g id="e0293c22-5e1a-4775-a700-da432dd4451d" data-name="Camada 2">
    <g id="a7c8fa96-8c81-4f84-8ff2-275921be5531" data-name="layout">
      <g>
        <polygon id="b28406f3-3871-4606-acb9-28182cd706b2" data-name="3" points="0 386.6 300.23 386.6 350 193.65 300.23 0 0 0 47.85 193.65 0 386.6" fill="#cc0001"/>
        <text transform="translate(149.65 116.43)" font-size="34" fill="#fff" font-family="CaviarDreams-Bold, Caviar Dreams" font-weight="700" letter-spacing="-0.01em">S<tspan x="17.82" y="0" letter-spacing="-0.03em">e o </tspan><tspan letter-spacing="-0.03em"><tspan x="-77.53" y="40.8">S</tspan><tspan x="-60.18" y="40.8" letter-spacing="-0.03em">A</tspan><tspan x="-38.45" y="40.8" letter-spacing="-0.02em">M</tspan><tspan x="-9.02" y="40.8" letter-spacing="-0.03em">U </tspan><tspan x="24.08" y="40.8" letter-spacing="-0.03em">d</tspan><tspan x="46.22" y="40.8" letter-spacing="-0.05em">e</tspan><tspan x="65.55" y="40.8" letter-spacing="-0.03em">mo</tspan><tspan x="108.74" y="40.8" letter-spacing="-0.05em">r</tspan><tspan x="118.62" y="40.8" letter-spacing="-0.03em">a</tspan><tspan x="140.74" y="40.8" letter-spacing="-0.06em">r</tspan><tspan x="150.22" y="40.8" letter-spacing="-0.03em">,</tspan></tspan><tspan letter-spacing="-0.07em"><tspan x="-90.9" y="81.6">v</tspan><tspan x="-73.54" y="81.6" letter-spacing="-0.02em">รก </tspan><tspan x="-40.22" y="81.6" letter-spacing="-0.03em">a</tspan><tspan x="-18.08" y="81.6" letter-spacing="-0.02em">o </tspan><tspan x="13.86" y="81.6" letter-spacing="-0.02em">H</tspan><tspan x="33.25" y="81.6" letter-spacing="-0.03em">O</tspan><tspan x="63.63" y="81.6" letter-spacing="-0.01em">S</tspan><tspan x="81.66" y="81.6" letter-spacing="-0.02em">P</tspan><tspan x="99.83" y="81.6" letter-spacing="-0.03em">I</tspan><tspan x="108.06" y="81.6" letter-spacing="-0.09em">T</tspan><tspan x="122.53" y="81.6" letter-spacing="-0.02em">A</tspan><tspan x="144.69" y="81.6" letter-spacing="-0.02em">L </tspan></tspan><tspan letter-spacing="-0.04em"><tspan x="-72.5" y="122.4">m</tspan><tspan x="-50.4" y="122.4" letter-spacing="-0.04em">a</tspan><tspan x="-28.4" y="122.4" letter-spacing="-0.05em">i</tspan><tspan x="-21.2" y="122.4" letter-spacing="-0.03em">s </tspan><tspan x="3.5" y="122.4" letter-spacing="-0.03em">p</tspan><tspan x="25.14" y="122.4" letter-spacing="-0.05em">e</tspan><tspan x="44.47" y="122.4" letter-spacing="-0.02em">r</tspan><tspan x="55.21" y="122.4" letter-spacing="-0.05em">t</tspan><tspan x="66.18" y="122.4" letter-spacing="-0.02em">o </tspan><tspan x="98.11" y="122.4" letter-spacing="-0.04em">d</tspan><tspan x="119.94" y="122.4" letter-spacing="-0.02em">a </tspan></tspan><tspan letter-spacing="-0.05em"><tspan x="-33.51" y="163.2">s</tspan><tspan x="-20.46" y="163.2" letter-spacing="-0.05em">u</tspan><tspan x="-2.71" y="163.2" letter-spacing="-0.02em">a </tspan><tspan x="30.6" y="163.2" letter-spacing="-0.05em">c</tspan><tspan x="49.74" y="163.2" letter-spacing="-0.05em">a</tspan><tspan x="71.39" y="163.2" letter-spacing="-0.05em">s</tspan><tspan x="84.33" y="163.2" letter-spacing="-0.02em">a</tspan><tspan x="106.98" y="163.2" letter-spacing="-0.02em">.</tspan></tspan></text>
      </g>
    </g>
  </g>
</svg>
