<svg xmlns="http://www.w3.org/2000/svg" viewBox="0 0 350 386.6">
  <g id="bbce2d5a-f884-4604-a5fc-d75d9bfa0ea5" data-name="Camada 2">
    <g id="b750f7f0-4438-4d60-8708-98189fcf57e7" data-name="layout">
      <g>
        <polygon id="be1432a9-9770-43bf-b036-dfb352d60a70" data-name="2" points="0 386.6 300.23 386.6 350 193.65 300.23 0 0 0 47.85 193.65 0 386.6" fill="#820000"/>
        <g>
          <path d="M103.79,136.23h3.13l11,19v-19h3.45v26.56h-3L107.22,143.6v19.19h-3.43Z" fill="#fff"/>
          <path d="M141.12,146.91v-1.2h3.46v17.1h-3.46v-2.14a7.82,7.82,0,0,1-5.78,2.57,9.45,9.45,0,1,1,0-18.89A7.8,7.8,0,0,1,141.12,146.91Zm0,8.15v-2.53a5.62,5.62,0,0,0-1.59-2.92,5.92,5.92,0,1,0,0,8.37A5.58,5.58,0,0,0,141.12,155.06ZM135.64,140c.69.64,1.18,1,1.46,1v0c.34,0,.5-.22.5-.65a4.34,4.34,0,0,0-.21-1.15h3.08c-.42,2.44-1.23,3.83-2.44,4.19a3.31,3.31,0,0,1-.93.13,3.14,3.14,0,0,1-2.21-.95c-.66-.63-1.14-.94-1.45-.94h-.07c-.33,0-.5.24-.5.64a3.71,3.71,0,0,0,.23,1.1H130c.43-2.43,1.25-3.83,2.47-4.18a3.33,3.33,0,0,1,.93-.14A3.22,3.22,0,0,1,135.64,140Z" fill="#fff"/>
          <path d="M158,144.32a9.46,9.46,0,1,1-6.67,2.77A9.11,9.11,0,0,1,158,144.32Zm-4.19,5.28a5.89,5.89,0,1,0,4.19-1.75A5.69,5.69,0,0,0,153.83,149.6Z" fill="#fff"/>
          <path d="M185.28,145.71V139.3h3.44v6.41h3.07v3.44h-3.07v13.64h-3.44V149.15h-3.07v-3.44Z" fill="#fff"/>
          <path d="M204.24,144.32a9.47,9.47,0,1,1-6.67,2.77A9.07,9.07,0,0,1,204.24,144.32Zm-4.19,5.28a5.89,5.89,0,1,0,4.19-1.75A5.69,5.69,0,0,0,200.05,149.6Z" fill="#fff"/>
          <path d="M217.67,145.71h3.44v1.59a3.75,3.75,0,0,1,3.83-2.5,2.87,2.87,0,0,1,3.17,2.85c.55-1.9,2-2.85,4.49-2.85s3.62,1.46,3.62,4.4v13.59h-3.46v-12q0-2.52-2-2.52a2,2,0,0,0-1.46.6c-.41.4-.61,1.74-.61,4v9.92h-3.44l0-12c0-1.68-.69-2.52-2.06-2.52a2,2,0,0,0-1.46.6c-.36.34-.56,1.25-.6,2.72v11.22h-3.44Z" fill="#fff"/>
          <path d="M246.53,158.93a4.86,4.86,0,0,0,3.13.76,5.75,5.75,0,0,0,4.2-1.73c.15-.15.44-.5.88-1l3.44,1.23a22.19,22.19,0,0,1-1.83,2.31,9.44,9.44,0,1,1-.81-14.13,9.47,9.47,0,0,1,.81.75c.11.11.43.46.95,1l-1.73,1.75Zm5.74-10.63a4.87,4.87,0,0,0-2.61-.45,5.94,5.94,0,0,0-5.91,5.93,4.92,4.92,0,0,0,.45,2.61Z" fill="#fff"/>
          <path d="M79.61,188.82a6.09,6.09,0,0,1,4.73-2.74v3.57a4.36,4.36,0,0,0-3,1.21,5.58,5.58,0,0,0-1.74,3.95v8.78H76.17V186.51h3.44Z" fill="#fff"/>
          <path d="M92.92,199.73a4.89,4.89,0,0,0,3.14.76,5.75,5.75,0,0,0,4.2-1.73c.14-.15.44-.5.88-1l3.43,1.23a24.07,24.07,0,0,1-1.82,2.31,9.45,9.45,0,1,1-.82-14.13c.28.23.55.48.82.75.11.11.42.46.94,1L102,190.68Zm5.74-10.63a4.8,4.8,0,0,0-2.6-.45,5.92,5.92,0,0,0-5.91,5.93,4.92,4.92,0,0,0,.45,2.61Z" fill="#fff"/>
          <path d="M108.56,186.51H112v1.59a3.75,3.75,0,0,1,3.83-2.5,2.88,2.88,0,0,1,3.17,2.85c.54-1.9,2-2.85,4.48-2.85s3.62,1.46,3.62,4.4v13.59h-3.45v-12q0-2.52-2-2.52a2,2,0,0,0-1.46.6c-.41.4-.62,1.74-.62,4v9.92H116.1v-12c0-1.68-.68-2.52-2.06-2.52a2,2,0,0,0-1.46.6c-.35.34-.55,1.25-.59,2.72v11.22h-3.44Z" fill="#fff"/>
          <path d="M137.41,199.73a4.89,4.89,0,0,0,3.14.76,5.75,5.75,0,0,0,4.2-1.73c.14-.15.44-.5.88-1l3.44,1.23a22.19,22.19,0,0,1-1.83,2.31,9.44,9.44,0,1,1-.81-14.13q.4.35.81.75c.11.11.43.46.95,1l-1.73,1.75Zm5.75-10.63a4.87,4.87,0,0,0-2.61-.45,5.94,5.94,0,0,0-5.91,5.93,4.92,4.92,0,0,0,.45,2.61Zm-2.06-8.86h4.18l-4.51,4.63H137.5Z" fill="#fff"/>
          <path d="M167.88,187.69V177h3.45v26.56h-3.45v-2.12a7.86,7.86,0,0,1-5.8,2.57,9.46,9.46,0,0,1,0-18.92A7.82,7.82,0,0,1,167.88,187.69Zm0,8.17v-2.54a5.51,5.51,0,0,0-1.61-2.92,5.92,5.92,0,1,0-8.38,8.36,5.94,5.94,0,0,0,8.38,0A5.53,5.53,0,0,0,167.88,195.86Z" fill="#fff"/>
          <path d="M180,180.19a2.27,2.27,0,0,1,.72,1.71,2.3,2.3,0,0,1-.72,1.71,2.44,2.44,0,0,1-3.4,0,2.3,2.3,0,0,1-.72-1.71,2.27,2.27,0,0,1,.72-1.71,2.41,2.41,0,0,1,3.4,0Zm0,6.32v17.08h-3.44V186.51Z" fill="#fff"/>
          <path d="M193.74,185.12a9.47,9.47,0,1,1-6.67,2.77A9.07,9.07,0,0,1,193.74,185.12Zm-4.19,5.28a5.89,5.89,0,1,0,4.19-1.75A5.69,5.69,0,0,0,189.55,190.4Z" fill="#fff"/>
          <path d="M210.63,199.92a2.06,2.06,0,0,0,3.51-1.47,2,2,0,0,0-.59-1.45,13,13,0,0,0-1.78-1.28,11.86,11.86,0,0,1-2.64-1.79,4.65,4.65,0,0,1,3.29-7.93,4.32,4.32,0,0,1,3.2,1.29,4.07,4.07,0,0,1,1.16,2l-3.33,1a1.52,1.52,0,0,0-.24-.55,1,1,0,0,0-.79-.3,1.21,1.21,0,0,0-1.21,1.21,1.16,1.16,0,0,0,.34.85,12.42,12.42,0,0,0,1.43,1,13.58,13.58,0,0,1,3,2.06,5.49,5.49,0,1,1-7.77,7.77,5.39,5.39,0,0,1-1.46-2.77l3.42-.73A2.09,2.09,0,0,0,210.63,199.92Z" fill="#fff"/>
          <path d="M237,201.47v7.87h-3.43V186.51H237v1.54a7.49,7.49,0,0,1,5.8-2.92,9.46,9.46,0,0,1,0,18.91A7.87,7.87,0,0,1,237,201.47Zm0-8.22v2.67a5.44,5.44,0,0,0,1.62,2.86,5.92,5.92,0,1,0,4.18-10.13,5.63,5.63,0,0,0-4.18,1.75A5.45,5.45,0,0,0,237,193.25Z" fill="#fff"/>
          <path d="M264.85,185.12a9.46,9.46,0,1,1-6.68,2.77A9.09,9.09,0,0,1,264.85,185.12Zm-4.2,5.28a5.9,5.9,0,1,0,4.2-1.75A5.72,5.72,0,0,0,260.65,190.4Z" fill="#fff"/>
          <path d="M281.71,188.82a6.11,6.11,0,0,1,4.73-2.74v3.57a4.34,4.34,0,0,0-3,1.21,5.63,5.63,0,0,0-1.75,3.95v8.78h-3.43V186.51h3.43Z" fill="#fff"/>
          <path d="M83,238.53l3.43,1.23a24.07,24.07,0,0,1-1.82,2.31,9.46,9.46,0,1,1,0-13.38A23.26,23.26,0,0,1,86.4,231L83,232.22c-.45-.54-.74-.89-.9-1A5.92,5.92,0,0,0,72,235.38a5.92,5.92,0,0,0,5.91,5.91,5.79,5.79,0,0,0,4.2-1.73C82.23,239.41,82.52,239.06,83,238.53Z" fill="#fff"/>
          <path d="M98.84,225.92a9.46,9.46,0,1,1-6.68,2.77A9.07,9.07,0,0,1,98.84,225.92Zm-4.19,5.28a5.89,5.89,0,1,0,4.19-1.75A5.69,5.69,0,0,0,94.65,231.2Z" fill="#fff"/>
          <path d="M115.72,231.89v12.5h-3.45V227.31h3.45v2a4.21,4.21,0,0,1,4.33-2.92,5.44,5.44,0,0,1,4.41,2,7.72,7.72,0,0,1,1.69,4.94v11.1h-3.44v-11a3.4,3.4,0,0,0-1.08-2.53,3.67,3.67,0,0,0-5.13,0A3.93,3.93,0,0,0,115.72,231.89Z" fill="#fff"/>
          <path d="M133.25,227.31V220.9h3.44v6.41h3.07v3.44h-3.07v13.64h-3.44V230.75h-3.07v-3.44Z" fill="#fff"/>
          <path d="M158.57,228.51v-1.2H162v17.1h-3.45v-2.14a7.83,7.83,0,0,1-5.78,2.57,9.45,9.45,0,1,1,0-18.89A7.82,7.82,0,0,1,158.57,228.51Zm0,8.15v-2.53a5.62,5.62,0,0,0-1.59-2.92,6,6,0,0,0-8.38,0,5.92,5.92,0,0,0,4.19,10.1,5.76,5.76,0,0,0,4.19-1.73A5.62,5.62,0,0,0,158.57,236.66Z" fill="#fff"/>
          <path d="M182.21,242.27v7.87h-3.44V227.31h3.44v1.54a7.45,7.45,0,0,1,5.79-2.92,9.46,9.46,0,1,1,0,18.91A7.84,7.84,0,0,1,182.21,242.27Zm0-8.22v2.67a5.48,5.48,0,0,0,1.61,2.86A5.93,5.93,0,1,0,188,229.45a5.65,5.65,0,0,0-4.18,1.75A5.5,5.5,0,0,0,182.21,234.05Z" fill="#fff"/>
          <path d="M205,229.62a6.09,6.09,0,0,1,4.73-2.74v3.57a4.36,4.36,0,0,0-3,1.21,5.58,5.58,0,0,0-1.74,4v8.78H201.6V227.31H205Z" fill="#fff"/>
          <path d="M221.56,225.92a9.46,9.46,0,1,1-6.68,2.77A9.07,9.07,0,0,1,221.56,225.92Zm-4.2,5.28a5.92,5.92,0,0,0,8.39,8.36,5.92,5.92,0,1,0-8.39-8.36ZM222.57,221h4.18l-4.51,4.64H219Z" fill="#fff"/>
          <path d="M238.42,242.27v7.87H235V227.31h3.43v1.54a7.47,7.47,0,0,1,5.8-2.92,9.46,9.46,0,0,1,0,18.91A7.86,7.86,0,0,1,238.42,242.27Zm0-8.22v2.67a5.48,5.48,0,0,0,1.61,2.86,5.93,5.93,0,0,0,8.38-8.38,5.89,5.89,0,0,0-8.38,0A5.5,5.5,0,0,0,238.42,234.05Z" fill="#fff"/>
          <path d="M261.25,229.62a6.11,6.11,0,0,1,4.73-2.74v3.57a4.38,4.38,0,0,0-3,1.21,5.62,5.62,0,0,0-1.74,4v8.78h-3.44V227.31h3.44Z" fill="#fff"/>
          <path d="M273.35,221a2.27,2.27,0,0,1,.72,1.71,2.3,2.3,0,0,1-.72,1.71,2.44,2.44,0,0,1-3.4,0,2.3,2.3,0,0,1-.71-1.71A2.26,2.26,0,0,1,270,221a2.41,2.41,0,0,1,3.4,0Zm0,6.32v17.08h-3.44V227.31Z" fill="#fff"/>
          <path d="M293.44,228.51v-1.2h3.45v17.1h-3.45v-2.14a7.82,7.82,0,0,1-5.78,2.57,9.45,9.45,0,1,1,0-18.89A7.8,7.8,0,0,1,293.44,228.51Zm0,8.15v-2.53a5.62,5.62,0,0,0-1.59-2.92,5.92,5.92,0,1,0,0,8.37A5.62,5.62,0,0,0,293.44,236.66Z" fill="#fff"/>
          <path d="M304.57,240.49a2.41,2.41,0,1,1-4.11,1.7,2.28,2.28,0,0,1,.72-1.7,2.4,2.4,0,0,1,3.39,0Z" fill="#fff"/>
        </g>
      </g>
    </g>
  </g>
</svg>
