<svg xmlns="http://www.w3.org/2000/svg" viewBox="0 0 350 386.6">
  <g id="bde2c499-cb0a-4e02-a63b-cf27ed5bcdfd" data-name="Camada 2">
    <g id="ec7db447-9f80-4241-bf87-2a0ae344fdee" data-name="layout">
      <g>
        <polygon id="b94dc6d7-0a5e-4411-a46d-728c663e1a15" data-name="2" points="0 386.6 300.23 386.6 350 193.65 300.23 0 0 0 47.85 193.65 0 386.6" fill="#a30100"/>
        <g>
          <path d="M81,179.11V152.55h3.44v23.11h9.49v3.45Z" fill="#fff"/>
          <path d="M101.62,155.71a2.3,2.3,0,0,1,.71,1.71,2.33,2.33,0,0,1-.71,1.71,2.45,2.45,0,0,1-3.41,0,2.33,2.33,0,0,1-.71-1.71,2.3,2.3,0,0,1,.71-1.71,2.43,2.43,0,0,1,3.41,0Zm0,6.32v17.08H98.2V162Z" fill="#fff"/>
          <path d="M121.72,163.21V162h3.46v12.7c0,3.32-.91,5.88-2.71,7.69a10.39,10.39,0,0,1-13.38,0,21.68,21.68,0,0,1-1.81-2.29l3.42-1.23c.44.53.74.87.9,1a5.71,5.71,0,0,0,4.18,1.72q4.09,0,5.68-5.37a5.72,5.72,0,0,1-5.53,3.12,9.24,9.24,0,0,1-6.68-2.69,8.86,8.86,0,0,1-2.77-6.61,9.46,9.46,0,0,1,9.45-9.45A7.86,7.86,0,0,1,121.72,163.21Zm0,5.56a5.55,5.55,0,0,0-1.6-2.85,5.88,5.88,0,0,0-8.37,0,5.92,5.92,0,0,0,8.37,8.38,5.54,5.54,0,0,0,1.6-2.82Z" fill="#fff"/>
          <path d="M137.46,179.35a7,7,0,0,1-5.21-2,6.9,6.9,0,0,1-2-5V162h3.46v10.26a3.42,3.42,0,0,0,1.07,2.54,3.68,3.68,0,0,0,2.69,1.06,3.58,3.58,0,0,0,2.57-1,3.43,3.43,0,0,0,1.09-2.55V162h3.43v10.39a6.82,6.82,0,0,1-7.07,6.93Z" fill="#fff"/>
          <path d="M154.83,175.25A4.8,4.8,0,0,0,158,176a5.71,5.71,0,0,0,4.2-1.73c.15-.15.44-.49.88-1l3.44,1.23a21.12,21.12,0,0,1-1.83,2.31,9.44,9.44,0,1,1-.81-14.13c.28.24.55.48.81.75.11.11.43.46.95,1.05l-1.73,1.74Zm5.74-10.63a4.87,4.87,0,0,0-2.61-.45,5.94,5.94,0,0,0-5.91,5.93,4.92,4.92,0,0,0,.45,2.61Z" fill="#fff"/>
          <path d="M185.65,177v7.87h-3.43V162h3.43v1.55a7.47,7.47,0,0,1,5.8-2.93,9.46,9.46,0,0,1,0,18.91A7.84,7.84,0,0,1,185.65,177Zm0-8.22v2.67a5.44,5.44,0,0,0,1.62,2.86,5.92,5.92,0,1,0,4.18-10.13,5.63,5.63,0,0,0-4.18,1.75A5.45,5.45,0,0,0,185.65,168.77Z" fill="#fff"/>
          <path d="M219.85,163.23V162h3.46v17.1h-3.46V177a7.77,7.77,0,0,1-5.77,2.57,9.45,9.45,0,0,1,0-18.89A7.8,7.8,0,0,1,219.85,163.23Zm0,8.15v-2.52a5.61,5.61,0,0,0-1.59-2.93,5.93,5.93,0,0,0-10.11,4.19,5.94,5.94,0,0,0,5.93,5.91,5.74,5.74,0,0,0,4.18-1.73A5.58,5.58,0,0,0,219.85,171.38Z" fill="#fff"/>
          <path d="M231.74,164.34a6.11,6.11,0,0,1,4.73-2.74v3.57a4.43,4.43,0,0,0-3,1.21,5.64,5.64,0,0,0-1.74,4v8.78H228.3V162h3.44Z" fill="#fff"/>
          <path d="M254.62,163.23V162h3.45v17.1h-3.45V177a7.79,7.79,0,0,1-5.78,2.57,9.45,9.45,0,0,1,0-18.89A7.82,7.82,0,0,1,254.62,163.23Zm0,8.15v-2.52a5.55,5.55,0,0,0-1.6-2.93,5.92,5.92,0,1,0,0,8.37A5.53,5.53,0,0,0,254.62,171.38Z" fill="#fff"/>
          <path d="M283.27,160.64a9.46,9.46,0,1,1-6.67,2.77A9.07,9.07,0,0,1,283.27,160.64Zm-4.19,5.28a5.89,5.89,0,1,0,4.19-1.75A5.69,5.69,0,0,0,279.08,165.92Z" fill="#fff"/>
          <path d="M92.2,206.28a11.64,11.64,0,0,1-4.58-2.69,6.22,6.22,0,0,1,4.48-10.54,6,6,0,0,1,4.38,1.81A7.67,7.67,0,0,1,98.21,198l-3.12,1.23a6.08,6.08,0,0,0-1-2,2.73,2.73,0,0,0-2-.8,2.79,2.79,0,0,0-2,4.75,8.71,8.71,0,0,0,2.53,1.64,13.1,13.1,0,0,1,5.29,3.19,8.28,8.28,0,1,1-11.7,11.71,9.29,9.29,0,0,1-2.46-5.37l3.34-1.21a6.86,6.86,0,0,0,1.54,4.17,4.86,4.86,0,1,0,6.87-6.89A10.13,10.13,0,0,0,92.2,206.28Z" fill="#fff"/>
          <path d="M113.58,193.35l9.66,26.56h-3.65l-3.42-9.39h-7l-3.4,9.39h-3.67l9.66-26.56Zm1.34,13.73-2.27-6.22-2.26,6.22Z" fill="#fff"/>
          <path d="M130.51,193.35l8.62,14.89,8.58-14.89h3.14v26.56h-3.44V200.72l-8.28,14.35-8.32-14.35v19.19h-3.43V193.35Z" fill="#fff"/>
          <path d="M171.25,193.35h3.46v18.71a9.29,9.29,0,0,1-2.64,5.41,9,9,0,0,1-15.43-6.37V193.35h3.46V211.1a5.58,5.58,0,1,0,11.15,0Z" fill="#fff"/>
          <path d="M191,208.09h11.09v3.44H191Z" fill="#fff"/>
          <path d="M230.79,193.35v26.56h-3.44V197.83h-2.54l3.49-4.48Z" fill="#fff"/>
          <path d="M254.46,209.74c-1,1.06-2.62,1.59-4.9,1.59a7.77,7.77,0,0,1-5.71-2.27,9.45,9.45,0,0,1,13.35-13.37,10.14,10.14,0,0,1,2.67,7.42v0a13.84,13.84,0,0,1-2.54,8.27,103.44,103.44,0,0,1-6.9,8.48h-4.52A72,72,0,0,0,254.46,209.74Zm2-7.37a5.91,5.91,0,1,0-1.73,4.18A5.71,5.71,0,0,0,256.45,202.37Z" fill="#fff"/>
          <path d="M267.26,211.54l4.62-3.45a24.07,24.07,0,0,0,3.41-3.07,5.28,5.28,0,0,0,1.5-3.65,4.63,4.63,0,0,0-1.42-3.42,4.84,4.84,0,0,0-6.83,0,6.82,6.82,0,0,0-1.51,4.18l-3.44-1.24a9.49,9.49,0,0,1,2.48-5.41,8.29,8.29,0,0,1,11.77,0,8,8,0,0,1,2.44,5.91,8.48,8.48,0,0,1-2.36,6,26.59,26.59,0,0,1-3.48,3.1L270,213.74c-1.41,1-2.21,2-2.37,2.72h12.62v3.45H263.62C264.24,215.68,265.46,212.88,267.26,211.54Z" fill="#fff"/>
          <path d="M288.57,216a2.41,2.41,0,0,1-1.7,4.12,2.41,2.41,0,0,1-1.7-4.12,2.44,2.44,0,0,1,3.4,0Z" fill="#fff"/>
        </g>
      </g>
    </g>
  </g>
</svg>
