<svg xmlns="http://www.w3.org/2000/svg" viewBox="0 0 350 386.6"><defs><style>.cls-1{fill:#cc0001;}.cls-2{font-size:34px;fill:#fff;font-family:CaviarDreams-Bold, Caviar Dreams;font-weight:700;letter-spacing:-0.01em;}.cls-3{letter-spacing:-0.03em;}.cls-4{letter-spacing:-0.03em;}.cls-5{letter-spacing:-0.03em;}.cls-6{letter-spacing:-0.02em;}.cls-7{letter-spacing:-0.05em;}.cls-8{letter-spacing:-0.03em;}.cls-9{letter-spacing:-0.05em;}.cls-10{letter-spacing:-0.03em;}.cls-11{letter-spacing:-0.06em;}.cls-12{letter-spacing:-0.07em;}.cls-13{letter-spacing:-0.02em;}.cls-14{letter-spacing:-0.03em;}.cls-15{letter-spacing:-0.02em;}.cls-16{letter-spacing:-0.03em;}.cls-17{letter-spacing:-0.01em;}.cls-18{letter-spacing:-0.02em;}.cls-19{letter-spacing:-0.03em;}.cls-20{letter-spacing:-0.09em;}.cls-21{letter-spacing:-0.02em;}.cls-22{letter-spacing:-0.04em;}.cls-23{letter-spacing:-0.04em;}.cls-24{letter-spacing:-0.05em;}.cls-25{letter-spacing:-0.03em;}.cls-26{letter-spacing:-0.02em;}.cls-27{letter-spacing:-0.05em;}.cls-28{letter-spacing:-0.04em;}.cls-29{letter-spacing:-0.05em;}.cls-30{letter-spacing:-0.05em;}.cls-31{letter-spacing:-0.05em;}.cls-32{letter-spacing:-0.05em;}.cls-33{letter-spacing:-0.05em;}.cls-34{letter-spacing:-0.02em;}</style></defs><g id="Camada_2" data-name="Camada 2"><g id="layout"><polygon id="_3" data-name="3" class="cls-1" points="0 386.6 300.23 386.6 350 193.65 300.23 0 0 0 47.85 193.65 0 386.6"/><text class="cls-2" transform="translate(149.65 116.79)">S<tspan class="cls-3" x="17.82" y="0">e o </tspan><tspan class="cls-4"><tspan x="-77.53" y="40.8">S</tspan><tspan class="cls-5" x="-60.18" y="40.8">A</tspan><tspan class="cls-6" x="-38.45" y="40.8">M</tspan><tspan class="cls-3" x="-9.02" y="40.8">U </tspan><tspan class="cls-5" x="24.08" y="40.8">d</tspan><tspan class="cls-7" x="46.22" y="40.8">e</tspan><tspan class="cls-8" x="65.55" y="40.8">mo</tspan><tspan class="cls-9" x="108.74" y="40.8">r</tspan><tspan class="cls-10" x="118.62" y="40.8">a</tspan><tspan class="cls-11" x="140.74" y="40.8">r</tspan><tspan class="cls-3" x="150.22" y="40.8">,</tspan></tspan><tspan class="cls-12"><tspan x="-90.9" y="81.6">v</tspan><tspan class="cls-13" x="-73.54" y="81.6">รก </tspan><tspan class="cls-14" x="-40.22" y="81.6">a</tspan><tspan class="cls-13" x="-18.08" y="81.6">o </tspan><tspan class="cls-15" x="13.86" y="81.6">H</tspan><tspan class="cls-16" x="33.25" y="81.6">O</tspan><tspan class="cls-17" x="63.63" y="81.6">S</tspan><tspan class="cls-18" x="81.66" y="81.6">P</tspan><tspan class="cls-19" x="99.83" y="81.6">I</tspan><tspan class="cls-20" x="108.06" y="81.6">T</tspan><tspan class="cls-21" x="122.53" y="81.6">A</tspan><tspan class="cls-13" x="144.69" y="81.6">L </tspan></tspan><tspan class="cls-22"><tspan x="-72.5" y="122.4">m</tspan><tspan class="cls-23" x="-50.4" y="122.4">a</tspan><tspan class="cls-24" x="-28.4" y="122.4">i</tspan><tspan class="cls-3" x="-21.2" y="122.4">s </tspan><tspan class="cls-25" x="3.5" y="122.4">p</tspan><tspan class="cls-7" x="25.14" y="122.4">e</tspan><tspan class="cls-26" x="44.47" y="122.4">r</tspan><tspan class="cls-27" x="55.21" y="122.4">t</tspan><tspan class="cls-13" x="66.18" y="122.4">o </tspan><tspan class="cls-28" x="98.11" y="122.4">d</tspan><tspan class="cls-13" x="119.94" y="122.4">a </tspan></tspan><tspan class="cls-29"><tspan x="-33.51" y="163.2">s</tspan><tspan class="cls-30" x="-20.46" y="163.2">u</tspan><tspan class="cls-13" x="-2.71" y="163.2">a </tspan><tspan class="cls-31" x="30.6" y="163.2">c</tspan><tspan class="cls-32" x="49.74" y="163.2">a</tspan><tspan class="cls-33" x="71.39" y="163.2">s</tspan><tspan class="cls-34" x="84.33" y="163.2">a</tspan><tspan class="cls-13" x="106.98" y="163.2">.</tspan></tspan></text></g></g></svg>