<svg xmlns="http://www.w3.org/2000/svg" viewBox="0 0 350 386.6"><defs><style>.cls-1{fill:#a30100;}.cls-2{fill:#fff;}</style></defs><g id="Camada_2" data-name="Camada 2"><g id="layout"><polygon id="_2" data-name="2" class="cls-1" points="0 386.6 300.23 386.6 350 193.65 300.23 0 0 0 47.85 193.65 0 386.6"/><path class="cls-2" d="M81,181.52V155h3.44v23.11h9.49v3.45Z"/><path class="cls-2" d="M101.62,158.11a2.33,2.33,0,0,1,.71,1.71,2.3,2.3,0,0,1-.71,1.71,2.43,2.43,0,0,1-3.41,0,2.3,2.3,0,0,1-.71-1.71,2.33,2.33,0,0,1,.71-1.71,2.45,2.45,0,0,1,3.41,0Zm0,6.33v17.08H98.2V164.44Z"/><path class="cls-2" d="M121.72,165.62v-1.18h3.46v12.7c0,3.32-.91,5.88-2.71,7.69a10.39,10.39,0,0,1-13.38,0,21.68,21.68,0,0,1-1.81-2.29l3.42-1.23c.44.53.74.87.9,1a5.71,5.71,0,0,0,4.18,1.72q4.09,0,5.68-5.38a5.72,5.72,0,0,1-5.53,3.12,9.23,9.23,0,0,1-6.68-2.68,8.86,8.86,0,0,1-2.77-6.61,9.46,9.46,0,0,1,9.45-9.45A7.83,7.83,0,0,1,121.72,165.62Zm0,5.56a6,6,0,0,0-5.78-4.6,5.93,5.93,0,1,0,4.18,10.13,5.54,5.54,0,0,0,1.6-2.82Z"/><path class="cls-2" d="M137.46,181.75a7,7,0,0,1-5.21-2,6.92,6.92,0,0,1-2-4.95V164.44h3.46V174.7a3.44,3.44,0,0,0,1.07,2.54,3.68,3.68,0,0,0,2.69,1.06,3.58,3.58,0,0,0,2.57-1.05,3.45,3.45,0,0,0,1.09-2.55V164.44h3.43v10.39a6.9,6.9,0,0,1-2,4.95A6.82,6.82,0,0,1,137.46,181.75Z"/><path class="cls-2" d="M154.83,177.65a4.79,4.79,0,0,0,3.13.77,5.75,5.75,0,0,0,4.2-1.73c.15-.15.44-.5.88-1l3.44,1.23a22.19,22.19,0,0,1-1.83,2.31,9.45,9.45,0,1,1-.81-14.13,9.47,9.47,0,0,1,.81.75c.11.11.43.46.95,1l-1.73,1.75ZM160.57,167a4.87,4.87,0,0,0-2.61-.45,5.94,5.94,0,0,0-5.91,5.93,4.85,4.85,0,0,0,.45,2.6Z"/><path class="cls-2" d="M185.65,179.4v7.87h-3.43V164.44h3.43V166a7.49,7.49,0,0,1,5.8-2.92,9.46,9.46,0,0,1,0,18.91A7.87,7.87,0,0,1,185.65,179.4Zm0-8.22v2.67a5.47,5.47,0,0,0,1.62,2.86,5.94,5.94,0,1,0,0-8.39A5.51,5.51,0,0,0,185.65,171.18Z"/><path class="cls-2" d="M219.85,165.63v-1.19h3.46v17.1h-3.46V179.4a7.81,7.81,0,0,1-5.77,2.57,9.45,9.45,0,1,1,0-18.89A7.83,7.83,0,0,1,219.85,165.63Zm0,8.16v-2.53a5.58,5.58,0,0,0-1.59-2.92,5.93,5.93,0,0,0-8.37,0,5.92,5.92,0,0,0,8.37,8.37A5.62,5.62,0,0,0,219.85,173.79Z"/><path class="cls-2" d="M231.74,166.75a6.11,6.11,0,0,1,4.73-2.74v3.57a4.38,4.38,0,0,0-3,1.21,5.62,5.62,0,0,0-1.74,4v8.78H228.3V164.44h3.44Z"/><path class="cls-2" d="M254.62,165.63v-1.19h3.45v17.1h-3.45V179.4a7.83,7.83,0,0,1-5.78,2.57,9.45,9.45,0,1,1,0-18.89A7.85,7.85,0,0,1,254.62,165.63Zm0,8.16v-2.53a5.53,5.53,0,0,0-1.6-2.92,5.91,5.91,0,1,0,0,8.37A5.56,5.56,0,0,0,254.62,173.79Z"/><path class="cls-2" d="M283.27,163a9.47,9.47,0,1,1-6.67,2.78A9.08,9.08,0,0,1,283.27,163Zm-4.19,5.28a5.72,5.72,0,0,0-1.73,4.19,5.65,5.65,0,0,0,1.73,4.18,5.94,5.94,0,0,0,8.38,0,5.66,5.66,0,0,0,1.74-4.18,5.93,5.93,0,0,0-10.12-4.19Z"/><path class="cls-2" d="M92.2,208.69a11.54,11.54,0,0,1-4.58-2.7,6.19,6.19,0,0,1,.07-8.7,6.22,6.22,0,0,1,8.79,0,7.6,7.6,0,0,1,1.73,3.17l-3.12,1.23a6.08,6.08,0,0,0-1-2,2.73,2.73,0,0,0-2-.8,2.69,2.69,0,0,0-2,.81,2.65,2.65,0,0,0-.81,2,2.69,2.69,0,0,0,.81,2,8.92,8.92,0,0,0,2.53,1.64,13.1,13.1,0,0,1,5.29,3.19,7.88,7.88,0,0,1,2.44,5.84,8.27,8.27,0,0,1-14.14,5.86,9.23,9.23,0,0,1-2.46-5.36l3.34-1.21a6.86,6.86,0,0,0,1.54,4.17A4.87,4.87,0,0,0,97,214.3a4.64,4.64,0,0,0-1.43-3.43A10,10,0,0,0,92.2,208.69Z"/><path class="cls-2" d="M113.58,195.76l9.66,26.56h-3.65l-3.42-9.39h-7l-3.4,9.39h-3.67l9.66-26.56Zm1.34,13.73-2.27-6.23-2.26,6.23Z"/><path class="cls-2" d="M130.51,195.76l8.62,14.89,8.58-14.89h3.14v26.56h-3.44V203.13l-8.28,14.34-8.32-14.34v19.19h-3.43V195.76Z"/><path class="cls-2" d="M171.25,195.76h3.46v18.71a9.29,9.29,0,0,1-2.64,5.41,9,9,0,0,1-15.43-6.37V195.76h3.46v17.75a5.58,5.58,0,1,0,11.15,0Z"/><path class="cls-2" d="M191,210.5h11.09v3.44H191Z"/><path class="cls-2" d="M230.79,195.76v26.56h-3.44V200.24h-2.54l3.49-4.48Z"/><path class="cls-2" d="M254.46,212.15c-1,1.06-2.62,1.59-4.9,1.59a7.74,7.74,0,0,1-5.71-2.28A9.44,9.44,0,0,1,257.2,198.1a10.12,10.12,0,0,1,2.67,7.42v0a13.86,13.86,0,0,1-2.54,8.27,103.44,103.44,0,0,1-6.9,8.48h-4.52A72,72,0,0,0,254.46,212.15Zm2-7.38a5.89,5.89,0,1,0-1.73,4.19A5.71,5.71,0,0,0,256.45,204.77Z"/><path class="cls-2" d="M267.26,214l4.62-3.45a24.07,24.07,0,0,0,3.41-3.07,5.28,5.28,0,0,0,1.5-3.65,4.63,4.63,0,0,0-1.42-3.42,4.84,4.84,0,0,0-6.83,0,6.82,6.82,0,0,0-1.51,4.18l-3.44-1.24a9.55,9.55,0,0,1,2.48-5.42,8.32,8.32,0,0,1,14.21,5.9,8.5,8.5,0,0,1-2.36,6,26.54,26.54,0,0,1-3.48,3.09L270,216.15c-1.41,1-2.21,2-2.37,2.72h12.62v3.45H263.62Q264.55,216,267.26,214Z"/><path class="cls-2" d="M288.57,218.42a2.3,2.3,0,0,1,.7,1.69,2.41,2.41,0,1,1-4.1-1.69,2.41,2.41,0,0,1,3.4,0Z"/></g></g></svg>