<svg xmlns="http://www.w3.org/2000/svg" viewBox="0 0 386.6 350"><defs><style>.cls-1{fill:#cc0001;}.cls-2{fill:#fff;}</style></defs><g id="Layer_2" data-name="Layer 2"><g id="layout"><polygon id="_3" data-name="3" class="cls-1" points="0 0 0 300.23 192.95 350 386.6 300.23 386.6 0 192.95 47.85 0 0"/><path class="cls-2" d="M154.9,79.08a14.21,14.21,0,0,1-5.65-3.33,7.68,7.68,0,0,1,5.52-13A7.44,7.44,0,0,1,160.19,65a9.42,9.42,0,0,1,2.13,3.91l-3.86,1.52a7.19,7.19,0,0,0-1.27-2.46,3.49,3.49,0,0,0-4.86,0,3.46,3.46,0,0,0,0,4.87,10.86,10.86,0,0,0,3.12,2A16.2,16.2,0,0,1,162,78.79,9.76,9.76,0,0,1,165,86a10.23,10.23,0,0,1-17.48,7.24,11.46,11.46,0,0,1-3-6.63l4.12-1.49q.39,3.63,1.91,5.14A6,6,0,0,0,159,81.76,12.5,12.5,0,0,0,154.9,79.08Z"/><path class="cls-2" d="M175,91.14c.71.62,2,.94,3.87.94A7.09,7.09,0,0,0,184.08,90c.18-.19.54-.62,1.09-1.28l4.25,1.52A27,27,0,0,1,187.16,93a11.68,11.68,0,0,1-16.51-16.53,11.71,11.71,0,0,1,15.5-.92c.35.29.68.6,1,.92.14.14.53.57,1.17,1.3L186.2,80ZM182.11,78a6,6,0,0,0-3.22-.55,7.32,7.32,0,0,0-7.3,7.32,6.05,6.05,0,0,0,.56,3.22Z"/><path class="cls-2" d="M217.19,73.09a11.7,11.7,0,0,1,8.26,20A11.68,11.68,0,0,1,209,76.51,11.24,11.24,0,0,1,217.19,73.09ZM212,79.61a7.3,7.3,0,1,0,5.17-2.15A7,7,0,0,0,212,79.61Z"/><path class="cls-2" d="M59.62,129.48A14.25,14.25,0,0,1,54,126.14a7.27,7.27,0,0,1-2.16-5.36,7.68,7.68,0,0,1,13.1-5.41,9.4,9.4,0,0,1,2.14,3.92l-3.86,1.51a7.48,7.48,0,0,0-1.27-2.46,3.49,3.49,0,0,0-4.86,0,3.44,3.44,0,0,0,0,4.87,10.86,10.86,0,0,0,3.12,2,16.2,16.2,0,0,1,6.54,3.94,9.76,9.76,0,0,1,3,7.22,10.22,10.22,0,0,1-17.47,7.24,11.46,11.46,0,0,1-3-6.63l4.12-1.49q.39,3.63,1.9,5.14a6,6,0,0,0,8.5-8.51A12.55,12.55,0,0,0,59.62,129.48Z"/><path class="cls-2" d="M84.77,113.5,96.7,146.31H92.19L88,134.71h-8.7l-4.2,11.6H70.54L82.47,113.5Zm1.66,17-2.81-7.69-2.79,7.69Z"/><path class="cls-2" d="M104.19,113.5l10.64,18.4,10.6-18.4h3.88v32.81h-4.25v-23.7l-10.23,17.72-10.27-17.72v23.7h-4.25V113.5Z"/><path class="cls-2" d="M153.59,113.5h4.26v23.11a11.53,11.53,0,0,1-3.26,6.69,11.16,11.16,0,0,1-19.05-7.88V113.5h4.26v21.92a6.9,6.9,0,1,0,13.79,0Z"/><path class="cls-2" d="M194.74,126.67V113.5H199v32.81h-4.26v-2.62a9.67,9.67,0,0,1-7.16,3.18,11.69,11.69,0,0,1,0-23.38A9.67,9.67,0,0,1,194.74,126.67Zm0,10.09v-3.14a6.83,6.83,0,0,0-2-3.61,7.3,7.3,0,1,0,0,10.34A6.85,6.85,0,0,0,194.74,136.76Z"/><path class="cls-2" d="M210.24,141.54c.71.63,2,.94,3.88.94a7.13,7.13,0,0,0,5.19-2.13c.17-.19.54-.62,1.08-1.27l4.25,1.51a25.75,25.75,0,0,1-2.26,2.85,11.67,11.67,0,1,1-1-17.45c.34.29.67.6,1,.92.14.14.53.57,1.17,1.3l-2.13,2.15Zm7.1-13.13a6,6,0,0,0-3.22-.55,7.31,7.31,0,0,0-7.3,7.32,6.08,6.08,0,0,0,.55,3.22Z"/><path class="cls-2" d="M227.45,125.21h4.24v2a4.66,4.66,0,0,1,4.74-3.1q3.48,0,3.92,3.53,1-3.52,5.53-3.53c3,0,4.48,1.82,4.48,5.44v16.79h-4.27V131.47q0-3.12-2.52-3.12a2.52,2.52,0,0,0-1.81.74c-.5.49-.76,2.14-.76,5v12.26h-4.24l0-14.84c0-2.08-.85-3.12-2.54-3.12a2.52,2.52,0,0,0-1.81.74c-.44.42-.68,1.54-.74,3.36v13.86h-4.24Z"/><path class="cls-2" d="M265.49,123.49a11.68,11.68,0,1,1-8.25,3.42A11.23,11.23,0,0,1,265.49,123.49ZM260.31,130a7.32,7.32,0,1,0,5.18-2.15A7.07,7.07,0,0,0,260.31,130Z"/><path class="cls-2" d="M284.85,128.06a7.54,7.54,0,0,1,5.84-3.38v4.41a5.41,5.41,0,0,0-3.69,1.5,6.89,6.89,0,0,0-2.15,4.88v10.84H280.6v-21.1h4.25Z"/><path class="cls-2" d="M311,126.69v-1.48h4.26v21.13H311v-2.65a9.64,9.64,0,0,1-7.14,3.18,11.67,11.67,0,1,1,0-23.34A9.66,9.66,0,0,1,311,126.69Zm0,10.07v-3.12a6.87,6.87,0,0,0-2-3.61,7.3,7.3,0,1,0,0,10.34A6.9,6.9,0,0,0,311,136.76Z"/><path class="cls-2" d="M324.17,128.06a7.57,7.57,0,0,1,5.85-3.38v4.41a5.37,5.37,0,0,0-3.69,1.5,6.94,6.94,0,0,0-2.16,4.88v10.84h-4.24v-21.1h4.24Z"/><path class="cls-2" d="M337.42,140.61l-4.74,9.85h-4l2.63-9.85Z"/><path class="cls-2" d="M42.77,196.71l-10.06-21.1H37.5l6.34,13.7,6.36-13.7H55l-10.09,21.1Z"/><path class="cls-2" d="M74.38,177.09v-1.48h4.27v21.12H74.38v-2.64a9.64,9.64,0,0,1-7.14,3.18,11.67,11.67,0,1,1,0-23.34A9.66,9.66,0,0,1,74.38,177.09Zm0,10.07V184a6.87,6.87,0,0,0-2-3.61,7.3,7.3,0,1,0,0,10.34A6.9,6.9,0,0,0,74.38,187.16Zm-6-19.3h5.17l-5.58,5.72h-4Z"/><path class="cls-2" d="M115.53,177.09v-1.48h4.27v21.12h-4.27v-2.64a9.64,9.64,0,0,1-7.14,3.18,11.67,11.67,0,1,1,0-23.34A9.66,9.66,0,0,1,115.53,177.09Zm0,10.07V184a6.87,6.87,0,0,0-2-3.61,7.3,7.3,0,1,0,0,10.34A6.9,6.9,0,0,0,115.53,187.16Z"/><path class="cls-2" d="M134.93,173.89a11.69,11.69,0,1,1-8.24,3.42A11.25,11.25,0,0,1,134.93,173.89Zm-5.18,6.52a7.32,7.32,0,0,0,10.36,10.34,7.32,7.32,0,1,0-10.36-10.34Z"/><path class="cls-2" d="M168.19,183.14v13.57h-4.25V163.9h4.25v15h10.13v-15h4.24v32.81h-4.24V183.14Z"/><path class="cls-2" d="M215.94,168.39a16.79,16.79,0,1,1-11.88-4.92A16.19,16.19,0,0,1,215.94,168.39Zm-11.88-.63a12.5,12.5,0,1,0,8.85,3.66A12.07,12.07,0,0,0,204.06,167.76Z"/><path class="cls-2" d="M233.53,179.88a14.28,14.28,0,0,1-5.65-3.33,7.68,7.68,0,0,1,.08-10.76,7.68,7.68,0,0,1,10.86,0,9.42,9.42,0,0,1,2.14,3.91l-3.86,1.52a7.57,7.57,0,0,0-1.27-2.46,3.49,3.49,0,0,0-4.86,0,3.44,3.44,0,0,0,0,4.87,10.86,10.86,0,0,0,3.12,2,16.2,16.2,0,0,1,6.54,3.94,9.76,9.76,0,0,1,3,7.22,10.22,10.22,0,0,1-17.47,7.24,11.53,11.53,0,0,1-3-6.63l4.13-1.49q.39,3.63,1.9,5.14a6,6,0,1,0,8.49-8.51A12.4,12.4,0,0,0,233.53,179.88Z"/><path class="cls-2" d="M251.58,186.21v10.5h-4.24V163.9h9.31a11.36,11.36,0,0,1,6.69,3.26,11.16,11.16,0,0,1-7.88,19.05Zm0-18V182h3.88a6.89,6.89,0,0,0,0-13.78Z"/><path class="cls-2" d="M274.32,163.9v32.81h-4.25V163.9Z"/><path class="cls-2" d="M289.58,168.15v28.56h-4.27V168.15h-7.65V163.9h19.57v4.25Z"/><path class="cls-2" d="M309.61,163.9l11.94,32.81H317l-4.23-11.6h-8.69l-4.21,11.6h-4.53l11.94-32.81Zm1.67,17-2.81-7.69-2.79,7.69Z"/><path class="cls-2" d="M324.68,196.71V163.9h4.25v28.55h11.73v4.26Z"/><path class="cls-2" d="M57.36,226H61.6v2a4.66,4.66,0,0,1,4.74-3.1c2.32,0,3.63,1.18,3.91,3.53q1-3.53,5.54-3.53c3,0,4.47,1.82,4.47,5.44v16.79H76V232.27c0-2.08-.84-3.12-2.53-3.12a2.52,2.52,0,0,0-1.8.74c-.51.49-.76,2.14-.76,5v12.26H66.67l0-14.84q0-3.12-2.55-3.12a2.5,2.5,0,0,0-1.8.74c-.44.42-.68,1.54-.74,3.36v13.86H57.36Z"/><path class="cls-2" d="M102.85,227.49V226h4.27v21.12h-4.27v-2.64a9.64,9.64,0,0,1-7.14,3.18,11.67,11.67,0,0,1,0-23.34A9.66,9.66,0,0,1,102.85,227.49Zm0,10.07v-3.12a6.8,6.8,0,0,0-2-3.61,7.3,7.3,0,1,0,0,10.34A6.83,6.83,0,0,0,102.85,237.56Z"/><path class="cls-2" d="M116.2,218.2a3,3,0,0,1,0,4.22,2.91,2.91,0,0,1-2.12.86,2.88,2.88,0,0,1-2.09-.86,3,3,0,0,1,0-4.22,2.88,2.88,0,0,1,2.09-.86A2.91,2.91,0,0,1,116.2,218.2Zm0,7.81v21.1H112V226Z"/><path class="cls-2" d="M124.68,242.58a2.54,2.54,0,0,0,4.34-1.82,2.44,2.44,0,0,0-.73-1.79,15.59,15.59,0,0,0-2.2-1.58,14.79,14.79,0,0,1-3.26-2.21,5.75,5.75,0,0,1,4.06-9.8,5.31,5.31,0,0,1,4,1.6,5.13,5.13,0,0,1,1.44,2.52l-4.13,1.19a2,2,0,0,0-.28-.68,1.34,1.34,0,0,0-1-.37,1.52,1.52,0,0,0-1.5,1.5,1.4,1.4,0,0,0,.44,1,13.58,13.58,0,0,0,1.76,1.26,16.89,16.89,0,0,1,3.69,2.54,6.54,6.54,0,0,1,2,4.78,6.64,6.64,0,0,1-2,4.83,6.76,6.76,0,0,1-9.61,0,6.74,6.74,0,0,1-1.8-3.43l4.22-.9A2.62,2.62,0,0,0,124.68,242.58Z"/><path class="cls-2" d="M155.16,244.49v9.72h-4.24V226h4.24v1.91a9.18,9.18,0,0,1,7.16-3.61,11.68,11.68,0,0,1,0,23.36A9.67,9.67,0,0,1,155.16,244.49Zm0-10.15v3.3a6.86,6.86,0,0,0,2,3.53,7.33,7.33,0,1,0,0-10.36A6.82,6.82,0,0,0,155.16,234.34Z"/><path class="cls-2" d="M184.12,242.34c.71.62,2,.94,3.87.94a7.09,7.09,0,0,0,5.19-2.13c.18-.19.54-.62,1.09-1.27l4.24,1.51a27.37,27.37,0,0,1-2.25,2.85,11.67,11.67,0,1,1-1-17.45c.34.29.68.6,1,.92l1.17,1.3-2.14,2.15Zm7.09-13.13a6,6,0,0,0-3.22-.55,7,7,0,0,0-5.15,2.14,7.07,7.07,0,0,0-2.15,5.18,6.05,6.05,0,0,0,.56,3.22Z"/><path class="cls-2" d="M205.57,228.86a7.54,7.54,0,0,1,5.84-3.38v4.41a5.45,5.45,0,0,0-3.69,1.49,6.93,6.93,0,0,0-2.15,4.89v10.84h-4.25V226h4.25Z"/><path class="cls-2" d="M217.06,226V218.1h4.25V226h3.79v4.25h-3.79v16.85h-4.25V230.26h-3.79V226Z"/><path class="cls-2" d="M238.38,224.29a11.68,11.68,0,1,1-8.25,3.42A11.24,11.24,0,0,1,238.38,224.29Zm-5.18,6.52a7.3,7.3,0,1,0,5.18-2.15A7.08,7.08,0,0,0,233.2,230.81Z"/><path class="cls-2" d="M285.7,227.47V214.3H290v32.81H285.7v-2.62a9.67,9.67,0,0,1-7.16,3.18,11.69,11.69,0,0,1,0-23.38A9.67,9.67,0,0,1,285.7,227.47Zm0,10.09v-3.14a6.83,6.83,0,0,0-2-3.61,7.3,7.3,0,1,0,0,10.34A6.85,6.85,0,0,0,285.7,237.56Z"/><path class="cls-2" d="M312.54,227.49V226h4.27v21.12h-4.27v-2.64a9.64,9.64,0,0,1-7.13,3.18,11.67,11.67,0,1,1,0-23.34A9.65,9.65,0,0,1,312.54,227.49Zm0,10.07v-3.12a6.8,6.8,0,0,0-2-3.61,7.3,7.3,0,1,0,0,10.34A6.83,6.83,0,0,0,312.54,237.56Z"/><path class="cls-2" d="M109.7,293a2.54,2.54,0,0,0,4.34-1.82,2.45,2.45,0,0,0-.73-1.79,16.48,16.48,0,0,0-2.2-1.58,14.79,14.79,0,0,1-3.26-2.21,5.75,5.75,0,0,1,4.06-9.8,5.31,5.31,0,0,1,4,1.6,5.13,5.13,0,0,1,1.44,2.52l-4.13,1.19a2,2,0,0,0-.28-.68,1.38,1.38,0,0,0-1-.37,1.5,1.5,0,0,0-1.06,2.55,15,15,0,0,0,1.76,1.25,16.64,16.64,0,0,1,3.69,2.54,6.54,6.54,0,0,1,2,4.78,6.64,6.64,0,0,1-2,4.83,6.76,6.76,0,0,1-9.61,0,6.74,6.74,0,0,1-1.8-3.43l4.22-.9A2.62,2.62,0,0,0,109.7,293Z"/><path class="cls-2" d="M130.39,297.8a8.68,8.68,0,0,1-6.44-2.44,8.53,8.53,0,0,1-2.51-6.11V276.41h4.27v12.68a4.23,4.23,0,0,0,1.33,3.13,4.55,4.55,0,0,0,3.33,1.32,4.38,4.38,0,0,0,3.16-1.31,4.18,4.18,0,0,0,1.35-3.14V276.41h4.24v12.84a8.55,8.55,0,0,1-2.48,6.11A8.45,8.45,0,0,1,130.39,297.8Z"/><path class="cls-2" d="M161.55,277.89v-1.48h4.27v21.13h-4.27v-2.65a9.64,9.64,0,0,1-7.13,3.18,11.67,11.67,0,1,1,0-23.34A9.65,9.65,0,0,1,161.55,277.89Zm0,10.07v-3.12a6.8,6.8,0,0,0-2-3.61,7.3,7.3,0,1,0,0,10.34A6.83,6.83,0,0,0,161.55,288Z"/><path class="cls-2" d="M201.12,290.28l4.25,1.51a25.75,25.75,0,0,1-2.26,2.85,11.69,11.69,0,1,1,0-16.53,29.7,29.7,0,0,1,2.26,2.81l-4.25,1.56c-.54-.67-.91-1.1-1.1-1.29a7.3,7.3,0,1,0,0,10.36C200.21,291.36,200.58,290.93,201.12,290.28Z"/><path class="cls-2" d="M226.23,277.89v-1.48h4.26v21.13h-4.26v-2.65a9.64,9.64,0,0,1-7.14,3.18,11.67,11.67,0,0,1,0-23.34A9.66,9.66,0,0,1,226.23,277.89Zm0,10.07v-3.12a6.87,6.87,0,0,0-2-3.61,7.35,7.35,0,0,0-10.35,0,7.31,7.31,0,0,0,5.18,12.47,7.1,7.1,0,0,0,5.17-2.13A6.9,6.9,0,0,0,226.23,288Z"/><path class="cls-2" d="M238.84,293a2.54,2.54,0,0,0,4.34-1.82,2.45,2.45,0,0,0-.73-1.79,16.48,16.48,0,0,0-2.2-1.58,14.79,14.79,0,0,1-3.26-2.21,5.75,5.75,0,0,1,4.06-9.8,5.31,5.31,0,0,1,4,1.6,5,5,0,0,1,1.43,2.52l-4.12,1.19a2,2,0,0,0-.28-.68,1.38,1.38,0,0,0-1-.37,1.5,1.5,0,0,0-1.07,2.55,15.44,15.44,0,0,0,1.77,1.25,16.89,16.89,0,0,1,3.69,2.54,6.54,6.54,0,0,1,2,4.78,6.64,6.64,0,0,1-2,4.83,6.76,6.76,0,0,1-9.61,0,6.66,6.66,0,0,1-1.8-3.43l4.22-.9A2.54,2.54,0,0,0,238.84,293Z"/><path class="cls-2" d="M268.74,277.89v-1.48H273v21.13h-4.27v-2.65a9.64,9.64,0,0,1-7.13,3.18,11.67,11.67,0,1,1,0-23.34A9.65,9.65,0,0,1,268.74,277.89Zm0,10.07v-3.12a6.8,6.8,0,0,0-2-3.61,7.3,7.3,0,1,0,0,10.34A6.83,6.83,0,0,0,268.74,288Z"/><path class="cls-2" d="M282.37,292.7a2.83,2.83,0,0,1,.88,2.09,3,3,0,0,1-5.07,2.13,2.85,2.85,0,0,1-.88-2.13,2.8,2.8,0,0,1,.88-2.09,3,3,0,0,1,4.19,0Z"/></g></g></svg>