<svg xmlns="http://www.w3.org/2000/svg" viewBox="0 0 386.6 350">
  <g id="fd489571-0ea9-4e36-862c-dc4f85ceb2b1" data-name="Camada 2">
    <g id="e0e4840b-4879-4d56-8b81-9dfc174fcc51" data-name="layout">
      <g>
        <polygon id="e06b5e62-1456-4922-bc6c-4e0d8c6f8ced" data-name="2" points="0 0 0 300.23 192.95 350 386.6 300.23 386.6 0 192.95 47.85 0 0" fill="#a30100"/>
        <g>
          <path d="M87.94,164.89V138.33h3.44v23.11h9.49v3.45Z" fill="#fff"/>
          <path d="M108.56,141.48a2.33,2.33,0,0,1,.71,1.71,2.3,2.3,0,0,1-.71,1.71,2.36,2.36,0,0,1-1.71.7,2.4,2.4,0,0,1-1.69-4.12,2.33,2.33,0,0,1,1.69-.69A2.39,2.39,0,0,1,108.56,141.48Zm0,6.33v17.08h-3.44V147.81Z" fill="#fff"/>
          <path d="M128.66,149v-1.18h3.46v12.7c0,3.32-.91,5.88-2.71,7.69a10.39,10.39,0,0,1-13.38,0,21.68,21.68,0,0,1-1.81-2.29l3.42-1.23c.44.53.74.87.9,1a5.71,5.71,0,0,0,4.18,1.72q4.09,0,5.68-5.38a5.72,5.72,0,0,1-5.53,3.12,9.23,9.23,0,0,1-6.68-2.68,8.86,8.86,0,0,1-2.77-6.61,9.46,9.46,0,0,1,9.45-9.45A7.83,7.83,0,0,1,128.66,149Zm0,5.56a5.54,5.54,0,0,0-1.6-2.86,5.9,5.9,0,0,0-8.37,0,5.91,5.91,0,0,0,0,8.38,5.94,5.94,0,0,0,8.37,0,5.47,5.47,0,0,0,1.6-2.82Z" fill="#fff"/>
          <path d="M144.4,165.13a7,7,0,0,1-5.21-2,6.92,6.92,0,0,1-2-5V147.81h3.46v10.26a3.48,3.48,0,0,0,1.07,2.54,3.7,3.7,0,0,0,2.69,1.06,3.58,3.58,0,0,0,2.57-1,3.43,3.43,0,0,0,1.09-2.55V147.81h3.43V158.2a6.9,6.9,0,0,1-2,5A6.83,6.83,0,0,1,144.4,165.13Z" fill="#fff"/>
          <path d="M161.77,161a4.79,4.79,0,0,0,3.13.77,5.75,5.75,0,0,0,4.2-1.73c.15-.15.44-.5.88-1l3.44,1.23a22.19,22.19,0,0,1-1.83,2.31,9.44,9.44,0,1,1-.81-14.13,9.47,9.47,0,0,1,.81.75c.11.11.43.46.95,1L170.81,152Zm5.74-10.62a4.87,4.87,0,0,0-2.61-.45,5.94,5.94,0,0,0-5.91,5.93,4.85,4.85,0,0,0,.45,2.6Z" fill="#fff"/>
          <path d="M192.59,162.77v7.87h-3.43V147.81h3.43v1.54a7.47,7.47,0,0,1,5.8-2.92,9.46,9.46,0,0,1,0,18.91A7.86,7.86,0,0,1,192.59,162.77Zm0-8.22v2.67a5.54,5.54,0,0,0,1.62,2.86,5.94,5.94,0,1,0,0-8.39A5.58,5.58,0,0,0,192.59,154.55Z" fill="#fff"/>
          <path d="M226.79,149v-1.2h3.46v17.1h-3.46v-2.14a7.81,7.81,0,0,1-5.77,2.57,9.45,9.45,0,1,1,0-18.89A7.8,7.8,0,0,1,226.79,149Zm0,8.15v-2.53a5.62,5.62,0,0,0-1.59-2.92,5.93,5.93,0,0,0-8.37,0,5.92,5.92,0,0,0,8.37,8.37A5.62,5.62,0,0,0,226.79,157.16Z" fill="#fff"/>
          <path d="M238.68,150.12a6.11,6.11,0,0,1,4.73-2.74V151a4.38,4.38,0,0,0-3,1.21,5.66,5.66,0,0,0-1.74,4v8.78h-3.43V147.81h3.43Z" fill="#fff"/>
          <path d="M261.56,149v-1.2H265v17.1h-3.45v-2.14a7.83,7.83,0,0,1-5.78,2.57,9.45,9.45,0,1,1,0-18.89A7.82,7.82,0,0,1,261.56,149Zm0,8.15v-2.53a5.56,5.56,0,0,0-1.6-2.92,5.91,5.91,0,1,0,0,8.37A5.56,5.56,0,0,0,261.56,157.16Z" fill="#fff"/>
          <path d="M290.21,146.42a9.46,9.46,0,1,1-6.67,2.77A9.1,9.1,0,0,1,290.21,146.42ZM286,151.69a5.72,5.72,0,0,0-1.73,4.19,5.65,5.65,0,0,0,1.73,4.18,5.93,5.93,0,1,0,0-8.37Z" fill="#fff"/>
          <path d="M99.14,192.06a11.47,11.47,0,0,1-4.58-2.7A5.9,5.9,0,0,1,92.81,185a6.22,6.22,0,0,1,10.61-4.38,7.6,7.6,0,0,1,1.73,3.17L102,185a6.08,6.08,0,0,0-1-2,2.73,2.73,0,0,0-2-.8,2.69,2.69,0,0,0-2,.81,2.65,2.65,0,0,0-.81,2,2.69,2.69,0,0,0,.81,2,9,9,0,0,0,2.52,1.64,13.07,13.07,0,0,1,5.3,3.19,7.88,7.88,0,0,1,2.44,5.84,8.27,8.27,0,0,1-14.14,5.86,9.23,9.23,0,0,1-2.46-5.36L94.06,197a6.86,6.86,0,0,0,1.54,4.17,4.86,4.86,0,1,0,6.87-6.89A10,10,0,0,0,99.14,192.06Z" fill="#fff"/>
          <path d="M120.52,179.13l9.66,26.56h-3.65l-3.42-9.39h-7l-3.4,9.39H109l9.66-26.56Zm1.34,13.73-2.27-6.23-2.26,6.23Z" fill="#fff"/>
          <path d="M137.45,179.13,146.07,194l8.58-14.89h3.14v26.56h-3.44V186.5l-8.28,14.34-8.32-14.34v19.19h-3.43V179.13Z" fill="#fff"/>
          <path d="M178.19,179.13h3.46v18.71a9.29,9.29,0,0,1-2.64,5.41,9,9,0,0,1-15.43-6.37V179.13H167v17.75a5.58,5.58,0,1,0,11.15,0Z" fill="#fff"/>
          <path d="M198,193.87h11.09v3.44H198Z" fill="#fff"/>
          <path d="M237.73,179.13v26.56h-3.44V183.61h-2.54l3.49-4.48Z" fill="#fff"/>
          <path d="M261.4,195.52c-1,1.06-2.62,1.59-4.9,1.59a7.77,7.77,0,0,1-5.71-2.27,9.45,9.45,0,0,1,13.35-13.37,10.12,10.12,0,0,1,2.67,7.42v.05a13.86,13.86,0,0,1-2.54,8.27,103.44,103.44,0,0,1-6.9,8.48h-4.52A72,72,0,0,0,261.4,195.52Zm2-7.38a5.67,5.67,0,0,0-1.73-4.18,5.93,5.93,0,0,0-8.37,0,5.91,5.91,0,0,0,4.18,10.09,5.74,5.74,0,0,0,4.19-1.72A5.68,5.68,0,0,0,263.39,188.14Z" fill="#fff"/>
          <path d="M274.2,197.32l4.62-3.45a24.07,24.07,0,0,0,3.41-3.07,5.28,5.28,0,0,0,1.5-3.65,4.63,4.63,0,0,0-1.42-3.42,4.84,4.84,0,0,0-6.83,0,6.82,6.82,0,0,0-1.51,4.18l-3.44-1.24a9.54,9.54,0,0,1,2.47-5.41,8.32,8.32,0,0,1,14.22,5.89,8.48,8.48,0,0,1-2.36,6,26.54,26.54,0,0,1-3.48,3.09L277,199.52c-1.41,1-2.21,2-2.37,2.72h12.62v3.45H270.57C271.18,201.45,272.4,198.66,274.2,197.32Z" fill="#fff"/>
          <path d="M295.51,201.79a2.3,2.3,0,0,1,.7,1.69,2.41,2.41,0,1,1-4.1-1.69,2.41,2.41,0,0,1,3.4,0Z" fill="#fff"/>
        </g>
      </g>
    </g>
  </g>
</svg>
