<svg xmlns="http://www.w3.org/2000/svg" viewBox="0 0 386.6 350"><defs><style>.cls-1{fill:#f20c0c;}.cls-2{fill:#fff;}</style></defs><g id="Layer_2" data-name="Layer 2"><g id="layout"><polygon id="_4" data-name="4" class="cls-1" points="0 0 0 300.23 192.95 350 386.6 300.23 386.6 0 192.95 47.85 0 0"/><path class="cls-2" d="M71.37,98.35A14.16,14.16,0,0,1,65.72,95a7.28,7.28,0,0,1-2.16-5.36,7.68,7.68,0,0,1,13.1-5.41,9.42,9.42,0,0,1,2.14,3.91l-3.86,1.52a7.37,7.37,0,0,0-1.27-2.46,3.46,3.46,0,0,0-4.86,0,3.28,3.28,0,0,0-1,2.43,3.32,3.32,0,0,0,1,2.44,10.86,10.86,0,0,0,3.12,2,16.09,16.09,0,0,1,6.54,3.94,9.76,9.76,0,0,1,3,7.22A10.22,10.22,0,0,1,64,112.53a11.53,11.53,0,0,1-3-6.63l4.13-1.5q.39,3.63,1.9,5.15A6,6,0,1,0,75.49,101,12.42,12.42,0,0,0,71.37,98.35Z"/><path class="cls-2" d="M92.17,110.41c.71.63,2,1,3.87,1a7.07,7.07,0,0,0,5.19-2.14c.18-.19.54-.61,1.09-1.27l4.24,1.52a27.37,27.37,0,0,1-2.25,2.85,11.67,11.67,0,1,1-1-17.45c.34.29.68.59,1,.92l1.17,1.29-2.14,2.16Zm7.09-13.12A6,6,0,0,0,96,96.73a7.34,7.34,0,0,0-7.3,7.33,6.08,6.08,0,0,0,.56,3.22Z"/><path class="cls-2" d="M136.44,92.37a11.69,11.69,0,1,1-8.24,3.42A11.25,11.25,0,0,1,136.44,92.37Zm-5.18,6.52a7.32,7.32,0,0,0,10.36,10.33,7.32,7.32,0,1,0-10.36-10.33Z"/><path class="cls-2" d="M167.55,82.38h4.27v14A5.59,5.59,0,0,1,177,92.94a6.67,6.67,0,0,1,5.4,2.43,9.45,9.45,0,0,1,2.08,6.1v13.72h-4.24V101.64a4.88,4.88,0,0,0-1-3.13,3.92,3.92,0,0,0-3.27-1.3,4.49,4.49,0,0,0-4.1,2.83v15.15h-4.27Z"/><path class="cls-2" d="M201.06,92.37a11.69,11.69,0,1,1-8.24,3.42A11.25,11.25,0,0,1,201.06,92.37Zm-5.18,6.52a7.32,7.32,0,0,0,10.36,10.33,7.32,7.32,0,1,0-10.36-10.33Z"/><path class="cls-2" d="M221.92,110.66a2.52,2.52,0,0,0,1.8.74,2.48,2.48,0,0,0,1.8-.74,2.56,2.56,0,0,0,0-3.61,14.43,14.43,0,0,0-2.2-1.58,15,15,0,0,1-3.26-2.21,5.51,5.51,0,0,1-1.68-4,5.75,5.75,0,0,1,5.74-5.77,5.35,5.35,0,0,1,4,1.6,5.2,5.2,0,0,1,1.44,2.53l-4.12,1.19a2.05,2.05,0,0,0-.29-.68,1.34,1.34,0,0,0-1-.37,1.44,1.44,0,0,0-1,.44,1.42,1.42,0,0,0-.44,1.06,1.4,1.4,0,0,0,.43,1,13.59,13.59,0,0,0,1.76,1.25,16.38,16.38,0,0,1,3.69,2.55,6.54,6.54,0,0,1,2,4.77,6.6,6.6,0,0,1-2,4.83,6.75,6.75,0,0,1-9.6,0,6.61,6.61,0,0,1-1.81-3.42l4.23-.9A2.54,2.54,0,0,0,221.92,110.66Z"/><path class="cls-2" d="M240,112.57v9.72h-4.25V94.09H240V96a9.16,9.16,0,0,1,7.15-3.61,11.68,11.68,0,0,1,0,23.36A9.65,9.65,0,0,1,240,112.57Zm0-10.15v3.3a6.73,6.73,0,0,0,2,3.52,7.34,7.34,0,1,0,0-10.35A6.76,6.76,0,0,0,240,102.42Z"/><path class="cls-2" d="M268.51,86.28a2.95,2.95,0,0,1,0,4.22,3,3,0,0,1-4.2,0,3,3,0,0,1,0-4.22,3,3,0,0,1,4.2,0Zm0,7.81v21.1h-4.24V94.09Z"/><path class="cls-2" d="M277.6,94.09V86.17h4.24v7.92h3.8v4.24h-3.8v16.86H277.6V98.33h-3.8V94.09Z"/><path class="cls-2" d="M308.87,95.57V94.09h4.27v21.12h-4.27v-2.64a9.64,9.64,0,0,1-7.13,3.18,11.67,11.67,0,1,1,0-23.34A9.65,9.65,0,0,1,308.87,95.57Zm0,10.07v-3.12a6.8,6.8,0,0,0-2-3.61,7.31,7.31,0,1,0,0,10.33A6.81,6.81,0,0,0,308.87,105.64Z"/><path class="cls-2" d="M323.58,82.36v32.83h-4.27V82.36Z"/><path class="cls-2" d="M105.41,148.71v16.9h-4.26v-16.9H99.26v-4.24h1.89v-3.8a6.69,6.69,0,0,1,2-4.51,6.33,6.33,0,0,1,4.47-1.8,13.36,13.36,0,0,1,3.86.88l-1.42,4a8.51,8.51,0,0,0-2.28-.76,2.49,2.49,0,0,0-1.66.72,2.38,2.38,0,0,0-.72,1.62v3.63h3.8v4.24Z"/><path class="cls-2" d="M123.36,142.77a11.68,11.68,0,1,1-8.25,3.42A11.21,11.21,0,0,1,123.36,142.77Zm-5.18,6.52a7.29,7.29,0,1,0,5.18-2.16A7.05,7.05,0,0,0,118.18,149.29Z"/><path class="cls-2" d="M144.2,147.34A7.48,7.48,0,0,1,150,144v4.4a5.46,5.46,0,0,0-3.69,1.5,6.93,6.93,0,0,0-2.15,4.88v10.85H140v-21.1h4.25Z"/><path class="cls-2" d="M173,132.76v32.83h-4.27V132.76Z"/><path class="cls-2" d="M189.54,142.77a11.68,11.68,0,1,1-8.25,3.42A11.23,11.23,0,0,1,189.54,142.77Zm-5.18,6.52a7.29,7.29,0,1,0,5.18-2.16A7.05,7.05,0,0,0,184.36,149.29Z"/><path class="cls-2" d="M210.39,150.15v15.44h-4.26v-21.1h4.26V147a5.2,5.2,0,0,1,5.36-3.61,6.71,6.71,0,0,1,5.44,2.43,9.45,9.45,0,0,1,2.08,6.1v13.72H219V152a4.25,4.25,0,0,0-1.33-3.13,4.55,4.55,0,0,0-6.34,0A4.83,4.83,0,0,0,210.39,150.15Z"/><path class="cls-2" d="M247.8,145.94v-1.45h4.27v15.69q0,6.15-3.35,9.49a12.82,12.82,0,0,1-16.53,0,26.6,26.6,0,0,1-2.23-2.83l4.22-1.52c.55.66.92,1.08,1.11,1.28a7.1,7.1,0,0,0,5.17,2.13q5.07,0,7-6.65-2,3.85-6.83,3.86a11.41,11.41,0,0,1-8.25-3.32,11,11,0,0,1-3.42-8.16,11.66,11.66,0,0,1,11.67-11.67A9.71,9.71,0,0,1,247.8,145.94Zm0,6.87a6.87,6.87,0,0,0-2-3.52,7.27,7.27,0,0,0-10.34,0,7.32,7.32,0,0,0,10.34,10.35,6.84,6.84,0,0,0,2-3.48Z"/><path class="cls-2" d="M264.86,160.81c.71.63,2,.95,3.88.95a7.1,7.1,0,0,0,5.19-2.14c.18-.19.54-.61,1.08-1.27l4.25,1.52a25.75,25.75,0,0,1-2.26,2.85,11.67,11.67,0,1,1-1-17.45c.34.29.68.59,1,.92q.21.21,1.17,1.29L276,149.64Zm7.1-13.12a6,6,0,0,0-3.22-.56,7.32,7.32,0,0,0-7.3,7.33,6.1,6.1,0,0,0,.55,3.22Z"/><path class="cls-2" d="M288.59,159.89l-4.74,9.84h-4l2.63-9.84Z"/><path class="cls-2" d="M53,216,43,194.89h4.8l6.33,13.7,6.36-13.7h4.8L55.16,216Z"/><path class="cls-2" d="M87.66,196.37v-1.48h4.27V216H87.66v-2.64a9.62,9.62,0,0,1-7.13,3.18,11.67,11.67,0,1,1,0-23.34A9.64,9.64,0,0,1,87.66,196.37Zm0,10.06v-3.11a6.85,6.85,0,0,0-2-3.61,7.35,7.35,0,0,0-10.35,0A7.31,7.31,0,0,0,85.7,210,6.85,6.85,0,0,0,87.66,206.43Zm-6-19.29H86.8l-5.57,5.72h-4Z"/><path class="cls-2" d="M116.87,213.37v9.72h-4.25v-28.2h4.25v1.91a9.16,9.16,0,0,1,7.16-3.61,11.68,11.68,0,0,1,0,23.36A9.65,9.65,0,0,1,116.87,213.37Zm0-10.15v3.3a6.73,6.73,0,0,0,2,3.52,7.34,7.34,0,1,0,0-10.35A6.76,6.76,0,0,0,116.87,203.22Z"/><path class="cls-2" d="M159.11,196.37v-1.48h4.27V216h-4.27v-2.64a9.64,9.64,0,0,1-7.13,3.18,11.67,11.67,0,1,1,0-23.34A9.65,9.65,0,0,1,159.11,196.37Zm0,10.06v-3.11a6.85,6.85,0,0,0-2-3.61,7.35,7.35,0,0,0-10.35,0A7.31,7.31,0,0,0,157.15,210,6.85,6.85,0,0,0,159.11,206.43Z"/><path class="cls-2" d="M173.8,197.74a7.51,7.51,0,0,1,5.84-3.38v4.41a5.45,5.45,0,0,0-3.69,1.49,6.93,6.93,0,0,0-2.15,4.88V216h-4.25v-21.1h4.25Z"/><path class="cls-2" d="M202.06,196.37v-1.48h4.26V216h-4.26v-2.64a9.64,9.64,0,0,1-7.14,3.18,11.67,11.67,0,1,1,0-23.34A9.66,9.66,0,0,1,202.06,196.37Zm0,10.06v-3.11a6.87,6.87,0,0,0-2-3.61,7.35,7.35,0,0,0-10.35,0A7.31,7.31,0,0,0,200.09,210,6.87,6.87,0,0,0,202.06,206.43Z"/><path class="cls-2" d="M245.31,196.37v-1.48h4.26V216h-4.26v-2.64a9.64,9.64,0,0,1-7.14,3.18,11.67,11.67,0,1,1,0-23.34A9.66,9.66,0,0,1,245.31,196.37Zm0,10.06v-3.11a6.87,6.87,0,0,0-2-3.61,7.35,7.35,0,0,0-10.35,0A7.31,7.31,0,0,0,243.34,210,6.87,6.87,0,0,0,245.31,206.43Z"/><path class="cls-2" d="M288.31,183.18h4.27v23.11a11.53,11.53,0,0,1-3.26,6.69,11.16,11.16,0,0,1-19.05-7.88V183.18h4.26V205.1a6.89,6.89,0,0,0,13.78,0Z"/><path class="cls-2" d="M303,205.49V216h-4.25V183.18H308a11.3,11.3,0,0,1,6.69,3.26,11.16,11.16,0,0,1-7.88,19.05Zm0-18.05v13.79h3.87a6.9,6.9,0,0,0,0-13.79Z"/><path class="cls-2" d="M331.71,183.18,343.64,216h-4.51l-4.22-11.61h-8.7L322,216h-4.53l11.93-32.81Zm1.66,17-2.81-7.69-2.79,7.69Z"/><path class="cls-2" d="M61.78,245.29H66v2a4.65,4.65,0,0,1,4.74-3.1c2.32,0,3.63,1.18,3.91,3.53q1-3.52,5.54-3.53t4.47,5.44v16.79H80.43V251.54c0-2.07-.85-3.11-2.53-3.11a2.46,2.46,0,0,0-1.8.74c-.51.49-.76,2.14-.76,5v12.26H71.09l0-14.85c0-2.07-.84-3.11-2.54-3.11a2.45,2.45,0,0,0-1.8.74c-.44.42-.69,1.54-.74,3.36v13.86H61.78Z"/><path class="cls-2" d="M109.16,246.77v-1.48h4.26v21.12h-4.26v-2.64A9.64,9.64,0,0,1,102,267a11.67,11.67,0,1,1,0-23.34A9.66,9.66,0,0,1,109.16,246.77Zm0,10.07v-3.12a6.94,6.94,0,0,0-2-3.61,7.35,7.35,0,0,0-10.35,0,7.31,7.31,0,1,0,12.32,6.73Z"/><path class="cls-2" d="M124.17,237.48a3,3,0,0,1,0,4.22,3,3,0,0,1-4.21,0,3,3,0,0,1,0-4.22,3,3,0,0,1,4.21,0Zm0,7.81v21.1h-4.25v-21.1Z"/><path class="cls-2" d="M135,261.86A2.54,2.54,0,0,0,139.3,260a2.43,2.43,0,0,0-.73-1.78,15.59,15.59,0,0,0-2.2-1.58,14.79,14.79,0,0,1-3.26-2.21,5.76,5.76,0,0,1,4.06-9.81,5.35,5.35,0,0,1,4,1.6,5.11,5.11,0,0,1,1.43,2.53L138.44,250a1.89,1.89,0,0,0-.28-.68,1.34,1.34,0,0,0-1-.37,1.47,1.47,0,0,0-1.06.44,1.46,1.46,0,0,0-.44,1.06,1.43,1.43,0,0,0,.43,1,13.2,13.2,0,0,0,1.77,1.25,16.87,16.87,0,0,1,3.69,2.55,6.54,6.54,0,0,1,2,4.77,6.6,6.6,0,0,1-2,4.83,6.76,6.76,0,0,1-9.61,0,6.59,6.59,0,0,1-1.8-3.42l4.22-.9A2.54,2.54,0,0,0,135,261.86Z"/><path class="cls-2" d="M167.54,263.77v9.72H163.3v-28.2h4.24v1.91a9.18,9.18,0,0,1,7.16-3.61,11.68,11.68,0,0,1,0,23.36A9.67,9.67,0,0,1,167.54,263.77Zm0-10.15v3.3a6.8,6.8,0,0,0,2,3.52,7.34,7.34,0,1,0,0-10.35A6.82,6.82,0,0,0,167.54,253.62Z"/><path class="cls-2" d="M195.74,248.14a7.54,7.54,0,0,1,5.85-3.38v4.41a5.45,5.45,0,0,0-3.7,1.49,7,7,0,0,0-2.15,4.88v10.85H191.5v-21.1h4.24Z"/><path class="cls-2" d="M216.15,243.57A11.68,11.68,0,1,1,207.9,247,11.24,11.24,0,0,1,216.15,243.57ZM211,250.09a7.28,7.28,0,1,0,5.18-2.16A7.06,7.06,0,0,0,211,250.09Zm6.43-12.55h5.17L217,243.26h-4Z"/><path class="cls-2" d="M248.24,245.29l-5.58,9.64,6.61,11.46h-4.91l-4.12-7.09-4.1,7.09H231.2l6.62-11.46-5.55-9.64h4.9l3.07,5.27,3.06-5.27Z"/><path class="cls-2" d="M258.76,237.48a3,3,0,0,1,0,4.22,3,3,0,0,1-4.2,0,3,3,0,0,1,0-4.22,3,3,0,0,1,4.2,0Zm0,7.81v21.1h-4.24v-21.1Z"/><path class="cls-2" d="M265.28,245.29h4.25v2a4.65,4.65,0,0,1,4.74-3.1c2.32,0,3.63,1.18,3.91,3.53q1-3.52,5.54-3.53t4.47,5.44v16.79h-4.27V251.54c0-2.07-.84-3.11-2.52-3.11a2.45,2.45,0,0,0-1.8.74c-.51.49-.76,2.14-.76,5v12.26h-4.25l0-14.85c0-2.07-.84-3.11-2.54-3.11a2.45,2.45,0,0,0-1.8.74c-.44.42-.69,1.54-.74,3.36v13.86h-4.25Z"/><path class="cls-2" d="M312.66,246.77v-1.48h4.26v21.12h-4.26v-2.64a9.64,9.64,0,0,1-7.14,3.18,11.67,11.67,0,1,1,0-23.34A9.66,9.66,0,0,1,312.66,246.77Zm0,10.07v-3.12a6.94,6.94,0,0,0-2-3.61,7.35,7.35,0,0,0-10.35,0,7.31,7.31,0,1,0,12.32,6.73Z"/><path class="cls-2" d="M326.41,261.57a2.84,2.84,0,0,1,.87,2.09,3,3,0,0,1-5.07,2.14,2.87,2.87,0,0,1-.88-2.14,2.81,2.81,0,0,1,.88-2.09,3,3,0,0,1,4.2,0Z"/></g></g></svg>