<svg xmlns="http://www.w3.org/2000/svg" viewBox="0 0 386.6 350">
  <g id="a86ba982-2172-4c0a-b173-6829f532b209" data-name="Camada 2">
    <g id="b9e64447-8d59-4ad3-ba59-224208223686" data-name="layout">
      <g>
        <polygon id="e2b08fa3-273c-4724-8f26-a36165888aed" data-name="2" points="0 0 0 300.23 192.95 350 386.6 300.23 386.6 0 192.95 47.85 0 0" fill="#820000"/>
        <g>
          <path d="M110.72,117.93h3.14l11,19v-19h3.45v26.56h-3L114.16,125.3v19.19h-3.44Z" fill="#fff"/>
          <path d="M148.06,128.61v-1.2h3.45v17.1h-3.45v-2.14a7.82,7.82,0,0,1-5.78,2.57,9.45,9.45,0,1,1,0-18.89A7.8,7.8,0,0,1,148.06,128.61Zm0,8.15v-2.53a5.62,5.62,0,0,0-1.59-2.92,5.92,5.92,0,1,0,0,8.37A5.62,5.62,0,0,0,148.06,136.76Zm-5.48-15.09c.69.64,1.18,1,1.46,1v0c.34,0,.5-.22.5-.65a4.34,4.34,0,0,0-.21-1.15h3.08c-.42,2.44-1.23,3.83-2.44,4.19a3.31,3.31,0,0,1-.93.13,3.12,3.12,0,0,1-2.21-1c-.66-.63-1.15-.94-1.46-.94h-.06c-.33,0-.5.23-.5.64A3.71,3.71,0,0,0,140,125h-3.1c.43-2.43,1.25-3.83,2.47-4.18a3.33,3.33,0,0,1,.93-.14A3.18,3.18,0,0,1,142.58,121.67Z" fill="#fff"/>
          <path d="M165,126a9.46,9.46,0,1,1-6.67,2.77A9.07,9.07,0,0,1,165,126Zm-4.19,5.28a5.89,5.89,0,1,0,4.19-1.75A5.69,5.69,0,0,0,160.77,131.3Z" fill="#fff"/>
          <path d="M192.22,127.41V121h3.44v6.41h3.07v3.44h-3.07v13.64h-3.44V130.85h-3.07v-3.44Z" fill="#fff"/>
          <path d="M211.18,126a9.47,9.47,0,1,1-6.67,2.77A9.07,9.07,0,0,1,211.18,126ZM207,131.3a5.89,5.89,0,1,0,4.19-1.75A5.69,5.69,0,0,0,207,131.3Z" fill="#fff"/>
          <path d="M224.61,127.41h3.44V129a3.75,3.75,0,0,1,3.83-2.5,2.88,2.88,0,0,1,3.17,2.85c.55-1.9,2-2.85,4.49-2.85s3.62,1.46,3.62,4.4v13.59H239.7v-12q0-2.52-2-2.52a2,2,0,0,0-1.46.6c-.41.4-.62,1.74-.62,4v9.92h-3.43v-12c0-1.68-.68-2.52-2-2.52a2,2,0,0,0-1.46.6c-.36.34-.56,1.25-.6,2.72v11.22h-3.44Z" fill="#fff"/>
          <path d="M253.46,140.63a4.91,4.91,0,0,0,3.14.76,5.75,5.75,0,0,0,4.2-1.73c.15-.15.44-.5.88-1l3.44,1.23a22.19,22.19,0,0,1-1.83,2.31,9.44,9.44,0,1,1-.81-14.13,9.47,9.47,0,0,1,.81.75c.11.11.43.46.95,1l-1.73,1.75ZM259.21,130a4.87,4.87,0,0,0-2.61-.45,5.94,5.94,0,0,0-5.91,5.93,4.92,4.92,0,0,0,.45,2.61Z" fill="#fff"/>
          <path d="M86.54,170.52a6.13,6.13,0,0,1,4.74-2.74v3.57a4.36,4.36,0,0,0-3,1.21,5.63,5.63,0,0,0-1.75,3.95v8.78H83.11V168.21h3.43Z" fill="#fff"/>
          <path d="M99.86,181.42a4.81,4.81,0,0,0,3.14.77,5.79,5.79,0,0,0,4.2-1.73c.14-.15.43-.5.88-1l3.43,1.23a24.07,24.07,0,0,1-1.82,2.31,9.45,9.45,0,1,1-.82-14.13c.28.23.55.48.82.75.11.11.42.46.94,1l-1.72,1.75Zm5.74-10.62a4.8,4.8,0,0,0-2.6-.45,5.92,5.92,0,0,0-5.91,5.93,5,5,0,0,0,.44,2.6Z" fill="#fff"/>
          <path d="M115.5,168.21h3.43v1.59a3.78,3.78,0,0,1,3.84-2.5,2.88,2.88,0,0,1,3.17,2.85c.54-1.9,2-2.85,4.48-2.85s3.62,1.46,3.62,4.4v13.59h-3.45v-12q0-2.52-2-2.52a2,2,0,0,0-1.46.6c-.41.4-.62,1.74-.62,4v9.92H123l0-12c0-1.68-.68-2.52-2.06-2.52a2,2,0,0,0-1.46.6c-.35.34-.55,1.25-.6,2.72v11.22H115.5Z" fill="#fff"/>
          <path d="M144.35,181.42a4.83,4.83,0,0,0,3.14.77,5.75,5.75,0,0,0,4.2-1.73c.14-.15.44-.5.88-1l3.44,1.23a23.67,23.67,0,0,1-1.83,2.31,9.44,9.44,0,1,1-.81-14.13q.4.34.81.75c.11.11.43.46.95,1l-1.73,1.75Zm5.75-10.62a4.87,4.87,0,0,0-2.61-.45,5.92,5.92,0,0,0-5.91,5.93,4.85,4.85,0,0,0,.45,2.6ZM148,161.93h4.18l-4.52,4.64h-3.27Z" fill="#fff"/>
          <path d="M174.82,169.39V158.73h3.45v26.56h-3.45v-2.12a7.86,7.86,0,0,1-5.8,2.57,9.46,9.46,0,0,1,0-18.92A7.82,7.82,0,0,1,174.82,169.39Zm0,8.17V175a5.52,5.52,0,0,0-1.62-2.93,5.9,5.9,0,0,0-8.37,0,5.73,5.73,0,0,0-1.74,4.19,5.66,5.66,0,0,0,1.74,4.18,5.93,5.93,0,0,0,8.37,0A5.48,5.48,0,0,0,174.82,177.56Z" fill="#fff"/>
          <path d="M187,161.88a2.3,2.3,0,0,1,.71,1.71,2.26,2.26,0,0,1-.71,1.71,2.41,2.41,0,0,1-3.4,0,2.27,2.27,0,0,1-.72-1.71,2.3,2.3,0,0,1,.72-1.71,2.44,2.44,0,0,1,3.4,0Zm0,6.33v17.08h-3.44V168.21Z" fill="#fff"/>
          <path d="M200.68,166.82a9.47,9.47,0,1,1-6.67,2.77A9.07,9.07,0,0,1,200.68,166.82Zm-4.19,5.27a5.73,5.73,0,0,0-1.74,4.19,5.66,5.66,0,0,0,1.74,4.18,5.94,5.94,0,0,0,8.38,0,5.66,5.66,0,0,0,1.74-4.18,5.93,5.93,0,0,0-10.12-4.19Z" fill="#fff"/>
          <path d="M217.56,181.62a2,2,0,0,0,1.47.6,2.07,2.07,0,0,0,1.46-3.52,13,13,0,0,0-1.78-1.28,11.86,11.86,0,0,1-2.64-1.79,4.46,4.46,0,0,1-1.36-3.27,4.52,4.52,0,0,1,1.36-3.3,4.47,4.47,0,0,1,3.29-1.36,4.32,4.32,0,0,1,3.2,1.29,4.07,4.07,0,0,1,1.16,2l-3.33,1a1.52,1.52,0,0,0-.24-.55,1.06,1.06,0,0,0-.79-.3,1.18,1.18,0,0,0-.86.36,1.13,1.13,0,0,0-.35.85,1.18,1.18,0,0,0,.34.85,12.42,12.42,0,0,0,1.43,1,13.58,13.58,0,0,1,3,2.06,5.49,5.49,0,1,1-7.77,7.77,5.39,5.39,0,0,1-1.46-2.77l3.42-.73A2.1,2.1,0,0,0,217.56,181.62Z" fill="#fff"/>
          <path d="M243.94,183.17V191h-3.43V168.21h3.43v1.54a7.47,7.47,0,0,1,5.8-2.92,9.46,9.46,0,0,1,0,18.91A7.86,7.86,0,0,1,243.94,183.17Zm0-8.22v2.67a5.52,5.52,0,0,0,1.61,2.86,5.94,5.94,0,1,0,0-8.39A5.56,5.56,0,0,0,243.94,175Z" fill="#fff"/>
          <path d="M271.78,166.82a9.46,9.46,0,1,1-6.67,2.77A9.1,9.1,0,0,1,271.78,166.82Zm-4.19,5.27a5.76,5.76,0,0,0-1.73,4.19,5.91,5.91,0,0,0,5.92,5.91,5.75,5.75,0,0,0,4.2-1.73,5.69,5.69,0,0,0,1.73-4.18,5.93,5.93,0,0,0-10.12-4.19Z" fill="#fff"/>
          <path d="M288.65,170.52a6.11,6.11,0,0,1,4.73-2.74v3.57a4.34,4.34,0,0,0-3,1.21,5.63,5.63,0,0,0-1.75,3.95v8.78h-3.43V168.21h3.43Z" fill="#fff"/>
          <path d="M89.91,220.23l3.43,1.23a24.07,24.07,0,0,1-1.82,2.31,9.46,9.46,0,1,1,0-13.38,23.26,23.26,0,0,1,1.82,2.27l-3.43,1.26c-.45-.54-.75-.89-.9-1a5.92,5.92,0,0,0-10.09,4.2A5.92,5.92,0,0,0,84.83,223a5.79,5.79,0,0,0,4.2-1.73C89.17,221.11,89.46,220.76,89.91,220.23Z" fill="#fff"/>
          <path d="M105.78,207.62a9.46,9.46,0,1,1-6.68,2.77A9.07,9.07,0,0,1,105.78,207.62Zm-4.2,5.27a5.76,5.76,0,0,0-1.73,4.19,5.69,5.69,0,0,0,1.73,4.18,6,6,0,0,0,8.39,0,5.65,5.65,0,0,0,1.73-4.18,5.93,5.93,0,0,0-10.12-4.19Z" fill="#fff"/>
          <path d="M122.66,213.59v12.5h-3.45V209h3.45v2a4.21,4.21,0,0,1,4.33-2.92,5.44,5.44,0,0,1,4.41,2,7.72,7.72,0,0,1,1.69,4.94v11.1h-3.44v-11a3.4,3.4,0,0,0-1.08-2.53,3.54,3.54,0,0,0-2.57-1.06,3.61,3.61,0,0,0-2.56,1A3.93,3.93,0,0,0,122.66,213.59Z" fill="#fff"/>
          <path d="M140.19,209V202.6h3.44V209h3.07v3.44h-3.07v13.64h-3.44V212.45h-3.07V209Z" fill="#fff"/>
          <path d="M165.51,210.21V209H169v17.1h-3.45V224a7.83,7.83,0,0,1-5.78,2.57,9.45,9.45,0,1,1,0-18.89A7.82,7.82,0,0,1,165.51,210.21Zm0,8.15v-2.53a5.62,5.62,0,0,0-1.59-2.92,5.94,5.94,0,0,0-8.38,0,5.92,5.92,0,0,0,4.19,10.1,5.76,5.76,0,0,0,4.19-1.73A5.62,5.62,0,0,0,165.51,218.36Z" fill="#fff"/>
          <path d="M189.15,224v7.87h-3.44V209h3.44v1.54a7.45,7.45,0,0,1,5.79-2.92,9.46,9.46,0,1,1,0,18.91A7.84,7.84,0,0,1,189.15,224Zm0-8.22v2.67a5.52,5.52,0,0,0,1.61,2.86,5.94,5.94,0,1,0,0-8.39A5.56,5.56,0,0,0,189.15,215.75Z" fill="#fff"/>
          <path d="M212,211.32a6.09,6.09,0,0,1,4.73-2.74v3.57a4.36,4.36,0,0,0-3,1.21,5.58,5.58,0,0,0-1.74,3.95v8.78h-3.44V209H212Z" fill="#fff"/>
          <path d="M228.5,207.62a9.46,9.46,0,1,1-6.68,2.77A9.09,9.09,0,0,1,228.5,207.62Zm-4.2,5.27a5.76,5.76,0,0,0-1.73,4.19,5.69,5.69,0,0,0,1.73,4.18,6,6,0,0,0,8.39,0,5.69,5.69,0,0,0,1.73-4.18,5.93,5.93,0,0,0-10.12-4.19Zm5.21-10.16h4.18l-4.51,4.64h-3.27Z" fill="#fff"/>
          <path d="M245.36,224v7.87h-3.43V209h3.43v1.54a7.46,7.46,0,0,1,5.8-2.92,9.46,9.46,0,0,1,0,18.91A7.84,7.84,0,0,1,245.36,224Zm0-8.22v2.67a5.52,5.52,0,0,0,1.61,2.86,5.94,5.94,0,1,0,0-8.39A5.56,5.56,0,0,0,245.36,215.75Z" fill="#fff"/>
          <path d="M268.19,211.32a6.09,6.09,0,0,1,4.73-2.74v3.57a4.36,4.36,0,0,0-3,1.21,5.62,5.62,0,0,0-1.74,3.95v8.78h-3.44V209h3.44Z" fill="#fff"/>
          <path d="M280.29,202.68a2.3,2.3,0,0,1,.72,1.71,2.27,2.27,0,0,1-.72,1.71,2.41,2.41,0,0,1-3.4,0,2.26,2.26,0,0,1-.71-1.71,2.3,2.3,0,0,1,.71-1.71,2.44,2.44,0,0,1,3.4,0Zm0,6.33v17.08h-3.44V209Z" fill="#fff"/>
          <path d="M300.38,210.21V209h3.45v17.1h-3.45V224a7.83,7.83,0,0,1-5.78,2.57,9.45,9.45,0,1,1,0-18.89A7.82,7.82,0,0,1,300.38,210.21Zm0,8.15v-2.53a5.62,5.62,0,0,0-1.59-2.92,5.94,5.94,0,0,0-8.38,0A5.92,5.92,0,0,0,294.6,223a5.76,5.76,0,0,0,4.19-1.73A5.62,5.62,0,0,0,300.38,218.36Z" fill="#fff"/>
          <path d="M311.51,222.19a2.3,2.3,0,0,1,.71,1.69,2.4,2.4,0,0,1-4.1,1.73,2.3,2.3,0,0,1-.72-1.73,2.28,2.28,0,0,1,.72-1.69,2.4,2.4,0,0,1,3.39,0Z" fill="#fff"/>
        </g>
      </g>
    </g>
  </g>
</svg>
