<svg xmlns="http://www.w3.org/2000/svg" viewBox="0 0 386.6 350">
  <g id="e3fcfb84-94ae-475f-b939-421d97b84d55" data-name="Camada 2">
    <g id="a3b1c0c4-ebf5-4e3c-bd59-4c2aa56f71a1" data-name="layout">
      <g>
        <polygon id="f72b4ac7-5d53-4c41-a5cc-2b9b0a9aae9a" data-name="3" points="0 0 0 300.23 192.95 350 386.6 300.23 386.6 0 192.95 47.85 0 0" fill="#cc0001"/>
        <g>
          <path d="M162.17,90.06a11.53,11.53,0,0,1-4.57-2.69A5.9,5.9,0,0,1,155.85,83a6.22,6.22,0,0,1,10.6-4.38,7.56,7.56,0,0,1,1.73,3.17L165.06,83a6.08,6.08,0,0,0-1-2,2.8,2.8,0,0,0-3.93,0,2.62,2.62,0,0,0-.82,2,2.66,2.66,0,0,0,.82,2,8.65,8.65,0,0,0,2.52,1.64,13.1,13.1,0,0,1,5.29,3.19,7.9,7.9,0,0,1,2.45,5.84,8.27,8.27,0,0,1-14.15,5.86,9.35,9.35,0,0,1-2.46-5.36L157.09,95a6.92,6.92,0,0,0,1.54,4.17,4.87,4.87,0,1,0,6.88-6.89A10.18,10.18,0,0,0,162.17,90.06Z" fill="#fff"/>
          <path d="M178.54,99.83a4.89,4.89,0,0,0,3.14.76,5.75,5.75,0,0,0,4.2-1.73c.14-.15.44-.5.88-1l3.44,1.23a22.19,22.19,0,0,1-1.83,2.31,9.44,9.44,0,1,1-.81-14.13c.27.23.55.48.81.75.11.11.43.46.95,1l-1.73,1.75Zm5.75-10.63a4.87,4.87,0,0,0-2.61-.45,5.94,5.94,0,0,0-5.91,5.93,4.85,4.85,0,0,0,.45,2.6Z" fill="#fff"/>
          <path d="M212.69,85.22A9.46,9.46,0,1,1,206,88,9.09,9.09,0,0,1,212.69,85.22Zm-4.2,5.27a5.76,5.76,0,0,0-1.73,4.19,5.69,5.69,0,0,0,1.73,4.18,6,6,0,0,0,8.39,0,5.69,5.69,0,0,0,1.73-4.18,5.93,5.93,0,0,0-10.12-4.19Z" fill="#fff"/>
          <path d="M84.64,130.86a11.64,11.64,0,0,1-4.58-2.69,6.22,6.22,0,0,1,4.48-10.54,6,6,0,0,1,4.38,1.81,7.67,7.67,0,0,1,1.73,3.17l-3.12,1.23a6.08,6.08,0,0,0-1-2,2.81,2.81,0,0,0-3.94,0,2.65,2.65,0,0,0-.81,2,2.69,2.69,0,0,0,.81,2,8.71,8.71,0,0,0,2.53,1.64,13.1,13.1,0,0,1,5.29,3.19,7.89,7.89,0,0,1,2.44,5.84,8.27,8.27,0,0,1-14.14,5.86A9.23,9.23,0,0,1,76.22,137l3.34-1.21a6.86,6.86,0,0,0,1.54,4.17A4.86,4.86,0,1,0,88,133,10,10,0,0,0,84.64,130.86Z" fill="#fff"/>
          <path d="M105.11,117.59l9.82,27h-4.12l-3.28-9h-6.74l-3.26,9H93.4l9.82-27Zm1.33,14-2.28-6.22-2.25,6.22Z" fill="#fff"/>
          <path d="M121.49,117.59l8.44,15.14,8.41-15.14h3.07v27h-3V125.4l-8.48,14.34-8.52-14.34v19.19h-3v-27Z" fill="#fff"/>
          <path d="M161.41,117.59h3V136.3a9.22,9.22,0,0,1-2.63,5.41,8.79,8.79,0,0,1-7.56,2.59,8.15,8.15,0,0,1-4.29-1.78,8.92,8.92,0,0,1-3.52-7.18V117.59h4v17.75a5.55,5.55,0,0,0,2.32,4.55,4.7,4.7,0,0,0,2.29,1,5.43,5.43,0,0,0,5.25-2.09,5.5,5.5,0,0,0,1.14-3.46Z" fill="#fff"/>
          <path d="M194.41,128.59v-11h3v27h-3v-2.22a8.22,8.22,0,0,1-5.89,2.57,9.46,9.46,0,0,1,0-18.92A8.18,8.18,0,0,1,194.41,128.59Zm0,8.17v-2.54a6,6,0,0,0-2.41-3.63,4.69,4.69,0,0,0-2.13-.93,5.9,5.9,0,0,0-5.44,1.63,6,6,0,0,0-1.55,5.85,3.61,3.61,0,0,0,.52,1.25,6.06,6.06,0,0,0,6.38,2.91,5,5,0,0,0,2.37-1.05A5.89,5.89,0,0,0,194.41,136.76Z" fill="#fff"/>
          <path d="M207,140.62a4.81,4.81,0,0,0,3.14.77,5.79,5.79,0,0,0,4.2-1.73c.14-.15.43-.5.88-1l3.43,1.23a24.07,24.07,0,0,1-1.82,2.31A9.45,9.45,0,1,1,216,128c.28.23.55.48.82.75.11.11.42.46.94,1L216,131.58ZM212.69,130a4.82,4.82,0,0,0-2.6-.45,5.92,5.92,0,0,0-5.91,5.93,5,5,0,0,0,.44,2.6Z" fill="#fff"/>
          <path d="M221.41,127.59h3v1.59a3.74,3.74,0,0,1,3.81-2.5,2.87,2.87,0,0,1,3.15,2.84q.81-2.84,4.45-2.84c2.4,0,3.59,1.46,3.59,4.38v13.53h-3v-12q0-2.52-2-2.52a1.94,1.94,0,0,0-1.42.6c-.4.39-.6,1.73-.6,4v9.93h-4l0-12q0-2.52-2-2.52a1.94,1.94,0,0,0-1.42.6c-.35.34-.54,1.25-.59,2.72v11.22h-3Z" fill="#fff"/>
          <path d="M251.84,126a9.46,9.46,0,1,1-6.68,2.77A9.07,9.07,0,0,1,251.84,126Zm-4.19,5.27a5.73,5.73,0,0,0-1.74,4.19,5.92,5.92,0,0,0,5.93,5.91,5.73,5.73,0,0,0,4.19-1.73,5.65,5.65,0,0,0,1.73-4.18,5.92,5.92,0,0,0-10.11-4.19Z" fill="#fff"/>
          <path d="M267.41,129.9a6.55,6.55,0,0,1,5-2.74v3.57a4.77,4.77,0,0,0-3.15,1.21,5.48,5.48,0,0,0-1.85,3.95v8.7h-3v-17h3Z" fill="#fff"/>
          <path d="M289.41,128.61v-1h3v17h-3v-2.22c-2.23,1.71-4.16,2.57-6.35,2.57a9.45,9.45,0,1,1,0-18.89C285.25,126.05,287.18,126.9,289.41,128.61Zm-1,8.15v-2.53a5.62,5.62,0,0,0-1.59-2.92,5.89,5.89,0,0,0-5.23-1.65,5.14,5.14,0,0,0-2.34,1,5.91,5.91,0,0,0-2.47,5.9,5.13,5.13,0,0,0,1,2.36,5.89,5.89,0,0,0,4.88,2.53,5.74,5.74,0,0,0,4.18-1.73A5.62,5.62,0,0,0,288.41,136.76Z" fill="#fff"/>
          <path d="M299.41,129.9a6.55,6.55,0,0,1,5-2.74v3.57a4.77,4.77,0,0,0-3.15,1.21,5.48,5.48,0,0,0-1.85,3.95v8.7h-3v-17h3Z" fill="#fff"/>
          <path d="M310.43,139.59l-3.85,8H303.3l2.13-8Z" fill="#fff"/>
          <path d="M71,185.59l-8.11-17h3.86l5.11,11,5.12-11h3.86l-8.12,17Z" fill="#fff"/>
          <path d="M96.41,169.41v-.82h3v17h-3v-2.42a6.85,6.85,0,0,1-5.5,2.57,9.45,9.45,0,1,1,0-18.89A6.84,6.84,0,0,1,96.41,169.41Zm0,8.15V175a5.62,5.62,0,0,0-1.59-2.92,5.89,5.89,0,0,0-5.23-1.65,5.14,5.14,0,0,0-2.34,1,5.92,5.92,0,0,0-2.47,5.89,5,5,0,0,0,1,2.37,5.88,5.88,0,0,0,4.88,2.53,5.74,5.74,0,0,0,4.18-1.73A5.58,5.58,0,0,0,96.41,177.56Zm-4.63-16H96.3l-4.88,5H87.89Z" fill="#fff"/>
          <path d="M130.41,169.41v-.82h3v17h-3v-2.42a9.49,9.49,0,0,1-6.19,2.57,9.45,9.45,0,1,1,0-18.89A9.47,9.47,0,0,1,130.41,169.41Zm0,8.15V175a5.62,5.62,0,0,0-1.59-2.92,5.89,5.89,0,0,0-5.23-1.65,5.14,5.14,0,0,0-2.34,1,5.92,5.92,0,0,0-2.47,5.89,5,5,0,0,0,1,2.37,5.88,5.88,0,0,0,4.88,2.53,5.74,5.74,0,0,0,4.18-1.73A5.58,5.58,0,0,0,130.41,177.56Z" fill="#fff"/>
          <path d="M145.79,166.82a9.46,9.46,0,1,1-6.68,2.77A9.07,9.07,0,0,1,145.79,166.82Zm-4.19,5.28a5.89,5.89,0,1,0,4.19-1.75A5.69,5.69,0,0,0,141.6,172.1Z" fill="#fff"/>
          <path d="M172.41,174.59v11h-3v-27h3v12h9v-12h3v27h-4v-11Z" fill="#fff"/>
          <path d="M211.46,162.37a13.58,13.58,0,1,1-9.61-4A13.11,13.11,0,0,1,211.46,162.37Zm-9.61-.52a10.12,10.12,0,1,0,7.16,3A9.77,9.77,0,0,0,201.85,161.85Z" fill="#fff"/>
          <path d="M225.8,171.66a11.6,11.6,0,0,1-4.57-2.69,6.21,6.21,0,0,1,.07-8.71,6,6,0,0,1,4.4-1.83,6,6,0,0,1,4.39,1.81,7.67,7.67,0,0,1,1.72,3.17l-3.12,1.23a5.89,5.89,0,0,0-1-2,2.8,2.8,0,0,0-3.93,0,2.66,2.66,0,0,0-.82,2,2.7,2.7,0,0,0,.82,2,8.79,8.79,0,0,0,2.52,1.64,13.14,13.14,0,0,1,5.3,3.19,8.28,8.28,0,1,1-11.71,11.71,9.34,9.34,0,0,1-2.45-5.37l3.33-1.21a6.86,6.86,0,0,0,1.55,4.17,4.86,4.86,0,1,0,6.87-6.89A10.18,10.18,0,0,0,225.8,171.66Z" fill="#fff"/>
          <path d="M240.41,176.59v9h-3v-27h7.2a10.24,10.24,0,0,1,5.41,2.78,9.05,9.05,0,0,1,0,12.78,7.81,7.81,0,0,1-6.37,2.44Zm0-14v11h3.1a5.43,5.43,0,0,0,4.47-2.3,4.74,4.74,0,0,0,.94-2.25,5.39,5.39,0,0,0-1.54-4.84,5.31,5.31,0,0,0-3.87-1.61Z" fill="#fff"/>
          <path d="M258.41,158.59v27h-3v-27Z" fill="#fff"/>
          <path d="M271.41,161.59v24h-3v-24h-7v-3h16v3Z" fill="#fff"/>
          <path d="M287.82,158.59l9.83,27h-4.12l-3.28-9h-6.74l-3.26,9h-4.14l9.82-27Zm1.33,14-2.27-6.22-2.26,6.22Z" fill="#fff"/>
          <path d="M300.41,184.59v-26h3v23h10v3Z" fill="#fff"/>
          <path d="M83.41,208.59h3v1.59a3.74,3.74,0,0,1,3.81-2.5,2.87,2.87,0,0,1,3.15,2.84q.81-2.84,4.45-2.84c2.4,0,3.59,1.46,3.59,4.38v13.53h-3v-12q0-2.52-2-2.52a1.94,1.94,0,0,0-1.42.6c-.4.39-.6,1.73-.6,4v9.93h-4l0-12q0-2.52-2-2.52a1.94,1.94,0,0,0-1.42.6c-.35.34-.54,1.25-.59,2.72v11.22h-3Z" fill="#fff"/>
          <path d="M120.41,210.21v-1.62h3v17h-3V224c-2.24,1.71-4.17,2.57-6.36,2.57a9.45,9.45,0,1,1,0-18.89C116.24,207.65,118.17,208.5,120.41,210.21Zm-1,8.15v-2.53a5.62,5.62,0,0,0-1.59-2.92,5.89,5.89,0,0,0-5.23-1.65,5.14,5.14,0,0,0-2.34,1,5.92,5.92,0,0,0-2.47,5.89,5,5,0,0,0,1,2.37,5.88,5.88,0,0,0,4.88,2.53,5.74,5.74,0,0,0,4.18-1.73A5.58,5.58,0,0,0,119.41,218.36Z" fill="#fff"/>
          <path d="M130.71,202.69a2.27,2.27,0,0,1,.72,1.71,2.3,2.3,0,0,1-.72,1.71,2.44,2.44,0,0,1-3.4,0,2.3,2.3,0,0,1-.71-1.71,2.26,2.26,0,0,1,.71-1.71,2.41,2.41,0,0,1,3.4,0Zm-.3,5.9v17h-3v-17Z" fill="#fff"/>
          <path d="M137.67,222.42a2,2,0,0,0,1.46.6,2,2,0,0,0,1.45-.6,2.06,2.06,0,0,0,0-2.92,13,13,0,0,0-1.78-1.28,11.86,11.86,0,0,1-2.64-1.79,4.65,4.65,0,0,1,3.29-7.93,4.3,4.3,0,0,1,3.2,1.29,4.17,4.17,0,0,1,1.17,2l-3.34,1a1.77,1.77,0,0,0-.23-.55,1.09,1.09,0,0,0-.8-.3,1.23,1.23,0,0,0-1.21,1.21,1.17,1.17,0,0,0,.35.85,11.53,11.53,0,0,0,1.43,1,13.47,13.47,0,0,1,3,2.06,5.27,5.27,0,0,1,1.61,3.87,5.36,5.36,0,0,1-1.6,3.91,5.47,5.47,0,0,1-7.78,0,5.47,5.47,0,0,1-1.46-2.77l3.42-.73A2.09,2.09,0,0,0,137.67,222.42Z" fill="#fff"/>
          <path d="M162.41,224v7.62h-3v-23h3v2a7.26,7.26,0,0,1,5.73-2.92,9.46,9.46,0,0,1,0,18.91A7.62,7.62,0,0,1,162.41,224Zm0-8.22v2.67a5.48,5.48,0,0,0,1.61,2.86,5.74,5.74,0,0,0,4.22,1.73,6,6,0,0,0,4.12-1.7,5.71,5.71,0,0,0,1.77-4.23,5.89,5.89,0,0,0-2.49-4.85,5.11,5.11,0,0,0-2.41-1A5.85,5.85,0,0,0,164,212.9,5.5,5.5,0,0,0,162.41,215.75Z" fill="#fff"/>
          <path d="M185.87,222.23A4.86,4.86,0,0,0,189,223a5.79,5.79,0,0,0,4.21-1.73c.14-.15.43-.5.87-1l3.44,1.23a24.07,24.07,0,0,1-1.82,2.31,9.45,9.45,0,1,1-.82-14.13c.28.23.55.48.82.75.11.11.42.46.94,1l-1.73,1.75Zm5.74-10.63a4.84,4.84,0,0,0-2.61-.45,5.94,5.94,0,0,0-5.91,5.93,4.92,4.92,0,0,0,.45,2.61Z" fill="#fff"/>
          <path d="M203.41,210.9a6.55,6.55,0,0,1,5-2.74v3.57a4.77,4.77,0,0,0-3.15,1.21,5.48,5.48,0,0,0-1.85,3.95v8.7h-3v-17h3Z" fill="#fff"/>
          <path d="M213.41,209.59v-7h3v7h3v3h-3v14h-3v-14h-4v-3Z" fill="#fff"/>
          <path d="M230,207.62a9.46,9.46,0,1,1-6.67,2.77A9.1,9.1,0,0,1,230,207.62Zm-4.19,5.28a5.91,5.91,0,0,0,0,8.36A5.92,5.92,0,1,0,230,211.15,5.69,5.69,0,0,0,225.85,212.9Z" fill="#fff"/>
          <path d="M268.41,210.19v-10.6h3v27h-3V224a8.06,8.06,0,0,1-5.85,2.57,9.46,9.46,0,0,1,0-18.92A8,8,0,0,1,268.41,210.19Zm0,8.17v-2.54a5.9,5.9,0,0,0-2.34-3.57,4.94,4.94,0,0,0-2.41-1,6,6,0,0,0-6.89,6.89,5.12,5.12,0,0,0,1,2.36,6,6,0,0,0,9.09.76A5.46,5.46,0,0,0,268.41,218.36Z" fill="#fff"/>
          <path d="M290.41,210.21v-1.62h3v17h-3V224a8.77,8.77,0,0,1-6,2.57,9.45,9.45,0,1,1,0-18.89A8.75,8.75,0,0,1,290.41,210.21Zm0,8.15v-2.53a5.62,5.62,0,0,0-1.59-2.92,5.89,5.89,0,0,0-5.23-1.65,5.14,5.14,0,0,0-2.34,1,5.92,5.92,0,0,0-2.47,5.89,5,5,0,0,0,1,2.37,5.88,5.88,0,0,0,4.88,2.53,5.74,5.74,0,0,0,4.18-1.73A5.58,5.58,0,0,0,290.41,218.36Z" fill="#fff"/>
          <path d="M125.36,263.22a2,2,0,0,0,1.46.6,2.06,2.06,0,0,0,1.46-3.52A13,13,0,0,0,126.5,259a11.86,11.86,0,0,1-2.64-1.79A4.5,4.5,0,0,1,122.5,254a4.56,4.56,0,0,1,1.36-3.3,4.48,4.48,0,0,1,3.29-1.36,4.32,4.32,0,0,1,3.2,1.29,4.17,4.17,0,0,1,1.17,2l-3.34,1a1.77,1.77,0,0,0-.23-.55,1.09,1.09,0,0,0-.8-.3,1.21,1.21,0,0,0-1.21,1.21,1.13,1.13,0,0,0,.35.85,12,12,0,0,0,1.42,1,13.34,13.34,0,0,1,3,2.06,5.27,5.27,0,0,1,1.61,3.87,5.36,5.36,0,0,1-1.6,3.91,5.47,5.47,0,0,1-7.78,0,5.47,5.47,0,0,1-1.46-2.77l3.42-.73A2.09,2.09,0,0,0,125.36,263.22Z" fill="#fff"/>
          <path d="M142.5,266.91a6.78,6.78,0,0,1-5.1-2,7,7,0,0,1-2-4.95V249.59h3v10.26a3.53,3.53,0,0,0,1,2.54,3.37,3.37,0,0,0,2.54,1.06,3.28,3.28,0,0,0,2.42-1.05,3.52,3.52,0,0,0,1-2.55V249.59h4V260a7,7,0,0,1-2,4.95A6.62,6.62,0,0,1,142.5,266.91Z" fill="#fff"/>
          <path d="M167.41,251v-1.42h3v17h-3v-1.82a7.45,7.45,0,0,1-5.68,2.57,9.45,9.45,0,1,1,0-18.89A7.44,7.44,0,0,1,167.41,251Zm0,8.15v-2.53a5.62,5.62,0,0,0-1.59-2.92,5.89,5.89,0,0,0-5.23-1.65,5.14,5.14,0,0,0-2.34,1,5.92,5.92,0,0,0-2.47,5.89,5,5,0,0,0,1,2.37,5.88,5.88,0,0,0,4.88,2.53,5.74,5.74,0,0,0,4.18-1.73A5.62,5.62,0,0,0,167.41,259.16Z" fill="#fff"/>
          <path d="M199.55,261l3.43,1.23a24.07,24.07,0,0,1-1.82,2.31,9.46,9.46,0,1,1,0-13.38,23.26,23.26,0,0,1,1.82,2.27l-3.43,1.26c-.45-.54-.75-.89-.9-1a5.92,5.92,0,0,0-10.09,4.2,5.92,5.92,0,0,0,5.91,5.91,5.79,5.79,0,0,0,4.2-1.73C198.81,261.91,199.1,261.56,199.55,261Z" fill="#fff"/>
          <path d="M220.41,251v-1.42h3v17h-3v-1.82a9.66,9.66,0,0,1-6.23,2.57,9.45,9.45,0,1,1,0-18.89A9.65,9.65,0,0,1,220.41,251Zm0,8.15v-2.53a5.62,5.62,0,0,0-1.59-2.92,5.89,5.89,0,0,0-5.23-1.65,5.14,5.14,0,0,0-2.34,1,5.92,5.92,0,0,0-2.47,5.89,5,5,0,0,0,1,2.37,5.88,5.88,0,0,0,4.88,2.53,5.74,5.74,0,0,0,4.18-1.73A5.62,5.62,0,0,0,220.41,259.16Z" fill="#fff"/>
          <path d="M230.25,263.22a2,2,0,0,0,1.47.6,2,2,0,0,0,2.05-2.07,2,2,0,0,0-.59-1.45A13,13,0,0,0,231.4,259a11.86,11.86,0,0,1-2.64-1.79A4.46,4.46,0,0,1,227.4,254a4.52,4.52,0,0,1,1.36-3.3,4.47,4.47,0,0,1,3.29-1.36,4.32,4.32,0,0,1,3.2,1.29,4.07,4.07,0,0,1,1.16,2l-3.33,1a1.52,1.52,0,0,0-.24-.55,1,1,0,0,0-.79-.3,1.21,1.21,0,0,0-1.21,1.21,1.16,1.16,0,0,0,.34.85,12.42,12.42,0,0,0,1.43,1,13.58,13.58,0,0,1,3,2.06,5.49,5.49,0,1,1-7.77,7.77,5.39,5.39,0,0,1-1.46-2.77l3.42-.73A2.1,2.1,0,0,0,230.25,263.22Z" fill="#fff"/>
          <path d="M254.41,251v-1.42h3v17h-3v-1.82a7.31,7.31,0,0,1-5.63,2.57,9.45,9.45,0,1,1,0-18.89A7.3,7.3,0,0,1,254.41,251Zm0,8.15v-2.53a5.62,5.62,0,0,0-1.59-2.92,5.89,5.89,0,0,0-5.23-1.65,5.14,5.14,0,0,0-2.34,1,5.92,5.92,0,0,0-2.47,5.89,5,5,0,0,0,1,2.37,5.88,5.88,0,0,0,4.88,2.53,5.74,5.74,0,0,0,4.18-1.73A5.62,5.62,0,0,0,254.41,259.16Z" fill="#fff"/>
          <path d="M265.67,263a2.41,2.41,0,1,1-4.11,1.7,2.28,2.28,0,0,1,.72-1.7,2.4,2.4,0,0,1,3.39,0Z" fill="#fff"/>
        </g>
      </g>
    </g>
  </g>
</svg>
