<svg xmlns="http://www.w3.org/2000/svg" viewBox="0 0 386.6 350"><defs><style>.cls-1{fill:#820000;}.cls-2{fill:#fff;}</style></defs><g id="Layer_2" data-name="Layer 2"><g id="layout"><polygon id="_2" data-name="2" class="cls-1" points="0 0 0 300.23 192.95 350 386.6 300.23 386.6 0 192.95 47.85 0 0"/><path class="cls-2" d="M91.29,111.68h3.88l13.54,23.42V111.68H113v32.81h-3.71l-13.72-23.7v23.7H91.29Z"/><path class="cls-2" d="M137.42,124.87v-1.48h4.26v21.12h-4.26v-2.64a9.64,9.64,0,0,1-7.14,3.18,11.67,11.67,0,1,1,0-23.34A9.66,9.66,0,0,1,137.42,124.87Zm0,10.07v-3.12a6.94,6.94,0,0,0-2-3.61,7.35,7.35,0,0,0-10.35,0,7.3,7.3,0,0,0,0,10.33,7.34,7.34,0,0,0,10.35,0A7,7,0,0,0,137.42,134.94Zm-6.77-18.64c.85.79,1.45,1.18,1.8,1.18v0c.41,0,.62-.27.62-.8a5.13,5.13,0,0,0-.27-1.42h3.82q-.78,4.51-3,5.17a4.09,4.09,0,0,1-1.15.16,3.84,3.84,0,0,1-2.73-1.17q-1.23-1.17-1.8-1.17h-.08c-.41,0-.62.3-.62.8a4.49,4.49,0,0,0,.29,1.36h-3.83q.79-4.51,3-5.17a4.2,4.2,0,0,1,1.15-.16A4,4,0,0,1,130.65,116.3Z"/><path class="cls-2" d="M158.29,121.67a11.69,11.69,0,1,1-8.24,3.42A11.25,11.25,0,0,1,158.29,121.67Zm-5.17,6.52a7.3,7.3,0,1,0,5.17-2.15A7,7,0,0,0,153.12,128.19Z"/><path class="cls-2" d="M192,123.39v-7.92h4.24v7.92H200v4.25h-3.8v16.85H192V127.64h-3.8v-4.25Z"/><path class="cls-2" d="M215.39,121.67a11.68,11.68,0,1,1-8.25,3.42A11.23,11.23,0,0,1,215.39,121.67Zm-5.18,6.52a7.32,7.32,0,1,0,5.18-2.15A7.07,7.07,0,0,0,210.21,128.19Z"/><path class="cls-2" d="M232,123.39h4.24v2a4.66,4.66,0,0,1,4.74-3.1q3.48,0,3.92,3.53,1-3.53,5.53-3.53t4.48,5.44v16.79h-4.27V129.65q0-3.12-2.52-3.12a2.48,2.48,0,0,0-1.81.74c-.5.49-.76,2.14-.76,5v12.26h-4.24l0-14.84c0-2.08-.85-3.12-2.54-3.12a2.48,2.48,0,0,0-1.81.74c-.44.42-.68,1.54-.74,3.36v13.86H232Z"/><path class="cls-2" d="M267.62,139.71c.71.63,2,.95,3.88.95a7.13,7.13,0,0,0,5.19-2.13c.17-.2.54-.62,1.08-1.28l4.25,1.52a25.75,25.75,0,0,1-2.26,2.85,11.67,11.67,0,1,1-1-17.45c.34.29.67.59,1,.92q.21.21,1.17,1.29l-2.13,2.16Zm7.1-13.12a6,6,0,0,0-3.22-.55,7.31,7.31,0,0,0-7.3,7.32,6.08,6.08,0,0,0,.55,3.22Z"/><path class="cls-2" d="M61.43,176.64a7.54,7.54,0,0,1,5.84-3.38v4.41a5.43,5.43,0,0,0-3.69,1.49,6.93,6.93,0,0,0-2.15,4.89v10.84H57.18v-21.1h4.25Z"/><path class="cls-2" d="M77.87,190.12c.71.62,2,.94,3.88.94a7.13,7.13,0,0,0,5.19-2.13c.18-.2.54-.62,1.08-1.28l4.25,1.52A25.75,25.75,0,0,1,90,192a11.67,11.67,0,1,1-1-17.45c.34.29.68.6,1,.92.14.14.53.57,1.17,1.3l-2.13,2.15ZM85,177a6,6,0,0,0-3.22-.55,7.31,7.31,0,0,0-7.3,7.32A6.08,6.08,0,0,0,75,187Z"/><path class="cls-2" d="M97.19,173.79h4.25v2a4.66,4.66,0,0,1,4.73-3.1c2.33,0,3.63,1.18,3.92,3.53q1-3.52,5.54-3.53t4.47,5.44v16.79h-4.27V180.05q0-3.12-2.52-3.12a2.45,2.45,0,0,0-1.8.74c-.51.49-.76,2.14-.76,5v12.26H106.5l0-14.84c0-2.08-.85-3.12-2.54-3.12a2.48,2.48,0,0,0-1.81.74c-.43.42-.68,1.54-.73,3.36v13.86H97.19Z"/><path class="cls-2" d="M132.83,190.12c.71.62,2,.94,3.88.94a7.13,7.13,0,0,0,5.19-2.13c.18-.2.54-.62,1.09-1.28l4.24,1.52A25.75,25.75,0,0,1,145,192a11.67,11.67,0,1,1-1-17.45c.34.29.68.6,1,.92.14.14.53.57,1.17,1.3L144,178.94Zm7.1-13.13a6,6,0,0,0-3.22-.55,7.31,7.31,0,0,0-7.3,7.32A6.08,6.08,0,0,0,130,187Zm-2.54-11h5.16L137,171.76h-4Z"/><path class="cls-2" d="M170.47,175.25V162.08h4.26v32.81h-4.26v-2.62a9.69,9.69,0,0,1-7.16,3.18,11.69,11.69,0,0,1,0-23.38A9.69,9.69,0,0,1,170.47,175.25Zm0,10.09V182.2a6.83,6.83,0,0,0-2-3.61,7.3,7.3,0,1,0,0,10.34A6.85,6.85,0,0,0,170.47,185.34Z"/><path class="cls-2" d="M185.46,166a3,3,0,0,1,0,4.22,2.91,2.91,0,0,1-2.12.86,2.88,2.88,0,0,1-2.09-.86,3,3,0,0,1,0-4.22,2.88,2.88,0,0,1,2.09-.86A2.91,2.91,0,0,1,185.46,166Zm0,7.81v21.1h-4.25v-21.1Z"/><path class="cls-2" d="M202.42,172.07a11.68,11.68,0,1,1-8.25,3.42A11.24,11.24,0,0,1,202.42,172.07Zm-5.18,6.52a7.32,7.32,0,1,0,5.18-2.15A7.07,7.07,0,0,0,197.24,178.59Z"/><path class="cls-2" d="M223.27,190.36a2.52,2.52,0,0,0,1.81.74,2.55,2.55,0,0,0,1.8-4.35,14.72,14.72,0,0,0-2.19-1.58,14.79,14.79,0,0,1-3.26-2.21,5.75,5.75,0,0,1,4.06-9.8,5.34,5.34,0,0,1,4,1.6,5,5,0,0,1,1.43,2.52l-4.12,1.19a1.94,1.94,0,0,0-.29-.68,1.3,1.3,0,0,0-1-.37,1.5,1.5,0,0,0-1.5,1.5,1.39,1.39,0,0,0,.43,1,13.2,13.2,0,0,0,1.77,1.25,16.87,16.87,0,0,1,3.69,2.55,6.8,6.8,0,0,1-4.8,11.61,6.5,6.5,0,0,1-4.8-2,6.68,6.68,0,0,1-1.81-3.43l4.23-.9A2.54,2.54,0,0,0,223.27,190.36Z"/><path class="cls-2" d="M255.86,192.27V202h-4.24v-28.2h4.24v1.91a9.18,9.18,0,0,1,7.16-3.61,11.68,11.68,0,0,1,0,23.36A9.67,9.67,0,0,1,255.86,192.27Zm0-10.15v3.3a6.79,6.79,0,0,0,2,3.53,7.32,7.32,0,0,0,12.49-5.19,7.11,7.11,0,0,0-2.14-5.17,7.3,7.3,0,0,0-10.35,0A6.76,6.76,0,0,0,255.86,182.12Z"/><path class="cls-2" d="M290.25,172.07a11.69,11.69,0,1,1-8.24,3.42A11.25,11.25,0,0,1,290.25,172.07Zm-5.18,6.52a7.32,7.32,0,1,0,5.18-2.15A7.07,7.07,0,0,0,285.07,178.59Z"/><path class="cls-2" d="M311.09,176.64a7.54,7.54,0,0,1,5.84-3.38v4.41a5.45,5.45,0,0,0-3.69,1.49,6.93,6.93,0,0,0-2.15,4.89v10.84h-4.25v-21.1h4.25Z"/><path class="cls-2" d="M65.58,238.05l4.24,1.52a27.37,27.37,0,0,1-2.25,2.85,11.69,11.69,0,1,1,0-16.53,30.4,30.4,0,0,1,2.25,2.81l-4.24,1.56q-.83-1-1.11-1.29a7.3,7.3,0,1,0,0,10.36C64.67,239.13,65,238.71,65.58,238.05Z"/><path class="cls-2" d="M85.18,222.47a11.69,11.69,0,1,1-8.24,3.42A11.25,11.25,0,0,1,85.18,222.47ZM80,229a7.32,7.32,0,1,0,10.36,0A7.32,7.32,0,0,0,80,229Z"/><path class="cls-2" d="M106,229.85v15.44h-4.27v-21.1H106v2.46a5.2,5.2,0,0,1,5.35-3.61,6.72,6.72,0,0,1,5.45,2.43,9.53,9.53,0,0,1,2.08,6.1v13.72h-4.25V231.74a4.21,4.21,0,0,0-1.33-3.13,4.55,4.55,0,0,0-6.34,0A4.91,4.91,0,0,0,106,229.85Z"/><path class="cls-2" d="M127.7,224.19v-7.92h4.24v7.92h3.8v4.25h-3.8v16.85H127.7V228.44h-3.8v-4.25Z"/><path class="cls-2" d="M159,225.67v-1.48h4.27v21.12H159v-2.64a9.64,9.64,0,0,1-7.14,3.18,11.67,11.67,0,1,1,0-23.34A9.66,9.66,0,0,1,159,225.67Zm0,10.07v-3.12a6.87,6.87,0,0,0-2-3.61,7.3,7.3,0,1,0,0,10.34A6.9,6.9,0,0,0,159,235.74Z"/><path class="cls-2" d="M188.17,242.67v9.72h-4.24v-28.2h4.24v1.91a9.18,9.18,0,0,1,7.16-3.61,11.68,11.68,0,0,1,0,23.36A9.67,9.67,0,0,1,188.17,242.67Zm0-10.15v3.3a6.86,6.86,0,0,0,2,3.53,7.33,7.33,0,1,0,0-10.36A6.82,6.82,0,0,0,188.17,232.52Z"/><path class="cls-2" d="M216.37,227a7.54,7.54,0,0,1,5.85-3.38v4.41a5.41,5.41,0,0,0-3.69,1.49,6.94,6.94,0,0,0-2.16,4.88v10.85h-4.24v-21.1h4.24Z"/><path class="cls-2" d="M236.78,222.47a11.68,11.68,0,1,1-8.25,3.42A11.24,11.24,0,0,1,236.78,222.47ZM231.6,229a7.32,7.32,0,1,0,5.18-2.15A7.05,7.05,0,0,0,231.6,229ZM238,216.44h5.17l-5.58,5.72h-4Z"/><path class="cls-2" d="M257.61,242.67v9.72h-4.24v-28.2h4.24v1.91a9.18,9.18,0,0,1,7.16-3.61,11.68,11.68,0,0,1,0,23.36A9.67,9.67,0,0,1,257.61,242.67Zm0-10.15v3.3a6.86,6.86,0,0,0,2,3.53,7.33,7.33,0,1,0,0-10.36A6.82,6.82,0,0,0,257.61,232.52Z"/><path class="cls-2" d="M285.81,227a7.54,7.54,0,0,1,5.85-3.38v4.41a5.45,5.45,0,0,0-3.7,1.49,7,7,0,0,0-2.15,4.88v10.85h-4.24v-21.1h4.24Z"/><path class="cls-2" d="M300.76,216.38a3,3,0,0,1,0,4.22,2.89,2.89,0,0,1-2.11.86,2.86,2.86,0,0,1-2.09-.86,3,3,0,0,1,0-4.22,2.86,2.86,0,0,1,2.09-.86A2.89,2.89,0,0,1,300.76,216.38Zm0,7.81v21.1h-4.24v-21.1Z"/><path class="cls-2" d="M325.58,225.67v-1.48h4.26v21.12h-4.26v-2.64a9.64,9.64,0,0,1-7.14,3.18,11.67,11.67,0,1,1,0-23.34A9.66,9.66,0,0,1,325.58,225.67Zm0,10.07v-3.12a6.94,6.94,0,0,0-2-3.61,7.35,7.35,0,0,0-10.35,0,7.3,7.3,0,0,0,0,10.33,7.34,7.34,0,0,0,10.35,0A7,7,0,0,0,325.58,235.74Z"/><path class="cls-2" d="M339.33,240.47a2.86,2.86,0,0,1,.87,2.1,2.9,2.9,0,0,1-.87,2.13,3,3,0,0,1-4.2,0,2.87,2.87,0,0,1-.88-2.13,2.83,2.83,0,0,1,.88-2.1,3,3,0,0,1,4.2,0Z"/></g></g></svg>