<svg xmlns="http://www.w3.org/2000/svg" viewBox="0 0 350 386.6"><defs><style>.cls-1{fill:#820000;}.cls-2{fill:#fff;}</style></defs><g id="Layer_2" data-name="Layer 2"><g id="layout"><polygon id="_2" data-name="2" class="cls-1" points="0 386.6 300.23 386.6 350 193.65 300.23 0 0 0 47.85 193.65 0 386.6"/><path class="cls-2" d="M86,97.6h3.88L103.4,121V97.6h4.27v32.82H104L90.24,106.71v23.71H86Z"/><path class="cls-2" d="M132.12,110.79v-1.48h4.26v21.13h-4.26v-2.65A9.66,9.66,0,0,1,125,131a11.67,11.67,0,1,1,0-23.34A9.67,9.67,0,0,1,132.12,110.79Zm0,10.07v-3.12a7,7,0,0,0-2-3.61,7.35,7.35,0,0,0-10.35,0A7.31,7.31,0,0,0,125,126.6a7.1,7.1,0,0,0,5.17-2.13A6.94,6.94,0,0,0,132.12,120.86Zm-6.77-18.64c.85.79,1.45,1.19,1.8,1.19v0c.41,0,.62-.27.62-.8a5.13,5.13,0,0,0-.27-1.42h3.82q-.78,4.52-3,5.17a4.09,4.09,0,0,1-1.15.16,3.91,3.91,0,0,1-2.74-1.16c-.81-.78-1.41-1.17-1.79-1.17h-.08c-.41,0-.62.29-.62.8a4.49,4.49,0,0,0,.29,1.35h-3.83q.8-4.52,3.05-5.17a4.14,4.14,0,0,1,1.15-.16A4,4,0,0,1,125.35,102.22Z"/><path class="cls-2" d="M153,107.59a11.71,11.71,0,1,1-8.24,3.43A11.22,11.22,0,0,1,153,107.59Zm-5.18,6.52A7.32,7.32,0,1,0,153,112,7.07,7.07,0,0,0,147.81,114.11Z"/><path class="cls-2" d="M186.67,109.31V101.4h4.24v7.91h3.8v4.25h-3.8v16.86h-4.24V113.56h-3.8v-4.25Z"/><path class="cls-2" d="M210.09,107.59a11.69,11.69,0,1,1-8.25,3.43A11.21,11.21,0,0,1,210.09,107.59Zm-5.18,6.52a7.3,7.3,0,1,0,5.18-2.15A7.08,7.08,0,0,0,204.91,114.11Z"/><path class="cls-2" d="M226.68,109.31h4.24v2a4.65,4.65,0,0,1,4.74-3.09,3.56,3.56,0,0,1,3.92,3.52q1-3.52,5.53-3.52t4.47,5.43v16.8h-4.26V115.57q0-3.12-2.52-3.12a2.52,2.52,0,0,0-1.81.74c-.5.49-.76,2.15-.76,5v12.27H236l0-14.85c0-2.08-.85-3.12-2.54-3.12a2.52,2.52,0,0,0-1.81.74c-.44.42-.68,1.54-.74,3.36v13.87h-4.24Z"/><path class="cls-2" d="M262.32,125.64c.71.63,2,.94,3.88.94a7.09,7.09,0,0,0,5.18-2.13c.18-.19.54-.62,1.09-1.27l4.25,1.51a25.75,25.75,0,0,1-2.26,2.85,11.67,11.67,0,1,1-1-17.45c.34.29.67.6,1,.93q.21.2,1.17,1.29l-2.13,2.15Zm7.1-13.13a6,6,0,0,0-3.22-.55,7.32,7.32,0,0,0-7.31,7.32,6.05,6.05,0,0,0,.56,3.22Z"/><path class="cls-2" d="M98.1,162.56a7.57,7.57,0,0,1,5.85-3.38v4.41a5.37,5.37,0,0,0-3.69,1.5A6.94,6.94,0,0,0,98.1,170v10.85H93.86V159.71H98.1Z"/><path class="cls-2" d="M114.55,176c.71.63,2,.94,3.88.94a7.09,7.09,0,0,0,5.18-2.13c.18-.19.54-.62,1.09-1.27l4.25,1.51a25.75,25.75,0,0,1-2.26,2.85,11.67,11.67,0,1,1-1-17.45c.34.29.67.6,1,.93q.21.2,1.17,1.29l-2.13,2.15Zm7.1-13.13a6,6,0,0,0-3.22-.55,7.31,7.31,0,0,0-7.3,7.32,6.08,6.08,0,0,0,.55,3.22Z"/><path class="cls-2" d="M133.87,159.71h4.24v2a4.65,4.65,0,0,1,4.74-3.09c2.33,0,3.63,1.17,3.92,3.52q1-3.53,5.53-3.52t4.48,5.43v16.8h-4.27V166q0-3.12-2.52-3.12a2.52,2.52,0,0,0-1.81.74c-.5.49-.76,2.15-.76,5v12.27h-4.24l0-14.85c0-2.08-.85-3.12-2.54-3.12a2.52,2.52,0,0,0-1.81.74c-.44.42-.68,1.54-.74,3.36v13.87h-4.24Z"/><path class="cls-2" d="M169.51,176c.71.63,2,.94,3.88.94a7.13,7.13,0,0,0,5.19-2.13c.17-.19.54-.62,1.08-1.27l4.25,1.51a25.75,25.75,0,0,1-2.26,2.85,11.67,11.67,0,1,1-1-17.45c.34.29.67.6,1,.93q.21.2,1.17,1.29l-2.13,2.15Zm7.1-13.13a6,6,0,0,0-3.22-.55,7.31,7.31,0,0,0-7.3,7.32,6.08,6.08,0,0,0,.55,3.22ZM174.06,152h5.17l-5.58,5.72h-4Z"/><path class="cls-2" d="M207.14,161.17V148h4.27v32.82h-4.27v-2.63a9.65,9.65,0,0,1-7.15,3.18A11.69,11.69,0,0,1,200,158,9.65,9.65,0,0,1,207.14,161.17Zm0,10.09v-3.14a6.8,6.8,0,0,0-2-3.61,7.29,7.29,0,0,0-10.34,0,7.31,7.31,0,0,0,10.34,10.34A6.79,6.79,0,0,0,207.14,171.26Z"/><path class="cls-2" d="M222.13,151.9a2.95,2.95,0,0,1,0,4.22,3,3,0,0,1-4.2,0,3,3,0,0,1,0-4.22,3,3,0,0,1,4.2,0Zm0,7.81v21.11h-4.24V159.71Z"/><path class="cls-2" d="M239.09,158a11.69,11.69,0,1,1-8.24,3.43A11.22,11.22,0,0,1,239.09,158Zm-5.17,6.52a7.3,7.3,0,1,0,5.17-2.15A7.08,7.08,0,0,0,233.92,164.51Z"/><path class="cls-2" d="M260,176.28a2.48,2.48,0,0,0,1.81.74,2.55,2.55,0,0,0,1.8-4.35,14.89,14.89,0,0,0-2.19-1.57,15.23,15.23,0,0,1-3.27-2.22,5.75,5.75,0,0,1,4.07-9.8,5.31,5.31,0,0,1,3.95,1.6,5.06,5.06,0,0,1,1.44,2.52l-4.12,1.19a1.94,1.94,0,0,0-.29-.68,1.35,1.35,0,0,0-1-.37,1.46,1.46,0,0,0-1.06.44,1.5,1.5,0,0,0,0,2.11,16,16,0,0,0,1.76,1.25,16.4,16.4,0,0,1,3.69,2.54,6.54,6.54,0,0,1,2,4.78,6.62,6.62,0,0,1-2,4.83,6.75,6.75,0,0,1-9.6,0,6.68,6.68,0,0,1-1.81-3.43l4.23-.9A2.54,2.54,0,0,0,260,176.28Z"/><path class="cls-2" d="M85.81,228.59v9.72H81.56v-28.2h4.25V212A9.18,9.18,0,0,1,93,208.41a11.68,11.68,0,0,1,0,23.36A9.67,9.67,0,0,1,85.81,228.59Zm0-10.15v3.3a6.76,6.76,0,0,0,2,3.53,7.33,7.33,0,1,0,0-10.36A6.76,6.76,0,0,0,85.81,218.44Z"/><path class="cls-2" d="M120.2,208.39a11.71,11.71,0,1,1-8.24,3.43A11.22,11.22,0,0,1,120.2,208.39ZM115,214.91a7.32,7.32,0,1,0,5.18-2.15A7.07,7.07,0,0,0,115,214.91Z"/><path class="cls-2" d="M141,213a7.54,7.54,0,0,1,5.84-3.38V214a5.41,5.41,0,0,0-3.69,1.5,6.89,6.89,0,0,0-2.15,4.88v10.85h-4.25V210.11H141Z"/><path class="cls-2" d="M182.24,224l4.24,1.51a27.37,27.37,0,0,1-2.25,2.85,11.69,11.69,0,1,1,0-16.52,29.84,29.84,0,0,1,2.25,2.8l-4.24,1.56q-.83-1-1.11-1.29A7.31,7.31,0,1,0,176,227.38a7.13,7.13,0,0,0,5.19-2.13C181.33,225.06,181.69,224.63,182.24,224Z"/><path class="cls-2" d="M201.84,208.39a11.71,11.71,0,1,1-8.24,3.43A11.22,11.22,0,0,1,201.84,208.39Zm-5.18,6.52a7.32,7.32,0,1,0,5.18-2.15A7.07,7.07,0,0,0,196.66,214.91Z"/><path class="cls-2" d="M222.7,215.77v15.45h-4.27V210.11h4.27v2.46a5.2,5.2,0,0,1,5.35-3.61,6.71,6.71,0,0,1,5.45,2.44,9.49,9.49,0,0,1,2.08,6.1v13.72h-4.25V217.66a4.21,4.21,0,0,0-1.33-3.13,4.55,4.55,0,0,0-6.34,0A4.91,4.91,0,0,0,222.7,215.77Z"/><path class="cls-2" d="M244.35,210.11V202.2h4.25v7.91h3.79v4.25H248.6v16.86h-4.25V214.36h-3.79v-4.25Z"/><path class="cls-2" d="M275.63,211.59v-1.48h4.26v21.13h-4.26v-2.65a9.64,9.64,0,0,1-7.14,3.18,11.67,11.67,0,0,1,0-23.34A9.66,9.66,0,0,1,275.63,211.59Zm0,10.07v-3.12a6.9,6.9,0,0,0-2-3.61,7.35,7.35,0,0,0-10.35,0,7.31,7.31,0,0,0,5.18,12.47,7.1,7.1,0,0,0,5.17-2.13A6.87,6.87,0,0,0,275.63,221.66Z"/><path class="cls-2" d="M115.34,279v9.72h-4.25v-28.2h4.25v1.91a9.18,9.18,0,0,1,7.16-3.61,11.68,11.68,0,0,1,0,23.36A9.67,9.67,0,0,1,115.34,279Zm0-10.15v3.3a6.76,6.76,0,0,0,2,3.53,7.32,7.32,0,0,0,12.49-5.19,7.32,7.32,0,0,0-7.32-7.32,7,7,0,0,0-5.17,2.15A6.76,6.76,0,0,0,115.34,268.84Z"/><path class="cls-2" d="M143.54,263.36a7.54,7.54,0,0,1,5.84-3.38v4.41a5.41,5.41,0,0,0-3.69,1.5,6.89,6.89,0,0,0-2.15,4.88v10.85h-4.25V260.51h4.25Z"/><path class="cls-2" d="M163.94,258.79a11.71,11.71,0,1,1-8.24,3.43A11.22,11.22,0,0,1,163.94,258.79Zm-5.18,6.52a7.32,7.32,0,0,0,10.36,10.34,7.32,7.32,0,1,0-10.36-10.34Zm6.43-12.55h5.17l-5.58,5.72h-4Z"/><path class="cls-2" d="M184.78,279v9.72h-4.25v-28.2h4.25v1.91a9.18,9.18,0,0,1,7.16-3.61,11.68,11.68,0,0,1,0,23.36A9.67,9.67,0,0,1,184.78,279Zm0-10.15v3.3a6.76,6.76,0,0,0,2,3.53,7.33,7.33,0,1,0,0-10.36A6.76,6.76,0,0,0,184.78,268.84Z"/><path class="cls-2" d="M213,263.36a7.54,7.54,0,0,1,5.84-3.38v4.41a5.41,5.41,0,0,0-3.69,1.5,6.89,6.89,0,0,0-2.15,4.88v10.85h-4.25V260.51H213Z"/><path class="cls-2" d="M227.93,252.7a3,3,0,0,1,0,4.22,3,3,0,0,1-4.21,0,3,3,0,0,1,0-4.22,3,3,0,0,1,4.21,0Zm0,7.81v21.11H223.7V260.51Z"/><path class="cls-2" d="M252.74,262v-1.48H257v21.13h-4.27V279a9.64,9.64,0,0,1-7.13,3.18,11.67,11.67,0,1,1,0-23.34A9.65,9.65,0,0,1,252.74,262Zm0,10.07v-3.12a6.83,6.83,0,0,0-2-3.61,7.3,7.3,0,1,0,0,10.34A6.8,6.8,0,0,0,252.74,272.06Z"/><path class="cls-2" d="M266.49,276.8a2.82,2.82,0,0,1,.87,2.09A3,3,0,0,1,262.3,281a2.84,2.84,0,0,1-.88-2.13,2.8,2.8,0,0,1,.88-2.09,3,3,0,0,1,4.19,0Z"/></g></g></svg>