<svg xmlns="http://www.w3.org/2000/svg" viewBox="0 0 224.01 224.01"><defs><style>.cls-1{fill:#bf8b77;}.cls-2{fill:#ce977c;}.cls-3{fill:#3d1a03;}.cls-4{fill:#280303;}.cls-5{fill:#f2f2e7;}.cls-6{fill:#a37669;}</style></defs><title>sintoma2</title><g id="Layer_2" data-name="Layer 2"><g id="Layer_1-2" data-name="Layer 1"><g id="FALA"><path class="cls-1" d="M174.74,204.8A112,112,0,0,1,35,193.33a98.22,98.22,0,0,0,4.89-12.7h0c8.32-26.43,9.26-59.15,9.35-63.72,0-.35,0-.54,0-.54,11.89,4.88,102.3,9.43,102.3,9.43,0,.16,0,.31.08.47a304.43,304.43,0,0,0,7.31,32.64A423.66,423.66,0,0,0,174.74,204.8Z"/><path class="cls-2" d="M214.7,67.24C204.07,91.1,186.88,106.76,169.4,117l0,0a137.85,137.85,0,0,1-17.81,8.75,148.91,148.91,0,0,1-43.16,10.58s-18.22.87-39.75-8.42a99.44,99.44,0,0,1-19.4-11c-11.8-8.59-23.31-21-32.28-38.81l0,0a138.14,138.14,0,0,1-6.1-14.14,112,112,0,0,1,202.53.38C213.83,65.26,214.27,66.24,214.7,67.24Z"/><path class="cls-3" d="M68.67,127.46l0,.5c-1.73,30.58-15.5,45.45-28.75,52.67h0a55.89,55.89,0,0,1-12.36,4.91A111.56,111.56,0,0,1,0,112,117.26,117.26,0,0,1,11,63.63c2.07,4.75,3.69,10.33,5.95,14.42l0,0c10.42,18.77,22.46,30.8,32.29,38.27C60.37,124.82,68.67,127.46,68.67,127.46Z"/><path class="cls-3" d="M224,112a111.42,111.42,0,0,1-21.22,65.59c-14-4.67-22.07-33.19-32.8-24.61a32.65,32.65,0,0,1-11.05,5.93c-7.67,2.3-13.21.45-13.21.45-11.49-7.66-1.75-30.73-1.75-30.73,2.75-1.06,5.44-1.87,8-3a143.58,143.58,0,0,0,17.38-8.58l0,0c23.83-14.6,36.77-32.95,44-52.74.47,1,.91,1.95,1.34,2.95A111.49,111.49,0,0,1,224,112Z"/><path class="cls-1" d="M126.1,51.54c-11.55,1-8.84-2-26.49,0-10.7,1.17-1.47-16.18,4-21.64,5.9-5.9,15.39-5.58,19.15,0C128.36,38.18,132.48,51,126.1,51.54Z"/><polygon class="cls-4" points="114.58 83.2 74.45 73.23 86.24 86.51 114.58 83.2"/><path class="cls-5" d="M115.76,83.08S92.22,70.58,74.46,72.9c4.81,9.29,36.18,9.46,36.18,9.46Z"/><path class="cls-1" d="M74.45,73s13.61,25.84,35.64,25,24.95-3.67,29.73-9.83c-2.64-3.52-14.32-7.4-20.07-5.69,0,0-3.86.31-10.94,1.15C98.57,84.86,84.72,86.54,74.45,73Z"/><path class="cls-6" d="M74.46,72.9c18.09-5.81,25.06-8.11,28.27-4.65,2,2.15,4.14,3.78,7.08,1.55,4-3,20.2,6.82,30,17.7C130.17,84,123.24,82.6,118.44,83c-10.3.91-16.21-1.77-19.87-4.5C78.43,68.79,74.26,74.46,74.46,72.9Z"/><path class="cls-1" d="M90.56,38.65s-28.77,17-26.56,34Z"/></g></g></g></svg>