<svg xmlns="http://www.w3.org/2000/svg" viewBox="0 0 224.02 224.02"><defs><style>.cls-1{fill:#fff;}.cls-2{fill:#8e8eb2;}.cls-3{fill:#3d3b3a;}.cls-4{fill:#ce977c;}.cls-5{fill:#bf8b77;}.cls-6,.cls-7{fill:none;stroke-miterlimit:10;}.cls-6{stroke:#ce977c;}.cls-7{stroke:#bf8b77;}</style></defs><title>sintoma3_1</title><g id="Layer_2" data-name="Layer 2"><g id="Layer_1-2" data-name="Layer 1"><circle class="cls-1" cx="112.01" cy="112.01" r="112.01"/><g id="BRAÇO"><path class="cls-2" d="M112.67,224c-3.13-34.2-5-57.58-5-57.58s1,23.33,2.06,57.56A111.67,111.67,0,0,1,28.37,186.5c-1.79-40.14-2.57-68.81-2.31-74.73C26.88,93,46.2,55.26,46.2,55.26L57.64,37.13l.07-.1,9.81-15.55L83.26,22,150.33,24s2.1,4.21,5.27,10.91c1.53,3.22,3.3,7,5.2,11.21,4,8.81,8.56,19.33,12.63,29.79.62,1.6,1.23,3.21,1.83,4.8s1.24,3.37,1.83,5c.48,1.34.94,2.67,1.38,4,2.88,8.52,5.05,16.43,5.85,22.63a28,28,0,0,1,.14,7.64c2.41,9.64,4.69,36.38,6.74,71.22A111.61,111.61,0,0,1,112.67,224Z"/><path class="cls-3" d="M170.61,16.55c-1,7.79-3.49,12.49-9.11,18.91-.51.59-1.05,1.2-1.62,1.82a6.91,6.91,0,0,0-4.28-2.36c-8.22-1.74-25.21,2.7-46.67,4.54l-2.06.16a219.72,219.72,0,0,1-49.1-2.46l-.13,0c-1.7-.3-3.31-.62-4.83-1-1.85-3.63-3.13-9.5-4-16.64,0-.19,0-.39-.07-.59l.22.49a112.08,112.08,0,0,1,113.77-7.29Q166.78,14.17,170.61,16.55Z"/><path class="cls-4" d="M190.16,31.78c0,.13,0,.26,0,.39-1.27,14.62-2.16,50.17-5.8,80.17,0,0,0,0,0,0-1.42,11.66-3.26,22.49-5.69,30.92a65.12,65.12,0,0,1-2.41,7.06c-6.75,4.19-11.6,6.54-14.59-.82a34.44,34.44,0,0,1-1.77-7.42h0c-1.61-10.91-1.75-29.07-1.29-47.6.09-3.52.2-7,.32-10.55.05-1.52.11-3,.17-4.54.11-2.83.23-5.62.36-8.35,0-.48.05-1,.07-1.43.12-2.57.25-5.08.38-7.51.31-5.92.63-11.36.93-16h0c.27-4.37.52-8,.7-10.66.22-3,.35-4.74.35-4.74s.36-7.66.89-18.59q4,2,7.87,4.42A111.55,111.55,0,0,1,190.16,31.78Z"/><path class="cls-4" d="M147.62,83.05,146,82.54c-54.85-17-81.68-32-86.61-42.49l-1.58-2.89L57.71,37C54.8,31.62,51.88,25.84,49,19.42A111.13,111.13,0,0,1,78.74,5C80.62,12,82.2,17.94,83.26,22c.91,3.48,1.43,5.51,1.43,5.51s9.26,4.4,22.18,12.15a288,288,0,0,1,41.67,29.91q2.39,2.09,4.7,4.26C159,79.22,155.21,85.38,147.62,83.05Z"/><path class="cls-5" d="M177.45,91.49,161.92,96.4l-13.61-7.77s-7.37-12.94,1.09-19.89l11.1-7-.35,5.82-1.05,3.3,6.79,5.07,20.55.08Z"/><polyline class="cls-6" points="158.34 79.05 163.14 81.41 183.97 80.23"/><polyline class="cls-6" points="158.34 83.56 163.55 87.14 181 85.35"/><polyline class="cls-6" points="159.47 89.18 163.14 92.45 177.45 91.49"/><path class="cls-4" d="M156.1,174s-2.57-18.94,3.76-31.88c1.58-3.24,6.23-10.76,17.75.07s1.68,45.13,1.68,45.13l-11.65,2-4-9.16-4.26-14.47,2,13.91Z"/><line class="cls-7" x1="164.23" y1="163.01" x2="170.66" y2="188.78"/><line class="cls-7" x1="170.66" y1="162.19" x2="174.15" y2="188.18"/><line class="cls-7" x1="177.31" y1="164.1" x2="177.9" y2="187.54"/></g></g></g></svg>