<svg xmlns="http://www.w3.org/2000/svg" viewBox="0 0 224.02 224.02"><defs><style>.cls-1{fill:#fff;}.cls-2{fill:#8e8eb2;}.cls-3{fill:#5959a5;}.cls-4{fill:#ce977c;}.cls-5{fill:none;stroke:#a37669;stroke-miterlimit:10;}.cls-6{fill:#bc8873;}</style></defs><title>sintoma4_1</title><g id="Layer_2" data-name="Layer 2"><g id="Layer_1-2" data-name="Layer 1"><circle class="cls-1" cx="112.01" cy="112.01" r="112.01"/><path class="cls-2" d="M164.48,211a111.17,111.17,0,0,1-50.22,13c-.34-16.14-.62-30.23-1-39.44-17.63-64-34.74-116.07-34.74-116.07s3.21,76.32,4.1,151.64a112.15,112.15,0,0,1-72-60.33c-1.91-31.65-3.36-61.15-4.36-85A112.2,112.2,0,0,1,56.54,14.69,110.64,110.64,0,0,1,81.7,4.15a112.62,112.62,0,0,1,60-.15q1,2.88,1.83,5.6A132.67,132.67,0,0,1,148,26.5c1,3.83,2.29,10.65,3.73,20.12q.19,1.26.39,2.58c1.05,7.18,2.15,15.72,3.19,25.5a997.8,997.8,0,0,1,5.27,104.67C162,191.75,163.28,202,164.48,211Z"/><path class="cls-3" d="M118.55,168.19s3.79,21.72,12.72,28.92Z"/><path class="cls-3" d="M151.71,159.12s6.13,21.19,1.26,31.58Z"/><path class="cls-4" d="M144.74,71.62,142,59.42s3.44-11.18,5.88-11.5,6.11-3.74,12.59,0,10.17,28,10.17,28-4.42,19.86-12.92,18.67c-.93-3.88-.44-13.69-.94-18.3l-7.31-7.88,2.21,15.74S146.59,82.33,144.74,71.62Z"/><polyline class="cls-5" points="159.34 67.55 161.56 74.57 157.69 94.54"/><polyline class="cls-5" points="163.92 67.55 165.07 75.31 160.45 94.17"/><path class="cls-4" d="M166.53,14.15c-1.15,9.9-2.77,21.35-5,34.62-.11.7-.23,1.39-.35,2.1a22.24,22.24,0,0,1-9.05-1.67,25.38,25.38,0,0,0-4.28-1.28c-2-12.39-3.39-25.7-4.28-38.32-.13-1.74-.24-3.47-.34-5.18A110.25,110.25,0,0,1,166.53,14.15Z"/><path class="cls-4" d="M91,65.06h0C73.88,43.77,63.26,27.41,56.54,14.69A110.64,110.64,0,0,1,81.7,4.15C86.79,16.83,92.88,33.49,100,55.31v0C102.18,62.17,95.46,70.63,91,65.06Z"/><path class="cls-4" d="M106,86.78S86.88,74,91.75,61.09c4.4-11.67,19.35-2.25,22.2-.32a40.74,40.74,0,0,1,3.59,3.29s2.4,2.08,4,9.94c-.65.69-2.13-.28-6.16-7.22-4.46-7.69,6.39,16.69,6.39,16.69L115,89.75Z"/><polygon class="cls-6" points="107.56 84.39 116.8 76.26 121.79 83.47 114.95 89.75 107.56 87.28 107.56 84.39"/></g></g></svg>