<svg xmlns="http://www.w3.org/2000/svg" viewBox="0 0 224.02 224.02"><defs><style>.cls-1{fill:#ce977c;}.cls-2{fill:#3d1a03;}.cls-3{fill:#aa7d6f;}.cls-4{fill:#bf8b77;}.cls-5{fill:none;}.cls-5,.cls-6{stroke:#000;stroke-miterlimit:10;stroke-width:2px;}</style></defs><title>sintoma1</title><g id="Layer_2" data-name="Layer 2"><g id="Layer_1-2" data-name="Layer 1"><g id="VISÃO"><path class="cls-1" d="M222.85,128.22q-.39,2.76-.94,5.48A112.08,112.08,0,0,1,77.07,218.45q-2.68-.87-5.3-1.88A111.91,111.91,0,0,1,0,112c0-.39,0-.78,0-1.16,0,0,0,0,0,0A210.16,210.16,0,0,1,7.76,71s0,0,0,0A112.25,112.25,0,0,1,103.23.34Q107.58,0,112,0a111.55,111.55,0,0,1,53.13,13.38,121.48,121.48,0,0,1,14.69,9.76S213.18,48.92,222.85,128.22Z"/><path class="cls-2" d="M16.75,53.08,1.83,132.26A112.65,112.65,0,0,1,0,112c0-.39,0-.78,0-1.16,0,0,0,0,0,0A111.17,111.17,0,0,1,7.76,71s0,0,0,0A111.76,111.76,0,0,1,16.75,53.08Z"/><path class="cls-2" d="M224,112a112.57,112.57,0,0,1-1.17,16.21q-.39,2.76-.94,5.48c-1.63-17.41-4.45-27.57-4.45-27.57-30.42-14-29-37.66-29-37.66C151.87,62,133.83,12.24,103.23.34Q107.58,0,112,0A112,112,0,0,1,224,112Z"/><path class="cls-2" d="M138.36,120.87c-.72.1-9-7.18-2.33-13.79,8.69-5.71,39.95-9.28,60.68-1.31,5.88,3.15,16.25,16.53,15.56,17-1.13.87-18-7.57-33.08-8.59C154.65,112.1,142.27,120.31,138.36,120.87Z"/><path class="cls-2" d="M87.3,126.26c.71.17,9.59-6.29,3.64-13.51-26.35-6.18-46.71-7.72-60.48-4.92-6.16,2.58-17.55,12.71-16.92,13.3,1.05,1,16.11-2.67,30.23-2.17C58.15,119.83,83.46,125.33,87.3,126.26Z"/><path class="cls-3" d="M95.13,130.28c14.66-5.85,4.5-20.1,4.5-20.1S105.72,122.6,95.13,130.28Z"/><path class="cls-4" d="M126.11,214.08c-11.55,1-8.85-2-26.5-.05-10.69,1.17-1.46-16.18,4-21.63,5.91-5.91,15.4-5.59,19.16,0C128.37,200.72,132.49,213.52,126.11,214.08Z"/><path class="cls-5" d="M32,152.18l-7.66-10.54c19.2-18.56,48.52-6.06,57.78,6.07"/><path class="cls-6" d="M71.75,146.52c0,6.21,0,2.23-11.24,1.84-12.77-.44-13.87,4.45-13.87-1.77s7.65-11.31,13.87-11.31A11.24,11.24,0,0,1,71.75,146.52Z"/><path class="cls-3" d="M78,155.05c-22.36-12.47-41.18,1.44-41.18,1.44A56,56,0,0,1,78,155.05Z"/><path class="cls-3" d="M149.36,157.75a23.72,23.72,0,0,0,23.53,9.68A33.71,33.71,0,0,1,149.36,157.75Z"/><path class="cls-5" d="M141.17,146.17c9.58-18.39,32.5-31.16,57.78-6.06l-7.66,10.53"/><circle class="cls-6" cx="167.23" cy="147.32" r="11.25"/><path class="cls-4" d="M90.56,201.19,77.07,218.45q-2.68-.87-5.3-1.88C79.63,207.64,90.56,201.19,90.56,201.19Z"/></g></g></g></svg>