<svg xmlns="http://www.w3.org/2000/svg" viewBox="0 0 308.06 124.94"><defs><style>.cls-1{fill:#e9b00c;}</style></defs><g id="Camada_2" data-name="Camada 2"><g id="layout"><g id="AVC"><path class="cls-1" d="M.08,120.12a26.31,26.31,0,0,1,.93-3c.35-.93.66-1.77.93-2.54L45.56,4.9a4.83,4.83,0,0,1,1.33-2,4,4,0,0,1,3-1.1h13a3.48,3.48,0,0,1,2.79,1,10.17,10.17,0,0,1,1.26,1.71l2.67,6.38,42.72,107.94a5.21,5.21,0,0,0,.12.86,5.52,5.52,0,0,1,.12,1c0,1.64-1.18,2.45-3.56,2.45H93.05a4.5,4.5,0,0,1-2.75-.73,5.5,5.5,0,0,1-1.62-2.29l-1.45-3.76c-1-2.61-2-5.23-3.08-7.84s-2-5.26-3-7.93H31.23q-2.1,5.72-4.08,10.75t-3.36,8.78a4.19,4.19,0,0,1-4.21,3H3.4a4.68,4.68,0,0,1-2.47-.57A1.88,1.88,0,0,1,0,120.86,2.66,2.66,0,0,1,.08,120.12ZM56.4,32.93Q52,44.21,47.7,56.3T39,79.59H73.47Z"/><path class="cls-1" d="M138.27,120.77c-.59-1.14-1.13-2.3-1.62-3.47s-1-2.38-1.45-3.64L92.72,6.21a2.91,2.91,0,0,0-.12-.69,3.93,3.93,0,0,1-.13-1.11c0-1.74,1.11-2.61,3.32-2.61h17.32a4.2,4.2,0,0,1,4.21,3.1Q119.09,10,121.64,17t5.43,14.62q2.87,7.72,5.9,15.81t5.91,15.69q2.87,7.61,5.34,14.26t4.17,11.4c1.18-3.16,2.59-7,4.2-11.4s3.36-9.19,5.22-14.26,3.79-10.29,5.79-15.69,3.94-10.66,5.83-15.81,3.68-10,5.38-14.62S178,8.33,179.22,4.9a4.29,4.29,0,0,1,4.37-3.1h17q3.64,0,3.64,2.69a4.49,4.49,0,0,1-.12,1.07,3.37,3.37,0,0,0-.12.65l-42.4,107.45c-.44,1.09-.87,2.2-1.3,3.31a32.64,32.64,0,0,1-1.45,3.23,4.52,4.52,0,0,1-3,2.53,20.5,20.5,0,0,1-4.45.41h-9.3a3.74,3.74,0,0,1-2.63-.73A5.14,5.14,0,0,1,138.27,120.77Z"/><path class="cls-1" d="M305.47,10.62A5.79,5.79,0,0,1,307.09,12a3.08,3.08,0,0,1,.65,2,4.15,4.15,0,0,1-.49,1.88L299.4,29.34a3.18,3.18,0,0,1-4,1.67,5.44,5.44,0,0,1-1.3-.61,42.85,42.85,0,0,0-10.92-5.72,37.17,37.17,0,0,0-12.38-2,35.88,35.88,0,0,0-15.13,3.14,37.19,37.19,0,0,0-11.9,8.54A39.07,39.07,0,0,0,235.92,47a43.19,43.19,0,0,0-2.79,15.6,42.64,42.64,0,0,0,2.79,15.49,39,39,0,0,0,7.81,12.62,36.27,36.27,0,0,0,27,11.61,38,38,0,0,0,12.5-2,41,41,0,0,0,11-5.72,3.65,3.65,0,0,1,1.33-.65c.46-.11.85-.19,1.17-.25a3.94,3.94,0,0,1,2.84,1.8l8,13.65a4.11,4.11,0,0,1,.48,1.8,2.64,2.64,0,0,1-.69,1.88,10.61,10.61,0,0,1-1.57,1.38,63.81,63.81,0,0,1-16.39,8,61.32,61.32,0,0,1-49.72-5.68,62,62,0,0,1-12.5-9.76,62.94,62.94,0,0,1-9.67-12.59,61,61,0,0,1-6.23-14.87A63.19,63.19,0,0,1,217.52,31a63.13,63.13,0,0,1,9.67-12.71,60.23,60.23,0,0,1,12.5-9.76,63,63,0,0,1,14.76-6.29,61.93,61.93,0,0,1,34.76.49A62.37,62.37,0,0,1,305.47,10.62Z"/></g></g></g></svg>